<svg xmlns="http://www.w3.org/2000/svg" viewBox="0 0 36 36" enable-background="new 0 0 36 36"><path d="M16.758 24.599v.792c0 .905.377 1.282 1.169 1.282h.113c.754 0 1.131-.415 1.131-1.282v-.83c2.376-.377 3.922-1.772 3.922-3.884 0-2.602-2.526-3.394-4.449-3.809-1.622-.377-2.866-.641-2.866-1.772 0-.943.98-1.622 2.376-1.622s2.715.679 3.469 1.584c.076.075 1.094-.49 1.094-1.395 0-1.018-1.245-2.036-3.507-2.3v-.716c0-.943-.34-1.32-1.131-1.32h-.113c-.792 0-1.131.415-1.131 1.32v.753c-2.225.415-3.658 1.848-3.658 3.771 0 2.678 2.376 3.394 4.224 3.809 1.508.339 2.941.641 2.941 1.848 0 .943-.981 1.622-2.489 1.622-1.621 0-3.13-.792-3.884-1.772-.076-.075-1.056.528-1.056 1.358-.001 1.092 1.431 2.261 3.845 2.563zm13.276-14.042l-1.088.674c-.168.104-.394.053-.501-.113 0 0-.163-.252-.356-.515-3.816-5.205-11.079-6.685-16.657-3.232-2.819 1.745-4.78 4.471-5.554 7.636l1.542.003c.287 0 .384.191.215.424l-2.527 3.485-.077.106c-.127.174-.332.174-.458-.001l-.9-1.251-1.69-2.349c-.168-.234-.071-.424.217-.424l1.627.003c.812-3.873 3.141-7.221 6.552-9.333 6.533-4.044 15.058-2.256 19.448 3.923l.319.471c.107.167.056.388-.112.493zm-24.063 14.885l1.088-.674c.168-.104.394-.053.502.113 0 0 .163.252.356.515 3.815 5.205 11.078 6.684 16.657 3.231 2.819-1.745 4.78-4.471 5.554-7.636l-1.542-.003c-.287 0-.384-.191-.215-.424l2.527-3.485.077-.106c.127-.174.333-.174.458.001l.9 1.251 1.69 2.35c.167.233.07.423-.217.423l-1.627-.003c-.812 3.873-3.141 7.221-6.552 9.333-6.533 4.044-15.058 2.256-19.448-3.923l-.319-.471c-.107-.166-.057-.387.111-.492z" fill="#0574ac"/></svg>