<svg xmlns="http://www.w3.org/2000/svg" viewBox="0 0 36 36" enable-background="new 0 0 36 36"><path d="M28.679 24.533c-.132-.065-2.986-1.462-6.87-2.172v2.996c-.083 3.145-2.999 5.609-6.639 5.609-3.638 0-6.554-2.464-6.638-5.609v-1.383c-.713.286-1.194.549-1.215.56l-.207.105c-.663.333-1.101.554-1.101 1.336v5.358c0 .817.663 1.482 1.479 1.482h21.026c.816 0 1.48-.665 1.48-1.482v-5.358c-.002-.92-.684-1.192-1.315-1.442zm-2.939 5.442c-.78 0-1.41-.628-1.41-1.404 0-.775.63-1.402 1.41-1.402.773 0 1.403.627 1.403 1.402 0 .776-.629 1.404-1.403 1.404zm-10.571-23.984c-.716 0-1.397.121-2.016.339v-2.145c0-.552-.448-1-1-1s-1 .448-1 1v3.403c-.701.725-1.123 1.643-1.123 2.644v15.085c.062 2.3 2.337 4.149 5.139 4.149 2.803 0 5.079-1.849 5.14-4.149v-15.085c0-2.344-2.299-4.241-5.14-4.241zm-1.729 19.14c0 .202-.165.369-.368.369h-.549c-.205 0-.37-.167-.37-.369v-.514c0-.204.165-.367.37-.367h.549c.203 0 .368.163.368.367v.514zm-1.32-4.812v-.513c0-.201.166-.365.37-.365h.549c.201 0 .368.164.368.365v.513c0 .206-.167.368-.368.368h-.549c-.205.001-.37-.162-.37-.368zm1.32 2.404c0 .203-.165.371-.368.371h-.549c-.205 0-.37-.168-.37-.371v-.509c0-.204.165-.367.37-.367h.549c.203 0 .368.163.368.367v.509zm2.391 2.408c0 .202-.165.369-.367.369h-.548c-.205 0-.372-.167-.372-.369v-.514c0-.204.167-.367.372-.367h.548c.202 0 .367.163.367.367v.514zm-1.319-4.812v-.513c0-.201.166-.365.364-.365h.554c.198 0 .364.164.364.365v.513c0 .206-.167.368-.364.368h-.554c-.198.001-.364-.162-.364-.368zm1.319 2.404c0 .203-.165.371-.367.371h-.548c-.205 0-.372-.168-.372-.371v-.509c0-.204.167-.367.372-.367h.548c.202 0 .367.163.367.367v.509zm2.39 2.408c0 .202-.162.369-.369.369h-.544c-.204 0-.371-.167-.371-.369v-.514c0-.204.167-.367.371-.367h.544c.207 0 .369.163.369.367v.514zm-1.318-4.812v-.513c0-.201.166-.365.366-.365h.551c.2 0 .364.164.364.365v.513c0 .206-.164.368-.364.368h-.551c-.2.001-.366-.162-.366-.368zm1.318 2.404c0 .203-.162.371-.369.371h-.544c-.204 0-.371-.168-.371-.371v-.509c0-.204.167-.367.371-.367h.544c.207 0 .369.163.369.367v.509zm.052-5.989c0 .297-.243.54-.54.54h-5.126c-.297 0-.54-.243-.54-.54v-6.294c0-.297.243-.54.54-.54h5.126c.297 0 .54.243.54.54v6.294z" fill="#0574ac"/></svg>