<?xml version="1.0" standalone="no"?>
<!DOCTYPE svg PUBLIC "-//W3C//DTD SVG 1.1//EN" "http://www.w3.org/Graphics/SVG/1.1/DTD/svg11.dtd" >
<svg xmlns="http://www.w3.org/2000/svg">
<metadata>Generated by IcoMoon</metadata>
<defs>
<font id="icoPrimary" horiz-adv-x="1024">
<font-face units-per-em="1024" ascent="716.8" descent="-307.2" />
<missing-glyph horiz-adv-x="1024" />
<glyph unicode="&#x20;" horiz-adv-x="174.08" d="" />
<glyph unicode="&#xe900;" glyph-name="manual" d="M275.911 604.444h523.378zM275.911 604.444h526.222zM819.2 604.444h-557.511c-54.044 0-85.333-39.822-85.333-79.644v-657.067c0-36.978 31.289-79.644 85.333-79.644h557.511c17.067 0 28.444 11.378 28.444 28.444s-11.378 28.444-28.444 28.444h-557.511c-19.911 0-28.444 14.222-28.444 22.756s8.533 22.756 28.444 22.756h557.511c17.067 0 28.444 11.378 28.444 28.444v657.067c0 14.222-11.378 28.444-28.444 28.444zM662.756 297.244c0-11.378-8.533-19.911-19.911-19.911h-236.089c-11.378 0-19.911 8.533-19.911 19.911v113.778c0 11.378 8.533 19.911 19.911 19.911h236.089c11.378 0 19.911-8.533 19.911-19.911v-113.778z" />
<glyph unicode="&#xe901;" glyph-name="bookmark" d="M847.644-9.956c0-17.067-11.378-28.444-28.444-28.444h-512c-51.2 0-73.956-36.978-73.956-62.578s22.756-62.578 73.956-62.578h512c17.067 0 28.444-11.378 28.444-28.444s-11.378-28.444-28.444-28.444h-512c-79.644 0-130.844 62.578-130.844 119.467v600.178c0 59.733 54.044 105.244 130.844 105.244h190.578v-395.378c0-5.689 5.689-8.533 11.378-5.689l96.711 45.511 96.711-45.511c5.689-2.844 11.378 2.844 11.378 5.689v395.378h88.178c25.6 0 45.511-19.911 45.511-45.511v-568.889zM347.022-81.067c-11.378 0-22.756-8.533-22.756-22.756 0-11.378 8.533-22.756 22.756-22.756h477.867c11.378 0 22.756 8.533 22.756 22.756 0 11.378-8.533 22.756-22.756 22.756h-477.867z" />
<glyph unicode="&#xe902;" glyph-name="addfolder" d="M125.156 180.622l25.6 110.933c8.533 39.822 42.667 68.267 85.333 68.267h597.333v28.444c0 19.911-17.067 39.822-39.822 39.822h-275.911l-76.8 71.111c-5.689 5.689-14.222 11.378-22.756 11.378h-216.178c-54.044 0-96.711-42.667-96.711-96.711v-233.244c2.844-14.222 17.067-14.222 19.911 0zM910.222 305.778c-5.689 8.533-14.222 11.378-25.6 11.378h-648.533c-19.911 0-39.822-17.067-42.667-36.978l-85.333-369.778c-2.844-11.378 0-19.911 8.533-28.444 5.689-2.844 14.222-8.533 25.6-8.533h654.222c19.911 0 39.822 17.067 42.667 36.978l76.8 366.933c2.844 11.378 0 22.756-5.689 28.444zM594.489 69.689h-54.044v-54.044c0-17.067-11.378-28.444-28.444-28.444s-28.444 11.378-28.444 28.444v54.044h-54.044c-17.067 0-28.444 11.378-28.444 28.444s11.378 28.444 28.444 28.444h54.044v54.044c0 17.067 11.378 28.444 28.444 28.444s28.444-11.378 28.444-28.444v-54.044h54.044c17.067 0 28.444-11.378 28.444-28.444s-14.222-28.444-28.444-28.444z" />
<glyph unicode="&#xe903;" glyph-name="addressbook" d="M847.644 331.378v179.2h25.6c25.6 0 42.667-19.911 42.667-42.667v-91.022c0-25.6-19.911-42.667-42.667-42.667h-25.6zM873.244 100.978c25.6 0 42.667 19.911 42.667 42.667v91.022c0 25.6-19.911 42.667-42.667 42.667h-25.6v-179.2h25.6zM873.244-126.578c25.6 0 42.667 19.911 42.667 42.667v91.022c0 25.6-19.911 42.667-42.667 42.667h-25.6v-179.2h25.6zM804.978 544.711v-705.422c0-22.756-19.911-42.667-42.667-42.667h-600.178c-22.756 0-42.667 19.911-42.667 42.667v705.422c0 22.756 19.911 42.667 42.667 42.667h600.178c22.756 0 42.667-19.911 42.667-42.667zM349.867 194.844l17.067 17.067c0 2.844 0 2.844-2.844 5.689-2.844 8.533-2.844 19.911-2.844 28.444v14.222c-5.689 2.844-11.378 5.689-19.911 5.689 11.378 8.533 19.911 17.067 22.756 31.289 0 5.689 2.844 11.378 2.844 14.222 0 31.289-25.6 56.889-56.889 56.889s-56.889-25.6-56.889-56.889c0-5.689 0-11.378 2.844-14.222 2.844-11.378 11.378-22.756 22.756-31.289h2.844c-19.911-5.689-34.133-14.222-42.667-22.756 0-2.844-2.844-2.844-2.844-5.689-2.844-5.689-5.689-11.378-5.689-17.067-5.689-17.067-11.378-39.822-11.378-54.044 0-5.689-2.844-11.378-2.844-14.222v-5.689c0-17.067 17.067-31.289 42.667-39.822 17.067-5.689 34.133-8.533 56.889-8.533h5.689c2.844 17.067 8.533 39.822 14.222 59.733 2.844 8.533 5.689 17.067 8.533 22.756 0 5.689 2.844 8.533 5.689 14.222zM566.044 72.533c0 2.844-2.844 8.533-2.844 14.222-2.844 22.756-11.378 56.889-19.911 76.8-5.689 14.222-25.6 25.6-48.356 31.289 11.378 8.533 19.911 19.911 25.6 34.133 2.844 5.689 2.844 11.378 2.844 17.067 0 31.289-25.6 59.733-59.733 59.733-31.289 0-59.733-25.6-59.733-59.733 0-5.689 0-11.378 2.844-17.067 2.844-14.222 11.378-25.6 22.756-31.289h2.844c-19.911-5.689-36.978-14.222-45.511-25.6 0-2.844-2.844-2.844-2.844-5.689l-8.533-17.067c-5.689-17.067-11.378-39.822-14.222-56.889 0-5.689-2.844-11.378-2.844-14.222v-5.689c0-17.067 17.067-31.289 45.511-39.822 17.067-5.689 36.978-8.533 59.733-8.533 59.733 0 105.244 22.756 105.244 48.356-2.844-5.689-2.844-2.844-2.844 0zM711.111 149.333c0 2.844 0 8.533-2.844 14.222-2.844 22.756-11.378 54.044-19.911 71.111-5.689 14.222-22.756 22.756-45.511 28.444 11.378 8.533 19.911 17.067 22.756 31.289 0 5.689 2.844 11.378 2.844 14.222 0 31.289-25.6 56.889-56.889 56.889s-56.889-25.6-56.889-56.889c0-5.689 0-11.378 2.844-14.222 2.844-11.378 11.378-22.756 22.756-31.289h2.844c-5.689-2.844-14.222-2.844-19.911-5.689v-14.222c0-8.533 0-19.911-2.844-28.444 0-2.844 0-2.844-2.844-5.689 11.378-8.533 17.067-17.067 22.756-28.444 8.533-17.067 17.067-45.511 22.756-85.333h5.689c54.044 0 99.556 19.911 99.556 48.356 2.844 2.844 2.844 2.844 2.844 5.689z" />
<glyph unicode="&#xe904;" glyph-name="addressbookL" d="M574.578 66.844c-5.689 25.6-11.378 59.733-22.756 79.644-5.689 14.222-19.911 22.756-36.978 31.289 5.689 8.533 11.378 17.067 14.222 25.6 2.844 5.689 2.844 11.378 2.844 19.911 0 39.822-31.289 68.267-71.111 68.267s-71.111-31.289-71.111-68.267c0-5.689 0-14.222 2.844-19.911 2.844-8.533 8.533-17.067 14.222-25.6-19.911-8.533-31.289-17.067-36.978-31.289-8.533-17.067-17.067-54.044-22.756-79.644 0-5.689-2.844-11.378-2.844-14.222v-8.533c0-34.133 51.2-59.733 116.622-59.733s116.622 25.6 116.622 59.733v8.533c0 5.689-2.844 8.533-2.844 14.222zM460.8 4.267c-54.044 0-93.867 19.911-93.867 39.822v5.689c0 2.844 2.844 8.533 2.844 14.222 5.689 34.133 14.222 59.733 19.911 73.956 5.689 11.378 19.911 19.911 42.667 25.6 5.689 0 8.533 2.844 8.533 8.533s0 8.533-5.689 11.378c-8.533 5.689-17.067 17.067-19.911 25.6 0 5.689-2.844 8.533-2.844 14.222 0 25.6 22.756 48.356 48.356 48.356s48.356-22.756 48.356-48.356c0-5.689 0-8.533-2.844-14.222-2.844-11.378-11.378-19.911-19.911-28.444-2.844-2.844-2.844-5.689-2.844-11.378 0-2.844 5.689-8.533 8.533-8.533 19.911-5.689 36.978-14.222 42.667-25.6s14.222-39.822 19.911-73.956c0-5.689 2.844-11.378 2.844-14.222v-5.689c0-14.222-42.667-36.978-96.711-36.978zM355.556 277.333c0 2.844 2.844 8.533 2.844 11.378 0 25.6-19.911 45.511-45.511 45.511s-45.511-19.911-45.511-45.511c0-2.844 0-8.533 2.844-11.378 2.844-11.378 8.533-19.911 19.911-25.6 2.844-2.844 5.689-5.689 5.689-11.378 0-2.844-2.844-8.533-8.533-8.533h-2.844c-19.911-5.689-34.133-14.222-39.822-22.756-5.689-11.378-14.222-36.978-19.911-68.267 0-5.689-2.844-11.378-2.844-14.222v-5.689c0-14.222 25.6-31.289 71.111-36.978h34.133c5.689 0 11.378-2.844 11.378-8.533s-2.844-11.378-8.533-11.378h-36.978c-54.044 5.689-88.178 28.444-88.178 56.889v8.533c0 2.844 0 8.533 2.844 14.222 5.689 25.6 11.378 56.889 19.911 73.956 5.689 11.378 17.067 22.756 34.133 28.444-5.689 8.533-11.378 14.222-14.222 25.6-2.844 5.689-2.844 11.378-2.844 17.067 0 36.978 31.289 65.422 65.422 65.422 36.978 0 65.422-31.289 65.422-65.422 0-5.689 0-11.378-2.844-19.911s-5.689-17.067-11.378-22.756c5.689-2.844 8.533-2.844 14.222-5.689h2.844c5.689-2.844 5.689-8.533 2.844-14.222s-11.378-5.689-14.222-2.844c-8.533 5.689-17.067 8.533-25.6 11.378-2.844 0-8.533 5.689-8.533 8.533s0 8.533 2.844 11.378c11.378 5.689 17.067 14.222 19.911 22.756zM722.489 132.267v-8.533c0-28.444-36.978-51.2-88.178-56.889h-36.978c-5.689 0-11.378 5.689-8.533 11.378 0 5.689 5.689 11.378 11.378 8.533h34.133c42.667 2.844 71.111 22.756 71.111 36.978v5.689c0 2.844 0 8.533-2.844 14.222-5.689 31.289-11.378 56.889-19.911 68.267-5.689 11.378-19.911 19.911-39.822 22.756-2.844 0-8.533 2.844-8.533 8.533 0 2.844 0 8.533 2.844 11.378 8.533 5.689 17.067 14.222 19.911 25.6 0 2.844 2.844 8.533 2.844 11.378 0 25.6-19.911 45.511-45.511 45.511s-45.511-19.911-45.511-45.511c0-2.844 0-8.533 2.844-11.378 2.844-11.378 8.533-19.911 17.067-25.6 2.844-2.844 5.689-5.689 5.689-11.378 0-2.844-2.844-8.533-8.533-8.533-11.378-2.844-19.911-5.689-25.6-8.533s-11.378-2.844-14.222 2.844c-2.844 5.689-2.844 11.378 2.844 14.222s8.533 5.689 14.222 5.689c-5.689 5.689-11.378 14.222-11.378 22.756-2.844 5.689-2.844 11.378-2.844 19.911 0 36.978 31.289 65.422 65.422 65.422 36.978 0 65.422-31.289 65.422-65.422 0-5.689 0-11.378-2.844-17.067-2.844-8.533-5.689-17.067-14.222-25.6 17.067-5.689 31.289-17.067 36.978-28.444 8.533-17.067 17.067-51.2 19.911-73.956 0-8.533 0-11.378 2.844-14.222zM915.911 450.844v-85.333c0-28.444-22.756-51.2-51.2-51.2h-17.067c-5.689 0-11.378 5.689-11.378 11.378s5.689 11.378 11.378 11.378h17.067c17.067 0 31.289 14.222 31.289 31.289v85.333c0 17.067-14.222 31.289-31.289 31.289h-17.067c-5.689 0-11.378 5.689-11.378 11.378s5.689 11.378 11.378 11.378h17.067c28.444-5.689 51.2-28.444 51.2-56.889zM915.911 234.667v-85.333c0-28.444-22.756-51.2-51.2-51.2h-17.067c-5.689 0-11.378 5.689-11.378 11.378s5.689 11.378 11.378 11.378h17.067c17.067 0 31.289 14.222 31.289 31.289v85.333c0 17.067-14.222 31.289-31.289 31.289h-17.067c-5.689 0-11.378 5.689-11.378 11.378s5.689 11.378 11.378 11.378h17.067c28.444-5.689 51.2-28.444 51.2-56.889zM915.911 18.489v-85.333c0-28.444-22.756-51.2-51.2-51.2h-17.067c-5.689 0-11.378 5.689-11.378 11.378s5.689 11.378 11.378 11.378h17.067c17.067 0 31.289 14.222 31.289 31.289v85.333c0 17.067-14.222 31.289-31.289 31.289h-17.067c-5.689 0-11.378 5.689-11.378 11.378s5.689 11.378 11.378 11.378h17.067c28.444-2.844 51.2-28.444 51.2-56.889zM762.311 598.756h-600.178c-31.289 0-54.044-25.6-54.044-54.044v-705.422c0-31.289 25.6-54.044 54.044-54.044h600.178c31.289 0 54.044 25.6 54.044 54.044v705.422c0 31.289-25.6 54.044-54.044 54.044zM793.6-160.711c0-17.067-14.222-34.133-34.133-34.133h-597.333c-17.067 0-34.133 14.222-34.133 34.133v705.422c0 17.067 14.222 34.133 34.133 34.133h600.178c17.067 0 34.133-14.222 34.133-34.133v-705.422z" />
<glyph unicode="&#xe905;" glyph-name="archive" d="M890.311 280.178v-108.089c0-17.067-14.222-31.289-31.289-31.289h-694.044c-17.067 0-31.289 14.222-31.289 31.289v108.089c0 17.067 14.222 31.289 31.289 31.289h696.889c14.222 0 28.444-14.222 28.444-31.289zM631.467 98.133v-48.356c0-17.067-14.222-31.289-31.289-31.289h-182.044c-17.067 0-31.289 14.222-31.289 31.289v48.356h-216.178v-295.822c0-17.067 14.222-31.289 31.289-31.289h620.089c17.067 0 31.289 14.222 31.289 31.289v295.822h-221.867zM668.444 510.578l-136.533-159.289-5.689-5.689c-8.533-8.533-19.911-8.533-28.444 0l-5.689 5.689-136.533 159.289c-8.533 11.378-5.689 22.756 11.378 22.756h68.267v85.333c0 8.533 5.689 14.222 14.222 14.222h128c8.533 0 14.222-5.689 14.222-14.222v-85.333h68.267c14.222 0 17.067-11.378 8.533-22.756z" />
<glyph unicode="&#xe906;" glyph-name="archivebox" d="M890.311 430.933v-108.089c0-17.067-14.222-31.289-31.289-31.289h-694.044c-17.067 0-31.289 14.222-31.289 31.289v108.089c0 17.067 14.222 31.289 31.289 31.289h696.889c14.222 0 28.444-14.222 28.444-31.289zM631.467 248.889v-48.356c0-17.067-14.222-31.289-31.289-31.289h-182.044c-17.067 0-31.289 14.222-31.289 31.289v48.356h-216.178v-295.822c0-17.067 14.222-31.289 31.289-31.289h620.089c17.067 0 31.289 14.222 31.289 31.289v295.822h-221.867z" />
<glyph unicode="&#xe907;" glyph-name="clipboard2" d="M676.978 533.333v-48.356c0-17.067-14.222-28.444-28.444-28.444h-270.222c-17.067 0-28.444 14.222-28.444 28.444v48.356c0 45.511 48.356 11.378 73.956 54.044 28.444 48.356 153.6 48.356 182.044 0 22.756-42.667 71.111-8.533 71.111-54.044zM782.222 550.4h-62.578c0-5.689 2.844-11.378 2.844-19.911v-51.2h39.822c5.689 0 11.378-5.689 11.378-11.378v-418.133h-139.378c-8.533 0-17.067 0-22.756-5.689-8.533-5.689-11.378-14.222-11.378-25.6v-147.911h-335.644c-5.689 0-11.378 5.689-11.378 11.378v591.644c0 5.689 5.689 11.378 11.378 11.378h39.822v48.356c0 5.689 0 14.222 2.844 19.911h-65.422c-31.289 0-54.044-25.6-54.044-54.044v-679.822c0-31.289 25.6-54.044 54.044-54.044h537.6c31.289 0 54.044 25.6 54.044 54.044v676.978c2.844 31.289-22.756 54.044-51.2 54.044zM768 7.111l-128-128v128h128z" />
<glyph unicode="&#xe908;" glyph-name="copy" d="M711.111 362.667l-96.711 96.711c-11.378 11.378-28.444 17.067-39.822 17.067h-406.756c-25.6 0-48.356-19.911-48.356-45.511v-648.533c0-25.6 22.756-45.511 48.356-45.511h512c25.6 0 48.356 19.911 48.356 45.511v543.289c-2.844 11.378-8.533 28.444-17.067 36.978zM662.756-189.156c0-8.533-5.689-14.222-14.222-14.222h-455.111c-8.533 0-14.222 5.689-14.222 14.222v591.644c0 8.533 5.689 14.222 14.222 14.222h361.244v-96.711c0-5.689 5.689-8.533 8.533-8.533h96.711l2.844-500.622zM887.467 533.333l-96.711 96.711c-8.533 11.378-25.6 17.067-39.822 17.067h-406.756c-25.6 0-48.356-19.911-48.356-45.511v-82.489h62.578v54.044c0 8.533 5.689 14.222 14.222 14.222h361.244v-96.711c0-5.689 5.689-8.533 8.533-8.533h96.711v-497.778c0-8.533-5.689-14.222-14.222-14.222h-56.889v-62.578h88.178c25.6 0 48.356 19.911 48.356 45.511v543.289c0 11.378-8.533 28.444-17.067 36.978z" />
<glyph unicode="&#xe909;" d="M512 169.244c-11.378 0-22.756 11.378-22.756 22.756s11.378 22.756 22.756 22.756 22.756-11.378 22.756-22.756-11.378-22.756-22.756-22.756z" />
<glyph unicode="&#xe90a;" d="M890.311-112.356c19.911-19.911 14.222-36.978-14.222-36.978h-88.178c-17.067 0-39.822 8.533-51.2 22.756l-204.8 204.8 85.333 85.333 273.067-275.911zM392.533 1.422c2.844-14.222 5.689-25.6 5.689-39.822 0-76.8-62.578-136.533-136.533-136.533s-136.533 62.578-136.533 136.533 62.578 136.533 136.533 136.533c17.067 0 34.133-2.844 48.356-8.533l102.4 102.4-105.244 105.244c-14.222-5.689-31.289-8.533-48.356-8.533-76.8 0-136.533 62.578-136.533 136.533s62.578 136.533 139.378 136.533 136.533-62.578 136.533-136.533c0-14.222-2.844-28.444-5.689-39.822l108.089-108.089 233.244 233.244c11.378 14.222 34.133 22.756 51.2 22.756h88.178c28.444 0 34.133-17.067 14.222-36.978l-494.933-494.933zM261.689 342.756c45.511 0 79.644 36.978 79.644 79.644s-34.133 82.489-79.644 82.489-82.489-36.978-82.489-79.644 36.978-82.489 82.489-82.489zM497.778 226.133c-19.911 0-34.133-14.222-34.133-34.133s14.222-34.133 34.133-34.133 34.133 14.222 34.133 34.133-14.222 34.133-34.133 34.133zM341.333-41.244c0 45.511-36.978 79.644-79.644 79.644s-79.644-36.978-79.644-79.644 34.133-79.644 79.644-79.644 79.644 36.978 79.644 79.644z" />
<glyph unicode="&#xe90b;" glyph-name="inbox" d="M901.689 206.222h-230.4c-11.378 0-22.756-8.533-22.756-19.911 0 0 0-14.222-5.689-28.444-19.911-51.2-71.111-91.022-130.844-91.022-62.578 0-113.778 39.822-133.689 96.711-5.689 14.222-5.689 22.756-5.689 22.756 0 11.378-11.378 19.911-22.756 19.911h-227.556c-19.911 0-39.822-17.067-39.822-39.822v-193.422c2.844-19.911 19.911-36.978 39.822-36.978h779.378c19.911 0 39.822 17.067 39.822 39.822v193.422c-2.844 19.911-19.911 36.978-39.822 36.978z" />
<glyph unicode="&#xe90c;" glyph-name="movetoinbox" d="M938.667 46.933v-193.422c0-19.911-17.067-39.822-39.822-39.822h-776.533c-19.911 0-39.822 17.067-39.822 39.822v193.422c0 19.911 17.067 39.822 39.822 39.822h230.4c11.378 0 19.911-8.533 22.756-19.911 0 0 0-8.533 5.689-22.756 17.067-56.889 71.111-96.711 133.689-96.711 59.733 0 110.933 36.978 130.844 91.022 5.689 14.222 5.689 28.444 5.689 28.444 0 11.378 11.378 19.911 22.756 19.911h230.4c17.067-2.844 34.133-19.911 34.133-39.822zM728.178 308.622l-196.267-230.4c-11.378-11.378-28.444-11.378-39.822 0l-196.267 230.4c-14.222 17.067-8.533 31.289 14.222 31.289h93.867v224.711c0 11.378 8.533 17.067 17.067 17.067h179.2c11.378 0 17.067-8.533 17.067-17.067v-224.711h93.867c25.6 0 31.289-14.222 17.067-31.289z" />
<glyph unicode="&#xe90d;" glyph-name="unarchive" d="M366.933 453.689h68.267v-88.178c0-8.533 5.689-14.222 14.222-14.222h128c8.533 0 14.222 5.689 14.222 14.222v88.178h68.267c17.067 0 19.911 8.533 11.378 22.756l-136.533 159.289-5.689 5.689c-8.533 8.533-19.911 8.533-28.444 0l-5.689-5.689-139.378-159.289c-8.533-14.222-5.689-22.756 11.378-22.756zM890.311 280.178v-108.089c0-17.067-14.222-31.289-31.289-31.289h-694.044c-17.067 0-31.289 14.222-31.289 31.289v108.089c0 17.067 14.222 31.289 31.289 31.289h696.889c14.222 0 28.444-14.222 28.444-31.289zM853.333 98.133v-295.822c0-17.067-14.222-31.289-31.289-31.289h-620.089c-17.067 0-31.289 14.222-31.289 31.289v295.822h221.867v-48.356c0-17.067 14.222-31.289 31.289-31.289h182.044c17.067 0 31.289 14.222 31.289 31.289v48.356h216.178z" />
<glyph unicode="&#xeb27;" glyph-name="searchfind" d="M519.31 344.576c-34.219 34.19-79.701 53.020-128.028 53.020s-93.781-18.83-127.972-53.020c-34.19-34.19-53.020-79.644-53.020-128 0-35.612 10.297-69.803 29.895-99.413l-133.86-133.86c-6.77-6.77-10.496-15.758-10.496-25.316 0-9.586 3.726-18.574 10.496-25.372 6.77-6.741 15.787-10.468 25.316-10.468 9.557 0 18.546 3.726 25.344 10.496l133.632 133.66c29.895-20.139 64.512-30.748 100.665-30.748 48.356 0 93.838 18.83 128.028 53.020 34.19 34.219 53.020 79.673 53.020 128 0 48.299-18.83 93.781-53.020 128zM391.083 326.343c60.416 0 109.568-49.152 109.568-109.568s-49.152-109.568-109.568-109.568c-60.416 0-109.568 49.152-109.568 109.568s49.152 109.568 109.568 109.568zM842.695 448.768l-0.028-592.185c0-27.648-23.040-50.119-51.371-50.119h-558.507c-28.388 0-51.456 22.471-51.456 50.119v41.102l5.746 4.722 61.81 61.81v-75.975c0-7.822 6.4-14.222 14.222-14.222h497.778c7.822 0 14.222 6.4 14.222 14.222l0.028 541.895h-107.065c-5.888 0-10.667 4.779-10.667 10.667v107.065h-394.325c-7.822 0-14.222-6.4-14.222-14.222v-144.668c-5.433-4.494-10.667-9.216-15.73-14.251-23.467-23.438-40.818-51.285-51.826-81.522v272.1c0 27.648 23.097 50.148 51.484 50.148h443.25c14.194 0 32.455-7.566 42.496-17.607l106.553-106.553c10.041-10.069 17.607-28.331 17.607-42.524z" />
<glyph unicode="&#xeb28;" glyph-name="searchfindL" d="M890.112 491.378l-106.553 106.553c-10.069 10.012-28.331 17.579-42.496 17.579h-443.278c-28.388 0-51.484-22.5-51.484-50.148l0.057-186.055c0-5.888 4.779-10.667 10.667-10.667s10.667 4.779 10.667 10.667l-0.028 186.084c0 15.872 13.511 28.814 30.151 28.814h443.278c2.873 0 6.315-0.796 9.785-1.877v-122.965c0-5.888 4.779-10.667 10.667-10.667h122.994c1.081-3.499 1.849-6.94 1.849-9.813l-0.057-592.185c0-15.9-13.483-28.814-30.037-28.814h-558.507c-5.888 0-10.667-4.779-10.667-10.667s4.779-10.667 10.667-10.667h558.507c28.331 0 51.371 22.5 51.371 50.148l0.028 592.185c0 14.194-7.538 32.455-17.579 42.496zM772.181 579.129l99.072-99.1h-99.072v99.1zM435.314 35.641c48.356 0 93.838 18.83 128.028 53.020 34.19 34.219 52.992 79.673 52.992 128s-18.83 93.781-52.992 128c-34.219 34.19-79.701 52.992-128.028 52.992s-93.781-18.83-127.972-53.020c-34.19-34.19-53.049-79.644-53.049-128 0-35.612 10.325-69.803 29.895-99.413l-133.86-133.831c-6.77-6.77-10.496-15.758-10.496-25.344s3.726-18.574 10.496-25.372c6.798-6.741 15.787-10.468 25.344-10.468s18.517 3.726 25.316 10.496l133.66 133.66c29.895-20.11 64.512-30.72 100.665-30.72zM325.945 87.836l-140.004-140.004c-5.49-5.49-15.047-5.461-20.508-0.028-2.731 2.731-4.238 6.372-4.238 10.268 0 3.868 1.508 7.509 4.238 10.24l140.174 140.174c3.726 3.726 4.181 9.614 1.052 13.852-20.281 27.591-31.004 60.188-31.004 94.322 0 42.638 16.612 82.745 46.791 112.924 30.18 30.151 70.258 46.763 112.896 46.763s82.745-16.612 112.924-46.763c30.151-30.18 46.763-70.286 46.763-112.924s-16.583-82.745-46.763-112.924c-30.151-30.151-70.286-46.763-112.924-46.763-34.617 0-67.612 11.036-95.431 31.858-4.295 3.186-10.212 2.759-13.966-0.996zM342.926 293.973c-4.181 4.153-4.181 10.923 0 15.076 24.69 24.69 57.515 38.286 92.388 38.286s67.726-13.596 92.444-38.286c24.69-24.661 38.286-57.486 38.286-92.416s-13.596-67.755-38.286-92.444c-24.718-24.69-57.543-38.286-92.444-38.286-5.888 0-10.667 4.779-10.667 10.667s4.779 10.667 10.667 10.667c29.212 0 56.69 11.378 77.369 32.028 20.651 20.651 32.028 48.1 32.028 77.34 0 29.212-11.378 56.69-32.028 77.312-20.679 20.651-48.156 32.057-77.369 32.057-29.184 0-56.633-11.378-77.312-32.057-4.181-4.096-10.923-4.096-15.076 0.057z" />
<glyph unicode="&#xeb29;" glyph-name="saveforlater" d="M106.809 180.139v232.818c0 53.163 43.321 96.427 96.569 96.427h214.642c9.045 0 17.948-3.527 24.462-9.7l77.369-71.822h275.285c21.248 0 38.542-17.266 38.542-38.514v-27.847h-597.532c-40.732 0-76.743-29.838-84.366-69.66l-25.941-111.73c-3.356-14.421-19.029-12.572-19.029 0.028zM768.398 149.333c41.614 0 80.356-12.146 113.209-32.853l34.503 161.963c2.56 10.468 0.569 20.907-5.461 28.558-5.888 7.509-15.246 11.833-25.628 11.833h-648.875c-20.395 0-39.14-15.929-42.581-35.698l-85.646-368.725c-1.764-10.382 0.825-20.594 7.14-28.075s15.531-11.605 25.913-11.605l423.196-0.057c-5.86 19.456-9.102 40.021-9.102 61.355 0 117.589 95.716 213.305 213.333 213.305zM768.398 64c-70.571 0-128-57.429-128-128s57.429-128 128-128 128 57.429 128 128-57.401 128-128 128zM768.398 106.667c94.265 0 170.667-76.43 170.667-170.667s-76.402-170.667-170.667-170.667c-94.236 0-170.667 76.402-170.667 170.667s76.43 170.667 170.667 170.667zM734.236-126.151l48.896 46.763c4.21 4.011 6.599 9.586 6.599 15.417v67.925c0 11.776-9.557 21.333-21.333 21.333s-21.333-9.557-21.333-21.333v-58.795l-42.297-40.448c-8.505-8.135-8.818-21.646-0.683-30.151 4.181-4.38 9.785-6.599 15.417-6.599 5.291-0.028 10.581 1.934 14.734 5.888z" />
<glyph unicode="&#xeb2a;" glyph-name="salesreportL" d="M539.648-23.666c22.812 0 41.387 18.574 41.387 41.387v203.691c0 22.812-18.574 41.387-41.387 41.387h-54.983c-22.812 0-41.387-18.574-41.387-41.387v-203.691c0-22.812 18.574-41.387 41.387-41.387h54.983zM464.612 17.721v203.691c0 11.065 8.988 20.053 20.053 20.053h54.983c11.036 0 20.053-8.988 20.053-20.053v-203.691c0-11.065-8.988-20.053-20.053-20.053h-54.983c-11.065 0-20.053 8.988-20.053 20.053zM369.18-23.666c22.841 0 41.415 18.574 41.415 41.387v96.768c0 22.812-18.574 41.387-41.415 41.387h-54.955c-22.841 0-41.387-18.546-41.387-41.387v-96.768c0-22.812 18.574-41.387 41.387-41.387h54.955zM294.172 17.721v96.768c0 11.065 8.988 20.053 20.053 20.053h54.955c11.065 0 20.082-8.988 20.082-20.053v-96.768c0-11.065-8.988-20.053-20.082-20.053h-54.955c-11.065 0-20.053 8.988-20.053 20.053zM842.837 101.49l0.028 347.705c0 14.194-7.595 32.455-17.607 42.496l-106.553 106.553c-10.012 10.041-28.302 17.607-42.496 17.607h-443.278c-28.388 0-51.484-22.5-51.484-50.119l0.085-554.012c0-5.916 4.779-10.667 10.667-10.667s10.667 4.779 10.667 10.667l-0.057 554.012c0 15.872 13.511 28.786 30.151 28.786h443.25c4.722 0 10.752-1.764 16.327-4.295v-120.548c0-5.888 4.779-10.667 10.667-10.667h116.48c1.081-3.499 1.877-6.94 1.877-9.813l-0.028-339.456c-16.868 5.205-34.788 8.021-53.333 8.021-5.632 0-11.179-0.341-16.668-0.853v220.814c0 22.812-18.574 41.387-41.387 41.387h-54.983c-22.841 0-41.415-18.574-41.415-41.387v-306.773c-16.924-27.563-26.88-59.847-26.88-94.521 0-40.59 13.54-77.966 36.153-108.231h-390.087c-5.888 0-10.667-4.779-10.667-10.667s4.779-10.667 10.667-10.667h408.576c32.711-31.972 77.397-51.769 126.635-51.769 99.982 0 181.333 81.351 181.333 181.333 0.028 73.358-43.833 136.533-106.638 165.063zM713.842 572.928l92.558-92.558h-92.558v92.558zM635.022 337.721c0 11.065 8.988 20.053 20.082 20.053h54.983c11.065 0 20.053-8.988 20.053-20.053v-224.028c-37.234-7.964-70.172-27.506-95.118-54.556v278.585zM768.171-223.573c-88.235 0-160 71.765-160 160s71.765 160 160 160c88.206 0 160-71.765 160-160 0-88.206-71.794-160-160-160zM775.367-54.67v63.403c18.005-2.048 32.74-11.15 39.794-23.637 0.569-0.796 10.667 3.186 10.667 10.923 0 10.382-18.916 27.164-49.806 29.554v15.161c0 6.4-2.389 8.249-6.884 8.249h-1.877c-4.494 0-7.168-1.877-7.168-8.249v-15.445c-27.932-3.47-49.237-22.898-49.237-46.82 0-31.147 24.604-41.529 49.408-47.758v-65.82c-20.309 2.759-35.243 13.227-43.321 27.022-0.512 0.796-10.638-3.186-10.638-10.923 0-11.435 20.764-30.066 53.248-33.252v-16.242c0-6.4 2.389-8.249 6.912-8.249h1.849c4.523 0 7.196 1.877 7.196 8.249v15.986c30.862 2.389 53.76 22.357 53.76 48.156 0 33.024-27.25 43.264-53.902 49.692zM760.235-50.83c-19.086 5.291-31.573 12.089-31.573 29.497 0 15.388 13.255 27.506 31.573 30.265v-59.762zM775.367-135.936v62.777c19.911-5.404 36.068-12.914 36.068-32 0.028-16.469-14.791-28.9-36.068-30.777z" />
<glyph unicode="&#xeb2b;" glyph-name="salesreport" d="M768 106.667c-94.236 0-170.667-76.402-170.667-170.667s76.43-170.667 170.667-170.667 170.667 76.43 170.667 170.667-76.43 170.667-170.667 170.667zM784.384-150.187v-11.093c0-12.032-4.807-17.806-15.417-17.806h-1.451c-11.065 0-15.417 5.291-15.417 17.806v10.126c-32.74 3.84-51.058 18.773-51.058 33.707 0 11.065 12.999 19.257 13.966 18.29 10.126-12.032 30.35-22.158 51.541-22.158 19.257 0 30.35 7.708 30.35 20.224 0 15.417-16.839 19.257-36.608 23.609-24.092 5.291-54.898 14.933-54.898 50.574 0 25.515 18.29 43.833 47.189 49.124v10.581c0 12.032 4.807 18.29 15.417 18.29h1.451c11.065 0 14.933-5.774 14.933-18.29v-9.643c30.35-2.901 46.706-16.384 46.706-30.35 0-12.032-13.483-20.224-14.45-19.257-10.126 12.032-27.449 21.191-45.739 21.191s-29.383-8.676-29.383-21.191c0-13.966 14.933-17.806 36.124-22.642 24.548-5.291 57.316-15.417 57.316-50.091-0.028-27.42-19.285-46.194-50.574-51.001zM417.82 85.589v-96.768c0-16.896-13.824-30.72-30.748-30.72h-36.295c-16.924 0-30.748 13.824-30.748 30.72v96.768c0 16.896 13.824 30.72 30.748 30.72h36.295c16.924 0 30.748-13.824 30.748-30.72zM560.697-11.15l-0.569-5.547-0.626-2.389c-3.527-13.056-15.388-22.784-29.525-22.784h-36.38c-16.896 0-30.72 13.824-30.72 30.72v203.691c0 16.896 13.824 30.72 30.72 30.72h36.38c16.896 0 30.72-13.824 30.72-30.72v-203.691zM605.355 73.728v235.122c0 16.896 13.852 30.72 30.748 30.72h37.177c16.896 0 30.72-13.824 30.72-30.72v-169.358c-38.884-12.26-72.875-35.385-98.645-65.764zM563.911-125.98c7.538-24.747 19.57-47.502 34.987-67.556h-366.108c-28.388 0-51.456 22.5-51.456 50.119l-0.028 708.722c0 27.648 23.097 50.148 51.484 50.148h443.25c14.194 0 32.455-7.566 42.496-17.607l106.553-106.553c10.041-10.041 17.607-28.302 17.607-42.496v-313.202c-21.163 7.936-43.861 12.601-67.556 13.397v281.173h-107.065c-5.888 0-10.667 4.779-10.667 10.667v107.036h-394.325c-7.822 0-14.222-6.4-14.222-14.222l0.028-645.404c0-7.822 6.4-14.222 14.222-14.222h300.8z" />
<glyph unicode="&#xeb2c;" glyph-name="resourcesL" d="M85.703 133.973v274.972c0 55.666 45.369 100.949 101.092 100.949h225.934c9.33 0 18.574-3.669 25.372-10.041l81.607-75.776h290.020c22.044 0 39.993-17.92 39.993-39.964 0-5.888-4.779-10.667-10.667-10.667s-10.667 4.779-10.667 10.667c0 10.268-8.391 18.631-18.66 18.631h-294.201c-2.702 0-5.291 1.024-7.253 2.844l-84.736 78.677c-2.93 2.731-6.827 4.295-10.78 4.295h-225.963c-43.975 0-79.758-35.726-79.758-79.616v-274.972c0-5.888-4.779-10.667-10.667-10.667s-10.667 4.779-10.667 10.667zM949.447-64.142c0-99.982-81.351-181.333-181.333-181.333-81.436 0-150.5 53.988-173.312 128.057l-473.685 0.085c-10.951 0-20.651 4.324-27.307 12.231-6.741 7.993-9.387 18.489-7.509 29.554l90.14 388.181c3.641 20.821 23.381 37.575 44.828 37.575h683.065c10.923 0 20.764-4.523 26.965-12.459 6.343-8.078 8.42-19.058 5.717-30.094l-50.091-235.179c38.229-33.28 62.521-82.119 62.521-136.619zM589.767-96.085c-1.849 10.382-2.987 21.020-2.987 31.943 0 99.982 81.323 181.333 181.333 181.333 37.006 0 71.424-11.207 100.153-30.293l48.043 225.508c1.195 5.006 0.597 9.216-1.735 12.146-2.162 2.759-5.774 4.295-10.183 4.295h-683.093c-11.036 0-21.988-9.387-23.95-20.508l-90.14-388.096c-0.683-4.153 0.313-8.476 2.93-11.605 2.532-2.987 6.428-4.636 11.008-4.636l468.622-0.085zM928.114-64.142c0 88.235-71.765 160-160 160-88.206 0-160-71.765-160-160s71.794-160 160-160 160 71.794 160 160zM841.984 7.708h-147.74c-5.888 0-10.667-4.779-10.667-10.667s4.779-10.667 10.667-10.667h147.74c5.888 0 10.667 4.779 10.667 10.667s-4.779 10.667-10.667 10.667zM841.984-53.476h-147.74c-5.888 0-10.667-4.779-10.667-10.667s4.779-10.667 10.667-10.667h147.74c5.888 0 10.667 4.779 10.667 10.667s-4.779 10.667-10.667 10.667zM841.984-114.631h-147.74c-5.888 0-10.667-4.779-10.667-10.667s4.779-10.667 10.667-10.667h147.74c5.888 0 10.667 4.779 10.667 10.667s-4.779 10.667-10.667 10.667z" />
<glyph unicode="&#xeb2d;" glyph-name="resources" d="M757.476 106.667c-94.236 0-170.667-76.43-170.667-170.667s76.43-170.667 170.667-170.667 170.667 76.402 170.667 170.667-76.43 170.667-170.667 170.667zM831.346-157.156h-147.74c-9.813 0-17.778 7.964-17.778 17.778s7.964 17.778 17.778 17.778h147.74c9.813 0 17.778-7.964 17.778-17.778 0-9.842-7.964-17.778-17.778-17.778zM831.346-81.778h-147.74c-9.813 0-17.778 7.964-17.778 17.778s7.964 17.778 17.778 17.778h147.74c9.813 0 17.778-7.964 17.778-17.778s-7.964-17.778-17.778-17.778zM831.346-6.4h-147.74c-9.813 0-17.778 7.964-17.778 17.778s7.964 17.778 17.778 17.778h147.74c9.813 0 17.778-7.964 17.778-17.778s-7.964-17.778-17.778-17.778zM95.858 180.139v232.818c0 53.163 43.321 96.427 96.569 96.427h214.642c9.045 0 17.948-3.527 24.462-9.7l77.369-71.822h275.285c21.248 0 38.542-17.266 38.542-38.514v-27.847h-597.532c-40.732 0-76.743-29.838-84.366-69.66l-25.941-111.73c-3.356-14.421-19.029-12.572-19.029 0.028zM544.142-64c0-21.333 3.243-41.899 9.074-61.355l-423.168 0.057c-10.411 0-19.598 4.124-25.913 11.605s-8.932 17.721-7.14 28.075l85.618 368.782c3.442 19.769 22.187 35.698 42.581 35.698h648.903c10.382 0 19.712-4.324 25.628-11.833 6.030-7.68 7.993-18.091 5.461-28.558l-34.503-161.963c-32.853 20.679-71.595 32.853-113.209 32.853-117.646-0.028-213.333-95.744-213.333-213.362z" />
<glyph unicode="&#xeb2e;" glyph-name="reportL" d="M712.22-24.832c22.812 0 41.387 18.574 41.387 41.387v320c0 22.812-18.574 41.387-41.387 41.387h-54.983c-22.841 0-41.415-18.546-41.415-41.387v-320c0-22.812 18.574-41.387 41.415-41.387h54.983zM637.156 16.555v320c0 11.065 8.988 20.053 20.082 20.053h54.983c11.065 0 20.053-8.988 20.053-20.053v-320c0-11.065-8.988-20.053-20.053-20.053h-54.983c-11.093 0-20.082 8.988-20.082 20.053zM541.781-24.832c22.812 0 41.387 18.574 41.387 41.387v203.691c0 22.812-18.574 41.387-41.387 41.387h-55.012c-22.812 0-41.387-18.574-41.387-41.387v-203.691c0-22.812 18.574-41.387 41.387-41.387h55.012zM466.745 16.555v203.691c0 11.065 8.988 20.053 20.053 20.053h55.012c11.065 0 20.053-8.988 20.053-20.053v-203.691c0-11.065-8.988-20.053-20.053-20.053h-55.012c-11.065 0-20.053 8.988-20.053 20.053zM371.314-24.832c22.841 0 41.415 18.574 41.415 41.387v96.768c0 22.812-18.574 41.387-41.415 41.387h-54.926c-22.841 0-41.415-18.546-41.415-41.387v-96.768c0-22.812 18.574-41.387 41.415-41.387h54.926zM296.306 16.555v96.768c0 11.065 9.017 20.053 20.082 20.053h54.926c11.065 0 20.082-8.988 20.082-20.053v-96.768c0-11.065-8.988-20.053-20.082-20.053h-54.926c-11.093 0-20.082 8.988-20.082 20.053zM827.364 490.553l-106.553 106.553c-10.012 10.041-28.274 17.607-42.496 17.607h-443.25c-28.388 0-51.484-22.471-51.484-50.119l0.085-554.012c0-5.888 4.779-10.667 10.667-10.667s10.667 4.779 10.667 10.667l-0.085 553.984c0 15.872 13.511 28.786 30.151 28.786h443.278c2.532 0 5.518-0.597 8.562-1.451v-123.392c0-5.888 4.779-10.667 10.667-10.667h124.217c1.081-3.499 1.849-6.94 1.849-9.813l-0.028-592.185c0-15.9-13.511-28.814-30.066-28.814h-558.478c-5.888 0-10.667-4.779-10.667-10.667s4.779-10.667 10.667-10.667h558.507c28.331 0 51.399 22.5 51.399 50.148l0.028 592.185c-0.028 14.222-7.595 32.484-17.636 42.524zM708.238 579.527l100.324-100.324h-100.324v100.324z" />
<glyph unicode="&#xeb2f;" glyph-name="report" d="M605.355 308.85c0 16.896 13.852 30.72 30.748 30.72h37.177c16.896 0 30.72-13.824 30.72-30.72v-320c0-16.896-13.824-30.72-30.72-30.72h-37.177c-16.896 0-30.748 13.824-30.748 30.72v320zM462.905-11.15c0-16.896 13.824-30.72 30.72-30.72h36.38c16.896 0 30.72 13.824 30.72 30.72v203.691c0 16.896-13.824 30.72-30.72 30.72h-36.38c-16.896 0-30.72-13.824-30.72-30.72v-203.691zM320-11.15c0-16.896 13.824-30.72 30.748-30.72h36.324c16.924 0 30.748 13.824 30.748 30.72v96.768c0 16.896-13.824 30.72-30.748 30.72h-36.324c-16.924 0-30.748-13.824-30.748-30.72v-96.768zM842.695 448.768l-0.028-592.185c0-27.648-23.040-50.119-51.371-50.119h-558.507c-28.388 0-51.456 22.5-51.456 50.119l-0.028 708.722c0 27.648 23.097 50.148 51.484 50.148h443.25c14.194 0 32.455-7.566 42.496-17.607l106.553-106.553c10.041-10.069 17.607-28.331 17.607-42.524zM775.14 430.137h-107.065c-5.888 0-10.667 4.779-10.667 10.667v107.065h-394.325c-7.822 0-14.222-6.4-14.222-14.222l0.028-645.404c0-7.822 6.4-14.222 14.222-14.222h497.778c7.822 0 14.222 6.4 14.222 14.222l0.028 541.895z" />
<glyph unicode="&#xeb30;" glyph-name="removefromwatchlist" d="M566.3-124.359c7.538-24.747 19.57-47.502 34.987-67.556h-366.137c-28.388 0-51.456 22.471-51.456 50.119l-0.028 708.722c0 27.648 23.097 50.119 51.484 50.119h443.25c14.194 0 32.455-7.566 42.496-17.607l106.553-106.553c10.041-10.041 17.607-28.302 17.607-42.496v-313.202c-21.163 7.936-43.861 12.601-67.556 13.397v281.173h-107.065c-5.888 0-10.667 4.779-10.667 10.667v107.065h-394.325c-7.822 0-14.222-6.4-14.222-14.222l0.028-645.404c0-7.822 6.4-14.222 14.222-14.222h300.828zM941.028-62.379c0-94.236-76.43-170.667-170.667-170.667s-170.667 76.43-170.667 170.667 76.43 170.667 170.667 170.667c94.265 0 170.667-76.402 170.667-170.667zM880.213-62.379c0 15.701-12.743 28.444-28.444 28.444h-162.816c-15.701 0-28.444-12.743-28.444-28.444s12.743-28.444 28.444-28.444h162.816c15.701 0 28.444 12.743 28.444 28.444z" />
<glyph unicode="&#xeb31;" glyph-name="removefromsaved" d="M545.28-118.073c0-21.333 3.243-41.899 9.074-61.355l-423.168 0.057c-10.411 0-19.598 4.124-25.913 11.605s-8.932 17.721-7.168 28.075l85.646 368.754c3.442 19.769 22.187 35.698 42.581 35.698h648.903c10.382 0 19.712-4.295 25.628-11.833 6.030-7.68 7.993-18.091 5.461-28.558l-34.503-161.963c-32.853 20.679-71.595 32.853-113.209 32.853-117.618 0-213.333-95.687-213.333-213.333zM929.28-118.073c0-94.265-76.402-170.667-170.667-170.667s-170.667 76.402-170.667 170.667c0 94.236 76.402 170.667 170.667 170.667s170.667-76.402 170.667-170.667zM848.441-104.135c-0.028 26.283-20.793 48.583-47.531 48.697l-1.508-0.057c-21.817 0-38.087-20.964-40.789-30.948-3.442 10.24-19.172 30.948-40.846 30.948l-1.451 0.057c-26.709-0.114-47.531-22.414-47.531-48.697-0.142-10.297 3.129-20.594 10.325-30.436 7.196-9.956 17.892-20.793 34.731-37.035l0.512-0.484 0.171-0.171c9.586-8.96 28.274-24.69 28.757-25.145l0.455-0.341c3.641-2.958 8.135-4.807 12.743-5.092l1.735-0.142h0.683l1.707 0.142c4.494 0.284 8.932 2.048 12.487 4.864l0.626 0.484 0.028 0.028 0.085 0.057c0.085 0.057 19.172 16.071 29.070 25.344l-0.085-0.057 0.711 0.683c16.697 16.128 27.364 26.908 34.503 36.836 7.282 9.87 10.553 20.167 10.411 30.464zM168.96 502.812h59.563v-98.617c0-6.286 5.148-11.406 11.406-11.406h113.010c6.286 0 11.406 5.148 11.406 11.406v98.617h59.563c14.023 0 18.034 8.704 8.903 19.371l-123.932 144.583c-6.827 7.993-18.034 7.993-24.889 0l-123.932-144.612c-9.131-10.638-5.12-19.342 8.903-19.342zM785.351 373.817h-275.285l-77.369 71.822c-6.514 6.172-15.445 9.7-24.462 9.7h-1.195v-51.143c0-29.81-24.263-54.073-54.073-54.073h-113.038c-29.81 0-54.073 24.263-54.073 54.073v50.745c-49.636-3.954-88.86-45.483-88.86-96.028v-232.818c0-12.601 15.673-14.45 19.029 0l25.941 111.73c7.623 39.822 43.634 69.66 84.366 69.66h597.532v27.847c0.028 21.22-17.266 38.485-38.514 38.485z" />
<glyph unicode="&#xeb32;" glyph-name="playlistL" d="M737.877 189.554h-453.12c-5.888 0-10.667 4.779-10.667 10.667s4.779 10.667 10.667 10.667h453.12c5.888 0 10.667-4.779 10.667-10.667s-4.779-10.667-10.667-10.667zM748.544 291.186c0 5.888-4.779 10.667-10.667 10.667h-453.12c-5.888 0-10.667-4.779-10.667-10.667s4.779-10.667 10.667-10.667h453.12c5.888 0 10.667 4.779 10.667 10.667zM748.544 382.18c0 5.888-4.779 10.667-10.667 10.667h-453.12c-5.888 0-10.667-4.779-10.667-10.667s4.779-10.667 10.667-10.667h453.12c5.888 0 10.667 4.779 10.667 10.667zM948.764-64c0-99.982-81.351-181.333-181.333-181.333-49.237 0-93.924 19.797-126.635 51.769h-408.69c-5.888 0-10.667 4.779-10.667 10.667s4.779 10.667 10.667 10.667h390.201c-22.613 30.236-36.181 67.641-36.181 108.231 0 99.982 81.351 181.333 181.333 181.333 18.517 0 36.38-2.816 53.22-7.993l0.028 339.456c0 2.873-0.796 6.315-1.849 9.813h-122.994c-5.888 0-10.667 4.779-10.667 10.667v122.937c-3.499 1.081-6.912 1.849-9.813 1.849h-443.278c-16.612 0-30.151-12.914-30.151-28.814l0.057-553.984c0-5.888-4.779-10.667-10.667-10.667s-10.667 4.779-10.667 10.667l-0.057 554.012c0 27.648 23.097 50.148 51.484 50.148h443.25c14.222 0 32.484-7.566 42.496-17.607l106.553-106.553c10.041-10.012 17.607-28.302 17.607-42.496l-0.028-347.676c62.891-28.473 106.78-91.705 106.78-165.092zM805.604 479.915l-99.1 99.072v-99.072h99.1zM927.431-64c0 61.298-34.702 114.603-85.447 141.454-6.827 3.612-13.966 6.628-21.333 9.244-16.668 5.916-34.532 9.301-53.22 9.301-88.206 0-160-71.765-160-160 0-41.756 16.213-79.701 42.496-108.231 3.612-3.925 7.424-7.68 11.435-11.236l0.028-0.028c4.011-3.556 8.192-6.912 12.544-10.069 26.34-19.058 58.596-30.436 93.497-30.436 88.235 0 160 71.794 160 160zM866.56-54.329c2.816-5.348 3.328-11.15 1.593-16.64-1.707-5.404-5.433-9.842-10.524-12.43l-129.337-67.84c-3.072-1.65-6.428-2.446-9.813-2.446-3.755 0-7.509 0.996-10.951 2.987-6.514 3.868-10.382 10.667-10.439 18.176v135.652c-0.142 7.538 3.84 14.564 10.382 18.375 5.803 3.783 13.909 4.124 20.679 0.597l129.422-67.783c3.612-1.707 6.827-4.779 8.988-8.647zM847.815-64.455l-129.365 67.584v-135.566l129.365 67.982z" />
<glyph unicode="&#xeb33;" glyph-name="playlibraryL" d="M800.768 586.581h-493.54c-66.588 0-113.067-35.982-113.067-87.467v-600.178c0-48.896 43.236-101.689 113.095-101.689h511.943c5.888 0 10.667 4.779 10.667 10.667s-4.779 10.667-10.667 10.667h-511.972c-56.661 0-91.733 41.7-91.762 80.327v0.142c0.085 39.481 34.361 80.242 91.733 80.242h512c5.888 0 10.667 4.779 10.667 10.667v567.495c0 16.071-13.056 29.127-29.099 29.127zM808.533 0.626h-501.305c-41.131 0-72.562-17.522-91.733-41.956v540.416c0 38.94 37.717 66.133 91.733 66.133h493.568c4.181 0 7.737-3.556 7.737-7.765v-556.828zM829.867-131.214c0-5.888-4.779-10.667-10.667-10.667h-450.133c-5.888 0-10.667 4.779-10.667 10.667s4.779 10.667 10.667 10.667h450.133c5.888 0 10.667-4.779 10.667-10.667zM829.867-70.343c0-5.888-4.779-10.667-10.667-10.667h-450.133c-5.888 0-10.667 4.779-10.667 10.667s4.779 10.667 10.667 10.667h450.133c5.888 0 10.667-4.779 10.667-10.667zM512 458.667c-99.982 0-181.333-81.351-181.333-181.333s81.351-181.333 181.333-181.333 181.333 81.351 181.333 181.333-81.351 181.333-181.333 181.333zM512 117.333c-88.206 0-160 71.794-160 160 0 88.235 71.794 160 160 160 88.235 0 160-71.765 160-160 0-88.206-71.765-160-160-160zM602.169 295.68l-129.422 67.783c-6.855 3.556-14.734 3.214-20.679-0.626-6.571-3.812-10.524-10.866-10.382-18.375v-135.623c0.057-7.396 4.011-14.364 10.411-18.204 3.442-1.991 7.196-3.015 10.951-3.015 3.385 0 6.741 0.825 9.813 2.475l129.337 67.84c5.063 2.588 8.818 6.997 10.524 12.43 1.735 5.461 1.223 11.292-1.593 16.64-2.162 3.868-5.376 6.912-8.96 8.676zM463.019 208.896v135.566l129.365-67.584-129.365-67.982z" />
<glyph unicode="&#xeb34;" glyph-name="playlibrary" d="M824.946-79.73c11.776 0 21.333-9.557 21.333-21.333s-9.557-21.333-21.333-21.333h-477.468c-11.776 0-21.333 9.557-21.333 21.333s9.557 21.333 21.333 21.333h477.468zM233.244-101.063v-0.057c0.028-25.23 23.524-62.521 73.984-62.521h512c15.701 0 28.444-12.743 28.444-28.444s-12.743-28.444-28.444-28.444h-512c-80.811 0-130.873 62.009-130.873 119.467v600.149c0 60.985 55.040 105.273 130.844 105.273h493.568c25.856 0 46.876-21.020 46.876-46.876v-567.495c0-15.701-12.743-28.444-28.444-28.444h-512c-50.944 0-73.899-36.494-73.956-62.464v-0.142zM341.333 277.333c0-94.236 76.402-170.667 170.667-170.667s170.667 76.43 170.667 170.667-76.43 170.667-170.667 170.667-170.667-76.402-170.667-170.667zM601.088 284.757c-1.707 3.044-4.21 5.461-7.083 6.827l-121.742 63.744c-5.234 2.702-11.861 2.332-16.213-0.484-5.148-3.015-8.249-8.533-8.107-14.308v-127.659c0.028-5.803 3.129-11.264 8.135-14.251 2.645-1.536 5.604-2.361 8.59-2.361 2.674 0 5.376 0.683 7.708 1.934l121.685 63.829c3.954 2.020 6.884 5.461 8.22 9.7 1.394 4.267 0.996 8.846-1.195 13.028z" />
<glyph unicode="&#xeb35;" glyph-name="pdfL" d="M825.088 491.691l-106.553 106.553c-10.041 10.012-28.302 17.579-42.496 17.579h-443.25c-28.388 0-51.484-22.471-51.484-50.119l0.057-553.984c0-5.888 4.779-10.667 10.667-10.667s10.667 4.779 10.667 10.667l-0.057 553.984c0 15.872 13.511 28.786 30.151 28.786h443.25c2.873 0 6.315-0.796 9.813-1.849v-122.965c0-5.888 4.779-10.667 10.667-10.667h122.994c1.081-3.499 1.877-6.94 1.877-9.813l-0.028-592.185c0-15.9-13.483-28.814-30.037-28.814h-558.535c-5.888 0-10.667-4.779-10.667-10.667s4.779-10.667 10.667-10.667h558.507c28.331 0 51.371 22.5 51.371 50.148l0.028 592.185c0 14.165-7.595 32.455-17.607 42.496zM707.186 579.413l99.072-99.1h-99.072v99.1zM336.754 180.935c43.975 0 66.759 19.001 66.759 54.016 0 33.906-23.609 53.191-64.569 53.191h-45.056c-5.717 0-10.325-4.608-10.325-10.325v-165.291h18.46v68.38h34.731zM302.023 271.588h37.177c29.867 0 45.34-12.743 45.34-37.177 0-24.149-15.474-37.177-46.137-37.177h-36.38v74.354zM589.71 200.761c0 55.097-35.556 87.381-96.057 87.381h-41.5c-5.717 0-10.297-4.608-10.297-10.325v-165.291h50.46c61.042 0.028 97.394 32.882 97.394 88.235zM493.369 128.853h-33.109v143.019h33.365c48.299 0 77.084-26.852 77.084-71.652 0.028-45.312-27.932-71.367-77.34-71.367zM650.809 271.332v-66.219h75.463v-16.27h-75.463v-76.288h-18.432v165.291c0 5.689 4.608 10.325 10.297 10.325h105.586v-16.839h-97.451z" />
<glyph unicode="&#xeb36;" glyph-name="pdf" d="M315.164 246.244c0 15.701 7.851 24.178 22.215 24.178h37.262c40.306 0 62.322-17.436 62.322-51.2 0-33.564-21.134-50.119-61.013-50.119h-17.010v-39.652h-43.804v116.793zM358.286 200.932h15.9c13.312 0 20.281 6.542 20.281 18.318s-7.196 18.29-20.935 18.29h-15.246v-36.608zM448.91 246.244c0 15.701 9.586 24.178 22.67 24.178h37.262c46.421 0 74.98-26.795 74.98-69.746 0-43.577-29.412-71.253-75.833-71.253h-59.051v116.821zM506.88 166.485c20.48 0 33.792 12.43 33.792 33.991 0 21.134-12.857 32.91-33.138 32.91h-15.474v-66.901h14.82zM599.239 129.451v116.821c0 15.701 7.851 24.178 22.244 24.178h87.381v-36.181h-66.674v-23.552h51.428v-35.1h-49.92v-46.194h-44.459zM825.088 491.264l-106.553 106.553c-10.041 10.041-28.302 17.607-42.496 17.607h-443.25c-28.388 0-51.484-22.5-51.484-50.148l0.028-708.722c0-27.648 23.040-50.119 51.456-50.119h558.507c28.331 0 51.371 22.471 51.371 50.119l0.028 592.185c0 14.222-7.566 32.484-17.607 42.524zM775.111-111.758c0-7.822-6.4-14.222-14.222-14.222h-497.778c-7.822 0-14.222 6.4-14.222 14.222l-0.028 645.404c0 7.822 6.4 14.222 14.222 14.222h394.325v-107.065c0-5.888 4.779-10.667 10.667-10.667h107.065l-0.028-541.895z" />
<glyph unicode="&#xeb37;" glyph-name="paymentL" d="M907.52 312.491l-64.796 45.938v92.814c0 14.222-7.595 32.484-17.636 42.496l-106.524 106.553c-10.041 10.012-28.302 17.607-42.496 17.607h-443.278c-28.388 0-51.484-22.471-51.484-50.119l0.028-209.522-64.796-45.796c-21.305-15.047-37.973-47.246-37.973-73.33v-418.588c0-28.444 23.154-51.627 51.627-51.627h763.591c28.473 0 51.627 23.154 51.627 51.627v418.56c0.028 26.084-16.612 58.311-37.888 73.387zM806.258 482.361h-99.072v99.1l99.072-99.1zM232.789 596.537h443.25c2.901 0 6.315-0.796 9.813-1.849v-122.994c0-5.888 4.779-10.667 10.667-10.667h122.994c1.081-3.499 1.849-6.94 1.849-9.813l-0.028-146.83 0.028-108.032-276.025-203.691c-8.192-6.030-19.143-8.875-34.389-8.875-11.691 0.057-23.097 3.328-31.687 8.903l-276.594 201.529-0.028 373.532c0 15.872 13.54 28.786 30.151 28.786zM924.103-179.456c0-16.697-13.596-30.293-30.293-30.293h-763.591c-16.697 0-30.293 13.568-30.293 30.293v418.56c0 19.2 13.255 44.828 28.956 55.893l52.48 37.092 0.028-122.311-28.956 21.106c-4.779 3.47-11.435 2.418-14.905-2.332-3.47-4.779-2.418-11.435 2.332-14.905l212.907-155.136-212.594-212.622c-4.181-4.153-4.181-10.923 0-15.076 2.076-2.076 4.807-3.129 7.538-3.129s5.461 1.052 7.538 3.129l214.983 214.983 96.967-70.656c12.43-8.078 27.932-12.572 43.748-12.658 20.053 0 35.015 4.153 47.076 13.028l97.678 72.078 216.718-216.747c2.076-2.076 4.807-3.129 7.566-3.129 2.731 0 5.433 1.052 7.538 3.129 4.153 4.153 4.153 10.923 0 15.076l-214.443 214.471 211.2 155.847c4.722 3.499 5.746 10.183 2.247 14.905-3.527 4.75-10.183 5.746-14.933 2.247l-28.843-21.305v120.178l52.48-37.205c15.673-11.122 28.928-36.75 28.928-55.95v-418.56zM501.732 163.044v-40.619c0-0.484 3.3-0.484 9.358-0.484h2.304c5.604 0 9.358 0 9.358 0.484v40.135c55.097 2.816 94.777 36.892 94.777 82.631 0 56.946-48.071 73.756-95.26 84.935v121.856c38.741-3.271 63.972-23.808 74.212-46.222 0.939-0.939 13.995 4.21 13.995 14.023 0 6.542-5.12 16.327-13.056 23.808-13.995 14.478-39.68 27.051-74.212 29.383v38.741c0 0.484-3.271 0.484-8.875 0.484h-2.332c-6.087 0-9.33 0-9.33-0.484v-39.196c-50.404-3.726-88.718-36.409-88.718-80.299 0-53.675 43.89-70.002 89.173-81.209v-126.976c-46.222 3.755-72.334 28.473-82.631 52.736-1.394 0.939-13.995-4.181-13.995-13.995 0-6.997 4.181-17.266 14.478-27.534 15.872-15.872 42.951-29.412 80.754-32.199zM521.358 306.347c39.196-9.813 73.273-22.414 73.273-62.094 0-34.076-29.867-58.795-73.273-60.217v122.311zM437.333 392.22c0 33.138 27.989 56.946 66.759 59.278v-116.679c-38.77 9.813-66.759 21.476-66.759 57.401z" />
<glyph unicode="&#xeb38;" glyph-name="payment" d="M528.043 307.371c-33.593 7.623-57.287 13.739-57.287 35.897 0 19.854 17.579 33.593 46.592 33.593s56.519-14.507 72.562-33.593c1.508-1.536 22.898 11.463 22.898 30.549 0 22.158-25.97 43.548-74.069 48.128v15.218c0 19.854-6.116 29.013-23.666 29.013h-2.276c-16.811 0-24.434-9.927-24.434-29.013v-16.811c-45.824-8.391-74.837-37.433-74.837-77.881 0-56.519 48.868-71.765 87.040-80.185 31.317-6.884 58.027-12.971 58.027-37.433 0-19.854-17.55-32.057-48.1-32.057-33.593 0-65.678 16.043-81.692 35.129-1.536 1.536-22.158-11.463-22.158-29.013 0-23.666 29.013-47.332 80.953-53.447v-16.043c0-19.854 6.884-28.245 24.434-28.245h2.276c16.811 0 24.434 9.159 24.434 28.245v17.579c49.636 7.623 80.185 37.433 80.185 80.953-0.028 54.955-51.94 70.997-90.88 79.417zM934.741 233.614v-418.588c0-22.528-18.404-40.96-40.932-40.96h-763.62c-22.528 0-40.96 18.432-40.96 40.96v418.588c0 22.528 15.076 51.598 33.451 64.597l58.596 41.586v219.989c0 27.648 23.097 50.119 51.484 50.119h443.25c14.194 0 32.455-7.566 42.496-17.607l106.553-106.553c10.041-10.041 17.607-28.302 17.607-42.496v-103.424l58.652-41.586c18.404-12.999 33.422-42.098 33.422-64.626zM775.14 424.647h-107.065c-5.888 0-10.667 4.779-10.667 10.667v107.065h-394.325c-7.822 0-14.222-6.4-14.222-14.222l0.028-368.1 233.273-169.956c7.851-5.092 18.574-8.164 29.582-8.22 14.421 0 24.69 2.588 32.256 8.164l231.111 170.553 0.028 264.050z" />
<glyph unicode="&#xeb39;" glyph-name="paperlessbilling" d="M377.828-186.539h-243.456c-28.388 0-51.456 22.5-51.456 50.119v708.722c0 27.648 23.097 50.148 51.484 50.148h443.25c14.194 0 32.455-7.566 42.496-17.607l106.553-106.553c10.041-10.041 17.607-28.302 17.607-42.496l-0.028-385.621c-21.419 20.508-44.146 35.356-67.556 46.364l0.028 320.597h-107.065c-5.888 0-10.667 4.779-10.667 10.667v107.093h-394.325c-7.822 0-14.222-6.4-14.222-14.222l0.028-645.433c0-7.822 6.4-14.222 14.222-14.222h156.018c16.782-24.633 35.982-47.36 57.088-67.556zM293.632 204.857c-5.291-40.789-8.135-65.621-4.864-105.785 11.577-232.476 270.194-460.146 477.639-261.547 52.167 13.511 119.068 37.888 167.196 80.612 5.973 5.291 8.391 12.999 7.168 20.252-0.654 3.982-2.389 7.822-5.291 11.065-6.201 7.026-15.844 9.131-24.092 6.144-2.617-0.967-5.063-2.304-7.225-4.267-5.86-5.12-12.117-9.984-18.603-14.62-9.984-7.054-20.565-13.483-31.602-19.285-23.524-12.885-48.555-23.751-74.809-31.886-17.493-5.404-35.47-9.842-53.959-12.885-6.798-1.109-13.625-2.048-20.366-2.788-89.97-10.439-156.416 20.622-213.077 81.749-7.908 8.306 1.081 17.152 8.59 8.903 64.114-47.559 146.034-76.772 286.834-37.035-109.995 282.283-333.369 104.676-471.95 290.048-8.42 11.179-19.57 6.571-21.589-8.676z" />
<glyph unicode="&#xeb3a;" glyph-name="networkfolderL" d="M123.193 231.026v257.877c0 52.565 42.809 95.346 95.46 95.346h211.911c9.045 0 17.664-3.413 24.235-9.586l76.373-70.884h271.73c21.049 0 38.172-17.124 38.172-38.144 0-5.888-4.779-10.667-10.667-10.667s-10.667 4.779-10.667 10.667c0 9.273-7.566 16.811-16.839 16.811h-275.911c-2.702 0-5.291 1.024-7.282 2.844l-79.445 73.785c-2.617 2.446-6.144 3.84-9.7 3.84h-211.911c-40.875 0-74.126-33.195-74.126-74.012v-257.877c0-5.888-4.779-10.667-10.695-10.667-5.86 0-10.638 4.779-10.638 10.667zM802.788-5.433l-280.036 0.028 0.284-1.308v-110.137c11.605-3.527 20.679-12.601 24.235-24.206h346.795c5.86 0 10.667-4.779 10.667-10.667s-4.779-10.667-10.667-10.667h-346.795c-4.58-14.99-18.347-25.97-34.816-25.97-16.526 0-30.293 10.98-34.901 25.97h-346.596c-5.888 0-10.667 4.779-10.667 10.667s4.779 10.667 10.667 10.667h346.567c3.556 11.577 12.572 20.622 24.178 24.178v110.165l0.256 1.308-344.889 0.057c-10.468 0-19.74 4.153-26.112 11.691-6.372 7.566-8.988 17.863-7.196 28.274l84.508 364.089c3.47 19.797 22.3 35.755 42.752 35.755h640.626c10.439 0 19.854-4.352 25.799-11.918 6.087-7.737 8.078-18.204 5.518-28.757l-77.397-363.292c-3.641-19.996-22.443-35.925-42.78-35.925zM157.070 15.986l645.717-0.085c10.012 0 20.025 8.562 21.874 18.745l77.511 363.89c1.081 4.494 0.54 8.249-1.479 10.837-1.934 2.418-5.12 3.755-9.045 3.755h-640.626c-10.041 0-20.082-8.562-21.845-18.688l-84.508-364.032c-0.626-3.669 0.256-7.538 2.588-10.297 2.247-2.645 5.717-4.124 9.813-4.124z" />
<glyph unicode="&#xeb3b;" glyph-name="networkfolder" d="M533.39-5.348v-94.606c9.244-5.205 16.811-12.8 22.044-22.016h316.956c15.701 0 28.444-12.743 28.444-28.444s-12.743-28.444-28.444-28.444h-316.956c-9.984-17.664-28.729-29.724-50.432-29.724s-40.448 12.089-50.432 29.724h-316.786c-15.701 0-28.444 12.743-28.444 28.444s12.743 28.444 28.444 28.444h316.786c5.205 9.188 12.743 16.754 21.931 21.959v94.663l-335.36 0.057c-4.892 0-9.529 0.967-13.653 2.816-4.153 1.849-7.794 4.58-10.78 8.107-3.698 4.409-5.888 9.87-6.713 15.701-0.512 3.499-0.654 7.083-0.028 10.752l38.144 164.153 42.553 183.239c1.621 9.301 6.855 17.721 14.080 23.808 5.404 4.551 11.947 7.794 18.944 9.131l7.111 0.683h653.966c9.785 0 18.574-4.068 24.121-11.122 4.267-5.433 6.372-12.288 6.144-19.57l-1.024-7.367-24.633-115.57-49.237-231.111c-0.853-4.693-2.588-9.159-5.035-13.227l-4.153-5.746c-7.708-8.988-19.086-14.82-31.033-14.82l-266.524 0.085zM123.876 280.491l25.003 107.691c7.424 38.628 42.382 67.584 81.892 67.584h605.582v23.78c0 19.996-16.299 36.267-36.295 36.267h-273.55l-72.875 67.641c-6.144 5.803-14.535 9.131-23.040 9.131h-230.656c-50.176 0-90.965-40.761-90.965-90.823v-219.335c-0.028-10.069 12.544-10.297 14.905-1.934z" />
<glyph unicode="&#xeb3c;" glyph-name="mynotesL" d="M689.493-184.036c-23.268 0.085-42.155 18.574-42.155 41.244s18.916 41.131 42.126 41.131c23.268 0 42.183-18.46 42.183-41.131 0.028-22.67-18.887-41.188-42.155-41.244zM689.465-122.994c-11.463 0-20.793-8.903-20.793-19.797 0-10.951 9.358-19.854 20.821-19.911 11.463 0.057 20.821 8.96 20.821 19.911 0.028 10.894-9.358 19.797-20.85 19.797zM612.636-142.791c0 5.888-4.779 10.667-10.667 10.667h-85.333c-5.888 0-10.667-4.779-10.667-10.667s4.779-10.667 10.667-10.667h85.333c5.888 0 10.667 4.779 10.667 10.667zM498.005 247.694c0 5.888-4.779 10.667-10.667 10.667h-203.577c-5.888 0-10.667-4.779-10.667-10.667s4.779-10.667 10.667-10.667h203.577c5.888 0 10.667 4.779 10.667 10.667zM701.525 323.271c0 5.888-4.779 10.667-10.667 10.667h-407.097c-5.888 0-10.667-4.779-10.667-10.667s4.779-10.667 10.667-10.667h407.125c5.888 0 10.638 4.779 10.638 10.667zM701.525 398.82c0 5.888-4.779 10.667-10.667 10.667h-407.097c-5.888 0-10.667-4.779-10.667-10.667s4.779-10.667 10.667-10.667h407.125c5.888 0 10.638 4.779 10.638 10.667zM739.612-70.997c13.568 0 24.974 8.761 28.928 20.736l-19.74 21.419v-12.345c0-4.693-4.124-8.476-9.188-8.476h-504.576c-5.888 0-10.667-4.779-10.667-10.667s4.779-10.667 10.667-10.667h504.576zM926.777-79.104l-156.644 170.012v418.731c0 16.498-13.682 29.895-30.521 29.895h-504.576c-16.811 0-30.492-13.426-30.492-29.895v-363.634c0-5.888 4.779-10.667 10.667-10.667s10.667 4.779 10.667 10.667v363.634c0 4.722 4.096 8.562 9.159 8.562h504.576c5.063 0 9.188-3.84 9.188-8.562v-395.577l12.174-13.227-113.948 123.676c-4.295 4.665-11.179 9.984-16.754 12.942-52.395 27.904-58.084 27.989-63.090 28.046h-0.37c-10.268 0-19.086-5.632-23.609-15.076-4.096-8.533-6.571-13.682 21.106-74.24 2.56-5.632 7.31-12.743 11.492-17.294l246.044-267.065v-79.246c0-14.478-12.26-26.226-27.335-26.226h-614.315c-15.076 0-27.335 11.776-27.335 26.226l-0.085 758.898c0 14.421 12.316 26.169 27.449 26.169h614.343c15.076 0 27.307-11.748 27.307-26.169l0.028-536.747 21.333-23.154-0.057 559.9c0 26.197-21.817 47.502-48.64 47.502h-614.343c-26.88 0-48.782-21.305-48.782-47.502l0.085-758.898c0-26.226 21.845-47.559 48.668-47.559h614.343c26.852 0 48.668 21.333 48.668 47.559v56.092l12.345-13.397c5.376-5.831 12.999-9.159 20.935-9.159 7.168 0 13.995 2.674 19.257 7.509l29.383 27.051c5.575 5.148 8.818 12.146 9.131 19.74 0.341 7.652-2.304 14.905-7.452 20.48zM910.677-103.595l-29.383-27.051c-1.365-1.252-3.1-1.877-4.807-1.877-1.934 0-3.84 0.768-5.234 2.276l-279.723 303.616c-2.645 2.873-6.144 8.135-7.765 11.691 0 0-23.524 51.484-21.276 56.149 1.138 2.389 2.759 2.958 4.38 2.958h0.085c5.518-0.085 53.333-25.543 53.333-25.543 3.442-1.849 8.448-5.689 11.093-8.562l279.723-303.616c2.617-2.873 2.446-7.396-0.427-10.041z" />
<glyph unicode="&#xeb3d;" glyph-name="mynotes" d="M853.675 98.389v469.39c0 28.16-23.040 51.2-51.2 51.2h-580.949c-28.16 0-51.2-23.040-51.2-51.2v-751.559c0-28.16 23.040-51.2 51.2-51.2h580.949c28.16 0 51.2 23.040 51.2 51.2v34.332l-70.030 76.032-6.201-1.109h-530.546c-10.667 0-19.342 8.676-19.342 19.342v597.931c0 10.667 8.676 19.342 19.342 19.342h530.517c10.667 0 19.342-8.676 19.342-19.342v-382.606l56.917-61.753zM689.408-146.603c3.1 16.1 16.299 29.269 32.427 32.341 29.184 5.575 54.386-19.797 48.498-49.010-3.243-16.071-16.469-29.156-32.569-32.085-28.985-5.319-53.931 19.797-48.356 48.754zM560.782-133.461h68.153c11.776 0 21.333-9.557 21.333-21.333s-9.557-21.333-21.333-21.333h-68.153c-11.776 0-21.333 9.557-21.333 21.333s9.557 21.333 21.333 21.333zM617.074 249.372c3.214-0.057 9.216 0 57.6-24.661 4.978-2.532 11.349-7.367 15.161-11.492l263.367-285.895c3.868-4.181 5.86-9.614 5.632-15.332-0.228-5.689-2.674-10.951-6.855-14.82l-29.383-27.051c-3.925-3.641-9.074-5.632-14.45-5.632-5.945 0-11.662 2.503-15.673 6.855l-263.396 285.895c-3.726 4.039-8.050 10.667-10.24 15.701-23.979 55.040-21.504 59.932-18.631 65.593 3.356 6.77 9.529 10.695 16.868 10.837zM690.83 439.723h-357.66c-11.776 0-21.333 9.557-21.333 21.333s9.557 21.333 21.333 21.333h357.689c11.776 0 21.333-9.557 21.333-21.333-0.028-11.776-9.557-21.333-21.362-21.333zM690.83 326.002h-357.66c-11.776 0-21.333 9.557-21.333 21.333s9.557 21.333 21.333 21.333h357.689c11.776 0 21.333-9.557 21.333-21.333s-9.557-21.333-21.362-21.333zM534.101 212.281h-200.96c-11.776 0-21.333 9.557-21.333 21.333s9.557 21.333 21.333 21.333h200.96c11.776 0 21.333-9.557 21.333-21.333s-9.529-21.333-21.333-21.333z" />
<glyph unicode="&#xeb3e;" glyph-name="mediastorageL" d="M84.082 133.632v274.972c0 55.666 45.369 100.949 101.092 100.949h225.934c9.444 0 18.46-3.556 25.372-10.012l81.607-75.804h290.020c22.044 0 39.993-17.92 39.993-39.964 0-5.888-4.807-10.667-10.667-10.667-5.888 0-10.667 4.779-10.667 10.667 0 10.268-8.391 18.631-18.66 18.631h-294.201c-2.702 0-5.291 1.024-7.253 2.844l-84.708 78.677c-2.93 2.731-6.827 4.295-10.809 4.295h-225.963c-43.975 0-79.758-35.726-79.758-79.616v-274.972c0-5.888-4.779-10.667-10.667-10.667s-10.667 4.779-10.667 10.667zM947.797-64.484c0-99.982-81.351-181.333-181.333-181.333-81.436 0-150.5 53.988-173.312 128.057l-473.657 0.085c-10.98 0-20.651 4.352-27.307 12.231-6.741 7.993-9.387 18.489-7.481 29.582l90.112 388.124c3.641 20.821 23.381 37.604 44.857 37.604h683.036c10.923 0 20.736-4.523 26.965-12.43 6.343-8.078 8.448-19.029 5.774-30.094l-50.119-235.179c38.201-33.28 62.464-82.148 62.464-136.647zM588.146-96.427c-1.849 10.382-2.987 21.020-2.987 31.943 0 99.982 81.323 181.333 181.333 181.333 37.006 0 71.396-11.207 100.124-30.265l48.043 225.508c1.223 5.006 0.597 9.216-1.735 12.146-2.19 2.759-5.803 4.295-10.183 4.295h-683.036c-11.065 0-22.016-9.387-23.979-20.508l-90.112-388.124c-0.683-4.153 0.284-8.505 2.901-11.605 2.532-2.987 6.428-4.636 11.008-4.636l468.622-0.085zM926.464-64.484c0 88.235-71.765 160-160 160-88.206 0-160-71.765-160-160s71.794-160 160-160c88.235 0 160 71.794 160 160zM865.621-54.869c2.816-5.319 3.3-11.15 1.564-16.583-1.735-5.404-5.461-9.813-10.524-12.402l-129.337-67.84c-2.958-1.593-6.4-2.446-9.842-2.446-3.783 0-7.566 1.052-10.923 2.987-6.428 3.868-10.354 10.809-10.411 18.204v135.737c-0.199 7.31 3.783 14.421 10.354 18.261 5.433 3.499 13.966 4.096 20.679 0.597l129.451-67.783c3.669-1.792 6.855-4.864 8.988-8.732zM846.82-64.939l-129.479 67.641 0.114-135.538 129.365 67.897z" />
<glyph unicode="&#xeb3f;" glyph-name="mediastorage" d="M757.476 106.667c-94.236 0-170.667-76.43-170.667-170.667s76.43-170.667 170.667-170.667 170.667 76.402 170.667 170.667-76.43 170.667-170.667 170.667zM847.787-69.604c-1.365-4.238-4.267-7.68-8.22-9.7l-121.685-63.858c-2.332-1.252-5.006-1.934-7.708-1.934-2.987 0-5.945 0.825-8.59 2.361-5.006 2.987-8.107 8.448-8.135 14.251v127.659c-0.142 5.746 2.958 11.292 8.107 14.308 4.352 2.816 10.98 3.214 16.213 0.484l121.742-63.744c2.873-1.394 5.376-3.783 7.083-6.827 2.162-4.153 2.56-8.732 1.195-12.999zM95.858 180.139v232.818c0 53.163 43.321 96.427 96.569 96.427h214.642c9.045 0 17.948-3.527 24.462-9.7l77.369-71.822h275.285c21.248 0 38.542-17.266 38.542-38.514v-27.847h-597.532c-40.732 0-76.743-29.838-84.366-69.66l-25.941-111.73c-3.356-14.421-19.029-12.572-19.029 0.028zM544.142-64c0-21.333 3.243-41.899 9.074-61.355l-423.168 0.057c-10.411 0-19.598 4.124-25.913 11.605s-8.932 17.721-7.14 28.075l85.618 368.782c3.442 19.769 22.187 35.698 42.581 35.698h648.903c10.382 0 19.712-4.324 25.628-11.833 6.030-7.68 7.993-18.091 5.461-28.558l-34.503-161.963c-32.853 20.679-71.595 32.853-113.209 32.853-117.646-0.028-213.333-95.744-213.333-213.362z" />
<glyph unicode="&#xeb40;" glyph-name="manualL" d="M803.044 591.73h-551.879c-34.276 0-54.756-25.344-54.756-49.863v-685.739l1.052-4.466c-0.683-3.157-1.052-6.372-1.052-9.557 0-23.979 20.935-49.835 54.756-49.835h570.311c5.888 0 10.667 4.779 10.667 10.667s-4.779 10.667-10.667 10.667h-570.311c-22.812 0-33.422 17.010-33.422 28.501 0 11.861 10.382 28.53 33.422 28.53h570.311c5.888 0 10.667 4.779 10.667 10.667v681.33c0 16.043-13.056 29.099-29.099 29.099zM810.809-108.032h-559.644c-13.426 0-24.633-3.954-33.422-10.155v660.053c0 11.861 10.382 28.53 33.422 28.53h551.879c4.21 0 7.765-3.556 7.765-7.765v-670.663zM645.006 446.436h-233.017c-17.18 0-31.147-13.966-31.147-31.147v-107.321c0-17.18 13.966-31.147 31.147-31.147h233.017c17.18 0 31.147 13.966 31.147 31.147v107.321c0.028 17.152-13.966 31.147-31.147 31.147zM654.848 307.968c0-5.404-4.409-9.813-9.813-9.813h-233.017c-5.404 0-9.813 4.409-9.813 9.813v107.321c0 5.404 4.409 9.813 9.813 9.813h233.017c5.433 0 9.813-4.409 9.813-9.813v-107.321z" />
<glyph unicode="&#xeb42;" glyph-name="increaserevenueL" d="M851.314 344.548h-145.692c-19.826 0-36.039-16.213-36.039-36.039v-459.833c0-19.826 16.213-36.068 36.039-36.068h145.692c19.826 0 36.068 16.242 36.068 36.068v459.833c0 19.826-16.242 36.039-36.068 36.039zM866.048-151.296c0-7.993-6.741-14.734-14.734-14.734h-145.692c-7.993 0-14.706 6.741-14.706 14.734v459.804c0 7.964 6.713 14.706 14.706 14.706h145.692c7.964 0 14.734-6.741 14.734-14.706v-459.804zM587.264 227.612h-145.692c-19.854 0-36.068-16.242-36.068-36.096v-342.812c0-19.826 16.213-36.068 36.068-36.068h145.692c19.826 0 36.039 16.242 36.039 36.068v342.812c0 19.854-16.213 36.096-36.039 36.096zM601.97-151.296c0-7.993-6.741-14.734-14.706-14.734h-145.692c-8.107 0-14.734 6.599-14.734 14.734v342.812c0 8.135 6.628 14.763 14.734 14.763h145.692c8.107 0 14.706-6.628 14.706-14.763v-342.812zM323.1 114.546h-145.636c-19.854 0-36.068-16.242-36.068-36.068v-229.774c0-19.826 16.185-36.068 36.068-36.068h145.664c19.826 0 36.068 16.242 36.068 36.068v229.774c0 19.826-16.242 36.068-36.096 36.068zM337.863-151.296c0-7.993-6.741-14.734-14.734-14.734h-145.664c-8.135 0-14.734 6.599-14.734 14.734v229.774c0 7.993 6.741 14.734 14.734 14.734h145.664c7.993 0 14.734-6.741 14.734-14.734v-229.774zM898.475 530.603l-56.32-109.483c-1.877-3.669-5.632-5.774-9.5-5.774l-4.864 1.195c-5.234 2.702-7.31 9.131-4.608 14.364l41.472 80.612-713.529-330.268-4.494-0.996c-4.039 0-7.879 2.276-9.671 6.201-2.475 5.348-0.142 11.691 5.205 14.165l714.325 330.581-94.834 19.314c-5.774 1.166-9.5 6.798-8.306 12.572 1.166 5.774 6.798 9.472 12.572 8.306l125.184-25.515c3.271-0.654 6.030-2.816 7.481-5.831 1.451-2.958 1.394-6.485-0.114-9.444z" />
<glyph unicode="&#xeb43;" glyph-name="increaserevenue" d="M761.799 518.172l-20.281 42.951c-3.499 7.396 0.228 12.203 8.249 10.695l124.018-23.125c6.030-1.109 8.533-6.428 5.575-11.804l-1.792-3.243-59.136-107.207c-3.954-7.14-10.012-6.969-13.511 0.427l-18.83 39.851zM761.799 518.172l-607.744-281.259c-5.12-2.361-7.367-8.476-4.978-13.596l15.275-33.052c2.361-5.12 8.476-7.367 13.596-5.006l608.142 281.458zM575.033 226.873c19.826 0 36.068-16.242 36.068-36.096v-342.812c0-19.826-16.242-36.068-36.068-36.068h-122.226c-19.854 0-36.068 16.242-36.068 36.068v342.841c0 19.854 16.213 36.096 36.068 36.096l122.226-0.028zM835.072 343.836c19.826 0 36.068-16.242 36.068-36.096v-459.776c0-19.826-16.242-36.068-36.068-36.068h-122.226c-19.854 0-36.068 16.242-36.068 36.068v459.776c0 19.854 16.213 36.096 36.068 36.096h122.226zM314.994 113.835c19.826 0 36.068-16.242 36.068-36.096v-229.774c0-19.826-16.242-36.068-36.068-36.068h-122.226c-19.854 0-36.068 16.242-36.068 36.068v229.774c0 19.854 16.213 36.096 36.068 36.096h122.226z" />
<glyph unicode="&#xeb44;" glyph-name="folderL" d="M86.812 135.509v274.972c0 55.666 45.369 100.949 101.092 100.949h225.934c9.358 0 18.574-3.669 25.372-10.041l81.607-75.748h290.020c22.044 0 39.993-17.92 39.993-39.964 0-5.888-4.807-10.667-10.667-10.667-5.888 0-10.667 4.779-10.667 10.667 0 10.268-8.391 18.631-18.66 18.631h-294.201c-2.702 0-5.291 1.024-7.253 2.844l-84.736 78.677c-2.901 2.731-6.827 4.295-10.78 4.295h-225.963c-43.975 0-79.758-35.726-79.758-79.616v-274.972c0-5.888-4.779-10.667-10.667-10.667s-10.667 4.75-10.667 10.638zM938.155 309.22l-82.517-387.356c-3.812-21.020-23.609-37.746-44.942-37.746l-688.469 0.085c-10.951 0-20.651 4.352-27.307 12.231-6.628 7.879-9.358 18.66-7.509 29.582l90.14 388.153c3.612 20.821 23.381 37.575 44.828 37.575h683.065c10.923 0 20.764-4.523 26.965-12.459 6.343-8.078 8.42-19.058 5.746-30.066zM915.627 326.116c-2.162 2.759-5.774 4.295-10.183 4.295h-683.036c-11.036 0-21.988-9.387-23.95-20.48l-90.14-388.153c-0.711-4.153 0.313-8.476 2.901-11.577 2.532-2.987 6.428-4.665 10.98-4.665l688.469-0.085c10.98 0 21.988 9.415 24.007 20.537l82.66 387.982c1.223 5.006 0.626 9.216-1.707 12.146z" />
<glyph unicode="&#xeb45;" glyph-name="folder" d="M917.276 278.471l-78.393-367.986c-3.612-19.968-22.386-35.868-42.667-35.868l-654.080 0.085c-10.411 0-19.598 4.124-25.913 11.605s-8.932 17.721-7.14 28.075l85.646 368.754c3.442 19.769 22.187 35.698 42.581 35.698h648.903c10.382 0 19.712-4.295 25.628-11.833 6.002-7.652 7.993-18.062 5.433-28.53zM126.976 180.139l25.941 111.73c7.623 39.794 43.634 69.66 84.366 69.66h597.561v27.847c0 21.248-17.294 38.514-38.542 38.514h-275.285l-77.369 71.822c-6.514 6.172-15.445 9.7-24.462 9.7h-214.67c-53.248 0-96.569-43.264-96.569-96.427v-232.818c0-12.601 15.673-14.45 19.029-0.028z" />
<glyph unicode="&#xeb46;" glyph-name="fileL" d="M824.405 492.857l-106.553 106.553c-10.041 10.041-28.331 17.607-42.496 17.607h-443.25c-28.388 0-51.484-22.5-51.484-50.148l0.057-554.012c0-5.888 4.779-10.667 10.667-10.667s10.667 4.779 10.667 10.667l-0.057 554.041c0 15.872 13.511 28.814 30.151 28.814h443.25c2.873 0 6.315-0.796 9.813-1.877v-122.965c0-5.888 4.779-10.667 10.667-10.667h122.994c1.081-3.499 1.849-6.94 1.849-9.813l-0.028-592.185c0-15.9-13.483-28.814-30.037-28.814h-558.507c-5.888 0-10.667-4.75-10.667-10.667 0-5.888 4.779-10.667 10.667-10.667h558.507c28.331 0 51.371 22.5 51.371 50.148l0.028 592.185c0 14.165-7.566 32.427-17.607 42.468zM706.503 481.508v99.1l99.072-99.1h-99.072z" />
<glyph unicode="&#xeb47;" glyph-name="file" d="M825.23 472.348l-106.553 106.553c-10.041 10.041-28.302 17.607-42.496 17.607h-443.278c-28.388 0-51.484-22.5-51.484-50.148l0.028-708.722c0-27.648 23.040-50.119 51.456-50.119h558.507c28.331 0 51.371 22.5 51.371 50.119l0.028 592.185c0.028 14.194-7.538 32.455-17.579 42.524zM775.225-130.702c0-7.822-6.4-14.222-14.222-14.222h-497.778c-7.822 0-14.222 6.4-14.222 14.222l-0.028 645.404c0 7.822 6.4 14.222 14.222 14.222h394.325v-107.065c0-5.888 4.779-10.667 10.667-10.667h107.065l-0.028-541.895z" />
<glyph unicode="&#xeb48;" glyph-name="favoritesL" d="M85.248 138.667v274.972c0 55.666 45.369 100.949 101.092 100.949h225.934c9.444 0 18.46-3.556 25.372-10.012l81.607-75.804h290.020c22.044 0 39.993-17.92 39.993-39.964 0-5.888-4.807-10.667-10.667-10.667-5.888 0-10.667 4.779-10.667 10.667 0 10.268-8.391 18.631-18.66 18.631h-294.201c-2.702 0-5.291 1.024-7.253 2.844l-84.708 78.677c-2.93 2.731-6.827 4.295-10.809 4.295h-225.963c-43.975 0-79.758-35.726-79.758-79.616v-274.972c0-5.888-4.779-10.667-10.667-10.667s-10.667 4.779-10.667 10.667zM948.992-59.449c0-99.982-81.351-181.333-181.333-181.333-81.436 0-150.5 54.016-173.312 128.057l-473.685 0.085c-10.951 0-20.651 4.352-27.307 12.231-6.628 7.879-9.358 18.66-7.481 29.582l90.112 388.124c3.612 20.821 23.381 37.575 44.857 37.575h683.036c10.923 0 20.764-4.551 26.965-12.43 6.343-8.078 8.42-19.029 5.774-30.066l-50.119-235.179c38.201-33.28 62.492-82.148 62.492-136.647zM589.312-91.392c-1.849 10.382-3.015 21.020-3.015 31.943 0 99.982 81.323 181.333 181.333 181.333 37.006 0 71.396-11.179 100.124-30.265l48.043 225.508c1.223 5.006 0.597 9.216-1.735 12.146-2.19 2.759-5.803 4.295-10.183 4.295h-683.008c-11.065 0-22.016-9.387-23.979-20.48l-90.112-388.153c-0.683-4.153 0.284-8.505 2.901-11.605 2.532-2.987 6.428-4.636 10.98-4.636l468.651-0.085zM927.659-59.449c0 88.235-71.765 160-160 160-88.206 0-160-71.765-160-160 0-88.206 71.794-160 160-160s160 71.794 160 160zM860.274-41.984c0.171-11.861-3.669-23.353-11.435-33.963-6.798-9.444-16.327-19.172-32.597-34.873l-0.171-0.142-0.54-0.54c-8.306-7.765-23.58-20.651-26.396-23.040l-2.219-1.735c-4.096-3.3-10.24-5.689-16.441-6.116l-2.247-0.142h-0.313l-3.356 0.228c-5.49 0.313-11.748 2.816-16.839 6.912l-1.252 1.081c-3.556 2.958-18.034 15.246-25.884 22.585l-0.711 0.711c-16.384 15.815-25.97 25.572-32.825 35.1-7.737 10.581-11.577 22.044-11.406 34.076 0.028 30.009 24.178 54.642 53.817 54.784l1.536-0.028c15.218 0 28.188-8.562 36.836-18.46 8.363 9.643 21.22 18.46 37.177 18.46 31.118-0.085 55.268-24.718 55.268-54.898zM838.94-42.155c0 18.603-14.62 33.707-32.597 33.792-15.474-0.028-26.14-14.677-27.932-19.854l-0.114-0.54-2.702-4.636c-1.963-2.020-4.722-3.186-7.595-3.186-3.3 0-6.4 1.508-8.42 4.096l-1.82 3.584c-2.304 6.144-13.113 20.508-26.88 20.508-19.228-0.057-33.849-15.132-33.849-33.564-0.085-7.424 2.361-14.564 7.339-21.362 5.945-8.249 15.246-17.692 30.35-32.284l0.398-0.398c8.391-7.765 21.874-19.172 25.145-21.931l0.626-0.569c2.19-1.678 4.068-2.418 5.888-2.532l1.223-10.78 0.199 7.14-0.028 3.527c2.901 0.228 4.864 0.996 6.428 2.247l0.882 0.711c2.674 2.276 16.924 14.279 25.088 21.845l1.166 1.052c14.791 14.364 24.036 23.78 29.924 31.915 4.949 6.827 7.367 13.966 7.282 21.22z" />
<glyph unicode="&#xeb49;" glyph-name="favorites" d="M107.719 180.764v232.818c0 53.163 43.321 96.427 96.569 96.427h214.642c9.045 0 17.948-3.527 24.462-9.7l77.369-71.822h275.285c21.248 0 38.542-17.266 38.542-38.514v-27.847h-597.532c-40.732 0-76.743-29.838-84.366-69.66l-25.941-111.73c-3.356-14.421-19.029-12.544-19.029 0.028zM769.337 149.959c41.614 0 80.356-12.146 113.209-32.853l34.503 161.963c2.56 10.496 0.569 20.907-5.461 28.587-5.888 7.509-15.246 11.833-25.628 11.833h-648.903c-20.395 0-39.14-15.929-42.581-35.698l-85.646-368.754c-1.764-10.382 0.825-20.594 7.14-28.075s15.531-11.605 25.913-11.605l423.196-0.057c-5.86 19.456-9.074 40.021-9.074 61.355 0 117.618 95.687 213.305 213.333 213.305zM940.004-63.374c0-94.265-76.402-170.667-170.667-170.667s-170.667 76.43-170.667 170.667 76.43 170.667 170.667 170.667 170.667-76.402 170.667-170.667zM859.136-49.465c-0.028 26.283-20.793 48.583-47.531 48.697l-1.508-0.057c-21.817 0-38.087-20.964-40.789-30.948-3.442 10.24-19.172 30.948-40.846 30.948l-1.451 0.057c-26.709-0.114-47.531-22.414-47.531-48.697-0.142-10.297 3.129-20.594 10.325-30.436 7.196-9.956 17.892-20.793 34.731-37.035l0.512-0.484 0.171-0.171c9.586-8.96 28.274-24.69 28.757-25.116l0.455-0.341c3.641-2.958 8.135-4.807 12.743-5.12l1.735-0.142h0.683l1.707 0.142c4.494 0.284 8.932 2.048 12.487 4.864l0.626 0.484 0.028 0.028 0.085 0.057c0.057 0.057 19.172 16.071 29.070 25.344l-0.085-0.057 0.711 0.683c16.697 16.128 27.364 26.908 34.503 36.836 7.282 9.87 10.553 20.167 10.411 30.464z" />
<glyph unicode="&#xeb4a;" glyph-name="expandablehandsetsL" d="M455.68 8.334v-16.583c0-6.599-5.376-12.089-12.004-12.089h-17.863c-6.656 0-12.032 5.49-12.032 12.089v16.583c0 6.628 5.376 11.947 12.032 11.947h17.892c6.599 0 11.975-5.319 11.975-11.947zM502.443 58.055h18.034c6.428 0 11.861 5.291 11.861 12.004v16.697c0 6.542-5.433 11.89-11.861 11.89h-18.034c-6.457 0-11.833-5.348-11.833-11.89v-16.697c-0.028-6.713 5.376-12.004 11.833-12.004zM443.705-57.97h-17.892c-6.656 0-12.032-5.319-12.032-11.947v-16.725c0-6.599 5.376-12.032 12.032-12.032h17.892c6.628 0 12.004 5.433 12.004 12.032v16.725c-0.028 6.628-5.404 11.947-12.004 11.947zM424.732 58.055h17.892c6.542 0 11.975 5.291 11.975 12.004v16.697c0 6.542-5.433 11.89-11.975 11.89h-17.892c-6.656 0-12.060-5.348-12.060-11.89v-16.697c0-6.713 5.376-12.004 12.060-12.004zM421.604 241.351v152.036c0 2.958 2.361 5.376 5.291 5.376h170.155c2.958 0 5.348-2.418 5.348-5.376v-208.128c0-2.901-2.446-5.348-5.348-5.348h-170.155c-5.888 0-10.667-4.779-10.667-10.667s4.779-10.667 10.667-10.667h170.155c14.734 0 26.681 11.975 26.681 26.681v208.128c0 14.734-11.975 26.709-26.681 26.709h-170.155c-14.677 0-26.624-11.975-26.624-26.709v-152.036c0-5.888 4.779-10.667 10.667-10.667s10.667 4.779 10.667 10.667zM580.409 58.055h17.948c6.514 0 11.861 5.291 11.861 12.004v16.697c0 6.542-5.348 11.89-11.861 11.89h-17.948c-6.514 0-11.918-5.348-11.918-11.89v-16.697c-0.028-6.713 5.404-12.004 11.918-12.004zM858.425-53.333h-79.758v79.787c0 5.888-4.779 10.667-10.667 10.667s-10.667-4.779-10.667-10.667v-79.787h-79.787c-5.888 0-10.667-4.779-10.667-10.667s4.779-10.667 10.667-10.667h79.787v-79.787c0-5.888 4.779-10.667 10.667-10.667s10.667 4.779 10.667 10.667v79.787h79.758c5.888 0 10.667 4.779 10.667 10.667s-4.779 10.667-10.667 10.667zM949.333-64c0-99.982-81.351-181.333-181.333-181.333-49.636 0-94.663 20.082-127.431 52.508-32.284-28.188-77.71-45.682-128.597-45.682-97.65 0-175.872 63.915-178.034 145.522v491.605c0 38.343 17.579 73.216 46.194 99.641l-0.114 0.54v113.038c0 5.888 4.779 10.667 10.667 10.667s10.667-4.779 10.667-10.667v-96.853c30.407 20.252 68.836 32.427 110.62 32.427 98.19 0 178.062-66.759 178.062-148.793v-299.15c23.666 11.321 50.005 17.863 77.938 17.863 100.011 0 181.362-81.351 181.362-181.333zM512-217.173c44.743 0 85.305 15.787 114.034 40.732-17.692 22.3-30.293 48.782-35.925 77.767h-8.448c-6.628 0-12.060 5.433-12.060 12.032v16.725c0 6.656 5.433 11.947 12.060 11.947h5.319c0.427 12.942 2.219 25.515 5.234 37.632h-10.553c-6.628 0-12.060 5.49-12.060 12.089v16.583c0 6.628 5.433 11.947 12.060 11.947h17.721c2.702 0 5.035-1.024 7.026-2.475 14.393 28.331 35.925 52.395 62.322 69.746v311.068c0 70.286-70.315 127.46-156.729 127.46s-156.7-57.173-156.7-127.46v-491.349c1.82-68.494 72.107-124.444 156.7-124.444zM928-64c0 88.235-71.794 160-160 160-28.302 0-54.869-7.452-77.938-20.395-7.509-4.21-14.62-9.017-21.333-14.364-36.38-28.9-59.932-73.216-60.615-123.022l-0.114-2.219 0.711-14.023 1.764-13.113c4.494-26.084 15.275-50.005 30.805-70.172 4.466-5.831 9.244-11.406 14.478-16.555 28.9-28.501 68.551-46.137 112.242-46.137 88.206 0 160 71.794 160 160zM521.586-57.97h-17.835c-6.684 0-12.117-5.319-12.117-11.947v-16.725c0-6.599 5.433-12.032 12.117-12.032h17.835c6.571 0 11.947 5.433 11.947 12.032v16.725c0.028 6.628-5.348 11.947-11.947 11.947zM521.586 20.281h-17.835c-6.684 0-12.117-5.319-12.117-11.947v-16.583c0-6.599 5.433-12.089 12.117-12.089h17.835c6.571 0 11.947 5.49 11.947 12.089v16.583c0.028 6.628-5.348 11.947-11.947 11.947z" />
<glyph unicode="&#xeb4b;" glyph-name="expandablehandsets" d="M768 106.667c-94.236 0-170.667-76.402-170.667-170.667s76.43-170.667 170.667-170.667 170.667 76.43 170.667 170.667-76.43 170.667-170.667 170.667zM849.38-92.444h-52.935v-52.964c0-15.701-12.743-28.444-28.444-28.444s-28.444 12.743-28.444 28.444v52.964h-52.964c-15.701 0-28.444 12.743-28.444 28.444s12.743 28.444 28.444 28.444h52.964v52.964c0 15.701 12.743 28.444 28.444 28.444s28.444-12.743 28.444-28.444v-52.964h52.935c15.701 0 28.444-12.743 28.444-28.444s-12.743-28.444-28.444-28.444zM554.667-64c0 42.496 12.629 82.062 34.133 115.342h-9.102c-6.457 0-11.804 5.234-11.804 11.861v16.526c0 6.485 5.348 11.776 11.804 11.776h17.749c6.428 0 11.748-5.291 11.748-11.776v-1.792c19.086 21.305 42.297 38.741 68.494 51.029v259.47c0 75.577-74.126 136.732-165.717 136.732-23.068 0-45.028-3.897-64.996-10.923v69.177c0 17.806-14.45 32.228-32.256 32.228s-32.256-14.421-32.256-32.228v-109.739c-22.613-23.381-36.21-52.964-36.21-85.248v-486.372c1.991-74.155 75.349-133.746 165.689-133.746 36.267 0 69.689 9.7 96.967 25.998-33.593 37.746-54.244 87.296-54.244 141.682zM411.961 381.781c0 9.586 7.822 17.408 17.408 17.408h165.291c9.586 0 17.408-7.851 17.408-17.408v-202.951c0-9.586-7.822-17.408-17.408-17.408h-165.291c-9.586 0-17.408 7.822-17.408 17.408v202.951zM413.668 79.758c0 6.485 5.348 11.776 11.947 11.776h17.721c6.457 0 11.861-5.291 11.861-11.776v-16.526c0-6.628-5.376-11.861-11.861-11.861h-17.721c-6.599 0-11.947 5.234-11.947 11.861v16.526zM456.249-91.904c0-6.514-5.319-11.89-11.861-11.89h-17.721c-6.599 0-11.918 5.376-11.918 11.89v16.583c0 6.571 5.319 11.833 11.918 11.833h17.721c6.542 0 11.861-5.234 11.861-11.833v-16.583zM456.249-14.279c0-6.542-5.319-11.975-11.861-11.975h-17.721c-6.599 0-11.918 5.433-11.918 11.975v16.412c0 6.571 5.319 11.833 11.918 11.833h17.721c6.542 0 11.861-5.262 11.861-11.833v-16.412zM490.809 79.758c0 6.485 5.348 11.776 11.719 11.776h17.863c6.372 0 11.748-5.291 11.748-11.776v-16.526c0-6.628-5.376-11.861-11.748-11.861h-17.863c-6.4 0-11.719 5.234-11.719 11.861v16.526zM533.333-91.904c0-6.514-5.319-11.89-11.833-11.89h-17.664c-6.628 0-12.004 5.376-12.004 11.89v16.583c0 6.571 5.376 11.833 12.004 11.833h17.664c6.514 0 11.833-5.234 11.833-11.833v-16.583zM533.333-14.279c0-6.542-5.319-11.975-11.833-11.975h-17.664c-6.628 0-12.004 5.433-12.004 11.975v16.412c0 6.571 5.376 11.833 12.004 11.833h17.664c6.514 0 11.833-5.262 11.833-11.833v-16.412z" />
<glyph unicode="&#xeb4c;" glyph-name="downloadablefileL" d="M842.809 102.002v347.705c0 14.194-7.595 32.455-17.607 42.496l-106.553 106.553c-10.069 10.012-28.331 17.579-42.496 17.579h-443.278c-28.388 0-51.484-22.5-51.484-50.148l0.085-553.956c0-5.888 4.779-10.667 10.667-10.667s10.667 4.779 10.667 10.667l-0.057 553.984c0 15.872 13.511 28.814 30.151 28.814h443.278c2.873 0 6.315-0.796 9.785-1.877v-122.965c0-5.888 4.779-10.667 10.667-10.667h122.994c1.081-3.499 1.849-6.94 1.849-9.813l-0.028-170.212 0.028-169.273c-16.868 5.234-34.788 8.050-53.362 8.050-100.011 0-181.333-81.351-181.333-181.333 0-40.59 13.568-77.995 36.181-108.231h-390.087c-5.888 0-10.667-4.779-10.667-10.667s4.779-10.667 10.667-10.667h408.604c32.711-31.972 77.369-51.769 126.606-51.769 99.982 0 181.333 81.351 181.333 181.333 0.028 73.358-43.804 136.505-106.61 165.063zM707.271 579.954l99.1-99.1h-99.1v99.1zM768.114-223.061c-88.206 0-160 71.765-160 160s71.794 160 160 160c88.235 0 160-71.765 160-160 0-88.206-71.794-160-160-160zM841.273-72.619c4.693-3.584 5.575-10.268 2.020-14.962l-49.323-64.626c-6.087-7.964-14.791-12.572-23.922-12.572h-0.057c-9.131 0-17.892 4.551-24.007 12.516l-49.351 64.597c-3.584 4.665-2.702 11.378 1.991 14.933 4.693 3.584 11.378 2.702 14.933-1.991l45.909-60.075v150.101c0 5.888 4.779 10.667 10.638 10.667 5.916 0 10.695-4.779 10.695-10.667v-149.589l45.511 59.62c3.556 4.722 10.268 5.604 14.962 2.048z" />
<glyph unicode="&#xeb4d;" glyph-name="downloadablefile" d="M768 108.316c-94.265 0-170.667-76.43-170.667-170.667s76.402-170.667 170.667-170.667 170.667 76.43 170.667 170.667-76.43 170.667-170.667 170.667zM854.898-73.387l-78.99-92.132c-4.352-5.092-11.492-5.092-15.844 0l-2.645 3.072-76.345 89.060c-5.831 6.798-3.271 12.345 5.689 12.345h37.945v89.941c0 4.011 3.271 7.282 7.282 7.282h72.021c4.011 0 7.282-3.271 7.282-7.282v-89.941h37.945c8.932-0.028 11.492-5.575 5.66-12.345zM563.911-124.359c7.538-24.747 19.57-47.502 34.987-67.556h-366.137c-28.388 0-51.456 22.471-51.456 50.119v708.722c0 27.648 23.097 50.119 51.484 50.119h443.25c14.194 0 32.455-7.566 42.496-17.607l106.553-106.553c10.041-10.041 17.607-28.302 17.607-42.496v-313.202c-21.163 7.936-43.861 12.601-67.556 13.397v281.173h-107.065c-5.888 0-10.667 4.779-10.667 10.667v107.093h-394.325c-7.822 0-14.222-6.4-14.222-14.222l0.028-645.404c0-7.822 6.4-14.222 14.222-14.222h300.8z" />
<glyph unicode="&#xeb4e;" glyph-name="documentL" d="M274.773 200.562c0 5.888 4.779 10.667 10.667 10.667h453.12c5.888 0 10.667-4.779 10.667-10.667s-4.779-10.667-10.667-10.667h-453.12c-5.888 0-10.667 4.779-10.667 10.667zM285.44 280.86h453.12c5.888 0 10.667 4.779 10.667 10.667s-4.779 10.667-10.667 10.667h-453.12c-5.888 0-10.667-4.779-10.667-10.667s4.779-10.667 10.667-10.667zM285.44 371.826h453.12c5.888 0 10.667 4.779 10.667 10.667s-4.779 10.667-10.667 10.667h-453.12c-5.888 0-10.667-4.779-10.667-10.667s4.779-10.667 10.667-10.667zM842.695 449.109l-0.028-592.185c0-27.648-23.040-50.148-51.371-50.148h-558.507c-5.888 0-10.667 4.779-10.667 10.667s4.779 10.667 10.667 10.667h558.535c16.555 0 30.037 12.914 30.037 28.814l0.028 592.185c0 2.873-0.768 6.315-1.877 9.813h-122.994c-5.888 0-10.667 4.779-10.667 10.667v122.965c-3.499 1.081-6.94 1.877-9.813 1.877h-443.25c-16.612 0-30.151-12.914-30.151-28.814l0.057-553.984c0-5.888-4.779-10.667-10.667-10.667s-10.667 4.779-10.667 10.667l-0.057 553.984c0 27.648 23.097 50.148 51.484 50.148h443.25c14.222 0 32.484-7.566 42.496-17.607l106.553-106.553c10.012-10.041 17.607-28.302 17.607-42.496zM707.186 480.256h99.072l-99.072 99.1v-99.1z" />
<glyph unicode="&#xeb4f;" glyph-name="document" d="M690.83 291.129h-357.66c-11.776 0-21.333 9.557-21.333 21.333s9.557 21.333 21.333 21.333h357.689c11.776 0 21.333-9.557 21.333-21.333-0.028-11.776-9.557-21.333-21.362-21.333zM712.164 204.516c0 11.776-9.557 21.333-21.333 21.333h-357.66c-11.776 0-21.333-9.557-21.333-21.333s9.557-21.333 21.333-21.333h357.689c11.776 0 21.305 9.557 21.305 21.333zM712.164 96.569c0 11.776-9.557 21.333-21.333 21.333h-357.66c-11.776 0-21.333-9.557-21.333-21.333s9.557-21.333 21.333-21.333h357.689c11.776 0 21.305 9.557 21.305 21.333zM842.695 429.824l-0.028-592.185c0-27.648-23.040-50.119-51.371-50.119h-558.507c-28.388 0-51.456 22.5-51.456 50.119l-0.028 708.722c0 27.648 23.097 50.148 51.484 50.148h443.25c14.194 0 32.455-7.566 42.496-17.607l106.553-106.553c10.041-10.069 17.607-28.331 17.607-42.524zM775.14 411.193h-107.065c-5.888 0-10.667 4.779-10.667 10.667v107.065h-394.325c-7.822 0-14.222-6.4-14.222-14.222l0.028-645.404c0-7.822 6.4-14.222 14.222-14.222h497.778c7.822 0 14.222 6.4 14.222 14.222l0.028 541.895z" />
<glyph unicode="&#xeb50;" glyph-name="clipboardL" d="M780.914 553.956h-105.387c-7.367 11.577-20.736 14.165-31.488 16.043-13.397 2.332-26.084 4.551-34.958 19.911-17.152 29.639-61.383 40.192-97.109 40.192-35.669 0-79.9-10.553-97.052-40.192-8.732-15.132-21.419-17.408-34.816-19.797-10.809-1.934-24.206-4.58-31.573-16.128h-105.415c-28.473 0-51.627-23.154-51.627-51.627v-680.505c0-28.444 23.154-51.627 51.627-51.627h537.799c28.473 0 51.598 23.154 51.598 51.627v680.476c0 28.473-23.154 51.627-51.598 51.627zM364.26 531.996c0 13.113 3.413 14.194 19.57 17.067 15.104 2.702 35.84 6.4 49.55 30.123 10.24 17.664 41.813 29.525 78.592 29.525 36.836 0 68.409-11.861 78.649-29.525 13.852-23.979 34.617-27.591 49.778-30.236 15.644-2.731 19.371-3.385 19.371-16.953v-46.364c0-9.472-7.737-17.18-17.209-17.18h-261.12c-9.472 0-17.18 7.708-17.18 17.18v46.364zM811.179-178.176c0-16.697-13.568-30.293-30.265-30.293h-537.799c-16.697 0-30.293 13.568-30.293 30.293v680.505c0 16.697 13.596 30.293 30.293 30.293h99.868l-0.057-0.597v-46.364c0-21.248 17.294-38.514 38.514-38.514h261.12c18.83 0 34.503 13.596 37.803 31.488l77.767 0.398v-444.615c0-2.873-0.768-6.315-1.849-9.813h-122.965c-5.888 0-10.667-4.779-10.667-10.667v-122.965c-3.499-1.081-6.969-1.877-9.842-1.877l-346.965-0.484v577.479c0 5.888-4.779 10.667-10.667 10.667-5.916 0-10.667-4.779-10.667-10.667v-577.479c0-11.52 9.387-20.907 20.907-20.907h347.42c14.194 0 32.455 7.566 42.524 17.607l106.553 106.553c10.041 10.041 17.579 28.302 17.579 42.496v444.615c0 11.52-9.358 20.907-20.878 20.907h-77.511v32.114l-0.057 0.597h99.897c16.697 0 30.265-13.596 30.265-30.293v-680.476zM743.083 3.243l-99.072-99.1v99.1h99.072zM317.952 159.346c0 5.888 4.779 10.667 10.695 10.667h366.734c5.888 0 10.667-4.779 10.667-10.667s-4.779-10.667-10.667-10.667h-366.763c-5.888 0-10.667 4.779-10.667 10.667zM317.952 232.988c0 5.888 4.779 10.667 10.695 10.667h366.734c5.888 0 10.667-4.779 10.667-10.667s-4.779-10.667-10.667-10.667h-366.763c-5.888 0-10.667 4.779-10.667 10.667zM317.952 306.631c0 5.888 4.779 10.667 10.695 10.667h366.734c5.888 0 10.667-4.779 10.667-10.667s-4.779-10.667-10.667-10.667h-366.763c-5.888 0-10.667 4.779-10.667 10.667z" />
<glyph unicode="&#xeb51;" glyph-name="clipboard" d="M676.153 532.764v-48.071c0-15.929-12.914-28.871-28.871-28.871h-270.592c-15.957 0-28.871 12.942-28.871 28.871v48.071c0 44.743 48.811 12.373 73.131 54.443 27.876 48.185 154.226 48.156 182.073 0 24.576-42.468 73.131-9.5 73.131-54.443zM780.885 551.538h-64c1.195-5.632 1.934-11.804 1.934-18.745v-48.071l-0.142-1.451h39.908c5.632 0 10.24-4.608 10.24-10.24v-422.827h-138.041c-7.765 1.166-15.644-0.796-21.988-5.604-7.566-5.746-12.089-14.99-12.089-24.747v-147.428h-331.292c-5.632 0-10.24 4.608-10.24 10.24v590.364c0 5.632 4.608 10.24 10.24 10.24h39.908l-0.142 1.451v48.043c0 6.94 0.711 13.141 1.934 18.745h-64c-30.407 0-55.154-24.747-55.154-55.182v-680.505c0-30.436 24.747-55.182 55.154-55.182h537.799c30.436 0 55.182 24.747 55.182 55.182v680.533c-0.028 30.407-24.775 55.182-55.211 55.182zM768.142 7.509l-128.768-129.308v129.308h128.768zM698.567 354.617c0 11.776-9.557 21.333-21.333 21.333h-329.216c-11.776 0-21.333-9.557-21.333-21.333s9.557-21.333 21.333-21.333h329.244c11.776 0 21.305 9.529 21.305 21.333zM698.567 246.67c0 11.776-9.557 21.333-21.333 21.333h-329.216c-11.776 0-21.333-9.557-21.333-21.333s9.557-21.333 21.333-21.333h329.244c11.776 0 21.305 9.529 21.305 21.333zM698.567 138.724c0 11.776-9.557 21.333-21.333 21.333h-329.216c-11.776 0-21.333-9.557-21.333-21.333s9.557-21.333 21.333-21.333h329.244c11.776 0 21.305 9.557 21.305 21.333z" />
<glyph unicode="&#xeb52;" glyph-name="checklistL" d="M825.088 472.946l-106.553 106.553c-10.041 10.012-28.302 17.607-42.496 17.607h-443.25c-28.388 0-51.484-22.5-51.484-50.148l0.085-554.012c0-5.888 4.779-10.667 10.667-10.667s10.667 4.779 10.667 10.667l-0.114 554.012c0 15.872 13.54 28.814 30.151 28.814h443.25c2.873 0 6.286-0.796 9.813-1.877v-122.965c0-5.888 4.779-10.667 10.667-10.667h122.994c1.081-3.499 1.849-6.94 1.849-9.813l-0.057-592.213c0-15.872-13.483-28.786-30.037-28.786h-558.45c-5.888 0-10.695-4.779-10.695-10.667s4.779-10.667 10.695-10.667h558.507c28.331 0 51.371 22.471 51.371 50.119l0.057 592.213c-0.028 14.165-7.595 32.427-17.636 42.496zM707.186 560.668l99.1-99.072h-99.1v99.072zM293.291 49.607c0-10.354 7.765-18.802 17.323-18.802h56.576c9.557 0 17.323 8.42 17.323 18.802v54.869c0 10.354-7.765 18.745-17.323 18.745h-56.576c-9.557 0-17.323-8.391-17.323-18.745v-54.869zM314.624 101.888h48.583v-49.749h-48.583v49.749zM432.839 77.028c0 5.888 4.779 10.667 10.667 10.667h273.266c5.888 0 10.667-4.779 10.667-10.667s-4.75-10.667-10.667-10.667h-273.266c-5.888 0-10.667 4.779-10.667 10.667zM293.291 175.701c0-10.354 7.765-18.773 17.323-18.773h56.576c9.557 0 17.323 8.42 17.323 18.773v54.898c0 10.354-7.765 18.745-17.323 18.745h-56.576c-9.557 0-17.323-8.42-17.323-18.745v-54.898zM314.624 228.011h48.583v-49.749h-48.583v49.749zM432.839 203.15c0 5.888 4.779 10.667 10.667 10.667h273.266c5.888 0 10.667-4.779 10.667-10.667s-4.75-10.667-10.667-10.667h-273.266c-5.888 0-10.667 4.779-10.667 10.667zM432.839 329.244c0 5.888 4.779 10.667 10.667 10.667h273.266c5.888 0 10.667-4.779 10.667-10.667s-4.75-10.667-10.667-10.667h-273.266c-5.888 0-10.667 4.779-10.667 10.667zM315.335 300.942l-18.375 23.040c-3.669 4.608-2.901 11.321 1.707 14.99 4.636 3.669 11.321 2.901 14.99-1.707l16.498-20.736 50.546 61.895c3.755 4.551 10.468 5.234 15.047 1.508 4.551-3.726 5.234-10.439 1.508-15.019l-52.452-64.228c-3.726-4.551-9.045-7.168-14.649-7.168h-0.114c-5.66 0.085-11.008 2.759-14.706 7.424z" />
<glyph unicode="&#xeb53;" glyph-name="checklist" d="M712.164 203.065c0-11.776-9.557-21.333-21.333-21.333h-214.13c-11.776 0-21.333 9.557-21.333 21.333s9.557 21.333 21.333 21.333h214.13c11.804 0 21.333-9.557 21.333-21.333zM476.7 307.826h214.13c11.776 0 21.333 9.557 21.333 21.333s-9.557 21.333-21.333 21.333h-214.13c-11.776 0-21.333-9.557-21.333-21.333s9.529-21.333 21.333-21.333zM690.83 98.276h-214.13c-11.776 0-21.333-9.557-21.333-21.333s9.557-21.333 21.333-21.333h214.13c11.776 0 21.333 9.557 21.333 21.333s-9.529 21.333-21.333 21.333zM388.693 123.136h-56.576c-9.557 0-17.323-8.42-17.323-18.745v-54.869c0-10.354 7.765-18.773 17.323-18.773h56.576c9.557 0 17.323 8.42 17.323 18.773v54.869c0 10.354-7.765 18.745-17.323 18.745zM388.693 249.259h-56.576c-9.557 0-17.323-8.42-17.323-18.745v-54.869c0-10.354 7.765-18.773 17.323-18.773h56.576c9.557 0 17.323 8.42 17.323 18.773v54.869c0 10.325-7.765 18.745-17.323 18.745zM432.043 421.888c-9.415 6.315-23.182 3.84-29.781-5.291l-48.782-67.243-21.504 19.371c-8.135 7.367-21.532 7.196-29.525-0.313-8.192-7.708-9.102-20.651-2.133-29.44l37.433-47.047c4.722-5.945 11.662-9.358 19.115-9.358 8.391 0 16.128 4.352 20.651 11.634l60.871 98.076c6.229 10.041 3.442 23.040-6.343 29.611zM842.695 448.768l-0.028-592.185c0-27.648-23.040-50.119-51.371-50.119h-558.507c-28.388 0-51.456 22.471-51.456 50.119l-0.028 708.722c0 27.648 23.097 50.148 51.484 50.148h443.25c14.194 0 32.455-7.566 42.496-17.607l106.553-106.553c10.041-10.069 17.607-28.331 17.607-42.524zM775.14 430.137h-107.065c-5.888 0-10.667 4.779-10.667 10.667v107.065h-394.325c-7.822 0-14.222-6.4-14.222-14.222l0.028-645.404c0-7.822 6.4-14.222 14.222-14.222h497.778c7.822 0 14.222 6.4 14.222 14.222l0.028 541.895z" />
<glyph unicode="&#xeb54;" glyph-name="browseL" d="M829.867-192.085c0-5.888-4.779-10.667-10.667-10.667h-512c-69.86 0-113.095 52.764-113.095 101.689v600.149c0 51.513 46.507 87.495 113.067 87.495h493.54c16.043 0 29.099-13.056 29.099-29.099v-133.404c0-5.888-4.779-10.667-10.667-10.667s-10.667 4.779-10.667 10.667v133.404c0 4.21-3.556 7.765-7.765 7.765h-493.511c-54.016 0-91.733-27.193-91.733-66.162v-540.416c19.172 24.434 50.603 41.956 91.733 41.956h275.228c5.888 0 10.667-4.779 10.667-10.667s-4.779-10.667-10.667-10.667h-275.228c-57.372 0-91.676-40.761-91.733-80.242v-0.142c0-38.656 35.072-80.327 91.762-80.327h511.972c5.888 0 10.667-4.779 10.667-10.667zM819.2-120.548h-450.133c-5.888 0-10.667-4.779-10.667-10.667s4.779-10.667 10.667-10.667h450.133c5.888 0 10.667 4.779 10.667 10.667s-4.779 10.667-10.667 10.667zM819.2-59.676h-450.133c-5.888 0-10.667-4.779-10.667-10.667s4.779-10.667 10.667-10.667h450.133c5.888 0 10.667 4.779 10.667 10.667s-4.779 10.667-10.667 10.667zM845.625-0.484c-28.672-13.454-59.193-20.167-88.718-20.167-27.676-0.028-54.471 5.916-78.137 17.778-14.194 6.884-51.371 30.948-100.124 77.113-50.233 47.616-94.777 65.138-121.372 75.605-20.395 8.021-33.849 13.312-34.048 27.477-0.171 13.284 12.572 38.599 36.949 51.655 18.233 9.728 47.815 15.531 88.889-7.68l-84.309 179.826c-6.087 12.999-6.713 27.563-1.792 41.017 4.921 13.426 14.763 24.149 27.762 30.236 12.999 6.059 27.591 6.741 41.074 1.906 13.54-4.864 24.292-14.706 30.35-27.705l57.657-122.766c5.376 9.956 13.824 18.29 24.576 23.324 12.999 6.116 27.62 6.827 41.074 1.934 6.969-2.503 13.198-6.372 18.432-11.292 5.177 11.179 14.165 20.594 25.856 26.084 26.169 12.231 57.344 1.536 70.542-23.836 5.234 7.936 12.601 14.45 21.504 18.603 26.14 12.288 57.543 0.996 69.916-25.23l57.856-124.046c33.479-71.68-14.165-167.765-103.936-209.835zM930.276 200.334l-57.828 123.989c-7.339 15.559-26.027 22.3-41.586 14.99v-0.028c-11.065-5.177-17.948-16.014-17.948-28.302 0-4.978-3.47-9.33-8.363-10.411-4.921-1.138-9.842 1.365-11.975 5.888l-10.581 22.528c-7.623 16.128-26.908 23.125-43.179 15.559-13.028-6.144-20.48-20.309-18.091-34.446 0.882-5.262-2.247-10.325-7.339-11.918-5.063-1.621-10.524 0.796-12.828 5.604l-4.011 8.448c-3.698 7.908-10.212 13.852-18.318 16.782s-16.868 2.503-24.747-1.195c-14.393-6.713-21.988-23.154-17.721-38.229 1.508-5.348-1.308-10.951-6.514-12.914-5.177-1.934-11.036 0.427-13.397 5.461l-72.988 155.392c-3.641 7.822-10.126 13.739-18.261 16.668s-16.953 2.532-24.832-1.138c-7.851-3.669-13.796-10.155-16.754-18.233s-2.588-16.839 1.081-24.633l100.124-213.589c1.991-4.238 0.996-9.273-2.475-12.402-3.47-3.157-8.562-3.669-12.601-1.308-5.063 2.987-9.87 6.315-15.047 9.927l-3.1 2.162c-31.289 21.447-59.221 26.709-80.725 15.189-16.725-8.96-24.491-25.259-25.543-31.289 3.044-2.361 12.203-5.945 20.395-9.188 28.046-11.036 75.008-29.525 128.228-79.986 46.962-44.487 82.603-67.527 94.891-73.472 43.207-21.675 98.617-20.708 148.338 2.56 79.303 37.205 122.226 120.32 93.696 181.532z" />
<glyph unicode="&#xeb55;" glyph-name="browse" d="M824.946-122.396h-477.468c-11.776 0-21.333 9.557-21.333 21.333s9.557 21.333 21.333 21.333h477.468c11.776 0 21.333-9.557 21.333-21.333s-9.557-21.333-21.333-21.333zM840.903 322.56c-15.246-7.14-24.092-22.187-24.121-37.973l-10.581 22.528c-10.126 21.504-35.669 30.805-57.344 20.679-17.778-8.363-27.193-27.392-24.092-45.852l-4.011 8.448c-10.155 21.561-35.669 30.834-57.259 20.679-19.342-9.074-29.127-30.777-23.438-50.802l-72.988 155.42c-10.041 21.504-35.698 30.72-57.259 20.651-21.532-10.069-30.891-35.527-20.821-57.060l100.124-213.618c-5.86 3.442-11.321 7.396-17.493 11.662-83.712 57.401-123.364-8.192-123.136-26.283 0.228-18.204 68.096-15.872 152.064-95.46 46.82-44.373 83.428-68.466 97.564-75.349 44.544-22.357 103.225-22.926 157.525 2.503 82.574 38.684 130.788 127.232 98.873 195.698l-57.828 123.989c-9.927 20.992-34.788 29.98-55.78 20.139zM460.117 93.639c-22.756 8.96-53.874 21.191-54.329 56.86-0.256 19.769 10.638 43.236 28.388 61.212 19.115 19.371 44.43 30.407 71.538 31.289l-55.41 118.187c-9.7 20.764-10.724 44.060-2.844 65.564 7.851 21.419 23.552 38.542 44.26 48.213 11.492 5.376 23.723 8.107 36.38 8.107 33.166 0 63.63-19.371 77.568-49.237l39.538-84.196 0.085 0.057c11.548 5.433 23.808 8.192 36.494 8.192 9.842 0 19.456-1.735 28.501-4.921 6.030 5.376 12.885 9.956 20.452 13.511 11.52 5.404 23.78 8.135 36.409 8.135 18.233 0 35.698-5.888 50.034-16.213l5.547 2.844c7.964 3.726 16.299 6.116 24.86 7.225v189.013c0 25.856-21.020 46.876-46.876 46.876h-493.511c-75.804 0-130.844-44.26-130.844-105.273v-600.178c0-57.458 50.034-119.467 130.873-119.467h512c15.701 0 28.444 12.743 28.444 28.444s-12.743 28.444-28.444 28.444h-512c-50.432 0-73.956 37.291-73.984 62.549v0.171c0.085 25.97 23.012 62.464 73.956 62.464h340.196c-20.622 14.393-46.905 35.328-76.203 63.090-45.71 43.321-85.049 58.795-111.076 69.035z" />
<glyph unicode="&#xeb56;" glyph-name="bookL" d="M800.768 586.581h-493.568c-66.588 0-113.067-35.982-113.067-87.467v-600.178c0-48.896 43.236-101.689 113.095-101.689h511.972c5.888 0 10.667 4.779 10.667 10.667s-4.779 10.667-10.667 10.667h-512c-56.661 0-91.733 41.7-91.762 80.327v0.142c0.085 39.481 34.361 80.242 91.733 80.242h512.028c5.888 0 10.667 4.779 10.667 10.667v567.495c0 16.071-13.056 29.127-29.099 29.127zM808.533 0.626h-501.333c-41.131 0-72.562-17.522-91.733-41.956v540.416c0 38.94 37.717 66.133 91.733 66.133h493.568c4.181 0 7.737-3.556 7.737-7.765v-556.828zM829.867-131.214c0-5.888-4.779-10.667-10.667-10.667h-450.162c-5.888 0-10.667 4.779-10.667 10.667s4.779 10.667 10.667 10.667h450.162c5.888 0 10.667-4.779 10.667-10.667zM829.867-70.315c0-5.888-4.779-10.667-10.667-10.667h-450.162c-5.888 0-10.667 4.779-10.667 10.667s4.779 10.667 10.667 10.667h450.162c5.888 0 10.667-4.807 10.667-10.667z" />
<glyph unicode="&#xeb57;" glyph-name="book" d="M847.644-10.041c0-15.701-12.743-28.444-28.444-28.444h-512c-50.944 0-73.899-36.494-73.956-62.464v-0.171c0.028-25.23 23.524-62.549 73.956-62.549h512c15.701 0 28.444-12.743 28.444-28.444s-12.743-28.444-28.444-28.444h-512c-80.811 0-130.873 62.009-130.873 119.467v600.178c0 60.985 55.040 105.273 130.844 105.273h493.54c25.856 0 46.876-21.020 46.876-46.876v-567.524zM347.477-79.73c-11.776 0-21.333-9.557-21.333-21.333s9.557-21.333 21.333-21.333h477.468c11.776 0 21.333 9.557 21.333 21.333s-9.557 21.333-21.333 21.333h-477.468z" />
<glyph unicode="&#xeb58;" glyph-name="billingpaymentL" d="M278.244 200.078c0 5.888 4.779 10.667 10.667 10.667h453.12c5.888 0 10.667-4.779 10.667-10.667s-4.779-10.667-10.667-10.667h-453.12c-5.888 0-10.667 4.779-10.667 10.667zM288.91 280.405h453.12c5.888 0 10.667 4.779 10.667 10.667s-4.779 10.667-10.667 10.667h-453.12c-5.888 0-10.667-4.779-10.667-10.667s4.779-10.667 10.667-10.667zM288.91 371.371h453.12c5.888 0 10.667 4.779 10.667 10.667s-4.779 10.667-10.667 10.667h-453.12c-5.888 0-10.667-4.779-10.667-10.667s4.779-10.667 10.667-10.667zM952.775-65.65c0-99.982-81.351-181.333-181.333-181.333-50.034 0-95.431 20.395-128.256 53.276h-406.955c-5.888 0-10.667 4.779-10.667 10.667s4.779 10.667 10.667 10.667h388.949c-21.959 29.98-35.044 66.788-35.044 106.695 0 99.982 81.323 181.333 181.333 181.333 18.574 0 36.494-2.844 53.362-8.021l-0.028 170.78 0.028 170.212c0 2.873-0.768 6.315-1.877 9.813h-122.994c-5.888 0-10.667 4.779-10.667 10.667v122.994c-3.499 1.081-6.94 1.849-9.813 1.849h-443.25c-16.612 0-30.151-12.914-30.151-28.814l0.057-553.984c0-5.888-4.779-10.667-10.667-10.667s-10.667 4.779-10.667 10.667l-0.028 554.012c0 27.648 23.097 50.148 51.484 50.148h443.25c14.194 0 32.455-7.566 42.496-17.607l106.553-106.553c10.041-10.041 17.607-28.302 17.607-42.496v-349.241c62.777-28.558 106.61-91.705 106.61-165.063zM710.628 479.772h99.072l-99.072 99.1v-99.1zM931.442-65.65c0 88.235-71.765 160-160 160s-160-71.765-160-160 71.765-160 160-160 160 71.794 160 160zM832.569-106.439c0-25.799-22.869-45.767-53.76-48.156v-15.986c0-6.4-2.674-8.249-7.196-8.249h-1.849c-4.523 0-6.912 1.849-6.912 8.249v16.242c-32.484 3.186-53.248 21.817-53.248 33.252 0 7.708 10.126 11.719 10.638 10.923 8.050-13.796 23.012-24.263 43.292-27.022v65.792c-24.804 6.229-49.408 16.612-49.408 47.758 0 23.95 21.305 43.378 49.237 46.82v15.445c0 6.4 2.674 8.249 7.168 8.249h1.906c4.494 0 6.884-1.849 6.884-8.249v-15.161c30.919-2.389 49.806-19.172 49.806-29.554 0-7.708-10.098-11.719-10.667-10.923-7.054 12.459-21.788 21.589-39.794 23.637v-63.403c26.652-6.4 53.902-16.64 53.902-49.664zM763.534 6.884c-18.318-2.788-31.545-14.905-31.545-30.293 0-17.408 12.487-24.206 31.545-29.497v59.79zM814.734-107.236c0 19.086-16.156 26.596-36.068 32v-62.777c21.248 1.877 36.068 14.308 36.068 30.777z" />
<glyph unicode="&#xeb59;" glyph-name="billingpayment" d="M563.911-124.359c7.538-24.747 19.57-47.502 34.987-67.556h-366.108c-28.388 0-51.456 22.5-51.456 50.119l-0.028 708.722c0 27.648 23.097 50.119 51.484 50.119h443.25c14.194 0 32.455-7.566 42.496-17.607l106.553-106.553c10.041-10.041 17.607-28.302 17.607-42.496v-313.202c-21.163 7.936-43.861 12.601-67.556 13.397v281.173h-107.065c-5.888 0-10.667 4.779-10.667 10.667v107.065h-394.325c-7.822 0-14.222-6.4-14.222-14.222l0.028-645.404c0-7.822 6.4-14.222 14.222-14.222h300.8zM938.667-62.379c0-94.236-76.43-170.667-170.667-170.667s-170.667 76.43-170.667 170.667 76.43 170.667 170.667 170.667 170.667-76.402 170.667-170.667zM834.93-97.536c0 34.674-32.74 44.8-57.316 50.091-21.191 4.807-36.124 8.676-36.124 22.642 0 12.516 11.065 21.191 29.383 21.191 18.29 0 35.641-9.159 45.739-21.191 0.967-0.967 14.45 7.225 14.45 19.257 0 13.966-16.356 27.449-46.706 30.35v9.614c0 12.516-3.84 18.29-14.933 18.29h-1.422c-10.581 0-15.417-6.258-15.417-18.29v-10.581c-28.9-5.291-47.189-23.609-47.189-49.124 0-35.641 30.805-45.255 54.898-50.574 19.74-4.324 36.608-8.192 36.608-23.609 0-12.516-11.065-20.224-30.35-20.224-21.191 0-41.415 10.126-51.541 22.158-0.967 0.967-13.966-7.225-13.966-18.29 0-14.933 18.29-29.867 51.058-33.707v-10.126c0-12.516 4.324-17.806 15.417-17.806h1.451c10.581 0 15.417 5.774 15.417 17.806v11.065c31.289 4.836 50.546 23.609 50.546 51.058z" />
</font>
</defs>
</svg>
