<?xml version="1.0" standalone="no"?>
<!DOCTYPE svg PUBLIC "-//W3C//DTD SVG 1.1//EN" "http://www.w3.org/Graphics/SVG/1.1/DTD/svg11.dtd" >
<svg xmlns="http://www.w3.org/2000/svg">
<metadata>Generated by IcoMoon</metadata>
<defs>
<font id="icoPrimary" horiz-adv-x="1024">
<font-face units-per-em="1024" ascent="716.8" descent="-307.2" />
<missing-glyph horiz-adv-x="1024" />
<glyph unicode="&#x20;" horiz-adv-x="174.08" d="" />
<glyph unicode="&#xec92;" glyph-name="smartstreetlightL" d="M420.978 550.4c-48.356 0-88.178-39.822-88.178-88.178s39.822-88.178 88.178-88.178 88.178 39.822 88.178 88.178-39.822 88.178-88.178 88.178zM420.978 393.956c-36.978 0-65.422 31.289-65.422 65.422s31.289 65.422 65.422 65.422 65.422-31.289 65.422-65.422-28.444-65.422-65.422-65.422zM420.978 317.156c-48.356 0-88.178-39.822-88.178-88.178s39.822-88.178 88.178-88.178c25.6 0 48.356 11.378 65.422 28.444 14.222 17.067 22.756 36.978 22.756 59.733 0 48.356-39.822 88.178-88.178 88.178zM469.333 186.311c-11.378-14.222-31.289-22.756-48.356-22.756-36.978 0-65.422 31.289-65.422 65.422 0 36.978 31.289 65.422 65.422 65.422s65.422-31.289 65.422-65.422c0-17.067-5.689-31.289-17.067-42.667zM420.978 86.756c-48.356 0-88.178-39.822-88.178-88.178s39.822-88.178 88.178-88.178 88.178 39.822 88.178 88.178c0 48.356-39.822 88.178-88.178 88.178zM420.978-69.689c-36.978 0-65.422 31.289-65.422 65.422 0 36.978 31.289 65.422 65.422 65.422s65.422-31.289 65.422-65.422c0-34.133-28.444-65.422-65.422-65.422zM728.178 118.044c-36.978 0-73.956-11.378-102.4-31.289v483.556c0 31.289-25.6 56.889-56.889 56.889h-295.822c-31.289 0-56.889-25.6-56.889-56.889v-679.822c0-31.289 25.6-56.889 56.889-56.889h227.556c5.689 0 11.378 5.689 11.378 11.378s-5.689 11.378-11.378 11.378h-227.556c-19.911 0-36.978 17.067-36.978 36.978v676.978c0 19.911 17.067 36.978 36.978 36.978h295.822c19.911 0 36.978-17.067 36.978-36.978v-500.622c-34.133-34.133-56.889-79.644-56.889-133.689 0-99.556 82.489-182.044 182.044-182.044s182.044 82.489 182.044 182.044-85.333 182.044-184.889 182.044zM728.178-223.289c-88.178 0-159.289 71.111-159.289 159.289s71.111 159.289 159.289 159.289 159.289-71.111 159.289-159.289-71.111-159.289-159.289-159.289zM745.244-155.022c0-8.533-8.533-17.067-17.067-17.067s-17.067 8.533-17.067 17.067 8.533 17.067 17.067 17.067c11.378 0 17.067-5.689 17.067-17.067zM785.067-100.978c5.689-2.844 5.689-11.378 2.844-14.222s-5.689-2.844-8.533-2.844c-2.844 0-5.689 0-5.689 2.844-8.533 5.689-19.911 11.378-31.289 14.222-19.911 2.844-39.822 0-56.889-14.222-5.689-2.844-11.378-2.844-14.222 2.844s-2.844 11.378 2.844 14.222c19.911 17.067 48.356 22.756 73.956 17.067 11.378-5.689 25.6-11.378 36.978-19.911zM816.356-58.311c5.689-2.844 5.689-11.378 2.844-14.222s-5.689-2.844-8.533-2.844c-2.844 0-5.689 0-5.689 2.844-14.222 11.378-31.289 19.911-51.2 22.756-34.133 5.689-68.267-2.844-96.711-22.756-5.689-2.844-11.378-2.844-14.222 2.844s-2.844 11.378 2.844 14.222c31.289 25.6 73.956 34.133 110.933 25.6 19.911-5.689 39.822-14.222 59.733-28.444zM847.644-29.867c-2.844-5.689-11.378-5.689-14.222-2.844-19.911 17.067-45.511 28.444-73.956 34.133-48.356 8.533-96.711-2.844-133.689-34.133-2.844-2.844-5.689-2.844-8.533-2.844s-5.689 0-8.533 2.844c-2.844 5.689-2.844 11.378 2.844 14.222 42.667 34.133 99.556 48.356 153.6 39.822 31.289-5.689 59.733-19.911 82.489-36.978 2.844-2.844 2.844-11.378 0-14.222z" />
<glyph unicode="&#xec93;" glyph-name="trainL" d="M949.333-42.183c0-5.888-4.779-10.667-10.667-10.667h-853.333c-5.888 0-10.667 4.779-10.667 10.667s4.779 10.667 10.667 10.667h853.333c5.888 0 10.667-4.779 10.667-10.667zM164.21 72.391v22.044c0 52.082 89.913 156.188 207.986 156.188h306.261c17.18 0 31.147-13.966 31.147-31.147v-155.676c0-17.18-13.966-31.147-31.147-31.147h-23.353c-6.087-24.661-27.762-43.065-53.618-43.065-25.884 0-47.531 18.404-53.561 43.065h-186.226c-6.087-24.661-27.733-43.065-53.618-43.065s-47.531 18.404-53.532 43.065h-50.574c-21.931 0-39.765 17.806-39.765 39.737zM339.513 32.654h-62.805c5.148-12.772 17.266-21.732 31.374-21.732 14.080-0.028 26.226 8.96 31.431 21.732zM632.917 32.654h-62.805c5.177-12.772 17.294-21.732 31.403-21.732s26.197 8.96 31.403 21.732zM688.299 63.801v87.438h-328.562c-32.057 0-83.826-11.179-113.010-24.377l-60.587-27.42-0.597-5.006v-22.044c0-8.903 7.396-18.404 18.432-18.404h474.482c5.433 0 9.842 4.38 9.842 9.813zM392.164 172.572h84.537v56.718h-84.537v-56.718zM582.599 172.572v56.718h-84.565v-56.718h84.565zM678.485 229.291h-74.553v-56.718h84.366v46.905c0 5.404-4.409 9.813-9.813 9.813zM197.518 128l40.42 18.29c32 14.507 86.67 26.283 121.799 26.283h11.093v56.633c-81.266-0.654-147.371-57.401-173.312-101.205zM768.597 151.239v-87.438c0-5.404 4.409-9.813 9.813-9.813h160.256c5.888 0 10.667-4.779 10.667-10.667s-4.779-10.667-10.667-10.667h-35.47c-6.087-24.661-27.733-43.065-53.589-43.065-25.913 0-47.531 18.404-53.589 43.065h-17.607c-17.152 0-31.147 13.966-31.147 31.147v155.676c0 17.18 13.966 31.147 31.147 31.147h160.256c5.888 0 10.667-4.779 10.667-10.667s-4.779-10.667-10.667-10.667h-62.862v-56.718h62.862c5.888 0 10.667-4.779 10.667-10.667s-4.779-10.667-10.667-10.667h-170.069zM881.038 32.654h-62.805c5.177-12.772 17.294-21.732 31.403-21.732 14.080-0.028 26.197 8.96 31.403 21.732zM768.597 219.477v-46.905h85.874v56.718h-76.060c-5.404 0-9.813-4.409-9.813-9.813z" />
<glyph unicode="&#xec94;" glyph-name="transportation1" d="M202.752 140.146c27.819 0 50.375-22.556 50.375-50.375s-22.556-50.347-50.375-50.347c-27.79 0-50.347 22.556-50.347 50.347 0 27.819 22.556 50.375 50.347 50.375zM760.775 89.771c0-27.819 22.528-50.347 50.375-50.347 27.819 0 50.347 22.556 50.347 50.347 0 27.819-22.528 50.375-50.347 50.375-27.847 0-50.375-22.556-50.375-50.375zM967.168 137.358c-0.256 1.052-6.030 25.742-9.387 36.181-4.523 14.023-17.266 25.486-32.512 29.184-9.614 2.332-79.104 15.161-81.92 15.701-7.595 1.536-10.78 4.238-16.1 8.732l-45.966 41.188c-15.531 13.028-28.16 19.655-54.215 19.655h-478.948c-18.745 0-34.844-6.77-48.014-20.252l-33.138-35.129-8.22-8.22c-12.999-13.284-18.944-19.314-43.378-19.314h-5.205c-20.878 0-35.641-10.866-41.557-30.379-0.341-1.052-8.732-26.055-12.146-44.288-1.906-10.24 0.597-20.423 6.855-27.989 6.741-8.135 17.294-12.601 29.724-12.601h30.891c0.028 43.435 35.356 78.763 78.791 78.763s78.791-35.328 78.82-78.763h450.759c0.028 43.435 35.385 78.763 78.82 78.763s78.763-35.328 78.791-78.763h37.774c12.8 0 24.491 5.404 32.114 14.791 7.339 9.017 9.927 20.594 7.367 32.74z" />
<glyph unicode="&#xec95;" glyph-name="transportation1L" d="M939.264 131.755c-0.228 0.967-5.66 24.121-8.818 33.963-4.608 14.222-17.465 25.799-32.825 29.525-9.017 2.19-73.842 14.137-76.402 14.649-6.144 1.252-8.562 3.3-13.369 7.367l-42.524 38.116-0.171 0.085-0.114 0.142c-14.763 12.402-27.534 19.143-52.764 19.143h-445.952c-18.46 0-34.332-6.684-47.303-19.968l-30.72-32.569-7.737-7.737c-11.719-11.947-16.583-16.924-37.831-16.924h-4.836c-21.134 0-36.096-11.008-42.069-30.692-0.341-0.996-8.192-24.519-11.406-41.7-1.991-10.581 0.626-21.134 7.14-29.013 6.969-8.391 17.778-12.999 30.379-12.999h37.746c1.849-30.094 26.652-54.044 57.173-54.044 31.744 0 57.572 25.828 57.572 57.572s-25.828 57.572-57.572 57.572c-25.486 0-46.876-16.754-54.443-39.737h-40.476c-6.258 0-11.093 1.849-13.966 5.319-2.475 2.987-3.413 7.054-2.617 11.435 2.93 15.73 10.61 38.599 10.78 39.14 3.271 10.809 10.155 15.844 21.732 15.844h4.836c30.236 0 40.306 10.297 53.077 23.353l7.652 7.652 30.976 32.796c8.818 9.045 19.257 13.426 31.915 13.426h445.924c20.622 0 28.501-5.291 38.884-13.995l39.623-35.726 3.243-2.702c5.604-4.75 11.406-9.643 23.125-12.032 18.603-3.442 68.437-12.715 75.435-14.393 9.444-2.304 15.616-9.387 17.522-15.332 2.93-9.017 8.306-32.057 8.306-32.057 1.252-5.916 0.114-11.264-3.271-15.445-3.698-4.58-9.557-7.196-16.071-7.196h-54.101c-7.566 22.983-28.956 39.737-54.414 39.737-25.486 0-46.905-16.754-54.471-39.737h-408.149c-5.888 0-10.667-4.779-10.667-10.667s4.779-10.667 10.667-10.667h405.39c1.849-30.094 26.681-54.044 57.202-54.044s55.324 23.979 57.173 54.044h51.371c12.971 0 24.889 5.49 32.654 15.104 7.509 9.074 10.183 20.907 7.566 33.394zM216.889 122.852c19.968 0 36.238-16.242 36.238-36.21s-16.242-36.238-36.238-36.238c-19.968 0-36.21 16.242-36.21 36.238 0 19.968 16.242 36.21 36.21 36.21zM790.528 50.404c-19.996 0-36.238 16.242-36.238 36.238 0 19.968 16.242 36.21 36.238 36.21 19.968 0 36.21-16.242 36.21-36.21s-16.27-36.238-36.21-36.238z" />
<glyph unicode="&#xec96;" glyph-name="transportation2" d="M946.688 273.408c0-45.34-115.001-40.619-149.447-40.619l-475.051 0.028c-54.699 0-90.368 24.292-110.763 42.667-6.855 6.172-22.841 27.961-36.068 46.649h-26.652c-29.924 0-44.004-1.536-55.95 16.327-4.636 6.912-5.717 8.448-10.695 16.612-10.325 16.868-4.551 41.415 24.946 41.415 19.94 0 31.147 18.432 17.465 39.31-15.417 23.438-33.422 51.257-38.059 59.534-9.671 17.237 0.228 35.328 18.489 35.328h43.406c13.682 0 19.57-3.129 29.924-12.885 31.858-30.009 84.764-82.603 102.656-97.934 42.638-36.437 76.43-35.641 127.858-35.641h288.284c48.526 0 101.348 2.788 126.748-31.46 0 0 15.815-23.524 40.505-28.018 53.589-12.544 82.404-23.211 82.404-51.314zM152.405-89.401c0-27.819 22.556-50.347 50.347-50.347 27.819 0 50.375 22.556 50.375 50.347 0 27.819-22.556 50.375-50.375 50.375s-50.347-22.556-50.347-50.375zM811.15-39.026c27.819 0 50.347-22.556 50.347-50.375s-22.528-50.347-50.347-50.347c-27.847 0-50.375 22.556-50.375 50.347 0 27.819 22.528 50.375 50.375 50.375zM959.829-74.553c-7.623-9.415-19.314-14.791-32.114-14.791h-37.774c-0.028 43.435-35.356 78.763-78.791 78.763s-78.791-35.328-78.82-78.763h-450.759c-0.028 43.435-35.385 78.763-78.82 78.763s-78.763-35.328-78.791-78.763h-30.891c-12.402 0-22.955 4.466-29.696 12.601-6.286 7.566-8.789 17.749-6.855 27.989 3.413 18.204 11.776 43.236 12.146 44.288 5.86 19.484 20.651 30.35 41.5 30.35h5.177c24.434 0 30.379 6.059 43.378 19.314l8.22 8.22 33.138 35.1c13.141 13.483 29.269 20.252 48.014 20.252h478.976c26.027 0 38.684-6.628 54.215-19.655l45.966-41.188c5.291-4.494 8.505-7.196 16.071-8.732 2.816-0.512 72.334-13.369 81.948-15.701 15.218-3.698 27.961-15.161 32.484-29.184 3.356-10.411 9.131-35.129 9.387-36.181 2.588-12.117-0.028-23.694-7.31-32.683z" />
<glyph unicode="&#xec97;" glyph-name="transportation2L" d="M939.634-43.036c-0.228 0.996-5.632 24.149-8.818 33.991-4.608 14.194-17.436 25.799-32.796 29.525-9.017 2.19-73.842 14.165-76.402 14.649-6.172 1.252-8.562 3.3-13.369 7.367l-42.837 38.343c-14.763 12.402-27.534 19.143-52.764 19.143h-445.924c-18.46 0-34.332-6.684-47.303-19.968l-30.748-32.569-7.737-7.708c-11.719-11.975-16.583-16.953-37.86-16.953h-4.836c-21.106 0-36.096-11.008-42.041-30.692-0.313-0.996-8.192-24.491-11.406-41.7-1.991-10.581 0.626-21.134 7.14-28.985 6.969-8.42 17.778-13.028 30.407-13.028h37.746c1.849-30.094 26.681-54.044 57.202-54.044 31.744 0 57.543 25.828 57.543 57.543 0 31.744-25.828 57.572-57.543 57.572-25.458 0-46.876-16.754-54.443-39.737h-40.505c-6.258 0-11.093 1.82-13.995 5.319-2.475 3.015-3.385 7.054-2.588 11.406 2.958 15.73 10.61 38.628 10.78 39.14 3.271 10.809 10.183 15.844 21.732 15.844h4.836c30.236 0 40.334 10.297 53.106 23.353l7.623 7.652 31.004 32.796c8.789 9.017 19.228 13.426 31.886 13.426h445.924c19.086 0 27.136-4.124 38.912-14.023l39.623-35.698 3.271-2.731c5.604-4.75 11.378-9.643 23.097-12.004 18.603-3.442 68.437-12.715 75.435-14.421 9.444-2.304 15.588-9.358 17.55-15.36 2.901-9.017 8.277-32.028 8.277-32.028 1.28-5.916 0.142-11.264-3.271-15.445-3.641-4.523-9.643-7.196-16.071-7.196h-54.101c-7.538 22.983-28.956 39.737-54.414 39.737-25.486 0-46.905-16.754-54.471-39.737h-408.178c-5.888 0-10.667-4.779-10.667-10.667s4.779-10.667 10.667-10.667h405.39c1.877-30.094 26.681-54.044 57.23-54.044 30.521 0 55.324 23.979 57.202 54.044h51.342c12.999 0 24.889 5.49 32.654 15.104 7.452 9.188 10.155 21.020 7.509 33.451zM217.287-51.883c19.968 0 36.21-16.242 36.21-36.238s-16.242-36.21-36.21-36.21-36.21 16.242-36.21 36.21c0 19.996 16.242 36.238 36.21 36.238zM790.898-124.331c-19.968 0-36.238 16.242-36.238 36.21s16.27 36.238 36.238 36.238c19.968 0 36.21-16.242 36.21-36.238 0-19.968-16.242-36.21-36.21-36.21zM932.722 270.99c0-9.273-3.641-17.778-10.524-24.576-21.333-21.163-70.684-24.889-122.766-24.889l-11.15 0.028-8.59 0.057-452.409 0.028c-54.272 0-90.112 24.604-112.327 43.122-4.523 3.755-5.148 10.468-1.365 15.019 3.726 4.523 10.468 5.12 15.019 1.365 21.333-17.778 51.854-38.172 98.674-38.172l461.198-0.085c27.136-0.199 98.987-0.882 118.699 18.66 2.873 2.844 4.21 5.86 4.21 9.444 0 16.896-16.412 25.884-70.258 38.514-27.079 4.921-44.288 30.037-44.999 31.118-19.001 25.6-61.212 25.458-102.087 25.259l-9.785-0.028h-277.703c-48.412 0.228-82.83-0.028-125.554 36.494-10.553 9.045-32.768 30.578-56.263 53.362-14.905 14.421-29.924 28.985-41.842 40.22-8.476 7.993-11.634 9.387-21.191 9.387h-41.33c-4.153 0-7.424-1.678-9.188-4.665-2.076-3.556-1.735-8.42 0.882-13.084 3.527-6.258 16.896-27.25 35.84-56.121 8.42-12.857 9.842-26.596 3.84-37.66-5.518-10.183-16.498-16.299-29.383-16.299-5.575 0-12.914-1.195-16.071-6.798-2.503-4.494-1.963-10.923 1.394-16.412l8.59-13.369 1.394-2.076c7.054-10.524 13.653-10.866 38.116-10.837l93.582 0.028c5.888 0 10.667-4.779 10.667-10.667s-4.779-10.667-10.667-10.667l-93.468-0.028c-25.429-0.142-42.212-0.171-55.922 20.281l-1.365 2.048-9.074 14.137c-7.424 12.146-8.135 26.709-1.792 37.973 3.698 6.599 13.113 17.692 34.645 17.692 5.006 0 8.903 1.877 10.638 5.092 2.133 3.954 1.052 9.728-2.93 15.815-9.273 14.108-31.289 47.815-36.665 57.429-6.343 11.349-6.599 24.149-0.654 34.304 5.604 9.529 15.9 15.246 27.591 15.246h41.33c16.754 0 24.917-4.921 35.812-15.189 11.975-11.321 27.108-25.97 42.041-40.448 22.244-21.561 45.255-43.861 55.324-52.452 36.75-31.403 64.996-31.147 111.673-31.374l287.403 0.028c43.975 0.199 93.895 0.37 119.609-34.276 0.37-0.54 13.255-19.143 31.915-22.556 49.636-11.662 87.239-23.353 87.239-59.42z" />
<glyph unicode="&#xec98;" glyph-name="transportation3" d="M946.688 112.498c0-45.34-115.001-40.619-149.447-40.619l-475.051 0.028c-54.699 0-90.368 24.292-110.763 42.667-6.855 6.172-22.841 27.961-36.068 46.649h-26.652c-29.924 0-44.004-1.536-55.95 16.327-4.636 6.912-5.717 8.448-10.695 16.612-10.325 16.868-4.551 41.415 24.946 41.415 19.94 0 31.147 18.46 17.465 39.31-15.388 23.467-33.394 51.285-38.030 59.563-9.671 17.237 0.228 35.328 18.489 35.328h43.406c13.682 0 19.57-3.129 29.924-12.885 31.829-30.009 84.736-82.603 102.656-97.906 42.638-36.466 76.43-35.641 127.858-35.641h288.284c48.526 0 101.348 2.788 126.748-31.46 0 0 15.815-23.524 40.505-28.018 53.561-12.601 82.375-23.239 82.375-51.371z" />
<glyph unicode="&#xec99;" glyph-name="transportation3L" d="M936.676 116.992c0-9.273-3.641-17.778-10.524-24.576-21.362-21.163-70.684-24.889-122.738-24.889l-11.15 0.028-8.59 0.057-452.409 0.028c-54.272 0-90.112 24.604-112.327 43.15-4.523 3.755-5.148 10.468-1.365 15.019 3.755 4.551 10.468 5.12 15.019 1.365 21.362-17.778 51.854-38.172 98.674-38.172l461.198-0.085c27.136-0.199 98.987-0.853 118.67 18.66 2.873 2.844 4.21 5.86 4.21 9.444 0 16.896-16.412 25.884-70.286 38.514-27.079 4.921-44.288 30.037-44.999 31.090-19.001 25.6-61.298 25.458-102.087 25.287l-9.785-0.028h-277.703c-48.242 0.284-82.83-0.028-125.554 36.494-10.553 9.045-32.768 30.578-56.292 53.362-14.876 14.421-29.924 28.985-41.842 40.22-8.448 7.993-11.634 9.387-21.191 9.387h-41.301c-4.153 0-7.424-1.678-9.188-4.693-2.048-3.527-1.735-8.42 0.882-13.056 3.499-6.258 16.896-27.25 35.84-56.121 8.42-12.885 9.842-26.596 3.84-37.689-5.518-10.183-16.498-16.27-29.383-16.27-5.604 0-12.914-1.195-16.071-6.798-2.532-4.494-1.963-10.923 1.394-16.412l8.59-13.397 1.394-2.048c7.054-10.524 13.653-10.923 38.116-10.837h93.554c5.888 0 10.667-4.779 10.667-10.667s-4.779-10.667-10.667-10.667h-93.468c-25.429-0.142-42.212-0.171-55.922 20.281l-1.365 2.048-9.074 14.165c-7.424 12.146-8.135 26.681-1.792 37.973 3.698 6.599 13.113 17.692 34.674 17.692 5.006 0 8.903 1.877 10.638 5.092 2.133 3.954 1.052 9.728-2.93 15.815-9.216 14.052-31.232 47.758-36.608 57.372-6.343 11.349-6.599 24.149-0.654 34.276 5.604 9.529 15.9 15.246 27.591 15.246h41.33c16.754 0 24.889-4.921 35.812-15.189 12.004-11.292 27.108-25.941 42.069-40.448 22.244-21.561 45.255-43.861 55.324-52.48 36.75-31.403 65.081-31.431 111.673-31.374l287.403 0.028c44.089 0.142 93.895 0.37 119.609-34.304 0.37-0.54 13.255-19.143 31.915-22.556 49.579-11.577 87.182-23.268 87.182-59.335z" />
<glyph unicode="&#xec9a;" glyph-name="truck" d="M780.629-40.363c0-32.057-25.998-58.055-58.055-58.055-32.085 0-58.055 25.998-58.055 58.055 0 32.085 25.998 58.084 58.055 58.084 32.085 0 58.055-25.998 58.055-58.084zM307.484 17.721c-32.085 0-58.084-25.998-58.084-58.084 0-32.057 25.97-58.055 58.084-58.055 32.057 0 58.055 25.998 58.055 58.055 0 32.085-25.998 58.084-58.055 58.084zM846.45 77.084l-3.812-0.398h-436.139c-30.436 0-55.182 24.747-55.182 55.182v148.452h-46.677c-17.294 0-40.277-9.671-52.338-21.988l-75.662-77.312c-12.032-12.288-21.447-35.385-21.447-52.594v-127.63c0-22.556 18.375-40.932 40.932-40.932h24.832c0.142 47.588 38.884 86.272 86.5 86.272s86.357-38.684 86.5-86.272h242.119c0.142 47.588 38.884 86.272 86.5 86.272 47.502 0 86.158-38.485 86.471-85.931 10.012 0.825 18.66 4.494 25.003 11.065 12.715 13.141 12.459 32.256 12.402 34.020v71.794zM842.638 325.006c14.734 0 26.738-12.004 26.738-26.738v-166.4c0-14.734-12.004-26.738-26.738-26.738h-436.139c-14.734 0-26.738 12.004-26.738 26.738v166.4c0 14.734 12.004 26.738 26.738 26.738h436.139z" />
<glyph unicode="&#xec9b;" glyph-name="truckL" d="M852.395-18.972h-46.421c-5.234 32.768-33.422 57.97-67.641 57.97s-62.436-25.202-67.641-57.97h-298.354c-5.205 32.768-33.451 57.97-67.641 57.97-34.219 0-62.436-25.202-67.641-57.97h-43.691c-11.748 0-19.627 10.126-19.627 19.598v127.63c0 11.691 7.196 29.298 15.36 37.66l75.662 77.312c8.107 8.306 25.429 15.588 37.092 15.588h14.393c5.888 0 10.667 4.779 10.667 10.667s-4.779 10.667-10.667 10.667h-14.393c-17.294 0-40.277-9.671-52.338-21.988l-75.662-77.284c-12.032-12.288-21.447-35.385-21.447-52.594v-127.63c0-22.556 18.375-40.932 40.96-40.932h43.662c5.12-32.882 33.394-58.169 67.669-58.169s62.549 25.287 67.669 58.169h298.297c5.12-32.882 33.365-58.169 67.669-58.169 34.276 0 62.521 25.287 67.669 58.169h46.393c5.888 0 10.667 4.779 10.667 10.667 0 5.86-4.779 10.638-10.667 10.638zM304.697-77.141c-26.14 0-47.417 21.276-47.417 47.388 0 26.169 21.248 47.417 47.417 47.417 26.14 0 47.388-21.248 47.388-47.417 0-26.14-21.276-47.388-47.388-47.388zM738.332-77.141c-26.14 0-47.417 21.276-47.417 47.388 0 26.169 21.248 47.417 47.417 47.417 26.14 0 47.388-21.248 47.388-47.417 0-26.14-21.276-47.388-47.388-47.388zM818.603 323.186h-405.191c-28.473 0-51.627-23.154-51.627-51.627v-150.983c0-28.444 23.154-51.627 51.627-51.627h405.22c28.444 0 51.627 23.154 51.627 51.627v150.983c-0.028 28.444-23.182 51.627-51.655 51.627zM848.896 120.576c0-16.697-13.568-30.293-30.293-30.293h-405.191c-16.725 0-30.293 13.596-30.293 30.293v150.983c0 16.697 13.568 30.293 30.293 30.293h405.22c16.697 0 30.293-13.596 30.293-30.293v-150.983z" />
<glyph unicode="&#xec9c;" glyph-name="twotruck" d="M452.75 126.236v76.373l360.789 192.967c21.646 11.833 39.31 4.437 47.189-8.107 8.391-13.369 7.14-34.901-11.748-48.441l-13.739-11.065v-83.94c0-18.773-12.345-30.948-24.548-34.674-4.295-1.308-7.31-5.461-7.31-10.041 0-5.831 4.722-10.553 10.553-10.553 3.271 0 6.286 1.479 8.306 4.039 7.253 9.273 20.679 10.923 29.952 3.641 9.273-7.253 10.894-20.679 3.641-29.952-10.155-12.942-25.429-20.366-41.87-20.366-29.326 0-53.22 23.893-53.22 53.22 0 21.504 12.572 40.42 31.886 48.782v45.511l-217.259-175.161h-115.143c-0.057-0.085-7.481-0.683-7.481 7.765zM723.968 17.721c-32.085 0-58.084-25.998-58.084-58.084 0-32.057 25.97-58.055 58.084-58.055 32.057 0 58.055 25.998 58.055 58.055s-25.97 58.084-58.055 58.084zM308.85 17.721c-32.085 0-58.055-25.998-58.055-58.084 0-32.057 25.97-58.055 58.055-58.055 32.057 0 58.055 25.998 58.055 58.055 0.028 32.057-25.97 58.084-58.055 58.084zM826.027 89.941h-373.276c-15.673 0-28.444 12.743-28.444 28.388v147.029c0 22.812-18.574 41.387-41.387 41.387h-50.972c-19.996 0-46.649-11.207-60.7-25.515l-89.742-91.733c-13.938-14.251-24.86-41.045-24.86-60.985l-0.028-127.716c0-22.556 18.347-40.932 40.932-40.932h24.832c0.142 47.588 38.884 86.272 86.5 86.272s86.357-38.684 86.471-86.272h242.119c0.142 47.588 38.884 86.272 86.5 86.272s86.357-38.684 86.5-86.272h15.559c22.812 0 41.387 18.574 41.387 41.387v47.275c0 22.841-18.574 41.415-41.387 41.415z" />
<glyph unicode="&#xec9d;" glyph-name="train" d="M938.667-88.576h-853.333c-11.776 0-21.333 9.557-21.333 21.333s9.557 21.333 21.333 21.333h853.333c11.776 0 21.333-9.557 21.333-21.333s-9.557-21.333-21.333-21.333zM256.256 21.333c0-29.355 23.239-53.248 51.826-53.248 28.558 0 51.854 23.865 51.94 53.22l-103.765 0.028zM549.66 21.333c0-29.355 23.239-53.248 51.826-53.248 28.53 0 51.826 23.865 51.911 53.248h-103.737zM798.236 14.137c3.442-25.97 25.173-46.052 51.399-46.052 26.112 0 47.815 19.996 51.371 45.881l-102.77 0.171zM359.737 146.916c-31.63 0-82.716-11.036-111.559-24.064l-73.301-34.475v-16.754c0-15.332 12.629-29.070 29.099-29.070h474.51c11.264 0 20.48 9.216 20.48 20.48v83.883h-339.228zM236.26 148.679c32.597 14.763 87.893 26.681 123.449 26.681h339.228v43.349c0 11.264-9.216 20.48-20.48 20.48h-306.261c-89.913 0-164.494-65.735-188.871-115.399l52.935 24.889zM938.667 175.36v63.829h-160.256c-11.236 0-20.452-9.216-20.452-20.48v-43.349h180.708zM757.959 146.916v-83.883c0-11.264 9.216-20.48 20.452-20.48h160.256v104.363h-180.708z" />
<glyph unicode="&#xec9e;" glyph-name="trafficconeL" d="M831.744-103.822h-39.652l-196.75 679.538c-5.689 19.627-23.922 33.337-44.373 33.337h-81.067c-20.537 0-38.798-13.796-44.402-33.508l-193.564-679.367h-39.68c-22.812 0-41.387-18.574-41.387-41.387v-40.476c0-22.812 18.574-41.387 41.387-41.387h639.46c22.812 0 41.387 18.574 41.387 41.387v40.476c0.028 22.812-18.546 41.387-41.358 41.387zM377.173 328.078h267.662l45.028-155.563h-357.006l44.316 155.563zM404.508 423.993l212.537 0.085 21.618-74.667h-255.403l21.248 74.581zM446.037 569.714c3.015 10.61 12.857 18.034 23.893 18.034h81.067c11.008 0 20.821-7.367 23.865-17.948l36.039-124.473h-200.306l35.442 124.388zM326.77 151.182h369.266l21.589-74.581h-305.18c-5.888 0-10.667-4.779-10.667-10.667s4.779-10.667 10.667-10.667h311.381l46.052-159.118h-515.755l72.647 255.033zM851.797-185.685c0-11.065-8.988-20.053-20.053-20.053h-639.488c-11.065 0-20.053 8.988-20.053 20.053v40.476c0 11.065 8.988 20.053 20.053 20.053h639.46c11.065 0 20.053-8.988 20.053-20.053v-40.476z" />
<glyph unicode="&#xec9f;" glyph-name="trafficcone" d="M869.575-144.213v-40.476c0-20.85-16.981-37.831-37.831-37.831h-639.488c-20.85 0-37.831 16.981-37.831 37.831v40.476c0 20.85 16.981 37.831 37.831 37.831h48.725l48.156 165.461h444.928l48.896-165.461h48.725c20.907 0 37.888-16.953 37.888-37.831zM625.749 433.351l-0.654 2.304-39.993 138.126c-4.38 15.189-18.29 25.628-34.105 25.628h-81.067c-15.872 0-29.81-10.524-34.162-25.771l-39.31-137.984-9.017-31.602h246.784l-8.476 29.298zM704.057 162.873l-44.743 154.596h-296.533l-48.953-171.776h395.207l-4.978 17.18z" />
<glyph unicode="&#xeca0;" glyph-name="towtruckL" d="M856.747-19.826h-46.592c-5.234 32.768-33.422 57.97-67.641 57.97s-62.436-25.202-67.641-57.97h-298.354c-5.205 32.768-33.422 57.97-67.641 57.97s-62.407-25.202-67.641-57.97h-43.691c-11.748 0-19.598 10.126-19.598 19.598l0.028 127.716c0 14.308 8.789 35.84 18.802 46.052l89.742 91.733c9.984 10.183 31.204 19.115 45.454 19.115h50.972c11.065 0 20.053-9.017 20.053-20.053v-147.001c0-27.42 22.329-49.721 49.778-49.721h403.968c5.888 0 10.667 4.779 10.667 10.667s-4.779 10.667-10.667 10.667h-403.968c-15.701 0-28.444 12.715-28.444 28.388v147.001c0 22.812-18.574 41.387-41.387 41.387h-50.972c-20.025 0-46.677-11.207-60.7-25.515l-89.771-91.733c-13.938-14.251-24.86-41.045-24.86-60.985l-0.028-127.716c0-22.585 18.375-40.932 40.932-40.932h43.662c5.12-32.882 33.394-58.169 67.669-58.169 34.304 0 62.549 25.287 67.669 58.169h298.297c5.12-32.882 33.365-58.169 67.669-58.169 34.276 0 62.521 25.287 67.669 58.169h46.564c5.888 0 10.667 4.779 10.667 10.667s-4.779 10.667-10.667 10.667zM308.85-77.995c-26.14 0-47.388 21.276-47.388 47.388 0 26.169 21.248 47.417 47.388 47.417s47.417-21.248 47.417-47.417c0-26.14-21.276-47.388-47.417-47.388zM742.514-77.995c-26.14 0-47.417 21.276-47.417 47.388 0 26.169 21.248 47.417 47.417 47.417 26.14 0 47.388-21.248 47.388-47.417 0-26.14-21.276-47.388-47.388-47.388zM437.817 181.191c-2.788 5.205-0.825 11.662 4.352 14.421l371.371 198.884c21.646 11.804 39.31 4.437 47.189-8.107 8.391-13.369 7.14-34.901-11.748-48.441l-10.78-8.676v-70.997c0-13.312-8.533-21.902-17.010-24.491-8.761-2.674-14.848-11.008-14.848-20.252 0-11.719 9.5-21.22 21.191-21.22 6.542 0 12.629 2.958 16.697 8.135 3.641 4.636 10.354 5.433 14.962 1.792 4.636-3.641 5.433-10.354 1.792-14.962-8.107-10.354-20.309-16.299-33.479-16.299-23.467 0-42.524 19.086-42.524 42.553 0 18.802 12.004 35.129 29.924 40.647 0.028 0 1.934 0.654 1.934 4.096v53.817l-255.716-206.052c-1.963-1.593-4.352-2.361-6.684-2.361-3.1 0-6.201 1.365-8.306 3.982-3.698 4.608-2.958 11.292 1.621 14.99l288.313 232.277c8.761 6.315 9.813 14.962 6.599 20.11-3.243 5.177-10.354 5.404-18.972 0.683l-371.428-198.912c-5.205-2.788-11.691-0.796-14.45 4.38z" />
<glyph unicode="&#xeca1;" glyph-name="tankertruckL" d="M397.739 68.494h35.698v-1.394c0-5.888 4.779-10.667 10.667-10.667s10.667 4.779 10.667 10.667v1.422l360.107 0.114c74.468 0 135.083 60.075 135.083 133.916 0 73.756-60.587 133.774-135.083 133.774h-35.044v1.365c0 5.888-4.779 10.667-10.667 10.667s-10.667-4.779-10.667-10.667v-1.365h-59.705v1.365c0 5.888-4.779 10.667-10.667 10.667s-10.667-4.779-10.667-10.667v-1.365h-222.692v1.365c0 5.888-4.779 10.667-10.667 10.667s-10.667-4.779-10.667-10.667v-1.365h-35.698c-74.126 0-134.428-60.132-134.428-134.059 0.028-73.756 60.302-133.774 134.428-133.774zM758.528 314.994v-33.451h-59.705v33.451h59.705zM758.528 226.645h-59.705v33.564h59.705v-33.564zM698.823 205.312h59.705v-33.564h-59.705v33.564zM677.49 314.994v-169.785c0-5.888 4.779-10.667 10.667-10.667s10.667 4.779 10.667 10.667v5.205h59.705v-5.205c0-5.888 4.779-10.667 10.667-10.667s10.667 4.779 10.667 10.667v169.785h35.044c62.72 0 113.749-50.432 113.749-112.441 0-62.066-51.001-112.583-113.749-112.583l-360.107-0.114v225.138h222.692zM397.739 314.994h35.698v-225.138h-35.698c-62.35 0-113.095 50.432-113.095 112.441 0.028 62.123 50.745 112.697 113.095 112.697zM930.873-20.11h-29.525c-5.205 32.768-33.422 57.97-67.641 57.97s-62.407-25.202-67.641-57.97h-33.394c-5.234 32.768-33.422 57.97-67.641 57.97s-62.436-25.202-67.641-57.97h-303.445c-5.234 32.768-33.422 57.97-67.641 57.97s-62.436-25.202-67.641-57.97h-43.691c-11.748 0-19.627 10.126-19.627 19.598v127.63c0 11.691 7.168 29.298 15.36 37.66l75.662 77.312c8.135 8.306 25.458 15.588 37.092 15.588h14.393c5.888 0 10.667 4.779 10.667 10.667s-4.779 10.667-10.667 10.667h-14.364c-17.266 0-40.277-9.671-52.338-21.988l-75.662-77.312c-12.032-12.288-21.447-35.385-21.447-52.594v-127.63c0-22.585 18.375-40.932 40.96-40.932h43.662c5.12-32.882 33.365-58.169 67.669-58.169 34.276 0 62.521 25.287 67.669 58.169h303.417c5.12-32.882 33.365-58.169 67.669-58.169 34.276 0 62.549 25.287 67.641 58.169h33.365c5.12-32.882 33.365-58.169 67.641-58.169s62.549 25.287 67.669 58.169h29.497c5.888 0 10.667 4.779 10.667 10.667-0.028 5.888-4.807 10.667-10.695 10.667zM226.304-78.279c-26.14 0-47.417 21.276-47.417 47.388 0 26.14 21.276 47.417 47.417 47.417s47.388-21.276 47.388-47.417c0-26.112-21.248-47.388-47.388-47.388zM665.060-78.279c-26.14 0-47.417 21.276-47.417 47.388 0 26.14 21.248 47.417 47.417 47.417 26.112 0 47.417-21.276 47.417-47.417-0.028-26.112-21.305-47.388-47.417-47.388zM833.735-78.279c-26.14 0-47.388 21.276-47.388 47.388 0 26.14 21.248 47.417 47.388 47.417s47.417-21.276 47.417-47.417c-0.028-26.112-21.276-47.388-47.417-47.388z" />
<glyph unicode="&#xeca2;" glyph-name="tankertruck" d="M710.713 276.11v36.665h55.040v-36.665h-55.040zM765.753 247.666h-55.040v-36.665h55.040v36.665zM841.557 312.747h-47.36v-151.324c0-7.851-6.372-14.222-14.222-14.222s-14.222 6.372-14.222 14.222v21.134h-55.040v-21.134c0-7.851-6.343-14.222-14.222-14.222-7.851 0-14.222 6.372-14.222 14.222v151.324h-275.911c-29.98 0-57.060-12.459-76.402-32.427-18.546-19.115-30.037-45.056-30.037-73.671 0-58.368 47.758-105.813 106.439-105.813l435.2 0.142c18.887 0 36.608 4.892 52.025 13.426 32.796 18.119 55.068 52.793 55.068 92.53 0 58.34-48.043 105.813-107.093 105.813zM227.612 17.692c-32.085 0-58.055-25.998-58.055-58.084 0-32.057 25.97-58.055 58.055-58.055 32.057 0 58.055 25.998 58.055 58.055 0.028 32.085-25.97 58.084-58.055 58.084zM654.080 17.692c-32.085 0-58.055-25.998-58.055-58.084 0-32.057 25.998-58.055 58.055-58.055 32.085 0 58.055 25.998 58.055 58.055 0 32.085-25.97 58.084-58.055 58.084zM923.022 5.348v94.436c-22.699-17.010-50.887-27.25-81.465-27.25l-435.2-0.142c-74.382 0-134.884 60.245-134.884 134.258 0 27.193 8.192 52.48 22.158 73.671h-68.836c-17.266 0-40.249-9.671-52.338-21.988l-75.662-77.312c-12.032-12.288-21.447-35.385-21.447-52.594v-127.63c0-22.556 18.375-40.932 40.932-40.932h24.832c0.142 47.588 38.884 86.272 86.5 86.272s86.357-38.684 86.5-86.272h253.468c0.142 47.588 38.884 86.272 86.5 86.272h145.095c47.502 0 86.13-38.485 86.471-85.931 10.012 0.825 18.66 4.494 25.003 11.065 12.715 13.198 12.459 32.284 12.373 34.076zM799.175 17.692c-32.085 0-58.055-25.998-58.055-58.084 0-32.057 25.998-58.055 58.055-58.055 32.085 0 58.055 25.998 58.055 58.055 0 32.085-25.998 58.084-58.055 58.084z" />
<glyph unicode="&#xeca3;" glyph-name="suvL" d="M838.428 57.202c5.888 0 10.667 4.75 10.695 10.638l0.114 39.964c0.057 23.211-7.168 59.961-16.1 81.92l-23.694 58.254v0.057c-8.277 20.025-37.148 33.479-58.88 33.479h-275.115c-18.688 0-43.548-10.439-56.576-23.808l-0.085-0.114-0.142-0.085-83.598-90.766c-3.925-4.267-13.113-8.306-18.916-8.306h-98.816c-23.467 0-42.553-19.086-42.553-42.553v-112.185c0-24.149 19.655-43.804 43.804-43.804h38.94c5.12-32.882 33.365-58.169 67.641-58.169 34.304 0 62.549 25.287 67.669 58.169h233.984c5.148-32.882 33.394-58.169 67.698-58.169 34.276 0 62.521 25.287 67.641 58.169h76.288c5.888 0 10.667 4.779 10.667 10.667s-4.779 10.667-10.667 10.667h-76.316c-5.234 32.768-33.451 57.97-67.641 57.97-34.219 0-62.436-25.202-67.669-57.97h-233.984c-5.205 32.768-33.422 57.97-67.641 57.97-34.19 0-62.407-25.202-67.612-57.97h-38.969c-12.174 0-22.471 10.297-22.471 22.471v112.185c0 11.691 9.5 21.22 21.22 21.22h98.816c11.748 0 26.624 6.514 34.588 15.189l83.456 90.596c9.045 9.244 28.302 17.323 41.244 17.323h275.115c13.938 0 34.503-9.045 39.168-20.281l23.666-58.197c7.908-19.484 14.592-53.305 14.535-73.842l-0.114-39.936c-0.057-5.945 4.722-10.724 10.61-10.752zM694.528 17.892c26.112 0 47.388-21.276 47.388-47.417s-21.276-47.388-47.388-47.388c-26.14 0-47.417 21.248-47.417 47.388s21.248 47.417 47.417 47.417zM325.177 17.892c26.14 0 47.417-21.276 47.417-47.417s-21.276-47.388-47.417-47.388c-26.112 0-47.388 21.248-47.388 47.388s21.248 47.417 47.388 47.417z" />
<glyph unicode="&#xeca4;" glyph-name="suv" d="M694.5 17.692c-32.085 0-58.084-25.998-58.084-58.084 0-32.057 25.998-58.055 58.084-58.055s58.055 25.998 58.055 58.055c0 32.085-25.97 58.084-58.055 58.084zM325.177 17.692c-32.085 0-58.055-25.998-58.055-58.084 0-32.057 25.998-58.055 58.055-58.055s58.084 25.998 58.084 58.055c-0.028 32.085-25.998 58.084-58.084 58.084zM849.237 107.776l-0.114-103.14c0-1.82-0.313-18.546-13.056-31.374-8.875-8.875-21.134-13.397-36.494-13.397h-18.574c-0.142 47.588-38.884 86.272-86.5 86.272s-86.357-38.684-86.5-86.272h-196.324c-0.142 47.588-38.884 86.272-86.5 86.272s-86.357-38.684-86.5-86.272h-20.11c-24.149 0-43.804 19.655-43.804 43.776v110.165c0 23.467 19.086 42.553 42.553 42.553h98.816c5.803 0 14.962 4.039 18.916 8.306l83.513 92.729c13.34 13.653 38.172 24.121 56.889 24.121h275.115c21.76 0 50.603-13.454 58.88-33.479l23.723-58.283c8.903-22.044 16.128-58.795 16.071-81.977zM537.116 221.952c0 5.632-4.608 10.24-10.24 10.24h-37.291c-10.581 0-25.259-6.172-32.654-13.739l-10.411-11.292-34.958-39.993c-5.717-6.201-3.499-11.292 4.949-11.292h110.364c5.632 0 10.24 4.608 10.24 10.24v55.836zM706.389 232.192h-115.57v-76.316h115.57v76.316z" />
<glyph unicode="&#xeca5;" glyph-name="semitruckL" d="M933.063-18.859h-29.525c-5.205 32.768-33.422 57.97-67.641 57.97s-62.407-25.202-67.641-57.97h-33.394c-5.234 32.768-33.422 57.97-67.641 57.97s-62.436-25.202-67.641-57.97h-303.445c-5.234 32.768-33.422 57.97-67.641 57.97s-62.436-25.202-67.641-57.97h-43.691c-11.719 0-19.627 10.126-19.627 19.598v127.63c0 11.691 7.168 29.298 15.36 37.66l75.662 77.312c8.135 8.306 25.458 15.588 37.092 15.588h14.421c5.888 0 10.667 4.779 10.667 10.667s-4.779 10.667-10.667 10.667h-14.393c-17.266 0-40.277-9.671-52.338-21.988l-75.662-77.284c-12.032-12.316-21.447-35.413-21.447-52.622v-127.63c0-22.556 18.375-40.932 40.96-40.932h43.662c5.12-32.882 33.365-58.169 67.669-58.169 34.276 0 62.521 25.287 67.669 58.169h303.417c5.12-32.882 33.365-58.169 67.669-58.169 34.276 0 62.549 25.287 67.641 58.169h33.365c5.12-32.882 33.365-58.169 67.641-58.169s62.549 25.287 67.669 58.169h29.497c5.888 0 10.667 4.779 10.667 10.667-0.028 5.888-4.807 10.667-10.695 10.667zM228.494-77.028c-26.14 0-47.417 21.276-47.417 47.388 0 26.169 21.276 47.417 47.417 47.417s47.388-21.248 47.388-47.417c0-26.14-21.248-47.388-47.388-47.388zM667.25-77.028c-26.14 0-47.417 21.276-47.417 47.388 0 26.169 21.248 47.417 47.417 47.417 26.112 0 47.417-21.248 47.417-47.417-0.028-26.14-21.305-47.388-47.417-47.388zM835.925-77.028c-26.14 0-47.388 21.276-47.388 47.388 0 26.169 21.248 47.417 47.388 47.417s47.417-21.248 47.417-47.417c-0.028-26.14-21.276-47.388-47.417-47.388zM899.3 323.271h-562.091c-28.473 0-51.627-23.154-51.627-51.627v-150.983c0-28.444 23.154-51.627 51.627-51.627h562.091c28.473 0 51.627 23.182 51.627 51.627v150.983c0 28.473-23.182 51.627-51.627 51.627zM929.593 120.69c0-16.697-13.596-30.293-30.293-30.293h-562.091c-16.697 0-30.293 13.596-30.293 30.293v150.955c0 16.697 13.596 30.293 30.293 30.293h562.091c16.697 0 30.293-13.596 30.293-30.293v-150.955z" />
<glyph unicode="&#xeca6;" glyph-name="semitruck" d="M312.633 325.006c-14.734 0-26.738-12.004-26.738-26.738v-166.4c0-14.734 12.004-26.738 26.738-26.738h592.555c14.763 0 26.766 12.004 26.766 26.738v166.4c0 14.734-12.004 26.738-26.766 26.738h-592.555zM229.689 17.692c32.057 0 58.055-25.998 58.055-58.084 0-32.057-25.998-58.055-58.055-58.055-32.085 0-58.084 25.998-58.084 58.055 0 32.085 25.97 58.084 58.084 58.084zM714.212-40.391c0-32.057-25.998-58.055-58.055-58.055-32.085 0-58.084 25.998-58.084 58.055 0 32.085 25.998 58.084 58.084 58.084 32.057 0 58.055-25.998 58.055-58.084zM912.697-28.7c-6.343-6.571-14.99-10.24-25.003-11.065-0.341 47.417-38.969 85.931-86.471 85.931h-145.095c-47.616 0-86.357-38.684-86.5-86.272h-253.468c-0.142 47.588-38.884 86.272-86.5 86.272s-86.357-38.684-86.5-86.272h-24.804c-22.585 0-40.96 18.375-40.96 40.932v127.63c0 17.18 9.415 40.277 21.447 52.594l75.662 77.312c12.060 12.345 35.072 21.988 52.338 21.988h30.606v-148.452c0-30.436 24.747-55.182 55.182-55.182h592.555c7.026 0 13.71 1.451 19.883 3.84v-75.207c0.085-1.792 0.37-20.878-12.373-34.048zM656.128-98.446c-32.085 0-58.084 25.998-58.084 58.055 0 32.085 25.97 58.084 58.084 58.084 32.057 0 58.055-25.998 58.055-58.084 0-32.028-25.97-58.055-58.055-58.055zM859.278-40.391c0-32.057-25.998-58.055-58.055-58.055-32.085 0-58.084 25.998-58.084 58.055 0 32.085 25.998 58.084 58.084 58.084 32.057 0 58.055-25.998 58.055-58.084z" />
<glyph unicode="&#xeca7;" glyph-name="passengershipL" d="M894.492 160.825c1.195 8.078-1.052 16.128-6.172 22.13-5.006 5.86-12.43 9.216-20.309 9.216h-62.578l-0.028 0.171-11.804 73.842c-2.93 16.213-18.119 28.928-34.617 28.928h-23.154v48.924c0 5.888-4.779 10.667-10.667 10.667s-10.667-4.779-10.667-10.667v-48.924h-121.116c-7.68 0-18.489 5.888-22.699 12.345l-3.84 5.888c-8.164 12.544-25.6 22.016-40.59 22.016h-93.724c-15.815 0-32.142-11.719-36.949-26.084l-28.331-70.94c-0.284-0.825-0.825-2.19-4.892-2.19h-210.347c-8.932 0-16.128-3.726-19.769-10.183-3.47-6.201-2.987-13.824 1.109-21.163l0.085-0.313 78.564-154.311c6.969-13.71 23.808-24.007 39.196-24.007h0.114l595.115 2.361c16.697 0.057 31.545 13.056 33.82 29.554l14.194 102.457v0.028l0.028 0.142 0.028 0.114zM859.164 61.013c-0.796-5.916-6.798-11.122-12.772-11.15l-595.172-2.361c-7.282 0-16.896 5.86-20.196 12.345l-78.564 154.283-0.228 0.284-0.114 0.341h210.261c12.060 0 21.106 5.888 24.804 15.872l28.444 71.253c2.133 6.343 10.212 12.117 16.953 12.117h93.724c7.708 0 18.517-5.86 22.699-12.316l3.84-5.888c8.164-12.572 25.6-22.044 40.562-22.044h165.604c6.172 0 12.516-5.319 13.568-11.15l11.236-70.485h-229.632c-5.888 0-10.667-4.779-10.667-10.667s4.779-10.667 10.667-10.667h313.799c2.162 0 3.442-0.967 4.124-1.764 1.138-1.308 1.621-3.243 1.308-5.262v-0.057l-0.028-0.085-14.222-102.599z" />
<glyph unicode="&#xeca8;" glyph-name="passengership" d="M890.681 162.844l-14.45-104.22c-1.564-11.321-12.203-20.622-23.666-20.679l-604.388-2.389c-11.463-0.028-25.031 8.249-30.236 18.46l-79.787 156.729c-5.518 9.045-1.365 16.412 9.188 16.412h264.818c4.58 0 14.962-2.446 21.419-7.765 6.485-5.348 34.304-27.449 40.761-31.63 5.973-3.868 14.905-5.092 19.769-5.262h380.359c10.581-0.028 17.806-9.216 16.213-19.655zM451.641 241.323c7.993-6.571 32.256-25.685 37.746-29.44l5.348-0.967h318.948l-9.813 61.525c-2.19 12.117-14.052 22.073-26.396 22.073h-24.405v49.863c0 11.776-9.557 21.333-21.333 21.333s-21.333-9.557-21.333-21.333v-49.863h-114.261c-12.345 0-27.904 8.476-34.617 18.802l-4.21 6.457c-6.713 10.325-22.272 18.802-34.645 18.802h-123.477c-12.316 0-25.685-9.557-29.639-21.22l-24.661-61.753h67.243c10.724-0.028 27.648-4.494 39.509-14.279z" />
<glyph unicode="&#xeca9;" glyph-name="parkingL" d="M539.961-243.968c-5.575 0-10.268 4.324-10.638 9.956-0.398 5.888 4.068 10.98 9.927 11.349 217.628 14.421 388.068 196.75 388.068 415.090 0 229.376-186.624 416-416 416-191.687 0-357.746-129.764-403.797-315.563-8.107-32.654-12.203-66.446-12.203-100.437 0-50.631 8.96-100.011 26.624-146.745 29.042-77.028 79.929-143.275 147.143-191.516 4.779-3.413 5.888-10.069 2.446-14.848-3.442-4.807-10.126-5.888-14.876-2.446-70.684 50.688-124.16 120.292-154.681 201.273-18.574 49.18-27.989 101.092-27.989 154.311 0 35.726 4.324 71.253 12.828 105.586 48.412 195.3 222.976 331.719 424.505 331.719 241.152 0 437.333-196.21 437.333-437.333 0-229.547-179.2-421.205-407.979-436.366l-0.711-0.028zM412.046 23.154h26.226v134.343h73.444c83.968 0 127.516 37.262 127.516 103.396 0 64.54-44.601 101.803-124.9 101.803h-87.125c-8.903 0-15.218-6.827-15.218-15.758v-323.783zM438.3 180.594v158.464h76.629c64 0 97.081-27.819 97.081-79.246 0-50.916-33.052-79.218-98.133-79.218h-75.577z" />
<glyph unicode="&#xecaa;" glyph-name="parking" d="M616.676 271.758c0-52.338-33.365-80.469-98.162-80.469h-77.198v160.967h77.852c64.114-0.028 97.508-27.506 97.508-80.498zM938.951 192c0-235.634-191.033-426.667-426.667-426.667s-426.667 191.033-426.667 426.667c0 235.634 191.033 426.667 426.667 426.667s426.667-191.004 426.667-426.667zM684.060 273.067c0 87.040-59.534 134.798-164.238 134.798h-109.284c-21.589 0-35.982-15.047-35.982-37.945v-385.394h67.385v152.462h75.236c109.284-0.028 166.884 47.076 166.884 136.078z" />
<glyph unicode="&#xecab;" glyph-name="militarytankL" d="M941.596 189.952v-70.741c0-5.888-4.779-10.667-10.667-10.667s-10.667 4.779-10.667 10.667v70.741c0 5.404-4.409 9.813-9.813 9.813h-518.258c-9.5 0-25.23-3.897-33.621-8.334l-155.051-81.692-4.978-1.223c-3.84 0-7.538 2.076-9.444 5.689-2.731 5.205-0.74 11.662 4.466 14.393l155.051 81.692c11.463 6.030 30.606 10.78 43.577 10.78h518.258c17.152 0.028 31.147-13.938 31.147-31.118zM941.596 47.417v-25.998c0-14.592-8.562-32.484-19.94-41.614l-85.675-68.836c-10.61-8.505-29.554-15.189-43.122-15.189h-458.98c-13.625 0-32.54 6.77-43.065 15.445l-83.228 68.466c-11.236 9.273-19.712 27.193-19.712 41.728v25.998c0 17.18 13.966 31.147 31.147 31.147h691.428c17.152 0 31.147-13.966 31.147-31.147zM920.263 47.417c0 5.433-4.409 9.813-9.813 9.813h-691.428c-5.404 0-9.813-4.409-9.813-9.813v-25.998c0-8.078 5.689-20.139 11.918-25.259l83.228-68.466c6.741-5.547 20.793-10.581 29.525-10.581h458.951c8.903 0 22.812 4.892 29.753 10.496l85.675 68.836c6.258 5.035 11.975 16.953 11.975 24.974v25.998zM341.163 17.607c-16.811 0-30.436-13.653-30.436-30.464s13.625-30.436 30.436-30.436c16.839 0 30.464 13.625 30.464 30.436-0.028 16.811-13.653 30.464-30.464 30.464zM564.452 17.607c-16.811 0-30.436-13.653-30.436-30.464s13.625-30.436 30.436-30.436c16.839 0 30.464 13.625 30.464 30.436s-13.625 30.464-30.464 30.464zM452.807 17.607c-16.811 0-30.436-13.653-30.436-30.464s13.625-30.436 30.436-30.436c16.839 0 30.464 13.625 30.464 30.436s-13.625 30.464-30.464 30.464zM676.096 17.607c-16.811 0-30.436-13.653-30.436-30.464s13.625-30.436 30.436-30.436c16.839 0 30.464 13.625 30.464 30.436s-13.625 30.464-30.464 30.464zM787.74 17.607c-16.811 0-30.436-13.653-30.436-30.464s13.625-30.436 30.436-30.436c16.839 0 30.464 13.625 30.464 30.436s-13.625 30.464-30.464 30.464zM177.863 283.051h-75.776c-19.2 0-34.816 15.616-34.816 34.816v8.164c0 19.2 15.616 34.816 34.816 34.816h75.748c16.953 0 31.061-12.174 34.162-28.245h168.732c4.978 9.444 12.487 17.749 21.191 22.187l91.762 47.047c13.34 6.827 35.527 12.203 50.517 12.203h188.985c19.2 0 34.816-15.616 34.816-34.816v-91.819c0-19.2-15.616-34.816-34.816-34.816h-323.755c-19.2 0-34.816 15.616-34.816 34.816v22.727l0.085 1.138h-162.702c-3.1-16.043-17.209-28.217-34.133-28.217zM395.947 287.403c0-7.452 6.059-13.483 13.483-13.483h323.726c7.424 0 13.483 6.059 13.483 13.483v91.819c0 7.424-6.059 13.483-13.483 13.483h-188.985c-11.492 0-30.549-4.608-40.761-9.842l-91.762-47.047c-8.22-4.21-15.701-16.441-15.701-25.685v-22.727zM191.346 326.030c0 7.424-6.059 13.483-13.483 13.483h-75.776c-7.452 0-13.483-6.059-13.483-13.483v-8.164c0-7.424 6.059-13.483 13.483-13.483h75.748c7.424 0 13.483 6.059 13.483 13.483v8.164z" />
<glyph unicode="&#xecac;" glyph-name="militarytank" d="M930.93 112.1c0-11.264-9.216-20.48-20.48-20.48h-691.428c-11.264 0-20.48 9.216-20.48 20.48v3.271c0 11.264 8.533 23.922 19.001 28.132l135.196 54.556c10.439 4.21 28.217 7.68 39.481 7.68h518.258c11.264 0 20.48-9.216 20.48-20.48v-73.159zM930.93 42.695v-25.998c0-11.264-7.196-26.254-15.957-33.308l-85.675-68.836c-8.789-7.054-25.173-12.828-36.437-12.828h-458.98c-11.264 0-27.591 5.86-36.295 12.999l-83.228 68.494c-8.704 7.14-15.815 22.215-15.815 33.479v25.998c0 11.264 9.216 20.48 20.48 20.48h691.428c11.264 0 20.48-9.216 20.48-20.48zM403.228-17.579c0 22.414-18.233 40.647-40.647 40.647-22.386 0-40.619-18.233-40.619-40.647 0-22.386 18.233-40.619 40.619-40.619 22.414 0.028 40.647 18.233 40.647 40.619zM537.97-17.579c0 22.414-18.233 40.647-40.619 40.647s-40.619-18.233-40.619-40.647c0-22.386 18.233-40.619 40.619-40.619 22.386 0.028 40.619 18.233 40.619 40.619zM672.74-17.579c0 22.414-18.233 40.647-40.619 40.647s-40.619-18.233-40.619-40.647c0-22.386 18.233-40.619 40.619-40.619 22.386 0.028 40.619 18.233 40.619 40.619zM807.481-17.579c0 22.414-18.233 40.647-40.647 40.647-22.386 0-40.619-18.233-40.619-40.647 0-22.386 18.233-40.619 40.619-40.619 22.414 0.028 40.647 18.233 40.647 40.619zM733.156 398.649h-188.956c-13.284 0-33.82-4.949-45.653-11.008l-81.863-41.984h-218.169c-4.21 7.083-11.89 11.89-20.679 11.89h-75.748c-13.284 0-24.149-10.866-24.149-24.149v-32.37c0-13.284 10.866-24.149 24.149-24.149h75.748c8.789 0 16.441 4.807 20.679 11.89h186.766v-30.464c0-13.284 10.866-24.149 24.149-24.149h323.726c13.284 0 24.149 10.866 24.149 24.149v116.196c0 13.284-10.866 24.149-24.149 24.149z" />
<glyph unicode="&#xecad;" glyph-name="fleetmanagementL" d="M822.215 91.022c6.087 8.647 9.472 19.029 9.472 29.668v150.955c0 28.473-23.182 51.627-51.627 51.627h-405.191c-28.473 0-51.627-23.154-51.627-51.627v-150.983c0-28.473 23.154-51.627 51.627-51.627h231.225c-25.287-23.324-43.861-53.646-52.708-87.922h-219.591c-5.205 32.768-33.451 57.97-67.641 57.97-34.219 0-62.436-25.202-67.641-57.97h-43.691c-11.748 0-19.627 10.126-19.627 19.598v127.63c0 11.691 7.196 29.298 15.36 37.66l75.662 77.312c8.107 8.306 25.429 15.588 37.092 15.588h14.393c5.888 0 10.667 4.779 10.667 10.667s-4.779 10.667-10.667 10.667h-14.364c-17.294 0-40.277-9.671-52.338-21.988l-75.662-77.312c-12.032-12.288-21.447-35.385-21.447-52.594v-127.63c0-22.556 18.375-40.932 40.96-40.932h43.662c5.12-32.882 33.394-58.169 67.669-58.169s62.521 25.287 67.669 58.169h215.381c-1.024-7.822-1.764-15.758-1.764-23.865 0-99.982 81.351-181.333 181.333-181.333s181.333 81.351 181.333 181.333c-0.028 65.764-35.356 123.307-87.922 155.108zM266.155-77.056c-26.14 0-47.417 21.248-47.417 47.388s21.248 47.417 47.417 47.417c26.14 0 47.388-21.276 47.388-47.417 0-26.112-21.248-47.388-47.388-47.388zM631.012 90.396h-256.142c-16.697 0-30.293 13.596-30.293 30.293v150.955c0 16.697 13.568 30.293 30.293 30.293h405.22c16.697 0 30.293-13.596 30.293-30.293v-150.983c0-7.253-2.674-14.023-7.367-19.484-22.699 10.212-47.758 16.043-74.212 16.043-34.987 0-67.584-10.126-95.317-27.364l-2.475 0.54zM728.775-224.085c-88.206 0-160 71.794-160 160 0 88.235 71.794 160 160 160 88.235 0 160-71.765 160-160s-71.765-160-160-160zM833.252-37.518c4.181 4.836 5.319 11.52 2.844 17.607-4.011 9.5-8.846 17.977-14.336 25.145-3.556 4.665-9.415 7.168-15.189 6.542-10.61-1.109-20.85-3.556-30.635-7.282l-5.689 3.584-5.803 3.044c-1.138 9.728-3.356 19.484-6.542 28.615-2.133 6.002-7.339 10.268-13.454 11.093-9.045 1.337-18.46 1.451-27.961 0.398-6.286-0.171-11.833-4.011-14.507-10.012-4.352-9.785-7.367-19.911-9.017-30.18l-6.286-3.356-5.177-3.3c-8.789 3.812-18.119 6.713-27.819 8.619-6.372 1.308-12.715-1.052-16.555-6.030-5.66-7.14-10.638-15.502-14.677-24.69-2.56-5.461-1.934-11.947 1.65-16.981 6.343-8.704 13.625-16.384 21.703-22.983l-0.341-7.253 0.341-5.888c-7.765-5.746-14.99-12.43-21.589-19.996-4.181-4.949-5.234-11.719-2.731-17.55 3.925-9.387 8.761-17.863 14.279-25.116 3.527-4.665 9.387-7.282 15.246-6.599 10.724 1.166 20.992 3.612 30.606 7.31l5.66-3.556 5.803-3.044c1.166-9.756 3.385-19.513 6.571-28.615 2.105-5.973 7.282-10.212 13.483-11.093 4.949-0.711 10.041-1.081 15.189-1.081l12.459 0.654 2.076 0.171c5.66 0.91 10.439 4.608 12.715 9.842 4.324 9.785 7.367 19.911 9.074 30.18l6.258 3.356 5.148 3.271c8.789-3.84 18.148-6.741 27.819-8.647 6.201-1.252 12.601 1.024 16.64 6.087 5.547 7.083 10.496 15.417 14.677 24.747 2.503 5.518 1.82 11.975-1.735 16.811-6.343 8.732-13.596 16.469-21.675 23.012l0.313 6.741v0.569l-0.313 5.86c7.765 5.831 14.99 12.516 21.476 19.996zM794.539-43.406c-3.527-2.332-5.348-6.485-4.665-10.638l0.882-9.586-0.796-10.155c-0.597-3.954 1.081-7.851 4.295-10.183 7.566-5.49 14.421-12.231 20.366-20.053-2.759-5.888-5.86-11.15-9.216-15.73-9.131 2.020-17.806 5.063-25.856 9.074-3.755 1.849-8.306 1.365-11.577-1.365l-8.050-5.547-8.932-4.324c-3.669-1.451-6.229-4.807-6.684-8.732-1.024-9.415-3.442-18.716-7.168-27.733-6.571-0.54-12.544-0.512-18.176 0.114-2.788 8.647-4.523 17.892-5.148 26.965-0.284 4.181-2.958 7.794-6.855 9.273l-8.818 4.153-8.192 5.547c-3.129 2.56-7.424 3.157-11.122 1.479-8.505-3.812-17.778-6.4-27.477-7.68-3.385 4.693-6.4 10.041-9.017 15.929 6.286 6.855 13.255 12.857 20.764 17.835 3.499 2.304 5.319 6.428 4.636 10.553l-0.853 9.387 0.796 10.496c0.569 3.897-1.081 7.765-4.267 10.098-7.623 5.575-14.507 12.316-20.423 20.025 2.702 5.803 5.803 11.093 9.244 15.758 9.131-1.991 17.806-5.063 25.799-9.045 3.812-1.877 8.363-1.365 11.605 1.365l8.050 5.547 8.903 4.238c3.726 1.451 6.372 4.864 6.77 8.818 0.996 9.387 3.385 18.688 7.14 27.733 6.428 0.512 12.43 0.484 18.176-0.142 2.788-8.647 4.551-17.892 5.12-26.937 0.256-4.181 2.93-7.794 6.827-9.301l8.846-4.124 8.306-5.66c3.129-2.503 7.396-3.072 11.065-1.451 8.676 3.868 17.892 6.457 27.534 7.68 3.356-4.693 6.4-10.041 9.017-15.872-6.343-6.884-13.312-12.857-20.85-17.806zM773.205-79.332c-5.632-16.384-19.684-28.274-36.665-31.033l-7.652-0.626c-9.7 0-19.115 3.044-27.193 8.818-10.126 7.31-16.839 18.091-18.859 30.407-2.020 12.288 0.882 24.661 8.192 34.816 7.282 10.126 18.091 16.839 30.407 18.859 5.86 0.967 11.292-2.958 12.26-8.789 0.939-5.803-2.987-11.292-8.818-12.26-6.684-1.109-12.544-4.75-16.526-10.268s-5.547-12.231-4.466-18.916c1.109-6.684 4.75-12.544 10.268-16.526s12.26-5.547 18.916-4.466c9.244 1.508 16.868 7.993 19.911 16.896 1.906 5.575 7.964 8.562 13.568 6.628 5.604-1.906 8.562-7.964 6.656-13.54z" />
<glyph unicode="&#xecae;" glyph-name="fleetmanagement" d="M574.18 76.715c-28.16-31.972-46.962-72.277-51.968-116.821h-164.238c-0.142 47.588-38.884 86.272-86.5 86.272s-86.357-38.684-86.5-86.272h-24.804c-22.585 0-40.96 18.375-40.96 40.932v127.63c0 17.209 9.444 40.306 21.447 52.594l75.662 77.312c12.060 12.345 35.044 21.988 52.338 21.988h46.677v-148.452c0-30.436 24.747-55.182 55.182-55.182h203.662zM271.474 17.721c-32.085 0-58.084-25.998-58.084-58.084 0-32.057 25.97-58.055 58.084-58.055 32.057 0 58.055 25.998 58.055 58.055 0.028 32.057-25.97 58.084-58.055 58.084zM832.398 125.156l0.967 6.741v166.4c0 14.734-12.004 26.738-26.738 26.738h-436.11c-14.734 0-26.738-12.004-26.738-26.738v-166.4c0-14.734 12.004-26.738 26.738-26.738h234.126c35.954 27.591 80.782 44.203 129.508 44.203 35.413-0.028 68.807-8.846 98.247-24.206zM767.46-64c0 18.404-14.933 33.337-33.337 33.337s-33.337-14.933-33.337-33.337 14.933-33.337 33.337-33.337c18.404 0 33.337 14.933 33.337 33.337zM824.889-97.82c1.223-1.678 1.451-3.897 0.597-5.831-3.584-8.050-7.822-15.218-12.601-21.276-1.394-1.735-3.584-2.56-5.774-2.133-10.496 2.076-20.395 5.433-29.497 9.984l-8.846-6.144c-2.901-1.764-6.144-3.3-9.956-4.807-1.195-10.638-4.039-21.22-8.562-31.46-0.796-1.82-2.475-3.1-4.437-3.442l-0.341-0.028c-9.074-0.91-17.124-0.825-24.69 0.284-2.162 0.313-3.954 1.82-4.665 3.868-3.413 9.756-5.547 20.252-6.229 30.606-3.755 1.422-6.94 2.901-9.813 4.608-3.47 1.991-6.485 4.039-9.102 6.201-9.728-4.352-20.281-7.168-31.431-8.363-2.048-0.199-4.039 0.654-5.291 2.276-4.693 6.144-8.818 13.397-12.231 21.561-0.882 2.076-0.512 4.437 0.967 6.172 6.94 7.993 14.82 14.905 23.41 20.622l-0.939 10.638 0.882 11.122c-8.647 6.315-16.384 14.023-22.983 23.097-1.223 1.707-1.479 3.925-0.569 5.86 3.556 8.050 7.794 15.246 12.601 21.305 1.337 1.735 3.556 2.56 5.774 2.105 10.553-2.076 20.423-5.433 29.468-9.956 2.56 2.133 5.49 4.153 8.875 6.144 2.901 1.764 6.201 3.328 9.984 4.779 1.138 10.695 3.982 21.248 8.505 31.46 0.853 1.934 2.588 3.385 4.807 3.47 8.932 0.939 16.981 0.853 24.661-0.284 2.162-0.284 3.925-1.82 4.665-3.868 3.413-9.756 5.547-20.252 6.201-30.606 3.783-1.451 6.969-2.901 9.87-4.608l9.074-6.201c9.728 4.324 20.309 7.196 31.403 8.334 2.048 0.228 4.039-0.626 5.291-2.247 4.75-6.172 8.846-13.426 12.288-21.589 0.825-2.076 0.484-4.409-0.996-6.116-6.969-8.050-14.82-14.962-23.438-20.622l0.967-10.667-0.853-11.122c8.619-6.258 16.327-14.023 22.955-23.125zM734.123 106.667c-94.236 0-170.667-76.43-170.667-170.667s76.43-170.667 170.667-170.667 170.667 76.43 170.667 170.667-76.43 170.667-170.667 170.667z" />
<glyph unicode="&#xecaf;" glyph-name="farmtractorL" d="M685.113 130.56c-66.048 0-119.808-53.76-119.808-119.836 0-66.048 53.76-119.78 119.808-119.78 66.076 0 119.808 53.732 119.808 119.78s-53.76 119.836-119.808 119.836zM685.113-87.751c-54.3 0-98.475 44.174-98.475 98.446 0 54.329 44.174 98.503 98.475 98.503s98.475-44.203 98.475-98.503c0-54.272-44.174-98.446-98.475-98.446zM531.342 9.785c0 84.508 68.75 153.259 153.23 153.259 36.523 0 71.879-13.056 99.584-36.75 4.437-3.84 11.236-3.328 15.019 1.166 3.84 4.466 3.328 11.207-1.166 15.019-16.868 14.45-36.295 25.316-57.060 32.398v163.556c0 17.18-13.966 31.147-31.147 31.147h-160.284c-15.872 0-32.028-11.861-36.807-26.994l-55.893-177.067h-94.578v129.735c0 17.18-13.966 31.147-31.147 31.147h-24.348c-5.888 0-10.667-4.779-10.667-10.667s4.779-10.667 10.667-10.667h24.348c5.404 0 9.813-4.409 9.813-9.813v-129.735h-82.574c-8.818 0-16.555-3.698-21.22-10.126-4.665-6.457-5.746-14.933-2.987-23.324l41.415-126.037 1.593-3.669c-9.444-11.776-15.332-26.51-15.332-42.752 0-37.888 30.834-68.722 68.722-68.722s68.75 30.834 68.75 68.722c0 6.855-1.308 13.369-3.214 19.627h116.708c1.593-9.045 3.868-17.977 6.884-26.681 1.536-4.409 5.66-7.168 10.069-7.168l3.499 0.597c5.575 1.934 8.505 7.993 6.571 13.568-5.604 16.1-8.448 33.024-8.448 50.233zM533.020 336.185c1.991 6.315 9.842 12.089 16.469 12.089h160.284c5.433 0 9.813-4.409 9.813-9.813v-157.753c-11.463 2.361-23.211 3.698-35.072 3.698-28.729 0-55.751-7.083-79.673-19.428l-2.901 0.597h-122.795l53.874 170.61zM330.468-87.751h-0.114c-26.14 0-47.388 21.248-47.388 47.388l0.427 4.21 0.37 3.612 1.081 4.636 0.996 3.243 1.735 4.38 1.564 2.873c6.116 10.951 16.327 19.172 28.672 22.585l1.365 0.427 3.499 0.711 7.794 0.796 8.107-0.825 2.844-0.597 4.466-1.394 6.741-2.987 1.308-0.654h-0.114c8.562-4.921 15.445-12.316 19.57-21.333h0.114l0.171-0.512 1.764-5.177 1.337-4.324 0.142-1.308 0.939-8.306c0.028-26.197-21.248-47.445-47.388-47.445zM385.365 0.597c-12.544 16.782-32.37 27.79-54.869 27.79-13.369 0-25.771-4.011-36.352-10.638l-39.765 121.031 0.028 4.153 3.954 1.308h314.965c-38.628-32.057-63.289-80.384-63.289-134.428l0.37-9.216h-125.042z" />
<glyph unicode="&#xecb0;" glyph-name="farmtractor" d="M330.468 17.692c32.085 0 58.084-25.998 58.084-58.084 0-32.057-25.998-58.055-58.084-58.055s-58.055 25.998-58.055 58.055c0 32.085 25.998 58.084 58.055 58.084zM685.113 119.893c-60.302 0-109.141-48.868-109.141-109.17 0-60.245 48.839-109.141 109.141-109.141s109.141 48.868 109.141 109.141-48.868 109.17-109.141 109.17zM545.564 9.785c0 17.323 3.328 33.849 9.159 49.152l11.605 23.552c24.491 39.708 68.267 66.332 118.244 66.332 24.946 0 49.408-6.684 70.741-19.314 11.833-7.054 27.079-3.072 34.105 8.732 6.997 11.833 3.1 27.079-8.732 34.105-12.516 7.424-25.884 13.227-39.708 17.55v134.315c0 17.18-13.966 31.147-31.147 31.147h-160.284c-15.758 0-32.085-11.691-37.177-26.624l-55.438-163.214h-76.885v129.735c0 26.965-21.931 48.924-48.924 48.924h-24.348c-15.701 0-28.444-12.743-28.444-28.444s12.743-28.444 28.444-28.444h16.384v-121.771h-64.825c-8.818 0-16.555-3.698-21.22-10.126-4.665-6.457-5.746-14.933-2.987-23.324l36.267-110.364c15.588 15.104 36.75 24.434 60.103 24.434 40.932 0 75.264-28.615 84.196-66.901h83.883l1.593-9.899c2.532-11.634 12.857-19.57 24.292-19.57l5.348 0.569c13.426 2.958 21.931 16.213 19.001 29.639-2.162 9.728-3.243 19.769-3.243 29.81zM536.86 182.443c-6.116 0-9.074 4.58-6.599 10.155l34.418 101.689c2.162 5.49 6.969 7.765 11.292 7.765h95.602c6.116 0 10.354-4.921 11.122-11.122l-0.142-92.416c-26.34-0.284-51.371-6.002-74.098-16.071h-71.595z" />
<glyph unicode="&#xecb1;" glyph-name="emergencyvehicleL" d="M524.942 27.705h29.013c15.787 0 28.615 12.828 28.615 28.587v32.54h32.569c15.787 0 28.615 12.857 28.615 28.644v29.013c0 15.758-12.828 28.587-28.615 28.587h-32.569v32.569c0 15.758-12.828 28.587-28.615 28.587h-29.013c-15.758 0-28.615-12.828-28.615-28.587l-0.085-32.626h-32.569c-15.787 0-28.615-12.828-28.615-28.587v-29.013c0-15.787 12.828-28.644 28.615-28.644h32.654v-32.54c0.028-15.701 12.857-28.53 28.615-28.53zM463.701 110.165c-3.954 0-7.282 3.356-7.282 7.31v29.013c0 3.982 3.271 7.253 7.282 7.253h43.207c5.888 0 10.667 4.75 10.667 10.638l0.114 43.264c0 4.011 3.271 7.253 7.282 7.253h29.013c4.011 0 7.282-3.271 7.282-7.253v-43.264c0-5.888 4.75-10.667 10.667-10.667h43.236c4.011 0 7.282-3.271 7.282-7.253v-29.013c0-3.954-3.328-7.31-7.282-7.31h-43.236c-5.916 0-10.667-4.779-10.667-10.667v-43.207c0-4.011-3.271-7.253-7.282-7.253h-29.013c-4.011 0-7.282 3.243-7.282 7.253v43.207c0 5.888-4.779 10.667-10.667 10.667h-43.321zM856.747-19.769h-46.592c-5.234 32.768-33.422 57.97-67.641 57.97s-62.436-25.202-67.641-57.97h-298.382c-5.205 32.768-33.422 57.97-67.641 57.97s-62.436-25.202-67.641-57.97h-43.662c-11.748 0-19.627 10.126-19.627 19.598l0.028 127.716c0 14.308 8.789 35.84 18.802 46.052l89.742 91.733c9.984 10.183 31.204 19.115 45.454 19.115h492.402c11.065 0 20.082-9.017 20.082-20.053v-187.136c0-5.888 4.779-10.667 10.667-10.667s10.667 4.779 10.667 10.667v187.136c0 22.812-18.574 41.387-41.387 41.387h-380.16v25.685c0 22.812-18.546 41.358-41.358 41.358h-3.044c-22.812 0-41.358-18.546-41.358-41.358v-25.685h-26.51c-20.025 0-46.677-11.207-60.7-25.515l-89.742-91.733c-13.938-14.279-24.889-41.045-24.889-60.985l-0.028-127.716c0-22.585 18.375-40.932 40.96-40.932h43.662c5.12-32.853 33.365-58.169 67.669-58.169 34.276 0 62.521 25.316 67.669 58.169h298.297c5.12-32.853 33.365-58.169 67.669-58.169 34.276 0 62.521 25.316 67.669 58.169h46.564c5.888 0 10.667 4.779 10.667 10.667s-4.779 10.667-10.667 10.667zM379.79 331.463c0 11.036 8.988 20.025 20.025 20.025h3.044c11.036 0 20.025-8.988 20.025-20.025v-25.685h-43.093v25.685zM308.878-77.938c-26.14 0-47.417 21.276-47.417 47.388 0 26.14 21.248 47.417 47.417 47.417 26.14 0 47.388-21.276 47.388-47.417 0-26.112-21.276-47.388-47.388-47.388zM742.514-77.938c-26.14 0-47.417 21.276-47.417 47.388 0 26.14 21.248 47.417 47.417 47.417 26.14 0 47.388-21.276 47.388-47.417-0.028-26.112-21.276-47.388-47.388-47.388zM390.656 402.916v36.039c0 5.888 4.779 10.667 10.667 10.667s10.667-4.779 10.667-10.667v-36.039c0-5.888-4.779-10.667-10.667-10.667s-10.667 4.779-10.667 10.667zM446.948 377.799c-4.181 4.181-4.181 10.923 0 15.104l25.458 25.458c4.153 4.153 10.923 4.153 15.076 0 4.153-4.181 4.153-10.923 0-15.076l-25.458-25.458c-2.076-2.076-4.807-3.129-7.538-3.129s-5.461 1.024-7.538 3.1zM315.164 403.285c-4.153 4.153-4.153 10.923 0 15.076s10.923 4.153 15.076 0l25.458-25.458c4.181-4.153 4.181-10.923 0-15.076-2.076-2.076-4.807-3.129-7.538-3.129s-5.461 1.052-7.538 3.129l-25.458 25.458z" />
<glyph unicode="&#xecb2;" glyph-name="emergencyvehicle" d="M387.925 394.012v36.039c0 7.851 6.372 14.222 14.222 14.222s14.222-6.372 14.222-14.222v-36.039c0-7.851-6.372-14.222-14.222-14.222s-14.222 6.372-14.222 14.222zM455.31 362.24c3.641 0 7.282 1.394 10.069 4.181l25.458 25.458c5.547 5.547 5.547 14.564 0 20.11s-14.564 5.547-20.11 0l-25.458-25.458c-5.547-5.547-5.547-14.564 0-20.11 2.759-2.788 6.4-4.181 10.041-4.181zM338.944 366.421c2.788-2.788 6.428-4.181 10.041-4.181 3.641 0 7.282 1.394 10.069 4.181 5.547 5.547 5.547 14.564 0 20.11l-25.486 25.458c-5.547 5.547-14.564 5.547-20.11 0s-5.547-14.564 0-20.11l25.486-25.458zM724.793 17.721c-32.085 0-58.084-25.998-58.084-58.084 0-32.057 25.998-58.055 58.084-58.055s58.055 25.998 58.055 58.055c0 32.057-25.998 58.084-58.055 58.084zM309.675 17.721c-32.085 0-58.055-25.998-58.055-58.084 0-32.057 25.97-58.055 58.055-58.055 32.057 0 58.055 25.998 58.055 58.055 0.028 32.057-25.998 58.084-58.055 58.084zM866.588 265.358v-264.078c0-22.812-18.574-41.387-41.387-41.387h-13.909c-0.142 47.588-38.884 86.272-86.5 86.272s-86.357-38.684-86.5-86.272h-242.119c-0.142 47.588-38.884 86.272-86.5 86.272s-86.357-38.684-86.5-86.272h-24.804c-22.585 0-40.96 18.375-40.96 40.932l0.028 127.716c0 19.94 10.923 46.734 24.889 60.985l89.771 91.733c13.995 14.308 40.647 25.515 60.672 25.515h26.51v15.815c0 22.812 18.546 41.358 41.358 41.358h3.044c22.812 0 41.358-18.546 41.358-41.358v-15.815h380.16c22.812-0.028 41.387-18.603 41.387-41.415zM635.62 147.712c0 10.041-8.22 18.261-18.261 18.261h-44.032v44.060c0 10.041-8.192 18.261-18.261 18.261h-29.554c-10.069 0-18.261-8.22-18.261-18.261l-0.085-44.060h-44.032c-10.069 0-18.261-8.192-18.261-18.261v-29.525c0-10.069 8.22-18.29 18.261-18.29h44.117v-44.004c0-10.069 8.192-18.261 18.261-18.261h29.554c10.069 0 18.261 8.192 18.261 18.261v44.004h44.032c10.041 0 18.261 8.249 18.261 18.29v29.525z" />
<glyph unicode="&#xecb3;" glyph-name="constructionL" d="M374.158 49.436l-0.114 0.427v8.107l184.633 77.426c5.433 2.276 7.993 8.533 5.717 13.966s-8.533 7.993-13.966 5.717l-176.412-74.012v110.137c0 11.065 9.017 20.053 20.11 20.053h189.355c22.812 0 41.444 18.546 41.472 41.358l0.199 82.062c0 11.065 9.045 20.082 20.11 20.082h145.010c12.658 0 28.245-10.155 33.337-21.76l48.384-109.966 0.114-0.171 0.028-0.171c4.836-10.012 5.547-21.106 5.547-26.823v-85.561c0-5.888 4.779-10.667 10.667-10.667s10.667 4.779 10.667 10.667v85.561c0 9.102-1.337 22.613-7.481 35.584l-0.028 0.142-48.384 109.966c-8.505 19.342-31.744 34.503-52.85 34.503h-145.010c-22.812 0-41.415-18.546-41.444-41.358l-0.199-82.062c0-11.065-9.045-20.082-20.139-20.082h-189.355c-22.841 0-41.444-18.574-41.444-41.387v-119.097l-58.994-24.747c-1.081 14.649-5.632 29.042-13.852 41.956-9.899 15.531-24.519 29.326-43.463 41.045-13.198 8.107-23.694 12.203-25.657 12.942-5.916 2.247-12.686 1.906-18.404-0.853-5.746-2.759-10.041-7.652-12.174-13.966l-50.574-158.606-36.466-24.377c-8.96-6.030-12.658-17.351-8.932-27.563 3.47-9.33 12.089-15.36 21.959-15.36l2.645 0.142c2.901 0.313 29.298 3.413 59.989 11.406 19.029 4.978 35.812 10.809 49.835 17.351 19.655 9.216 33.451 19.228 43.435 31.545 16.469 20.452 26.596 40.789 30.379 60.7l60.444 25.344c0.199-5.376 2.162-10.411 5.86-14.336l23.751-24.86c2.105-2.19 4.892-3.3 7.708-3.3 2.645 0 5.319 0.996 7.367 2.958 4.267 4.068 4.409 10.809 0.341 15.076l-23.723 24.86zM106.297-76.117h-0.171l-1.963 1.394 0.796 2.475 39.538 26.425c2.020 1.337 3.499 3.328 4.238 5.632l51.684 162.048 1.138 1.394 1.678 0.085c0.996-0.37 10.24-3.925 21.959-11.122 16.156-9.984 28.501-21.561 36.665-34.361 7.282-11.435 10.951-23.808 10.951-36.722 0-20.366-9.216-42.155-27.392-64.711-7.851-9.7-19.257-17.835-35.868-25.628-12.857-6.002-28.388-11.406-46.165-16.043-29.241-7.595-54.244-10.524-57.088-10.866zM860.388 63.488h-349.98c-44.601 0-80.896-36.295-80.896-80.896s36.267-80.896 80.896-80.896h349.98c44.601 0 80.896 36.295 80.896 80.896s-36.295 80.896-80.896 80.896zM860.388-76.971h-349.98c-32.853 0-59.563 26.709-59.563 59.563s26.709 59.563 59.563 59.563h349.98c32.825 0 59.563-26.709 59.563-59.563s-26.738-59.563-59.563-59.563zM539.62-17.436c0-15.275-12.402-27.676-27.676-27.676s-27.676 12.402-27.676 27.676c0 15.303 12.402 27.705 27.676 27.705s27.676-12.402 27.676-27.705zM889.003-17.436c0-15.275-12.373-27.676-27.705-27.676-15.275 0-27.676 12.402-27.676 27.676 0 15.303 12.402 27.705 27.676 27.705 15.303 0 27.705-12.402 27.705-27.705z" />
<glyph unicode="&#xecb4;" glyph-name="construction" d="M388.238 4.551l-32.256 32.853-75.804-31.801c-4.836-11.492-12.032-23.467-22.016-35.897-10.069-12.402-24.235-21.333-39.652-28.587-15.445-7.196-32.313-12.601-48.014-16.697-31.374-8.164-58.169-11.093-58.539-11.122l-1.422-0.057c-5.348 0-10.098 3.3-11.975 8.391-2.020 5.547 0 11.719 4.892 14.99l39.538 26.425 51.74 162.219c1.109 3.328 3.442 6.059 6.628 7.595 3.157 1.536 6.741 1.707 10.012 0.484 0.54-0.199 10.837-4.068 23.836-12.032 12.971-8.021 28.843-20.11 40.078-37.689 2.958-4.636 5.376-9.785 7.452-15.218l65.593 27.506v95.346c0 16.896 13.796 30.72 30.777 30.72h189.355c16.896 0 30.777 13.824 30.777 30.72l0.199 82.062c0.028 16.896 13.881 30.72 30.777 30.72h145.010c16.896 0 36.295-12.658 43.093-28.132l48.384-109.966c5.404-11.179 6.628-23.353 6.628-31.46v-107.719c-8.96 2.361-18.29 3.755-27.961 3.755h-350.009c-52.764 0-96.939-37.575-107.122-87.41zM926.208-17.38c0-44.601-36.295-80.896-80.896-80.896h-349.952c-44.601 0-80.896 36.295-80.896 80.896s36.295 80.896 80.896 80.896h349.98c44.601 0 80.868-36.295 80.868-80.896zM531.684-17.408c0 19.2-15.616 34.816-34.788 34.816s-34.788-15.616-34.788-34.816c0-19.172 15.616-34.788 34.788-34.788 19.172 0.028 34.788 15.616 34.788 34.788zM881.067-17.408c0 19.2-15.616 34.816-34.816 34.816-19.172 0-34.788-15.616-34.788-34.816 0-19.172 15.588-34.788 34.788-34.788 19.2 0.028 34.816 15.616 34.816 34.788z" />
<glyph unicode="&#xecb5;" glyph-name="connectedvehicleL" d="M772.665-18.29h-39.652c-5.205 32.768-33.422 57.97-67.612 57.97-34.219 0-62.436-25.202-67.669-57.97h-138.012c-5.205 32.768-33.451 57.97-67.641 57.97-34.219 0-62.436-25.202-67.641-57.97h-39.908c-12.203 0-22.528 10.297-22.528 22.5v76.060c0 18.631 12.885 43.406 28.188 54.073l150.613 105.671c16.27 11.378 46.706 20.992 66.475 20.992h145.436c62.521 0 89.856-53.788 90.965-56.064 8.903-18.233 16.412-50.802 16.412-71.111v-65.365c0-5.888 4.779-10.667 10.667-10.667s10.667 4.779 10.667 10.667v65.365c0 23.78-8.135 59.108-18.546 80.469-1.365 2.788-34.048 68.039-110.165 68.039h-145.436c-24.206 0-58.766-10.894-78.706-24.832l-150.613-105.671c-20.907-14.62-37.262-46.052-37.262-71.566v-76.060c0-24.178 19.655-43.833 43.861-43.833h39.879c5.12-32.882 33.394-58.169 67.669-58.169 34.304 0 62.549 25.287 67.669 58.169h137.984c5.12-32.882 33.394-58.169 67.669-58.169s62.521 25.287 67.641 58.169h39.623c5.888 0 10.667 4.779 10.667 10.667-0.028 5.888-4.807 10.667-10.695 10.667zM392.050-76.459c-26.14 0-47.388 21.276-47.388 47.388 0 26.169 21.276 47.417 47.388 47.417 26.14 0 47.417-21.248 47.417-47.417 0-26.14-21.276-47.388-47.417-47.388zM665.401-76.459c-26.14 0-47.417 21.276-47.417 47.388 0 26.169 21.276 47.417 47.417 47.417 26.112 0 47.388-21.248 47.388-47.417 0-26.14-21.276-47.388-47.388-47.388zM638.521 390.798c19.029-5.945 36.636-15.104 52.537-27.364 4.665-3.584 5.547-10.297 1.934-14.962-2.105-2.731-5.262-4.153-8.448-4.153-2.276 0-4.58 0.711-6.485 2.219-15.673 12.089-33.365 20.48-52.48 25.543l-10.496 2.645-5.291 0.711c-39.708 6.030-80.384-4.039-112.384-28.245l-3.527-1.707-1.195-0.199-1.707-0.256-0.654 0.142-2.958 0.683-1.337 0.455-3.584 2.958c-3.556 4.693-2.617 11.378 2.076 14.933 14.336 10.837 30.208 19.228 46.905 25.031 27.847 9.643 58.084 12.032 87.637 6.457 6.628-1.28 13.141-2.901 19.456-4.892zM397.227 480.37c-3.726 4.551-3.044 11.292 1.508 15.019 60.274 49.209 136.391 72.818 212.964 66.873l6.258-0.654 10.126-1.081 16.384-2.645c49.010-9.216 95.090-30.606 133.291-61.867 4.58-3.726 5.234-10.439 1.508-15.019l-3.556-2.788-1.28-0.398-2.958-0.654-0.455-0.114-1.877 0.313-1.337 0.228-3.527 1.849c-35.47 28.985-78.222 48.868-123.705 57.429l-0.74 0.114c-80.868 15.047-163.755-6.116-227.584-58.197-1.991-1.536-4.38-2.332-6.741-2.332-3.1 0-6.172 1.337-8.277 3.925zM720.668 412.644c-27.278 21.049-58.368 34.987-92.359 41.415-60.046 11.463-122.567-3.072-171.435-39.822l-3.499-1.678-1.223-0.199-1.65-0.256-3.641 0.825-1.308 0.455-3.584 2.958c-3.556 4.722-2.588 11.406 2.105 14.933 53.675 40.334 122.311 56.263 188.245 43.719 37.348-7.054 71.452-22.357 101.404-45.483 4.665-3.612 5.518-10.297 1.906-14.962-2.105-2.731-5.234-4.153-8.448-4.153-2.276 0.028-4.58 0.768-6.514 2.247z" />
<glyph unicode="&#xecb6;" glyph-name="connectedvehicle" d="M788.793 473.771c-4.21-5.148-10.354-7.822-16.526-7.822-4.75 0-9.529 1.593-13.483 4.807-34.105 27.876-75.236 46.962-118.955 55.211-77.995 14.734-158.037-5.604-219.591-55.865-3.954-3.243-8.732-4.807-13.483-4.807-6.172 0-12.316 2.674-16.555 7.851-7.452 9.131-6.087 22.556 3.044 30.009 71.339 58.226 164.096 81.835 254.492 64.74 50.716-9.557 98.446-31.744 138.041-64.114 9.131-7.424 10.468-20.878 3.015-30.009zM740.921 438.329c-31.317 24.149-66.93 40.135-105.927 47.502h-0.028c-68.892 13.113-140.544-3.527-196.636-45.682-9.415-7.083-11.321-20.452-4.238-29.867 4.181-5.575 10.581-8.533 17.067-8.505 4.466 0 8.96 1.394 12.8 4.267 46.507 34.93 105.899 48.754 163.015 37.86h0.028c32.341-6.116 61.867-19.342 87.836-39.367 3.868-2.987 8.448-4.437 13.028-4.437 6.4 0 12.715 2.844 16.896 8.306 7.225 9.33 5.49 22.727-3.84 29.924zM699.364 371.399c-22.528 17.351-48.299 28.9-76.516 34.276h-0.028c-50.204 9.5-102.315-2.702-142.962-33.451-9.387-7.111-11.264-20.48-4.153-29.895 4.181-5.547 10.581-8.448 17.038-8.448 4.494 0 9.017 1.394 12.857 4.324 31.033 23.495 70.912 32.796 109.255 25.572 21.589-4.124 41.273-12.914 58.482-26.169 3.868-2.987 8.448-4.437 12.999-4.437 6.4 0 12.715 2.873 16.924 8.334 7.168 9.33 5.433 22.727-3.897 29.895zM647.595 17.692c-32.085 0-58.084-25.998-58.084-58.084 0-32.057 25.998-58.055 58.084-58.055s58.055 25.998 58.055 58.055c0 32.085-25.998 58.084-58.055 58.084zM381.781 17.692c-32.085 0-58.055-25.998-58.055-58.084 0-32.057 25.97-58.055 58.055-58.055s58.084 25.998 58.084 58.055c-0.028 32.085-26.027 58.084-58.084 58.084zM771.1 133.319v-131.755c-0.284-15.758-10.638-38.172-37.063-41.102-0.455 47.332-39.054 85.703-86.471 85.703-47.616 0-86.386-38.684-86.528-86.272h-92.814c-0.142 47.588-38.884 86.272-86.5 86.272s-86.357-38.684-86.5-86.272h-21.049c-24.178 0-43.861 19.655-43.861 43.804v76.060c0 28.501 13.938 55.239 37.291 71.566l150.585 105.671c19.94 13.938 54.5 24.832 78.706 24.832h136.988c78.251-0.028 137.216-63.858 137.216-148.508zM481.308 214.699c0 13.596-12.174 16.27-20.252 10.524l-103.083-72.334c-11.15-7.794-9.131-14.194 4.466-14.194h108.601c5.632 0 10.24 4.608 10.24 10.24v65.764zM637.269 221.98c0 5.632-4.608 10.24-10.24 10.24h-85.362c-5.632 0-10.24-4.608-10.24-10.24v-73.045c0-5.632 4.608-10.24 10.24-10.24h85.362c5.632 0 10.24 4.608 10.24 10.24v73.045z" />
<glyph unicode="&#xecb7;" glyph-name="cargoshipL" d="M952.519 161.906c-5.006 5.86-12.516 9.244-20.594 9.244h-58.453v173.824c0 13.312-10.809 24.149-24.121 24.149h-44.544c-13.284 0-24.121-10.837-24.121-24.149v-14.222h-64.683c-16.299 0-29.554-13.255-29.554-29.554v-130.048h-348.985c-7.31 0-18.46 5.063-23.353 10.581l-13.284 15.161c-8.932 10.212-25.884 17.892-39.424 17.892h-173.995c-8.932 0-16.128-3.698-19.769-10.183s-3.044-14.564 1.593-22.187l92.359-151.637c7.367-12.174 23.666-21.333 37.888-21.333h709.973c15.701 0 29.952 12.174 32.484 27.705l16.412 102.969c1.28 7.993-0.853 15.929-5.831 21.788zM920.86 40.562c-0.796-5.12-6.258-9.756-11.378-9.756h-710.002c-6.656 0-16.185 5.376-19.655 11.093l-92.331 151.58h173.909c7.367 0 18.517-5.063 23.381-10.61l13.312-15.189c8.988-10.183 25.913-17.835 39.367-17.835h359.652c5.888 0 10.667 4.779 10.667 10.667v140.715c0 4.466 3.783 8.22 8.22 8.22h75.349c5.888 0 10.667 4.779 10.667 10.667v24.889c0 1.508 1.308 2.816 2.788 2.816h44.544c1.508 0 2.788-1.28 2.788-2.816v-173.824h-72.249c-5.888 0-10.667-4.779-10.667-10.667s4.779-10.667 10.667-10.667h152.036c1.877 0 3.385-0.597 4.352-1.735s1.308-2.731 1.024-4.58l-16.441-102.969zM664.348 240.896c0-5.888-4.779-10.667-10.667-10.667h-70.997c-1.223 0-2.304-1.081-2.304-2.332v-31.63c0-5.888-4.779-10.667-10.667-10.667s-10.667 4.779-10.667 10.667v31.63c0 13.056 10.61 23.666 23.637 23.666h70.997c5.888 0 10.667-4.779 10.667-10.667zM558.677 274.859v31.602c0 13.056 10.61 23.666 23.637 23.666h70.997c5.888 0 10.667-4.779 10.667-10.667s-4.779-10.667-10.667-10.667h-70.997c-1.223 0-2.304-1.081-2.304-2.332v-31.602c0-5.888-4.779-10.667-10.667-10.667s-10.667 4.75-10.667 10.667zM546.503 240.896c0-5.888-4.779-10.667-10.667-10.667h-65.707c-1.252 0-2.304-1.081-2.304-2.332v-31.63c0-5.888-4.779-10.667-10.667-10.667s-10.667 4.779-10.667 10.667v31.63c0 13.056 10.61 23.666 23.637 23.666h65.707c5.888 0 10.667-4.779 10.667-10.667zM446.066 274.859v31.602c0 13.056 10.61 23.666 23.666 23.666h65.735c5.888 0 10.667-4.779 10.667-10.667s-4.779-10.667-10.667-10.667h-65.735c-1.252 0-2.332-1.081-2.332-2.332v-31.602c0-5.888-4.779-10.667-10.667-10.667s-10.667 4.75-10.667 10.667zM433.948 240.896c0-5.888-4.779-10.667-10.667-10.667h-65.792c-1.195 0-2.247-1.081-2.247-2.332v-31.63c0-5.888-4.779-10.667-10.667-10.667s-10.667 4.779-10.667 10.667v31.63c0 13.056 10.581 23.666 23.58 23.666h65.792c5.888 0 10.667-4.779 10.667-10.667zM333.483 274.859v31.602c0 13.056 10.61 23.666 23.637 23.666h65.735c5.888 0 10.667-4.779 10.667-10.667s-4.779-10.667-10.667-10.667h-65.735c-1.223 0-2.304-1.081-2.304-2.332v-31.602c0-5.888-4.779-10.667-10.667-10.667s-10.667 4.75-10.667 10.667z" />
<glyph unicode="&#xecb8;" glyph-name="cargoship" d="M552.562 188.132h-91.079v58.311h91.079v-58.311zM672.085 333.54h-91.079v-58.652h91.079v58.652zM672.085 246.414h-91.079v-58.311h91.079v58.311zM552.562 333.54h-91.079v-58.652h91.079v58.652zM947.598 148.252c-1.82 6.684-7.794 11.406-15.588 11.406h-69.12v198.77c0 7.396-6.059 13.483-13.454 13.483h-58.766c-7.396 0-13.454-6.059-13.454-13.483v-24.917h-76.658v-173.852h-363.122c-8.135 0-18.489 4.039-25.941 9.5l-5.433 4.722-13.255 15.189c-6.855 7.851-20.992 14.251-31.403 14.251h-174.108c-10.411 0-14.478-7.253-9.045-16.156l92.388-151.694c1.365-2.219 3.186-4.352 5.319-6.286 6.4-5.803 15.616-9.899 23.467-9.899h710.144c10.411 0 20.281 8.476 21.931 18.716l8.96 56.178 7.481 46.82c0.398 2.56 0.256 5.006-0.341 7.253zM433.038 246.414h-91.079v-58.311h91.079v58.311zM433.038 333.54h-72.192c-10.411 0-18.916-8.505-18.916-18.887v-39.765h91.079v58.652z" />
<glyph unicode="&#xecb9;" glyph-name="carL" d="M772.665-18.347h-39.652c-5.205 32.768-33.422 57.97-67.612 57.97-34.219 0-62.436-25.202-67.669-57.97h-138.012c-5.205 32.768-33.422 57.97-67.641 57.97s-62.436-25.202-67.641-57.97h-39.908c-12.203 0-22.528 10.297-22.528 22.471v76.060c0 18.631 12.885 43.406 28.16 54.073l150.613 105.671c16.27 11.378 46.706 20.964 66.475 20.964h145.436c62.521 0 89.856-53.788 90.994-56.036 8.903-18.233 16.384-50.802 16.384-71.111v-65.365c0-5.888 4.779-10.667 10.667-10.667s10.667 4.779 10.667 10.667v65.365c0 23.78-8.135 59.136-18.546 80.469-1.365 2.788-34.048 68.039-110.165 68.039h-145.436c-24.206 0-58.766-10.894-78.706-24.832l-150.613-105.671c-20.907-14.62-37.262-46.052-37.262-71.566v-76.060c0-24.149 19.655-43.804 43.861-43.804h39.879c5.12-32.853 33.394-58.169 67.669-58.169 34.304 0 62.549 25.316 67.669 58.169h137.984c5.12-32.853 33.394-58.169 67.669-58.169s62.521 25.316 67.641 58.169h39.623c5.888 0 10.667 4.779 10.667 10.667s-4.779 10.667-10.667 10.667zM392.050-76.516c-26.14 0-47.388 21.248-47.388 47.388s21.276 47.417 47.388 47.417c26.14 0 47.417-21.276 47.417-47.417s-21.276-47.388-47.417-47.388zM665.401-76.516c-26.14 0-47.417 21.248-47.417 47.388s21.276 47.417 47.417 47.417 47.388-21.276 47.388-47.417-21.276-47.388-47.388-47.388z" />
<glyph unicode="&#xecba;" glyph-name="car" d="M716.914-37.348c0-32.057-25.998-58.055-58.055-58.055-32.085 0-58.084 25.998-58.084 58.055 0 32.085 25.998 58.084 58.084 58.084 32.057 0 58.055-25.998 58.055-58.084zM393.017 20.736c-32.085 0-58.055-25.998-58.055-58.084 0-32.057 25.998-58.055 58.055-58.055s58.084 25.998 58.084 58.055c0 32.085-25.998 58.084-58.084 58.084zM782.364 136.363v-131.755c-0.284-15.758-10.638-38.172-37.063-41.102-0.455 47.332-39.054 85.703-86.471 85.703-47.616 0-86.386-38.684-86.528-86.272h-92.814c-0.142 47.588-38.884 86.272-86.5 86.272s-86.357-38.684-86.471-86.272h-21.049c-24.178 0-43.861 19.655-43.861 43.804v76.060c0 28.501 13.938 55.239 37.291 71.566l150.585 105.671c19.94 13.938 54.5 24.832 78.706 24.832h136.988c78.222-0.028 137.188-63.858 137.188-148.508zM492.544 217.714c0 13.596-12.174 16.27-20.252 10.524l-103.083-72.334c-11.15-7.794-9.131-14.194 4.466-14.194h108.601c5.632 0 10.24 4.608 10.24 10.24v65.764zM648.533 225.024c0 5.632-4.608 10.24-10.24 10.24h-85.362c-5.632 0-10.24-4.608-10.24-10.24v-73.045c0-5.632 4.608-10.24 10.24-10.24h85.362c5.632 0 10.24 4.608 10.24 10.24v73.045z" />
<glyph unicode="&#xecbb;" glyph-name="busL" d="M899.271 322.304h-710.912c-26.88 0-56.348-19.314-67.072-43.975l-27.847-63.943c-9.5-21.817-17.237-58.965-17.237-82.773v-131.868c0-22.556 18.375-40.932 40.96-40.932h60.757c5.12-32.882 33.365-58.169 67.669-58.169 34.276 0 62.521 25.287 67.641 58.169h353.707c5.12-32.882 33.365-58.169 67.669-58.169 34.276 0 62.521 25.287 67.669 58.169h130.788c5.888 0 10.667 4.779 10.667 10.667s-4.779 10.667-10.667 10.667h-130.816c-5.234 32.768-33.422 57.97-67.641 57.97s-62.436-25.202-67.641-57.97h-353.764c-5.205 32.768-33.422 57.97-67.612 57.97s-62.436-25.202-67.641-57.97h-60.814c-11.748 0-19.627 10.126-19.627 19.598v77.966l131.157 63.175c18.802 9.074 52.338 16.725 73.244 16.725h520.818c5.888 0 10.667 4.779 10.667 10.667s-4.779 10.667-10.667 10.667h-520.818c-23.922 0-60.928-8.448-82.489-18.83l-121.884-58.709v30.236c0 20.992 7.083 55.012 15.445 74.268l27.847 63.943c7.339 16.896 29.099 31.147 47.531 31.147h710.912c16.697 0 30.293-13.596 30.293-30.293v-192.825c0-5.888 4.779-10.667 10.667-10.667s10.667 4.779 10.667 10.667v192.825c0 28.444-23.182 51.598-51.627 51.598zM734.578 16.782c26.112 0 47.388-21.276 47.388-47.417s-21.276-47.388-47.388-47.388c-26.14 0-47.417 21.248-47.417 47.388 0.028 26.169 21.276 47.417 47.417 47.417zM245.561 16.782c26.14 0 47.388-21.276 47.388-47.417s-21.248-47.388-47.388-47.388c-26.14 0-47.417 21.248-47.417 47.388 0.028 26.169 21.276 47.417 47.417 47.417z" />
<glyph unicode="&#xecbc;" glyph-name="bus" d="M793.429-40.391c0-32.057-25.998-58.055-58.055-58.055-32.085 0-58.084 25.998-58.084 58.055 0 32.085 25.998 58.084 58.084 58.084 32.057 0 58.055-25.998 58.055-58.084zM246.357 17.692c-32.085 0-58.084-25.998-58.084-58.084 0-32.057 25.97-58.055 58.084-58.055 32.057 0 58.055 25.998 58.055 58.055 0 32.085-25.998 58.084-58.055 58.084zM303.502 183.552h648.164v88.178c0 28.473-23.154 51.627-51.627 51.627h-710.912c-26.88 0-56.377-19.314-67.072-43.975l-27.847-63.943c-9.5-21.817-17.237-58.937-17.237-82.773v-38.827l142.364 70.428c22.471 10.866 59.392 19.285 84.167 19.285zM231.822 138.752l-154.852-76.629v-61.326c0-22.556 18.375-40.932 40.932-40.932h41.956c0.142 47.588 38.884 86.272 86.5 86.272s86.357-38.684 86.471-86.272h316.018c0.142 47.588 38.884 86.272 86.5 86.272s86.357-38.684 86.5-86.272h88.86c22.585 0 40.96 18.375 40.96 40.932v154.311h-648.164c-20.452 0-53.276-7.481-71.68-16.356z" />
<glyph unicode="&#xecbd;" glyph-name="airportL" d="M676.181 599.324c-5.291 9.159-17.522 20.053-45.71 20.053-30.293 0-70.827-12.914-108.402-34.588l-70.286-40.619-228.864 33.621c-2.418 0.341-4.807-0.114-6.884-1.337l-63.317-36.494c-3.356-1.963-5.404-5.604-5.319-9.5s2.332-7.452 5.803-9.216l137.216-70.229-62.066-35.783-82.005 29.611c-2.958 1.052-6.229 0.768-8.96-0.796l-41.557-24.007c-2.844-1.65-4.779-4.523-5.234-7.765-0.455-3.271 0.654-6.571 2.93-8.903l73.842-75.634c1.65-1.678 3.755-2.759 6.059-3.1 0.512-0.085 13.227-1.934 34.702-1.934 44.032 0 131.84 8.050 225.109 61.924l153.401 88.491c59.876 34.617 109.739 91.335 89.543 126.208zM422.571 403.058c-88.974-51.371-172.544-59.051-214.443-59.051-13.568 0-23.296 0.796-28.16 1.28l-61.611 63.118 25.401 14.649 82.005-29.611c2.958-1.052 6.229-0.768 8.932 0.796l83.342 48.043c3.385 1.963 5.433 5.604 5.319 9.5-0.085 3.897-2.332 7.452-5.803 9.244l-137.159 70.258 43.065 24.86 228.864-33.593c2.446-0.341 4.807 0.114 6.884 1.308l73.5 42.468c34.475 19.854 71.054 31.716 97.764 31.716 14.080 0 23.751-3.328 27.25-9.415 9.956-17.237-23.58-63.403-81.778-97.081l-153.372-88.491zM926.066 351.516c-4.921 6.030-12.373 9.5-20.423 9.5h-65.138v102.059c0 5.888-4.779 10.667-10.667 10.667s-10.667-4.779-10.667-10.667v-102.059h-243.627c-8.249 0-15.559-3.385-20.565-9.529-5.291-6.485-7.282-15.417-5.234-25.316l49.721-170.354h-17.38c-14.649 0-26.567-12.572-26.567-28.046v-36.921c0-15.445 11.918-28.046 26.567-28.046h55.239l-19.57-263.481c-0.455-5.888 3.982-11.008 9.842-11.435l0.796-0.028c5.547 0 10.212 4.267 10.638 9.87l20.423 274.944c0.228 2.958-0.796 5.86-2.816 8.050s-4.836 3.413-7.822 3.413h-66.759c-2.844 0-5.234 3.072-5.234 6.713v36.921c0 3.641 2.389 6.713 5.234 6.713h313.344c2.844 0 5.262-3.072 5.262-6.713v-36.921c0-3.612-2.389-6.713-5.262-6.713h-70.94c-2.958 0-5.803-1.223-7.822-3.413s-3.044-5.092-2.816-8.050l20.48-274.944c0.427-5.604 5.092-9.87 10.638-9.87l0.796 0.028c5.888 0.427 10.268 5.547 9.842 11.435l-19.627 263.481h59.477c14.649 0 26.596 12.572 26.596 28.046v36.921c0 15.474-11.918 28.046-26.596 28.046h-13.767l49.806 171.207c1.849 9.045-0.114 17.977-5.404 24.491zM571.506 338.005l4.039 1.678h330.069l3.897-1.65c1.252-1.508 1.621-3.982 1.252-5.888l-12.658-43.548h-315.193l-12.459 42.695c-0.569 2.759-0.171 5.205 1.052 6.713zM859.449 155.819h-67.556l12.743 111.445h87.239l-32.427-111.445zM770.446 155.819h-59.847l-12.715 111.445h85.305l-12.743-111.445zM589.141 267.292h87.268l12.715-111.445h-67.442l-32.54 111.445z" />
<glyph unicode="&#xecbe;" glyph-name="airport" d="M613.205 470.67l-153.372-88.462c-95.403-55.097-184.491-60.103-226.93-60.416-19.684-0.142-33.195 9.444-37.518 13.568l-52.793 54.073c-2.901 2.958-5.547 11.122 0.711 15.616l21.248 12.288c4.267 2.788 14.962 4.096 22.215 1.479l61.212-22.101c5.746-2.247 16.185-3.186 23.239 0.882l64.199 37.006c4.039 2.332 5.66 7.908 1.394 9.358l-134.684 68.921c-4.892 2.503-6.571 8.249 0.114 13.284l41.301 23.836c7.964 4.58 16.583 3.925 23.751 3.556l190.379-27.961c11.776-1.451 32.626-1.536 48.441 7.623l53.163 30.72c60.871 35.044 124.7 44.146 139.577 18.432 14.933-25.742-25.6-76.942-85.646-111.701zM865.052 239.986l-32.882-106.468h26.482c8.761 0 15.929-7.822 15.929-17.38v-36.921c0-9.557-7.14-17.38-15.929-17.38h-70.94l19.712-264.732c0.427-5.604-3.84-10.212-9.472-10.212h-196.068c-5.632 0-9.899 4.608-9.472 10.212l19.684 264.732h-66.759c-8.761 0-15.9 7.822-15.9 17.38v36.921c0 9.557 7.14 17.38 15.9 17.38h31.175l-53.276 168.533c-2.389 11.691 4.608 21.163 15.531 21.163h232.96v106.354c0 11.776 9.557 21.333 21.333 21.333s21.333-9.557 21.333-21.333v-106.354h54.471c8.107 0 14.052-5.348 15.531-12.942l0.341-3.982-0.455-4.267-19.228-62.037zM820.395 239.986h-232.818l33.65-106.468h166.258l32.91 106.468z" />
<glyph unicode="&#xecbf;" glyph-name="airplaneL" d="M860.103 527.787c-11.804 11.89-27.961 18.176-46.876 18.176-36.892 0-84.651-25.742-127.716-68.836l-107.008-105.756-354.332 75.207c-8.42 1.792-17.266-0.853-23.324-6.94l-46.905-46.905c-5.916-5.916-8.533-14.279-7.083-21.931 1.195-8.107 6.343-15.161 13.881-18.916l267.264-130.901-108.686-108.686-92.928 14.592c-8.021 1.28-16.356-1.536-21.931-7.14l-36.58-36.466c-5.888-6.059-8.42-14.592-6.855-22.642 1.479-8.22 7.31-15.417 15.246-18.716l140.373-58.681 56.178-137.785c3.243-7.908 10.183-13.653 18.574-15.36 8.164-1.65 17.067 1.024 22.983 6.969l36.21 36.21c5.66 5.433 8.448 13.483 7.424 21.788l-13.938 93.952 107.947 107.947 130.958-267.349c3.755-7.339 10.695-12.516 18.375-13.739l4.38-0.398h0.085c6.628 0 13.17 2.702 17.977 7.452l46.876 46.99c6.059 6.087 8.647 14.734 6.912 23.211l-75.207 354.162 107.065 105.756c29.241 29.269 51.001 61.013 61.269 89.287 13.141 35.243 9.358 65.593-10.61 85.447zM850.716 449.707c-9.244-25.486-29.269-54.471-56.292-81.522l-111.161-109.796c-2.588-2.56-3.698-6.258-2.958-9.813l76.402-359.794-1.138-3.812-46.848-46.962-2.901-1.223-0.825 0.085-2.958 2.276-137.415 280.604c-1.508 3.1-4.409 5.262-7.822 5.831l-1.764 0.142c-2.816 0-5.518-1.109-7.538-3.129l-122.311-122.283c-2.389-2.389-3.499-5.774-3.015-9.102l14.706-99.015-1.223-3.669-36.38-36.38-3.612-1.138-3.1 2.532-57.856 141.881c-1.081 2.617-3.157 4.722-5.774 5.803l-144.441 60.388-2.503 2.987 1.052 3.698 36.494 36.38 3.499 1.138 98.304-15.445c3.328-0.569 6.77 0.597 9.188 2.987l123.079 123.079c2.418 2.446 3.556 5.888 2.987 9.301s-2.731 6.315-5.831 7.822l-280.604 137.415-2.304 3.328 1.109 3.328 46.933 46.933 3.783 1.138 359.936-76.402c3.499-0.711 7.14 0.313 9.7 2.844l111.161 109.824c38.628 38.628 81.778 62.635 112.868 62.635 12.914 0 23.836-4.096 31.602-11.918 13.796-13.625 15.844-35.982 5.774-62.976zM818.745 146.859c10.866-10.837 16.896-25.287 16.896-40.676 0-15.417-5.973-29.952-16.896-40.875l-30.066-30.18c-2.076-2.105-4.807-3.129-7.566-3.129-2.731 0-5.433 1.052-7.538 3.1-4.181 4.153-4.181 10.894-0.028 15.076l30.066 30.208c6.884 6.912 10.667 16.043 10.667 25.771 0 9.671-3.783 18.773-10.638 25.572-10.667 10.638-26.994 13.625-40.732 7.424-5.376-2.418-11.691-0.028-14.108 5.348s-0.028 11.691 5.348 14.108c21.788 9.813 47.701 5.092 64.597-11.748zM366.137 442.596c-4.153 4.181-4.153 10.923 0.028 15.076l30.18 30.066c22.5 22.5 59.136 22.5 81.664 0 16.782-16.811 21.447-42.752 11.634-64.54-1.792-3.954-5.66-6.286-9.728-6.286l-4.38 0.939c-5.376 2.418-7.765 8.732-5.348 14.108 6.201 13.767 3.271 30.094-7.253 40.676-14.222 14.165-37.319 14.165-51.513 0l-30.208-30.066c-4.181-4.153-10.923-4.124-15.076 0.028z" />
<glyph unicode="&#xecc0;" glyph-name="airplane" d="M813.938 546.588c15.844 0.028 29.497-5.205 39.253-15.019 16.839-16.754 19.769-43.15 8.22-74.183-9.87-27.164-30.919-57.515-58.823-85.476l-111.161-109.796 29.696-139.975 22.585-106.183 24.121-113.721c0.996-4.864-0.484-9.927-4.039-13.483l-46.876-46.99c-2.759-2.759-6.628-4.324-10.468-4.324l-2.475 0.228c-4.608 0.74-8.59 3.783-10.809 8.107l-137.415 280.604-122.311-122.283 14.734-99.271c0.569-4.608-0.882-9.301-4.267-12.544l-36.38-36.352c-3.527-3.556-8.533-5.035-13.284-4.068-4.864 0.996-8.96 4.324-10.837 8.96l-57.856 141.881-144.469 60.388c-4.523 1.906-7.964 5.973-8.846 10.78-0.939 4.836 0.626 9.842 4.011 13.312l36.466 36.324c3.3 3.328 8.135 4.864 12.743 4.153l98.304-15.445 123.079 123.079-280.69 137.444c-4.267 2.133-7.31 6.116-8.021 10.894-0.91 4.665 0.626 9.472 4.011 12.857l46.933 46.905c3.584 3.612 8.619 5.12 13.568 4.068l359.964-76.373 111.104 109.767c41.102 41.131 86.13 65.764 120.235 65.735zM779.89 50.972l38.94 38.94c18.062 18.034 18.062 47.303 0 65.365-16.896 16.924-43.577 17.778-61.724 2.958l5.774-27.25 17.010-80.014zM478.663 436.708c14.791 18.148 13.938 44.8-2.987 61.724-18.062 18.034-47.332 18.062-65.365 0l-38.94-38.94 107.292-22.784z" />
</font>
</defs>
</svg>
