<?xml version="1.0" standalone="no"?>
<!DOCTYPE svg PUBLIC "-//W3C//DTD SVG 1.1//EN" "http://www.w3.org/Graphics/SVG/1.1/DTD/svg11.dtd" >
<svg xmlns="http://www.w3.org/2000/svg">
<metadata>Generated by IcoMoon</metadata>
<defs>
<font id="icoPrimary" horiz-adv-x="1024">
<font-face units-per-em="1024" ascent="716.8" descent="-307.2" />
<missing-glyph horiz-adv-x="1024" />
<glyph unicode="&#x20;" horiz-adv-x="174.08" d="" />
<glyph unicode="&#xe900;" glyph-name="att-store" d="M107.605-70.002c0-16.896 13.824-30.72 30.72-30.72h81.209v256.256c0 11.264 9.216 20.48 20.48 20.48h277.902c11.264 0 20.48-9.216 20.48-20.48v-256.256h348.302c16.896 0 30.72 13.824 30.72 30.72v327.339h-809.813v-327.339zM733.924-19.769c-21.020 0-40.391 7.168-55.808 19.143l0.114 0.171c9.984-5.575 27.676-11.833 55.694-11.833 32.228 0 52.679 10.468 59.847 15.275l0.085-0.171c-15.986-14.052-36.949-22.585-59.932-22.585zM813.113 26.482c-3.442-5.888-7.282-10.268-11.292-13.568-14.706-12.089-39.339-18.204-61.724-18.204-42.553 0-76.999 13.198-88.348 37.319l0.171 0.085c12.174-17.664 43.321-26.937 72.249-26.937 40.932 0 80.555 12.572 94.265 32.711l0.199-0.057c-1.593-3.954-3.527-7.964-5.518-11.349zM686.734 149.049c13.682 8.391 30.009 13.227 47.189 13.227 17.067 0 32.91-4.636 46.564-12.828 3.669-2.19 5.49-3.641 5.49-5.717 0-8.704-24.405-17.749-55.893-17.749-31.801 0-49.749 8.249-49.749 15.929-0.028 2.56 2.276 4.608 6.4 7.14zM662.244 127.317c3.783 4.836 8.107 9.33 12.8 13.312l0.142-0.114c-2.56-3.186-3.755-6.286-3.755-9.358 0-8.533 6.77-21.959 42.951-21.959 49.266 0 80.185 17.892 80.185 27.989l-0.569 2.105 0.142 0.114 8.619-8.732c4.494-5.12 6.286-7.765 6.286-12.316 0-12.686-19.712-27.108-63.915-27.108-41.472 0-85.817 12.828-85.817 30.521 0 1.252 1.138 3.271 2.93 5.547zM645.177 91.42c0.882 4.636 3.84 13.568 6.514 18.859l0.171-0.057-0.796-5.291c0-18.119 30.037-32.484 66.076-32.484 33.252 0 99.129 15.246 98.361 38.884l0.171 0.057c2.133-4.324 4.636-10.468 5.973-15.73 1.195-4.722 1.138-8.22 0.228-11.548-5.063-18.034-36.267-27.904-76.459-27.904-65.877 0-94.123 18.972-99.698 30.805l-0.54 4.409zM643.1 71.253c3.982-14.82 25.941-36.523 72.533-36.523 48.981 0 105.671 23.666 108.999 41.444l0.199-0.028 0.114-4.949c0-7.908-1.138-17.294-3.356-22.5-3.1-7.282-18.261-29.383-84.622-29.383-48.697 0-76.828 16.469-88.092 28.245-2.475 2.588-4.181 5.86-4.58 7.936-0.853 4.267-1.365 10.695-1.365 15.701l0.171 0.057zM943.758 300.004h-863.573c-5.632 0-9.159 4.494-7.851 9.956l32.91 138.098c1.308 5.49 6.969 9.956 12.601 9.956h789.362c5.632 0 11.264-4.494 12.544-9.984l31.943-138.098c1.28-5.461-2.304-9.927-7.936-9.927z" />
<glyph unicode="&#xe901;" glyph-name="att-storeL" d="M648.192 144.498l-0.796-5.291c0-18.119 30.037-32.484 66.076-32.484 33.252 0 99.157 15.246 98.361 38.884l0.171 0.057c2.133-4.324 4.636-10.468 5.973-15.73 1.195-4.722 1.138-8.22 0.228-11.548-5.063-18.034-36.267-27.904-76.459-27.904-65.877 0-94.123 18.972-99.698 30.805l-0.484 4.409c0.882 4.636 3.84 13.568 6.514 18.859l0.114-0.057zM964.978 294.997c0-5.888-4.779-10.667-10.667-10.667h-26.169v-336.868c0-22.812-18.574-41.387-41.387-41.387h-748.402c-5.888 0-10.667 4.779-10.667 10.667s4.779 10.667 10.667 10.667h65.138v228.124c0 17.18 13.966 31.147 31.147 31.147h277.902c17.18 0 31.147-13.966 31.147-31.147v-228.124h343.040c11.065 0 20.053 8.988 20.053 20.053v336.868h-788.48v-278.784c0-5.888-4.779-10.667-10.667-10.667s-10.667 4.779-10.667 10.667v278.784h-26.994c-3.243 0-6.286 1.479-8.306 3.982s-2.788 5.803-2.105 8.96l37.689 172.26c1.081 4.892 5.404 8.391 10.411 8.391h809.842c5.035 0 9.387-3.527 10.439-8.448l37.035-174.478zM522.382 155.534c0 5.404-4.409 9.813-9.813 9.813h-277.902c-5.404 0-9.813-4.409-9.813-9.813v-228.124h297.529v228.124zM940.857 305.664l-32.028 150.926h-792.604l-33.024-150.926h857.657zM671.403 174.905c-4.693-3.982-9.017-8.476-12.8-13.312-1.82-2.304-2.93-4.324-2.93-5.547 0-17.692 44.373-30.521 85.845-30.521 44.203 0 63.915 14.421 63.915 27.108 0 4.523-1.764 7.168-6.258 12.316l-8.647 8.732-0.142-0.114 0.569-2.105c0-10.098-30.919-27.989-80.185-27.989-36.181 0-42.951 13.426-42.951 21.959 0 3.044 1.166 6.172 3.755 9.358l-0.171 0.114zM809.472 60.729c1.991 3.385 3.897 7.424 5.49 11.378l-0.199 0.085c-13.682-20.139-53.333-32.711-94.265-32.711-28.928 0-60.046 9.244-72.249 26.937l-0.171-0.085c11.349-24.149 45.796-37.319 88.348-37.319 22.386 0 47.019 6.116 61.724 18.204 4.039 3.243 7.879 7.623 11.321 13.511zM674.588 33.792l-0.114-0.171c15.445-11.947 34.788-19.115 55.808-19.115 22.983 0 43.947 8.533 59.961 22.556l-0.085 0.171c-7.168-4.807-27.648-15.275-59.847-15.275-28.046 0-45.739 6.258-55.723 11.833zM782.308 177.948c0 2.076-1.82 3.527-5.49 5.717-13.653 8.192-29.468 12.828-46.564 12.828-17.18 0-33.508-4.807-47.189-13.227-4.096-2.532-6.428-4.551-6.428-7.168 0-7.68 17.948-15.929 49.749-15.929 31.516 0.028 55.922 9.074 55.922 17.778zM639.26 105.5c0-4.978 0.512-11.435 1.365-15.701 0.398-2.076 2.105-5.348 4.58-7.936 11.292-11.748 39.396-28.245 88.092-28.245 66.361 0 81.522 22.101 84.622 29.383 2.219 5.205 3.356 14.592 3.356 22.5l-0.114 4.949-0.199 0.028c-3.328-17.778-60.018-41.444-108.999-41.444-46.592 0-68.551 21.703-72.533 36.523l-0.171-0.057z" />
<glyph unicode="&#xe902;" glyph-name="away" d="M611.726 210.432c13.454-13.511 8.875-24.576-10.212-24.576h-52.594v-219.79l-0.199 0.455 0.142-0.455c0-13.54-11.065-24.661-24.434-24.661h-92.587v161.764c0 8.164-6.4 14.734-14.222 14.734h-110.421c-7.765 0-14.165-6.571-14.165-14.734v-161.764h-93.383c-13.426 0-24.519 11.093-24.519 24.661v219.79h-52.508c-19.086 0-23.666 11.065-10.212 24.576l226.873 227.755c6.116 6.002 14.222 9.33 22.756 9.33 8.619 0 16.697-3.3 22.812-9.33l226.873-227.755zM918.642 8.021l-3.044 17.749c-4.978 27.733-14.023 70.514-25.003 91.961-7.509 16.754-30.094 30.407-59.733 37.006l-0.74 0.171 1.109 0.825c14.080 9.33 24.661 23.467 29.412 40.078 1.82 6.229 2.816 12.772 2.816 19.627 0 39.595-32.085 71.595-71.68 71.595-39.566 0-71.652-32-71.652-71.595 0-6.997 1.052-13.682 2.901-20.025 4.75-16.128 14.99-29.838 28.53-39.111l1.906-1.394-1.337-0.313c-25.259-5.717-45.397-16.583-55.239-30.151l-3.897-6.656c-3.044-6.002-5.945-13.653-8.676-22.158-7.026-22.016-12.743-49.863-16.356-69.86l-3.072-17.749-0.91-8.476c0-20.764 22.073-39.026 55.808-49.863 20.48-6.571 45.227-10.411 71.964-10.411 70.827 0 127.545 26.88 127.545 60.245l-0.654 8.505z" />
<glyph unicode="&#xe903;" glyph-name="awayL" d="M401.493 435.143c-15.701 15.787-43.548 15.73-58.937 0.341l-249.344-236.089c-4.267-4.039-4.466-10.809-0.398-15.076s10.78-4.466 15.076-0.398l60.644 57.429-0.142-269.881c0-19.257 15.673-34.93 34.93-34.93h336.924c19.257 0 34.93 15.673 34.93 34.93l0.057 269.71 60.501-57.287c2.048-1.963 4.693-2.93 7.339-2.93 2.816 0 5.66 1.109 7.737 3.328 4.039 4.267 3.868 11.036-0.427 15.076l-248.889 235.776zM553.87-28.53c0-7.509-6.087-13.596-13.596-13.596h-86.471v156.757c0 13.909-11.321 25.23-25.23 25.23h-113.522c-13.909 0-25.23-11.321-25.23-25.23v-78.478c0-5.888 4.779-10.667 10.667-10.667s10.667 4.779 10.667 10.667v78.478c0 2.105 1.792 3.897 3.897 3.897h113.522c2.133 0 3.897-1.792 3.897-3.897v-156.757h-229.148c-7.367 0-13.596 6.229-13.596 13.596l0.142 290.048 167.538 158.663c7.737 7.737 21.049 7.851 29.184-0.313l167.31-158.492-0.028-289.906zM934.116 6.059c0-39.964-57.429-69.518-133.547-69.518-37.945 0-74.041 7.908-98.958 21.732-5.148 2.873-7.026 9.358-4.153 14.507 2.844 5.148 9.358 6.997 14.507 4.153 21.874-12.117 54.158-19.058 88.604-19.058 66.133 0 112.213 24.974 112.213 47.388l-0.484 6.343-0.54 3.157-2.389 13.767c-7.111 39.708-15.502 70.94-23.068 85.703-5.916 13.141-25.116 24.462-50.404 30.094-4.096 0.91-7.652 4.238-8.476 8.363-0.853 4.124 0.455 8.448 3.868 10.894l1.422 0.996c11.634 7.708 20.139 19.314 23.979 32.683 1.536 5.262 2.304 10.638 2.304 15.957 0 32.142-26.197 58.311-58.396 58.311s-58.396-26.169-58.396-58.311c0-5.348 0.796-10.837 2.418-16.27 3.783-12.885 12.032-24.206 23.268-31.886l2.133-1.564c3.356-2.446 4.949-6.656 4.153-10.724-0.825-4.068-3.954-7.282-7.993-8.249l-1.394-0.341c-24.974-5.66-43.975-16.924-49.579-29.412-7.737-15.189-15.9-45.255-23.182-85.134-1.052-5.803-6.599-9.7-12.402-8.562-5.803 1.052-9.643 6.599-8.562 12.402 5.404 29.611 14.137 69.348 24.917 90.51 6.656 14.848 22.983 27.477 45.767 35.698-8.078 8.875-14.165 19.57-17.579 31.232-2.19 7.396-3.271 14.905-3.271 22.272 0 43.918 35.755 79.644 79.73 79.644s79.73-35.726 79.73-79.644c0-7.339-1.052-14.706-3.129-21.874-3.385-11.833-9.472-22.642-17.692-31.687 22.955-8.277 39.225-20.992 46.023-36.238 11.378-22.187 20.452-66.588 24.832-91.079l2.446-14.108 0.512-3.072 0.768-9.074z" />
<glyph unicode="&#xe904;" glyph-name="city" d="M736.853-8.42h-230.855c-20.537 0-37.348-16.811-37.348-37.348v-158.066h305.55v158.066c0 20.537-16.839 37.348-37.348 37.348zM709.632-137.159c0-3.897-3.157-7.083-7.054-7.083h-65.678c-3.868 0-7.054 3.186-7.054 7.083v56.007c0 3.868 3.186 7.054 7.054 7.054h65.678c3.897 0 7.054-3.186 7.054-7.054v-56.007zM907.036 442.368h-212.85v104.505c0 22.528-18.432 40.96-40.96 40.96h-247.467c-22.528 0-40.96-18.432-40.96-40.96v-201.102h-98.788c-22.528 0-40.96-18.432-40.96-40.96v-135.595h-108.117c-22.528 0-40.96-18.432-40.96-40.96v-332.089h350.037v158.066c0 44.117 35.897 80.014 80.014 80.014h230.855c44.117 0 80.014-35.897 80.014-80.014v-158.066h131.1v605.269c0 22.528-18.432 40.932-40.96 40.932zM370.347-24.604c0-3.868-3.157-7.054-7.054-7.054h-65.65c-3.897 0-7.083 3.186-7.083 7.054v56.036c0 3.897 3.186 7.083 7.083 7.083h65.65c3.897 0 7.054-3.186 7.054-7.083v-56.036zM370.347 93.013c0-3.897-3.157-7.054-7.054-7.054h-65.65c-3.897 0-7.083 3.186-7.083 7.054v56.036c0 3.868 3.186 7.054 7.083 7.054h65.65c3.897 0 7.054-3.186 7.054-7.054v-56.036zM370.347 210.603c0-3.897-3.157-7.083-7.054-7.083h-65.65c-3.897 0-7.083 3.186-7.083 7.083v56.036c0 3.868 3.186 7.054 7.083 7.054h65.65c3.897 0 7.054-3.186 7.054-7.054v-56.036zM501.049 93.013c0-3.897-3.186-7.054-7.054-7.054h-65.65c-3.897 0-7.054 3.186-7.054 7.054v56.036c0 3.868 3.157 7.054 7.054 7.054h65.65c3.897 0 7.054-3.186 7.054-7.054v-56.036zM501.049 210.603c0-3.897-3.186-7.083-7.054-7.083h-65.65c-3.897 0-7.054 3.186-7.054 7.083v56.036c0 3.868 3.157 7.054 7.054 7.054h65.65c3.897 0 7.054-3.186 7.054-7.054v-56.036zM511.972 456.334c0-3.897-3.214-7.083-7.054-7.083h-65.678c-3.868 0-7.054 3.186-7.054 7.083v56.036c0 3.868 3.186 7.054 7.054 7.054h65.678c3.84 0 7.054-3.186 7.054-7.054v-56.036zM879.758 191.943c0-3.897-3.157-7.083-7.054-7.083h-65.65c-3.897 0-7.083 3.186-7.083 7.083v56.007c0 3.897 3.157 7.054 7.083 7.054h65.65c3.868 0 7.054-3.186 7.054-7.054v-56.007zM879.758 309.532c0-3.897-3.129-7.083-7.054-7.083h-65.65c-3.897 0-7.083 3.186-7.083 7.083v56.007c0 3.897 3.186 7.083 7.083 7.083h65.65c3.925 0 7.054-3.186 7.054-7.083v-56.007z" />
<glyph unicode="&#xe905;" glyph-name="cityL" d="M526.592 90.254v56.036c0 9.785-7.964 17.721-17.749 17.721h-65.65c-9.785 0-17.721-7.936-17.721-17.721v-56.036c0-9.785 7.936-17.749 17.721-17.749h65.65c9.785 0 17.749 7.964 17.749 17.749zM505.259 93.838h-58.425v48.839h58.425v-48.839zM378.169 46.393h-65.65c-9.813 0-17.749-7.936-17.749-17.721v-56.007c0-9.785 7.936-17.749 17.749-17.749h65.65c9.785 0 17.721 7.964 17.721 17.749v56.007c0 9.756-7.936 17.721-17.721 17.721zM374.556-23.78h-58.453v48.811h58.453v-48.811zM378.169 163.982h-65.65c-9.813 0-17.749-7.936-17.749-17.721v-56.036c0-9.785 7.936-17.749 17.749-17.749h65.65c9.785 0 17.721 7.964 17.721 17.749v56.036c0 9.785-7.936 17.721-17.721 17.721zM374.556 93.838h-58.453v48.839h58.453v-48.839zM378.169 281.6h-65.65c-9.813 0-17.749-7.964-17.749-17.721v-56.036c0-9.785 7.936-17.749 17.749-17.749h65.65c9.785 0 17.721 7.964 17.721 17.749v56.036c0 9.756-7.936 17.721-17.721 17.721zM374.556 211.428h-58.453v48.839h58.453v-48.839zM443.193 190.094h65.65c9.785 0 17.749 7.964 17.749 17.749v56.036c0 9.785-7.964 17.721-17.749 17.721h-65.65c-9.785 0-17.721-7.964-17.721-17.721v-56.036c0-9.785 7.964-17.749 17.721-17.749zM446.805 260.267h58.425v-48.839h-58.425v48.839zM717.454-49.294h-65.65c-9.756 0-17.749-7.964-17.749-17.749v-56.007c0-9.785 7.964-17.749 17.749-17.749h65.65c9.785 0 17.721 7.964 17.721 17.749v56.007c0 9.756-7.936 17.749-17.721 17.749zM713.842-119.495h-58.453v48.839h58.453v-48.839zM828.757 236.060h-65.65c-9.785 0-17.749-7.964-17.749-17.749v-56.036c0-9.785 7.936-17.749 17.749-17.749h65.65c9.756 0 17.721 7.964 17.721 17.749v56.036c0 9.785-7.936 17.749-17.721 17.749zM825.145 165.888h-58.425v48.839h58.425v-48.839zM828.757 353.678h-65.65c-9.813 0-17.749-7.964-17.749-17.749v-56.007c0-9.785 7.936-17.749 17.749-17.749h65.65c9.785 0 17.721 7.964 17.721 17.749v56.007c0 9.785-7.936 17.749-17.721 17.749zM825.145 283.506h-58.453v48.839h58.453v-48.839zM914.716 368.213v-535.552c0-5.888-4.779-10.667-10.667-10.667s-10.667 4.779-10.667 10.667v535.552c0 18.091-14.706 32.796-32.768 32.796h-166.571v-116.025c0-5.888-4.779-10.667-10.667-10.667s-10.667 4.779-10.667 10.667v229.006c0 14.706-11.975 26.681-26.681 26.681h-229.063c-14.677 0-26.624-11.975-26.624-26.681v-160.171h152.804c26.482 0 48.043-21.532 48.043-48.014v-289.422h160.569c26.482 0 48.014-21.561 48.014-48.014v-135.68c0-5.888-4.779-10.667-10.667-10.667-5.916 0-10.667 4.779-10.667 10.667v135.68c0 14.734-11.947 26.681-26.681 26.681h-254.037c-14.734 0-26.681-11.975-26.681-26.681v-135.68c0-5.888-4.779-10.667-10.667-10.667s-10.667 4.779-10.667 10.667v135.68c0 26.482 21.532 48.014 47.986 48.014h72.135v289.394c0 14.734-11.975 26.681-26.709 26.681h-265.87c-14.706 0.028-26.652-11.947-26.652-26.681v-203.349c0-5.888-4.779-10.667-10.667-10.667s-10.667 4.779-10.667 10.667v70.201h-65.934c-18.062 0-32.74-14.706-32.74-32.768v-307.2c0-5.888-4.779-10.667-10.667-10.667s-10.667 4.779-10.667 10.667v307.2c0 29.838 24.263 54.13 54.073 54.13h65.934v111.787c0 26.482 21.532 48.014 48.014 48.014h91.762v160.199c0 26.482 21.504 48.014 47.957 48.014h229.063c26.482 0 48.014-21.532 48.014-48.014v-91.648h166.571c29.81 0 54.073-24.263 54.073-54.13zM454.087 493.596c-9.785 0-17.721-7.964-17.721-17.721v-56.036c0-9.785 7.936-17.749 17.721-17.749h65.678c9.756 0 17.749 7.964 17.749 17.749v56.036c0 9.785-7.964 17.721-17.749 17.721h-65.678zM516.181 423.424h-58.482v48.839h58.482v-48.839z" />
<glyph unicode="&#xe906;" glyph-name="door" d="M725.276 517.746h-224.256v73.529c0 13.881-9.102 23.979-21.646 23.979-3.982 0-8.078-1.024-12.117-3.015l-211.371-104.619c-13.625-6.741-24.292-23.922-24.292-39.111v-566.13c0-15.388 11.036-32.284 25.116-38.485l210.603-92.644c3.755-1.65 7.538-2.503 11.264-2.503 13.028 0 22.471 10.297 22.471 24.491v60.7h224.256c37.006 0 67.129 30.123 67.129 67.129v529.55c-0.028 37.006-30.123 67.129-67.157 67.129zM420.011 103.168c-19.2 0-34.788 15.616-34.788 34.788 0 19.2 15.616 34.816 34.788 34.816s34.788-15.616 34.788-34.816c0-19.172-15.616-34.788-34.788-34.788zM735.516-78.962c0-5.632-4.608-10.24-10.24-10.24h-224.256v550.059h224.256c5.632 0 10.24-4.608 10.24-10.24v-529.579z" />
<glyph unicode="&#xe907;" glyph-name="doorL" d="M752.441-128.768h-191.801c-5.888 0-10.667 4.779-10.667 10.667s4.779 10.667 10.667 10.667h191.801c5.404 0 9.813 4.409 9.813 9.813v566.13c0 5.404-4.409 9.813-9.813 9.813h-191.801c-5.888 0-10.667 4.779-10.667 10.667s4.779 10.667 10.667 10.667h191.801c17.18 0 31.147-13.966 31.147-31.147v-566.13c0-17.18-13.966-31.147-31.147-31.147zM499.484-227.755c6.571 4.295 10.354 11.947 10.354 20.992v798.037c0 9.131-3.783 16.725-10.439 20.85-6.628 4.124-15.104 4.153-23.324 0.114l-211.371-104.619c-13.625-6.741-24.292-23.922-24.292-39.111v-566.13c0-15.388 11.036-32.284 25.116-38.485l210.603-92.644c3.783-1.678 7.595-2.475 11.264-2.475 4.38-0.028 8.505 1.138 12.089 3.47zM488.505 591.275v-798.066l-0.654-3.1-3.129 0.654-210.603 92.644c-6.485 2.844-12.373 11.89-12.373 18.972v566.13c0 7.253 5.916 16.782 12.43 19.996l211.371 104.619 2.503 0.91 0.455-2.759zM456.505 137.956c0 15.303-12.402 27.705-27.676 27.705-15.303 0-27.676-12.402-27.676-27.705 0-15.275 12.402-27.676 27.676-27.676s27.676 12.402 27.676 27.676z" />
<glyph unicode="&#xe908;" glyph-name="drapes" d="M872.22 547.669c-24.832 0-45.596-17.607-50.546-41.017h-619.378c-4.921 23.381-25.685 41.017-50.517 41.017-28.501 0-51.684-23.182-51.684-51.684s23.182-51.684 51.684-51.684c24.832 0 45.596 17.607 50.517 41.017h19.94v-638.322c0-4.38 2.702-8.334 6.77-9.927l3.897-0.74c2.901 0 5.774 1.195 7.822 3.413 0.256 0.284 25.088 26.681 52.708 26.681 14.82 0 24.974-5.916 35.755-12.203 10.325-6.030 21.020-12.26 34.93-12.26 45.084 0 64 32.512 64.796 33.906l1.394 5.234v30.265h123.42c5.888 0 10.667 4.779 10.667 10.667s-4.779 10.667-10.667 10.667h-29.554v265.643h29.554c5.888 0 10.667 4.779 10.667 10.667s-4.779 10.667-10.667 10.667h-29.554v265.643h69.547v-604.217l1.394-5.234c0.768-1.394 19.684-33.906 64.796-33.906 13.938 0 24.604 6.229 34.958 12.26 10.752 6.286 20.935 12.203 35.726 12.203 27.62 0 52.48-26.396 52.736-26.681 2.076-2.219 4.921-3.413 7.822-3.413l3.897 0.74c4.096 1.593 6.77 5.518 6.77 9.927v638.322h19.911c4.921-23.381 25.714-41.017 50.546-41.017 28.501 0 51.684 23.182 51.684 51.684s-23.239 51.684-51.74 51.684zM151.78 465.636c-16.725 0-30.35 13.625-30.35 30.35s13.596 30.35 30.35 30.35c16.725 0 30.322-13.596 30.322-30.35 0-16.725-13.596-30.35-30.322-30.35zM364.117-136.704c-8.164 0-15.246 4.124-24.178 9.358-11.548 6.741-25.913 15.104-46.507 15.104-19.684 0-37.404-9.074-49.863-17.806v615.367h165.404v-601.003c-4.181-5.66-17.977-21.020-44.857-21.020zM502.841-67.3h-72.533v265.643h72.533v-265.643zM502.841 219.676h-72.533v265.643h72.533v-265.643zM780.459-130.048c-12.459 8.704-30.208 17.806-49.892 17.806-20.565 0-34.93-8.363-46.478-15.104-8.96-5.234-16.043-9.358-24.206-9.358-26.88 0-40.676 15.36-44.857 21.020v601.003h165.404v-615.367zM872.22 465.636c-16.725 0-30.322 13.625-30.322 30.35s13.625 30.35 30.322 30.35c16.725 0 30.35-13.596 30.35-30.35 0-16.725-13.596-30.35-30.35-30.35z" />
<glyph unicode="&#xe909;" glyph-name="factory" d="M415.659 337.749c-85.476 1.536-124.615 63.858-143.445 93.81l-3.186 5.063c-10.581 16.555-5.746 38.542 10.78 49.124 16.555 10.581 38.514 5.746 49.095-10.78l3.527-5.575c19.74-31.46 40.96-59.762 83.2-60.53 40.562 0.768 62.094 29.924 82.176 62.35l7.111 11.406c19.001 30.635 58.539 94.407 142.535 95.943 85.447-1.536 124.587-63.858 143.417-93.781l3.186-5.063c10.581-16.555 5.746-38.514-10.78-49.124-16.555-10.61-38.542-5.746-49.124 10.78l-3.499 5.547c-19.74 31.46-40.988 59.733-83.172 60.53-40.533-0.768-62.009-29.924-82.091-62.322l-7.111-11.378c-19.029-30.663-58.567-94.464-142.62-96zM871.652-41.87l-37.319 40.363v367.332c0 5.746-4.665 10.411-10.411 10.411h-105.842c-5.717 0-10.439-4.665-10.439-10.411v-312.946h-3.982l-154.738 154.709c-9.017 9.045-24.519 2.645-24.519-10.155l-0.228-154.539-164.807 164.722c-9.045 9.045-24.519 2.645-24.519-10.155l-0.341-154.709-164.693 164.864c-9.045 9.045-24.548 2.645-24.548-10.155v-363.463c0-9.301 4.949-28.473 25.003-28.473h685.084c12.971 0 23.296 7.253 23.296 20.622v113.977c0.057 6.599-2.446 13.113-6.997 18.005z" />
<glyph unicode="&#xe90a;" glyph-name="factoryL" d="M290.901 464.953c-3.186 4.978-1.735 11.548 3.243 14.734s11.548 1.707 14.734-3.243l3.385-5.404c16.697-26.596 44.658-71.111 103.851-72.192 58.51 1.081 86.841 46.791 103.794 74.126l7.111 11.378c17.948 28.956 51.399 82.887 121.828 84.167 71.083-1.28 104.135-53.902 121.884-82.148l3.3-5.234c3.157-4.949 1.707-11.548-3.243-14.734s-11.548-1.735-14.734 3.243l-3.413 5.376c-16.697 26.596-44.629 71.083-103.794 72.164-58.453-1.081-86.784-46.763-103.708-74.069l-7.111-11.406c-17.977-28.985-51.428-82.916-121.913-84.224-71.111 1.28-104.135 53.902-121.913 82.176l-3.3 5.291zM888.434-39.652v-113.664c0-18.404-13.938-31.26-33.877-31.26h-683.435c-26.084 0-35.556 23.353-35.556 39.083v362.581c0 10.126 6.030 19.172 15.417 23.068 9.358 3.897 20.082 1.792 27.25-5.348l146.062-145.977 0.37 128.313c0 10.098 6.059 19.172 15.445 23.040 9.415 3.868 20.082 1.764 27.221-5.376l146.204-146.233 0.228 128.569c0 10.098 6.030 19.172 15.417 23.040 9.387 3.897 20.025 1.792 27.25-5.376l140.032-139.975v290.276c0 11.577 9.557 20.992 21.248 20.992h105.472c11.577 0 21.020-9.415 21.020-20.992v-362.297l34.475-37.205c6.258-6.77 9.756-15.73 9.756-25.259zM867.072-39.652c0 4.011-1.451 7.936-4.068 10.724l-37.348 40.306c-1.82 1.963-2.844 4.551-2.844 7.253v366.478l-105.159-0.341 0.085-315.676c0-4.324-2.588-8.22-6.571-9.842-3.982-1.678-8.562-0.74-11.634 2.304l-158.265 158.151c-1.508 1.479-3.129 1.138-3.982 0.768-0.853-0.341-2.276-1.252-2.276-3.356l-0.37-211.74c0-5.888-4.779-10.667-10.667-10.667-5.916 0-10.667 4.779-10.667 10.667l0.085 53.049-161.223 161.252c-1.479 1.479-3.129 1.138-3.954 0.768-0.853-0.341-2.276-1.252-2.276-3.356l-0.427-151.893v-5.177l-0.171-54.67c0-5.86-4.779-10.638-10.667-10.638h-0.057c-5.86 0-10.638 4.807-10.61 10.695l0.142 53.333-161.024 160.967c-1.422 1.479-3.072 1.109-3.954 0.74-0.853-0.341-2.276-1.252-2.276-3.356v-362.581c0-0.711 0.171-17.749 14.222-17.749h683.406c4.693 0 12.544 1.28 12.544 9.927v113.664z" />
<glyph unicode="&#xe90b;" glyph-name="financial-institution" d="M768 106.667c94.236 0 170.667-76.43 170.667-170.667s-76.43-170.667-170.667-170.667-170.667 76.43-170.667 170.667 76.43 170.667 170.667 170.667zM701.070-117.447c0-14.933 18.29-29.867 51.058-33.707v-10.126c0-12.516 4.352-17.806 15.417-17.806h1.451c10.581 0 15.417 5.774 15.417 17.806v11.093c31.317 4.807 50.574 23.609 50.574 51.058 0 34.674-32.74 44.772-57.316 50.091-21.191 4.807-36.124 8.676-36.124 22.642 0 12.516 11.065 21.191 29.383 21.191 18.29 0 35.641-9.159 45.739-21.191 0.967-0.967 14.45 7.225 14.45 19.257 0 13.966-16.384 27.449-46.706 30.35v9.643c0 12.516-3.84 18.29-14.933 18.29h-1.479c-10.581 0-15.417-6.258-15.417-18.29v-10.61c-28.9-5.291-47.189-23.609-47.189-49.124 0-35.641 30.805-45.255 54.898-50.574 19.74-4.324 36.608-8.192 36.608-23.609 0-12.516-11.065-20.224-30.35-20.224-21.191 0-41.415 10.126-51.513 22.158-0.967 0.939-13.966-7.253-13.966-18.318zM688.839 518.514h-410.567c-22.528 0-40.96-18.432-40.96-40.96v-542.692c0-22.528 18.432-40.96 40.96-40.96h52.679v185.003c0 5.632 4.58 10.24 10.24 10.24h95.090c5.66 0 10.24-4.608 10.24-10.24v-185.003h112.327c-2.702 13.625-4.181 27.705-4.181 42.098 0 104.562 75.691 191.63 175.132 209.721v331.861c0 22.528-18.432 40.932-40.96 40.932zM446.549 168.135c0-5.632-4.58-10.24-10.24-10.24h-95.090c-5.66 0-10.24 4.608-10.24 10.24v81.152c0 5.632 4.58 10.24 10.24 10.24h95.090c5.66 0 10.24-4.608 10.24-10.24v-81.152zM446.549 338.489c0-5.632-4.58-10.24-10.24-10.24h-95.090c-5.66 0-10.24 4.608-10.24 10.24v81.18c0 5.632 4.58 10.24 10.24 10.24h95.090c5.66 0 10.24-4.608 10.24-10.24v-81.18zM636.16 168.135c0-5.632-4.58-10.24-10.24-10.24h-95.090c-5.66 0-10.212 4.608-10.212 10.24v81.152c0 5.632 4.551 10.24 10.212 10.24h95.090c5.66 0 10.24-4.608 10.24-10.24v-81.152zM636.16 338.489c0-5.632-4.58-10.24-10.24-10.24h-95.090c-5.66 0-10.212 4.608-10.212 10.24v81.18c0 5.632 4.551 10.24 10.212 10.24h95.090c5.66 0 10.24-4.608 10.24-10.24v-81.18z" />
<glyph unicode="&#xe90c;" glyph-name="financial-institutionL" d="M547.783 306.916h95.090c11.52 0 20.935 9.387 20.935 20.907v81.152c0 11.52-9.415 20.907-20.935 20.907h-95.090c-11.52 0-20.878-9.387-20.878-20.907v-81.152c0-11.52 9.358-20.907 20.878-20.907zM642.475 409.003v-80.725l-94.236-0.427-0.455 80.725 94.692 0.427zM526.905 157.468c0-11.548 9.387-20.907 20.878-20.907h95.090c11.52 0 20.935 9.387 20.935 20.907v81.152c0 11.548-9.415 20.907-20.935 20.907h-95.090c-11.52 0-20.878-9.387-20.878-20.907v-81.152zM642.475 238.62v-80.725l-94.236-0.427-0.455 80.725 94.692 0.427zM358.172 306.916h95.090c11.52 0 20.935 9.387 20.935 20.907v81.152c0 11.52-9.415 20.907-20.935 20.907h-95.090c-11.52 0-20.907-9.387-20.907-20.907v-81.152c0-11.52 9.358-20.907 20.907-20.907zM452.836 409.003v-80.725l-94.236-0.427-0.427 80.725 94.663 0.427zM337.266 157.468c0-11.548 9.358-20.907 20.907-20.907h95.090c11.52 0 20.935 9.387 20.935 20.907v81.152c0 11.548-9.415 20.907-20.935 20.907h-95.090c-11.52 0-20.907-9.387-20.907-20.907v-81.152zM452.836 238.62v-80.725l-94.236-0.427-0.427 80.725 94.663 0.427zM758.215 120.86v332.885c0 35.726-29.042 64.768-64.768 64.768h-384.228c-35.726 0-64.825-29.070-64.825-64.768v-401.835c0-5.888 4.779-10.667 10.695-10.667 5.86 0 10.638 4.779 10.638 10.667v401.835c0 23.95 19.541 43.435 43.492 43.435h384.256c23.95 0 43.435-19.484 43.435-43.435v-334.108c-90.368-10.183-160.882-87.040-160.882-180.082 0-15.787 2.247-31.004 6.030-45.625h-107.89v174.336c0 11.52-9.415 20.907-20.935 20.907h-95.090c-11.52 0-20.907-9.387-20.907-20.907v-174.336h-40.903c-5.888 0-10.695-4.779-10.695-10.667s4.807-10.667 10.695-10.667h292.608c26.709-66.93 92.018-114.375 168.363-114.375 99.982 0 181.333 81.351 181.333 181.333 0.028 99.669-80.839 180.793-180.423 181.305zM358.172 67.84l94.663 0.427v-174.336h-94.265l-0.398 173.909zM757.333-220.444c-88.206 0-160 71.765-160 160 0 88.206 71.794 160 160 160 88.235 0 160-71.794 160-160 0-88.235-71.765-160-160-160zM764.53-51.541v63.374c18.005-2.048 32.74-11.15 39.794-23.637 0.569-0.796 10.695 3.186 10.695 10.923 0 10.354-18.916 27.136-49.835 29.525v15.189c0 6.4-2.389 8.22-6.884 8.22h-1.877c-4.523 0-7.196-1.849-7.196-8.22v-15.445c-27.932-3.47-49.237-22.898-49.237-46.848 0-31.147 24.604-41.5 49.408-47.73v-65.792c-20.309 2.759-35.243 13.227-43.321 27.022-0.484 0.768-10.638-3.214-10.638-10.923 0-11.435 20.764-30.094 53.248-33.28v-16.242c0-6.372 2.389-8.22 6.912-8.22h1.849c4.523 0 7.196 1.877 7.196 8.22v15.986c30.862 2.389 53.76 22.357 53.76 48.156 0.057 33.052-27.193 43.264-53.874 49.721zM749.426-47.701c-19.086 5.291-31.573 12.117-31.573 29.525 0 15.388 13.227 27.506 31.573 30.293v-59.819zM764.53-132.807v62.748c19.911-5.376 36.096-12.885 36.096-32 0-16.441-14.82-28.9-36.096-30.748z" />
<glyph unicode="&#xe90d;" glyph-name="garage" d="M387.666 120.259c0-18.267-14.808-33.075-33.075-33.075s-33.075 14.808-33.075 33.075c0 18.267 14.808 33.075 33.075 33.075s33.075-14.808 33.075-33.075zM655.913 120.259c0-18.267-14.808-33.075-33.075-33.075s-33.075 14.808-33.075 33.075c0 18.267 14.808 33.075 33.075 33.075s33.075-14.808 33.075-33.075zM586.957 276.787h-196.157l-20.869-84.562 238.060 0.123zM886.047 279.265l-193.413 193.618c-10.506 10.527-31.293 19.108-46.141 19.108h-314.839c-14.909 0-35.615-8.581-46.162-19.108l-193.413-193.618c-10.486-10.506-6.922-19.108 7.946-19.108h56.852v-326.574c0-22.917 18.637-41.595 41.636-41.595h582.267c22.979 0 41.595 18.657 41.595 41.595v326.533h55.726c14.848 0 18.432 8.622 7.946 19.149zM694.436 37.253c0-13.906-11.325-25.231-25.231-25.231h-15.667v-41.124c0-16.957-13.701-30.7-30.659-30.7s-30.72 13.742-30.72 30.7v41.124h-206.909v-41.124c0-16.957-13.742-30.7-30.7-30.7s-30.7 13.742-30.7 30.7v41.124h-15.626c-13.906 0-25.231 11.325-25.231 25.231v99.676c0 25.866 18.125 47.903 42.557 53.78l25.088 101.396c4.383 15.811 19.476 27.341 35.328 27.341h205.742c15.811 0 30.945-11.469 35.205-26.685l25.457-102.257c24.064-6.021 42.004-27.709 42.004-53.617v-99.635h0.061z" />
<glyph unicode="&#xe90e;" glyph-name="garagedoorsensor" d="M908.971 279.268c10.496-10.496 6.912-19.115-7.964-19.115h-55.723v-326.571c0-22.926-18.603-41.586-41.586-41.586h-37.12v275.911c0 14.222-11.548 25.828-25.856 25.828h-456.391c-14.279 0-25.884-11.605-25.884-25.828v-275.911h-37.006c-23.012 0-41.643 18.66-41.643 41.586v326.542h-56.832c-14.848 0-18.432 8.619-7.936 19.115l193.422 193.621c10.581 10.524 31.26 19.115 46.165 19.115h314.766c14.848 0 35.641-8.59 46.137-19.115l193.451-193.593zM495.559 131.044c0 5.632-4.608 10.24-10.24 10.24h-182.158c-5.632 0-10.24-4.608-10.24-10.24v-81.124c0-5.632 4.608-10.24 10.24-10.24h182.158c5.632 0 10.24 4.608 10.24 10.24v81.124zM732.871 131.044c0 5.632-4.608 10.24-10.24 10.24h-179.769c-5.632 0-10.24-4.608-10.24-10.24v-81.124c0-5.632 4.608-10.24 10.24-10.24h179.769c5.632 0 10.24 4.608 10.24 10.24v81.124z" />
<glyph unicode="&#xe90f;" glyph-name="garagedoorsensorL" d="M932.892 277.589l-201.415 201.643c-12.914 12.914-37.348 23.040-55.609 23.040h-327.765c-18.318 0-42.724-10.126-55.58-23.040l-201.444-201.643c-4.153-4.181-4.153-10.923 0-15.104 2.076-2.076 4.807-3.129 7.538-3.129s5.461 1.052 7.538 3.129l62.72 62.777-0.228-395.492c0-26.51 21.561-48.071 48.071-48.071h590.478c26.482 0 48.043 21.561 48.043 48.071l0.057 395.292 62.521-62.578c4.153-4.153 10.894-4.181 15.076 0 4.153 4.181 4.153 10.923 0 15.104zM833.963 343.637l-0.057-413.838c0-14.734-11.975-26.738-26.709-26.738h-45.084v307.684c0 19.314-15.701 35.015-35.015 35.015h-430.165c-19.314 0-35.044-15.701-35.044-35.015v-241.863c0-5.888 4.779-10.667 10.667-10.667s10.667 4.779 10.667 10.667v241.863c0 7.538 6.144 13.682 13.71 13.682h430.165c7.538 0 13.682-6.144 13.682-13.682v-307.684h-524.060c-14.734 0-26.738 12.004-26.738 26.738l0.256 414.635-0.37 1.82 117.788 117.902c8.875 8.932 27.79 16.754 40.476 16.754h327.737c12.658 0 31.602-7.851 40.533-16.782l118.044-118.158-0.484-2.332zM698.567 191.545h-373.163c-5.888 0-10.667-4.779-10.667-10.667v-100.437c0-5.888 4.779-10.667 10.667-10.667h373.163c5.888 0 10.667 4.779 10.667 10.667v100.437c0 5.888-4.779 10.667-10.667 10.667zM336.071 170.212h165.262v-79.104h-165.262v79.104zM687.9 91.108h-165.262v79.104h165.262v-79.104z" />
<glyph unicode="&#xe910;" glyph-name="garageL" d="M544.768 165.803l-5.234 5.262-1.451 0.597h-8.533l-1.451-0.597-5.234-5.262v-0.398l0.199-0.085 0.199 0.085 1.621 1.621v-10.297l1.252-1.252h15.388l1.252 1.252v10.297l1.621-1.621h0.398l-0.028 0.398zM542.208 167.538v-10.78l-0.683-0.683h-15.388l-0.683 0.683v10.866l3.072 3.072 1.052 0.427h8.533l1.052-0.427 3.072-3.072-0.028-0.085zM538.055 163.641l-0.768 2.702-0.654 0.512h-5.604l-0.654-0.512-0.768-2.702-1.223-1.508v-2.588l0.74-0.74h0.74v-0.967l1.081-1.081 1.081 1.081v0.967h3.641v-0.967l1.081-1.081 1.081 1.081v0.967h0.74l0.74 0.74v2.588l-1.252 1.508zM531.428 157.81l-0.512-0.512-0.512 0.512v0.967h1.052l-0.028-0.967zM537.23 157.81l-0.512-0.512-0.512 0.512v0.967h1.052l-0.028-0.967zM538.51 159.346h-9.387l-0.199 0.199v2.588l0.91 0.967 0.256 0.199 0.796 2.873 0.142 0.085h5.604l0.142-0.114 0.711-2.532h-5.916l-0.284-0.284 0.284-0.284h6.201l0.967-0.967v-2.588l-0.228-0.142zM531.029 161.707l-0.711-0.711-0.711 0.711 0.711 0.711 0.711-0.711zM538.027 161.707l-0.711-0.711-0.711 0.711 0.711 0.711 0.711-0.711zM932.892 277.589l-201.415 201.643c-12.942 12.914-37.348 23.040-55.609 23.040h-327.737c-18.318 0-42.724-10.126-55.58-23.040l-201.472-201.643c-4.153-4.181-4.153-10.923 0-15.104 2.076-2.076 4.807-3.129 7.538-3.129s5.461 1.052 7.538 3.129l62.72 62.777-0.228-395.492c0-26.51 21.561-48.071 48.043-48.071h590.478c26.482 0 48.043 21.561 48.043 48.071l0.057 395.292 62.521-62.578c4.153-4.153 10.894-4.181 15.076 0 4.21 4.181 4.21 10.923 0.028 15.104zM833.963 343.637l-0.057-413.838c0-14.734-11.975-26.738-26.709-26.738h-590.478c-14.734 0-26.709 12.004-26.709 26.738l0.256 414.635-0.37 1.82 117.788 117.902c8.875 8.932 27.79 16.754 40.476 16.754h327.737c12.658 0 31.602-7.851 40.533-16.782l118.044-118.158-0.512-2.332zM674.276 194.162l-29.298 103.993c-3.1 11.065-14.137 19.428-25.628 19.428h-215.41c-11.52 0-22.528-8.363-25.572-19.456l-28.985-103.822c-26.908-5.604-47.019-29.639-47.019-57.771v-99.669c0-15.872 12.914-28.786 28.786-28.786h27.904v-37.575c0-22.812 18.546-41.358 41.358-41.358s41.358 18.546 41.358 41.358v37.575h139.719v-37.575c0-22.812 18.546-41.358 41.387-41.358 22.784 0 41.33 18.546 41.33 41.358v37.575h27.932c15.872 0 28.786 12.914 28.786 28.786v99.669c0 28.245-20.053 51.911-46.649 57.628zM420.466-29.525c0-11.036-8.988-20.025-20.025-20.025s-20.025 8.988-20.025 20.025v37.575h40.050v-37.575zM642.873-29.525c0-11.036-8.96-20.025-19.996-20.025-11.065 0-20.053 8.988-20.053 20.025v37.575h40.021v-37.575zM692.139 29.383h-360.96c-4.039 0-7.452 3.413-7.452 7.452v99.669c0 19.627 15.332 36.124 34.873 37.575 4.494 0.341 8.277 3.442 9.472 7.765l30.862 110.564c0.484 1.792 3.157 3.812 5.006 3.812h215.41c1.877 0 4.58-2.048 5.092-3.868l27.307-96.853h-227.726c-5.888 0-10.667-4.779-10.667-10.667s4.779-10.667 10.667-10.667h237.881c20.764 0 37.66-16.896 37.66-37.66v-99.669c0.028-4.096-3.3-7.452-7.424-7.452zM405.248 119.836c0-15.303-12.459-27.733-27.762-27.733s-27.733 12.43-27.733 27.733c0 15.332 12.43 27.762 27.733 27.762 15.332 0 27.762-12.43 27.762-27.762zM673.536 119.836c0-15.303-12.402-27.733-27.762-27.733-15.303 0-27.733 12.43-27.733 27.733 0 15.332 12.43 27.762 27.733 27.762 15.332 0 27.762-12.43 27.762-27.762z" />
<glyph unicode="&#xe911;" glyph-name="government" d="M861.867-188.558h-699.733c-15.701 0-28.444 12.743-28.444 28.444s12.743 28.444 28.444 28.444h699.733c15.701 0 28.444-12.743 28.444-28.444s-12.743-28.444-28.444-28.444zM886.073 316.018c-1.138-3.812-4.864-8.363-16.213-8.363h-715.634c-11.349 0-15.076 4.551-16.213 8.363s-0.484 9.643 9.045 15.844l344.519 222.663c11.463 7.396 30.692 7.367 42.098-0.028l343.353-222.606c9.557-6.229 10.183-12.060 9.045-15.872zM547.499 422.884c0 19.285-15.673 34.93-34.958 34.93-19.314 0-34.93-15.644-34.93-34.93s15.644-34.958 34.93-34.958c19.285 0 34.958 15.673 34.958 34.958zM807.822-32.114h-22.158v281.685c0 8.448-6.912 15.36-15.36 15.36h-44.828c-8.448 0-15.36-6.912-15.36-15.36v-281.685h-41.557v281.685c0 8.448-6.912 15.36-15.36 15.36h-44.828c-8.448 0-15.36-6.912-15.36-15.36v-281.685h-41.586v281.685c0 8.448-6.912 15.36-15.36 15.36h-44.828c-8.448 0-15.36-6.912-15.36-15.36v-281.685h-41.557v281.685c0 8.448-6.912 15.36-15.36 15.36h-44.828c-8.448 0-15.36-6.912-15.36-15.36v-281.685h-41.614v281.685c0 8.448-6.912 15.36-15.36 15.36h-44.857c-8.448 0-15.36-6.912-15.36-15.36v-281.685h-25.401c-15.701 0-28.444-12.743-28.444-28.444s12.743-28.444 28.444-28.444h591.644c15.701 0 28.444 12.743 28.444 28.444s-12.743 28.444-28.444 28.444z" />
<glyph unicode="&#xe912;" glyph-name="governmentL" d="M846.905-105.529c0-5.888-4.779-10.667-10.667-10.667h-648.505c-5.888 0-10.638 4.779-10.638 10.667s4.779 10.667 10.638 10.667h648.533c5.86 0 10.638-4.779 10.638-10.667zM890.311-147.911h-756.622c-5.888 0-10.667-4.779-10.667-10.667s4.779-10.667 10.667-10.667h756.622c5.888 0 10.667 4.779 10.667 10.667s-4.779 10.667-10.667 10.667zM836.267 274.347h-648.533c-5.888 0-10.638-4.779-10.638-10.667s4.779-10.667 10.638-10.667h32.114l-0.228-300.203c0-5.888 4.779-10.667 10.638-10.667h0.028c5.888 0 10.667 4.779 10.667 10.667l0.228 300.203h91.392v-300.203c0-5.888 4.779-10.667 10.667-10.667s10.667 4.779 10.667 10.667v300.203h91.534v-300.203c0-5.888 4.779-10.667 10.667-10.667s10.667 4.779 10.667 10.667v300.203h91.534v-300.203c0-5.888 4.779-10.667 10.667-10.667s10.667 4.779 10.667 10.667v300.203h91.506v-300.203c0-5.888 4.779-10.667 10.667-10.667s10.667 4.779 10.667 10.667v300.203h91.591l-0.085-300.203c0-5.888 4.779-10.667 10.667-10.667 5.86 0 10.667 4.779 10.667 10.667l0.057 300.203h30.891c5.86 0 10.667 4.779 10.667 10.667-0.028 5.888-4.807 10.667-10.667 10.667zM558.165 424.391c0-25.145-20.452-45.625-45.625-45.625-25.145 0-45.596 20.452-45.596 45.625 0 25.145 20.452 45.596 45.596 45.596 25.145 0.028 45.625-20.452 45.625-45.596zM536.832 424.391c0 13.397-10.894 24.263-24.292 24.263s-24.263-10.894-24.263-24.263c0-13.397 10.894-24.292 24.263-24.292 13.397 0.028 24.292 10.923 24.292 24.292zM134.599 316.501c-1.223 4.068-1.451 12.060 10.524 19.826l344.548 222.692c12.601 8.135 33.422 8.107 45.966-0.057l343.324-222.606c12.004-7.794 11.776-15.787 10.553-19.854s-5.348-10.894-19.627-10.894h-715.662c-14.279 0-18.432 6.827-19.627 10.894zM169.899 326.94h684.373l-330.268 214.13c-5.632 3.669-17.124 3.669-22.784 0.028l-331.321-214.158z" />
<glyph unicode="&#xe913;" glyph-name="home" d="M887.922 229.006l-341.589 342.926c-9.216 9.045-21.419 14.023-34.361 14.023-12.857 0-25.060-4.978-34.276-14.023l-341.618-342.926c-20.252-20.366-13.34-37.006 15.388-37.006h79.104v-330.951c0-20.395 16.668-37.12 36.921-37.12h140.601v243.541c0 12.288 9.671 22.187 21.333 22.187h166.315c11.748 0 21.419-9.899 21.419-22.187v-243.541h139.406c20.11 0 36.779 16.725 36.779 37.12l-0.228 0.711 0.284-0.711v330.951h79.189c28.672 0 35.584 16.64 15.332 37.006z" />
<glyph unicode="&#xe914;" glyph-name="homeL" d="M937.387 209.465l-383.744 363.492c-11.093 11.15-25.884 17.266-41.671 17.266-15.616 0-30.293-6.059-41.102-16.896l-384.256-363.833c-4.295-4.068-4.466-10.809-0.427-15.076 4.039-4.295 10.809-4.437 15.076-0.427l103.253 97.764-0.256-429.312c0-26.51 21.589-48.071 48.071-48.071h519.282c26.51 0 48.043 21.561 48.043 48.071l0.114 429.084 102.969-97.536c2.048-1.963 4.693-2.93 7.339-2.93 2.816 0 5.632 1.109 7.765 3.328 4.011 4.295 3.84 11.036-0.455 15.076zM798.436 309.589l-0.114-447.147c0-14.734-11.975-26.738-26.709-26.738h-139.065v247.353c0 18.261-14.848 33.109-33.109 33.109h-174.962c-18.261 0-33.166-14.848-33.166-33.109v-120.917c0-5.888 4.807-10.667 10.695-10.667 5.86 0 10.638 4.779 10.638 10.667v120.917c0 6.485 5.319 11.776 11.833 11.776h174.962c6.514 0 11.776-5.291 11.776-11.776v-247.353h-358.884c-14.734 0-26.709 12.004-26.709 26.709l0.228 447.972-0.256 1.308 260.181 246.357c14.137 14.108 38.542 14.137 53.020-0.37l260.039-246.3-0.398-1.792z" />
<glyph unicode="&#xe915;" glyph-name="home-sec-auto" d="M833.991 69.348c94.265 0 170.667-76.402 170.667-170.667s-76.402-170.667-170.667-170.667-170.667 76.402-170.667 170.667 76.43 170.667 170.667 170.667zM927.204-69.404c-0.256 8.846-0.939 16.953-1.65 23.865l-1.024 9.358-0.427 1.963c-0.626 1.963-1.82 3.698-3.385 4.949l-2.617 1.536-3.044 0.711c-8.818 0.683-16.697 2.020-23.78 3.783-10.638 2.617-19.428 6.144-26.709 9.756-7.31 3.612-13.084 7.31-17.721 10.268l-4.409 2.759-3.783 2.133-4.636 1.081-4.636-1.081-8.22-4.921c-9.244-5.888-23.182-14.763-44.402-19.996-7.083-1.735-14.962-3.072-23.751-3.783l-3.499-0.91c-3.243-1.479-5.575-4.551-6.002-8.249-1.564-13.824-4.21-37.006-1.849-61.355 1.422-14.592 4.636-29.611 10.951-43.292 3.385-7.367 8.22-15.076 13.625-22.699l5.404-7.595c3.897-4.864 8.107-9.586 12.629-14.052 6.798-6.684 14.251-12.715 22.187-17.636s16.356-8.732 25.060-10.894l2.503-0.341 2.503 0.341c21.988 5.49 42.098 21.276 57.372 39.396l8.562 11.093c5.262 7.509 9.671 15.132 13.028 22.357 4.21 9.102 7.026 18.83 8.875 28.615 2.702 14.706 3.243 29.582 2.844 42.837zM769.621-125.867c-9.756 26.169-7.993 58.084-5.916 78.507 35.129 4.58 56.86 18.432 69.348 26.396l0.91 0.597 1.365-0.882c11.605-7.396 32.171-20.338 64.825-25.429l-130.532-79.189zM896.057-131.897c-11.264-24.434-35.954-52.48-62.037-60.359-14.279 4.38-29.497 15.616-42.724 31.118l114.091 69.689c-0.996-13.852-3.584-28.046-9.33-40.448zM626.944-151.723c-3.954 16.185-6.258 33.024-6.258 50.404 0 73.33 37.205 138.126 93.696 176.526v86.556h67.442c24.462 0 30.35 14.194 13.084 31.516l-290.958 292.096c-7.851 7.708-18.233 11.947-29.269 11.947-10.951 0-21.333-4.238-29.184-11.947l-290.987-292.096c-17.266-17.323-11.378-31.516 13.084-31.516h67.385v-281.884c0-17.351 14.194-31.602 31.46-31.602h119.751v207.445c0 10.468 8.22 18.887 18.176 18.887h141.653c10.012 0 18.233-8.42 18.233-18.887v-207.445h62.692zM174.848 421.888c28.786 42.183 74.325 70.457 124.928 77.596 11.719 1.65 19.883 12.516 18.233 24.235s-12.43 19.883-24.235 18.233c-62.492-8.818-118.756-43.748-154.34-95.829h-0.028c-20.139-29.468-32.711-62.293-37.348-97.593-1.536-11.748 6.741-22.5 18.46-24.036l2.816-0.199c10.61 0 19.826 7.851 21.248 18.66 3.755 28.501 13.938 55.068 30.265 78.933zM337.721 452.807c-1.593 11.748-12.43 19.996-24.149 18.347-45.653-6.229-86.812-31.659-112.896-69.774v-0.028c-14.677-21.504-23.78-45.312-27.108-70.827-1.536-11.748 6.741-22.5 18.489-24.036l2.788-0.171c10.61 0 19.826 7.879 21.248 18.66 2.446 18.745 9.188 36.295 20.025 52.196 19.257 28.132 49.607 46.905 83.257 51.484 11.719 1.593 19.94 12.402 18.347 24.149zM112.839 468.679c39.538 57.742 102.144 94.777 171.804 101.689 11.776 1.166 20.395 11.662 19.228 23.438s-11.748 20.366-23.438 19.228c-82.318-8.135-156.274-51.911-202.98-120.121l-0.028-0.057c-26.226-38.286-42.524-82.66-47.161-128.313-1.195-11.776 7.396-22.3 19.172-23.495l2.19-0.114c10.866 0 20.196 8.249 21.305 19.285 3.925 38.542 17.721 76.032 39.908 108.459z" />
<glyph unicode="&#xe916;" glyph-name="home-sec-autoL" d="M146.46 383.829c-0.54-5.49-5.205-9.614-10.61-9.614l-1.081 0.057c-5.831 0.597-10.126 5.803-9.529 11.662 4.665 47.019 22.044 91.051 49.636 127.858 16.583 22.101 36.807 41.614 60.188 57.6 34.987 23.95 75.52 38.827 117.248 43.093 6.059 0.569 11.122-3.669 11.691-9.529 0.597-5.86-3.698-11.093-9.557-11.691-38.172-3.868-75.292-17.522-107.349-39.452-57.088-39.083-93.781-101.035-100.636-169.984zM316.9 459.492c-33.877-23.211-56.519-59.79-62.066-100.38-0.796-5.831 3.271-11.236 9.131-12.032l1.451-0.085c5.234 0 9.813 3.868 10.553 9.216 4.75 34.645 24.064 65.877 52.992 85.675 16.27 11.093 34.276 18.005 53.675 20.537 5.831 0.768 9.956 6.116 9.188 11.975-0.74 5.831-6.116 10.012-11.947 9.188-22.699-2.987-43.89-11.093-62.948-24.121h-0.028zM277.362 514.702v-0.028c-47.218-32.228-78.848-83.172-86.784-139.776-0.825-5.831 3.243-11.236 9.074-12.032l1.508-0.114c5.234 0 9.813 3.84 10.581 9.188 7.083 50.66 35.413 96.284 77.682 125.127h0.028c4.494 3.1 9.216 5.746 13.938 8.391l4.523 2.731 19.342 8.761 20.281 6.372c6.884 1.735 13.881 3.072 21.049 4.011 5.86 0.768 9.956 6.116 9.216 11.947-0.796 5.86-6.286 10.012-11.947 9.216-27.876-3.612-53.902-13.056-77.852-27.477l-10.638-6.315zM948.935-64.199c0-99.982-81.351-181.333-181.333-181.333-45.255 0-86.556 16.754-118.357 44.26h-340.366c-24.462 0-44.345 19.911-44.345 44.345l0.171 384.398-91.221-86.386c-4.267-4.039-11.036-3.868-15.076 0.398s-3.868 11.036 0.398 15.076l346.254 327.879c9.927 9.927 23.381 15.502 37.746 15.502 14.535 0 28.132-5.632 38.315-15.9l345.771-327.509c4.267-4.039 4.437-10.809 0.427-15.076-2.076-2.219-4.921-3.328-7.765-3.328-2.645 0-5.262 0.967-7.367 2.93l-90.994 86.215v-118.244c73.899-22.926 127.744-91.904 127.744-173.227zM308.878-179.968h319.289c-26.14 31.431-41.899 71.765-41.899 115.74 0 43.207 15.246 82.887 40.562 114.062l-5.177 1.564h-157.696c-5.262 0-9.529-4.267-9.529-9.557v-108.942c0-5.888-4.779-10.667-10.667-10.667-5.916 0-10.667 4.779-10.667 10.667v108.942c0 17.038 13.852 30.891 30.862 30.891h157.696c7.339 0 14.052-2.788 19.484-7.253 32.683 31.886 77.312 51.627 126.464 51.627 11.036 0 21.788-1.138 32.256-3.044v131.925l0.256 1.252-233.899 221.582c-12.658 12.686-33.934 12.686-46.308 0.341l-234.069-221.639 0.171-0.796-0.199-403.684c0.028-12.658 10.382-23.012 23.068-23.012zM927.602-64.199c0 88.235-71.794 160-160 160-88.235 0-160-71.765-160-160 0-88.206 71.765-160 160-160 88.206 0 160 71.765 160 160zM868.665 2.162c2.645-23.239 8.050-71.168-9.984-110.222-14.336-31.118-47.36-69.006-85.874-78.62l-5.063-0.626-5.006 0.597c-31.232 7.794-54.471 32.284-65.564 46.165h-0.028c-8.277 10.354-15.332 21.561-20.338 32.455-18.091 39.111-12.629 87.068-9.956 110.108 1.081 9.956 9.159 17.778 19.228 18.546 32.37 2.532 50.83 14.279 63.061 22.044l9.244 5.518c5.916 2.93 12.772 2.93 18.688-0.028l9.216-5.433c12.288-7.822 30.748-19.57 63.147-22.101 7.595-0.597 13.966-5.291 17.152-12.060l0.199-0.199 0.228-0.654 0.796-1.593 0.028-0.199 0.057-0.142 0.256-1.223 0.028-0.256 0.484-2.076zM848.953-14.962l-120.064-72.818c-1.735-1.052-3.641-1.536-5.518-1.536-3.612 0-7.111 1.82-9.102 5.148-3.072 5.035-1.479 11.605 3.584 14.649l116.252 70.485c-29.525 4.807-47.701 16.384-59.221 23.694l-7.282 4.38-6.201-3.868c-13.966-8.903-36.011-22.898-73.7-25.856-2.105-20.821-7.111-64.74 8.448-98.418 3.556-7.708 8.533-15.531 14.137-23.125l104.789 64c5.035 3.044 11.577 1.479 14.649-3.556s1.479-11.577-3.556-14.677l-102.002-62.293c13.767-13.852 29.127-23.58 43.662-27.221 30.123 7.566 58.766 39.367 71.481 66.844 12.601 27.221 11.691 61.013 9.643 84.167z" />
<glyph unicode="&#xe917;" glyph-name="hotel" d="M869.774 183.125v-409.088c0-22.528-18.432-40.96-40.96-40.96h-188.444v175.104c0 4.75-3.925 8.647-8.647 8.647h-88.804c-4.75 0-8.619-3.897-8.619-8.647v-175.104h-44.601v175.104c0 4.75-3.925 8.647-8.647 8.647h-88.804c-4.75 0-8.619-3.897-8.619-8.647v-175.104h-188.444c-22.528 0-40.96 18.432-40.96 40.96v409.088c0 22.528 18.432 40.96 40.96 40.96h119.893v248.121c0 22.528 18.432 40.96 40.96 40.96h310.784c22.528 0 40.96-18.432 40.96-40.96v-248.149h121.031c22.528 0.028 40.96-18.404 40.96-40.932zM633.316 286.18c0 4.494-3.669 8.164-8.135 8.164h-75.691c-4.494 0-8.164-3.669-8.164-8.164v-64.597c0-4.494 3.669-8.164 8.164-8.164h75.691c4.466 0 8.135 3.669 8.135 8.164v64.597zM633.316 150.585c0 4.494-3.641 8.164-8.135 8.164h-75.719c-4.466 0-8.135-3.669-8.135-8.164v-64.597c0-4.466 3.669-8.164 8.135-8.164h75.719c4.494 0 8.135 3.669 8.135 8.164v64.597zM482.645 286.18c0 4.494-3.641 8.164-8.135 8.164h-75.719c-4.466 0-8.135-3.669-8.135-8.164v-64.597c0-4.494 3.669-8.164 8.135-8.164h75.719c4.466 0 8.135 3.669 8.135 8.164v64.597zM482.645 421.774c0 4.494-3.641 8.164-8.135 8.164h-75.719c-4.466 0-8.135-3.669-8.135-8.164v-64.597c0-4.494 3.669-8.164 8.135-8.164h75.719c4.466 0 8.135 3.669 8.135 8.164v64.597zM633.316 421.774c0 4.494-3.641 8.164-8.135 8.164h-75.691c-4.494 0-8.164-3.669-8.164-8.164v-64.597c0-4.494 3.669-8.164 8.164-8.164h75.691c4.494 0 8.135 3.669 8.135 8.164v64.597zM482.645 150.585c0 4.494-3.641 8.164-8.135 8.164h-75.719c-4.466 0-8.135-3.669-8.135-8.164v-64.597c0-4.466 3.669-8.164 8.135-8.164h75.719c4.466 0 8.135 3.669 8.135 8.164v64.597zM419.584 621.625l-29.184 4.238-13.056 26.453c-1.195 2.418-3.669 3.954-6.372 3.954s-5.177-1.536-6.372-3.954l-13.056-26.453-29.184-4.238c-2.674-0.398-4.892-2.276-5.746-4.836-0.825-2.56-0.142-5.404 1.792-7.282l21.134-20.594-5.035-29.099c-0.455-2.674 0.626-5.348 2.816-6.94l4.181-1.365 3.3 0.825 26.112 13.739 26.112-13.739c2.389-1.28 5.319-1.052 7.481 0.54 2.19 1.593 3.3 4.295 2.816 6.94l-5.006 29.099 21.134 20.594c1.934 1.877 2.645 4.722 1.792 7.282-0.768 2.56-2.987 4.437-5.66 4.836zM560.612 621.625l-29.212 4.238-13.056 26.453c-2.389 4.864-10.354 4.864-12.743 0l-13.056-26.453-29.184-4.238c-2.674-0.398-4.892-2.276-5.746-4.836-0.825-2.588-0.142-5.404 1.792-7.282l21.134-20.594-4.978-29.099c-0.455-2.674 0.626-5.348 2.816-6.94s5.092-1.82 7.481-0.54l26.14 13.71 26.112-13.739 3.3-0.825 4.181 1.365c2.19 1.593 3.271 4.295 2.816 6.94l-4.978 29.099 21.134 20.594c1.934 1.877 2.617 4.722 1.792 7.282-0.825 2.588-3.072 4.466-5.746 4.864zM707.385 616.789c-0.853 2.588-3.072 4.466-5.746 4.836l-29.184 4.238-13.056 26.453c-2.389 4.864-10.354 4.864-12.743 0l-13.056-26.453-29.184-4.238c-2.674-0.398-4.892-2.276-5.746-4.836-0.825-2.56-0.142-5.404 1.792-7.282l21.134-20.594-5.006-29.099c-0.455-2.674 0.626-5.348 2.816-6.94s5.092-1.82 7.509-0.54l26.112 13.739 26.112-13.739 3.328-0.825 4.181 1.365c2.19 1.593 3.3 4.295 2.816 6.94l-4.978 29.099 21.134 20.594c1.906 1.877 2.617 4.693 1.764 7.282z" />
<glyph unicode="&#xe918;" glyph-name="hotelL" d="M370.773 644.636l13.227-26.823 29.611-4.295-21.419-20.878 5.063-29.497-26.482 13.909-26.482-13.909 5.063 29.497-21.419 20.878 29.611 4.295 13.227 26.823zM370.773 665.97c-8.107 0-15.531-4.608-19.115-11.89l-8.277-16.782-18.517-2.702c-8.050-1.166-14.706-6.798-17.209-14.507s-0.427-16.213 5.404-21.874l13.397-13.056-3.157-18.432c-1.365-7.993 1.906-16.1 8.476-20.878 3.726-2.702 8.107-4.068 12.544-4.068 3.385 0 6.798 0.796 9.927 2.446l16.555 8.704 16.555-8.704c3.129-1.65 6.542-2.446 9.927-2.446 4.409 0 8.818 1.365 12.544 4.068 6.571 4.779 9.87 12.857 8.476 20.878l-3.157 18.432 13.397 13.056c5.803 5.66 7.908 14.137 5.404 21.874s-9.188 13.34-17.209 14.507l-18.517 2.702-8.277 16.782c-3.641 7.282-11.065 11.89-19.172 11.89zM511.801 644.636l13.227-26.823 29.639-4.295-21.419-20.878 5.063-29.497-26.482 13.909-26.482-13.909 5.063 29.497-21.419 20.878 29.611 4.295 13.198 26.823zM511.801 665.97c-8.107 0-15.531-4.608-19.143-11.89l-8.277-16.782-18.517-2.702c-8.050-1.166-14.706-6.798-17.237-14.507-2.503-7.708-0.427-16.185 5.404-21.874l13.397-13.056-3.157-18.432c-1.365-7.993 1.906-16.1 8.476-20.878 3.726-2.702 8.107-4.068 12.544-4.068 3.385 0 6.798 0.796 9.927 2.446l16.555 8.704 16.555-8.704c3.129-1.65 6.542-2.446 9.927-2.446 4.437 0 8.818 1.365 12.544 4.068 6.571 4.779 9.87 12.857 8.476 20.878l-3.157 18.432 13.397 13.056c5.831 5.66 7.908 14.137 5.404 21.874s-9.188 13.34-17.209 14.507l-18.517 2.702-8.277 16.782c-3.584 7.282-10.98 11.89-19.115 11.89zM652.857 644.636l13.255-26.823 29.611-4.295-21.419-20.878 5.063-29.497-26.482 13.909-26.482-13.909 5.063 29.497-21.419 20.878 29.611 4.295 13.198 26.823zM652.857 665.97c-8.107 0-15.531-4.608-19.115-11.89l-8.277-16.782-18.517-2.702c-8.050-1.166-14.706-6.798-17.209-14.507s-0.427-16.185 5.404-21.874l13.397-13.056-3.157-18.432c-1.365-7.993 1.906-16.1 8.476-20.878 3.726-2.702 8.107-4.068 12.544-4.068 3.385 0 6.798 0.796 9.927 2.446l16.555 8.704 16.555-8.704c3.129-1.65 6.542-2.446 9.927-2.446 4.437 0 8.818 1.365 12.544 4.068 6.571 4.779 9.87 12.857 8.476 20.878l-3.157 18.432 13.397 13.056c5.803 5.66 7.908 14.137 5.404 21.874s-9.188 13.34-17.237 14.507l-18.517 2.702-8.277 16.782c-3.612 7.282-11.036 11.89-19.143 11.89zM625.18 195.868h-75.691c-10.382 0-18.802 8.448-18.802 18.83v64.597c0 10.382 8.42 18.83 18.802 18.83h75.691c10.382 0 18.802-8.448 18.802-18.83v-64.597c0-10.382-8.448-18.83-18.802-18.83zM551.993 217.202h70.628v59.563h-70.628v-59.563zM625.18 60.274h-75.719c-10.354 0-18.802 8.448-18.802 18.83v64.597c0 10.382 8.42 18.83 18.802 18.83h75.719c10.382 0 18.802-8.448 18.802-18.83v-64.597c0-10.382-8.448-18.83-18.802-18.83zM551.993 81.607h70.628v59.563h-70.628v-59.563zM474.51 195.868h-75.719c-10.354 0-18.802 8.448-18.802 18.83v64.597c0 10.382 8.42 18.83 18.802 18.83h75.719c10.354 0 18.802-8.448 18.802-18.83v-64.597c0-10.382-8.448-18.83-18.802-18.83zM401.323 217.202h70.628v59.563h-70.628v-59.563zM474.51 331.463h-75.719c-10.354 0-18.802 8.448-18.802 18.83v64.597c0 10.382 8.42 18.83 18.802 18.83h75.719c10.354 0 18.802-8.448 18.802-18.83v-64.597c0-10.382-8.448-18.83-18.802-18.83zM401.323 352.796h70.628v59.563h-70.628v-59.563zM625.18 331.463h-75.691c-10.382 0-18.802 8.448-18.802 18.83v64.597c0 10.382 8.42 18.83 18.802 18.83h75.691c10.382 0 18.802-8.448 18.802-18.83v-64.597c0-10.382-8.448-18.83-18.802-18.83zM551.993 352.796h70.628v59.563h-70.628v-59.563zM474.51 60.274h-75.719c-10.354 0-18.802 8.448-18.802 18.83v64.597c0 10.382 8.42 18.83 18.802 18.83h75.719c10.354 0 18.802-8.448 18.802-18.83v-64.597c0-10.382-8.448-18.83-18.802-18.83zM401.323 81.607h70.628v59.563h-70.628v-59.563zM812.516 227.641h-94.066v235.577c0 29.639-24.092 53.732-53.732 53.732h-306.574c-29.639 0-53.732-24.092-53.732-53.732v-235.577h-92.956c-29.582 0-53.675-24.092-53.675-53.732v-299.833c0-5.888 4.779-10.667 10.667-10.667s10.667 4.779 10.667 10.667v299.833c0 17.863 14.507 32.398 32.341 32.398h92.473l0.484-135.396c0.028-5.888 4.779-10.638 10.667-10.638h0.028c5.888 0 10.638 4.779 10.638 10.667v392.277c0 17.863 14.535 32.398 32.398 32.398h306.574c17.863 0 32.398-14.535 32.398-32.398v-392.277c0-5.888 4.779-10.667 10.667-10.667s10.667 4.779 10.667 10.667v135.367h94.066c17.835 0 32.37-14.535 32.37-32.398v-405.589c0-17.835-14.535-32.37-32.398-32.37h-166.628v165.831c0 10.382-8.448 18.83-18.83 18.83h-228.238c-10.382 0-18.802-8.448-18.802-18.83v-165.831h-165.092c-5.888 0-10.667-4.779-10.667-10.667s4.779-10.667 10.667-10.667h597.589c29.639 0 53.732 24.092 53.732 53.703v405.589c0 29.639-24.092 53.732-53.703 53.732zM624.498-264.078h-102.030v163.356h102.030v-163.356zM401.323-100.722h99.812v-163.356h-99.812v163.356z" />
<glyph unicode="&#xe919;" glyph-name="largebuilding" d="M875.861 259.015v-439.666c0-22.528-18.432-40.96-40.96-40.96h-269.881v155.961c0 4.75-3.925 8.647-8.647 8.647h-88.804c-4.75 0-8.619-3.897-8.619-8.647v-155.961h-269.852c-22.528 0-40.96 18.432-40.96 40.96v439.666c0 22.528 18.432 40.96 40.96 40.96h118.898v264.704c0 22.528 18.432 40.96 40.96 40.96h326.144c22.528 0 40.96-18.432 40.96-40.96v-264.704h118.898c22.5 0 40.903-18.432 40.903-40.96zM640.512 365.198c0 4.75-3.897 8.647-8.619 8.647h-80.156c-4.75 0-8.647-3.897-8.647-8.647v-68.409c0-4.75 3.897-8.647 8.647-8.647h80.156c4.722 0 8.619 3.897 8.619 8.647v68.409zM321.081 77.938c0 4.75-3.925 8.647-8.647 8.647h-80.128c-4.779 0-8.647-3.897-8.647-8.647v-68.409c0-4.75 3.868-8.619 8.647-8.619h80.128c4.722 0 8.647 3.897 8.647 8.619v68.409zM480.91 221.582c0 4.75-3.868 8.647-8.619 8.647h-80.185c-4.722 0-8.619-3.897-8.619-8.647v-68.409c0-4.75 3.897-8.647 8.619-8.647h80.185c4.75 0 8.619 3.897 8.619 8.647v68.409zM321.081 221.582c0 4.75-3.925 8.647-8.647 8.647h-80.128c-4.75 0-8.647-3.897-8.647-8.647v-68.409c0-4.75 3.897-8.647 8.647-8.647h80.128c4.722 0 8.647 3.897 8.647 8.647v68.409zM480.91 365.198c0 4.75-3.868 8.647-8.619 8.647h-80.185c-4.722 0-8.619-3.897-8.619-8.647v-68.409c0-4.75 3.897-8.647 8.619-8.647h80.185c4.75 0 8.619 3.897 8.619 8.647v68.409zM480.91 508.814c0 4.75-3.868 8.619-8.619 8.619h-80.185c-4.722 0-8.619-3.897-8.619-8.619v-68.409c0-4.75 3.897-8.647 8.619-8.647h80.185c4.75 0 8.619 3.897 8.619 8.647v68.409zM640.512 508.814c0 4.75-3.868 8.619-8.619 8.619h-80.156c-4.75 0-8.647-3.897-8.647-8.619v-68.409c0-4.75 3.897-8.647 8.647-8.647h80.156c4.75 0 8.619 3.897 8.619 8.647v68.409z" />
<glyph unicode="&#xe91a;" glyph-name="largebuildingL" d="M830.293 309.419h-100.238v250.169c0 31.033-25.259 56.292-56.292 56.292h-324.722c-31.033 0-56.292-25.259-56.292-56.292v-250.169h-99.072c-31.004 0-56.235-25.259-56.235-56.292v-317.554c0-5.888 4.779-10.667 10.667-10.667s10.667 4.779 10.667 10.667v317.554c0 19.285 15.644 34.958 34.901 34.958h109.17c3.868 0 8.050 3.157 9.927 6.542l1.308 5.148v259.812c0 19.257 15.673 34.958 34.958 34.958h324.722c19.257 0 34.958-15.673 34.958-34.958v-446.379c0-5.888 4.779-10.667 10.667-10.667s10.667 4.779 10.667 10.667v174.876h100.238c19.257 0 34.901-15.673 34.901-34.958v-429.625c0-19.257-15.673-34.93-34.958-34.93h-258.901v145.294c0 10.667-8.676 19.314-19.314 19.314h-80.128c-10.638 0-19.285-8.647-19.285-19.314v-145.294h-255.289c-5.888 0-10.667-4.779-10.667-10.667s4.779-10.667 10.667-10.667h632.946c31.033 0 56.292 25.259 56.292 56.263v429.625c-0.028 31.033-25.259 56.292-56.263 56.292zM473.941-68.124h76.117v-143.275h-76.117v143.275zM532.395 296.334c0-10.638 8.676-19.314 19.314-19.314h80.156c10.638 0 19.285 8.647 19.285 19.314v68.409c0 10.638-8.647 19.285-19.285 19.285h-80.156c-10.638 0-19.314-8.647-19.314-19.285v-68.409zM553.728 362.724h76.089v-64.341h-76.089v64.341zM212.992 9.102c0-10.638 8.676-19.314 19.314-19.314h80.128c10.638 0 19.314 8.676 19.314 19.314v68.409c0 10.638-8.676 19.314-19.314 19.314h-80.128c-10.638 0-19.314-8.676-19.314-19.314v-68.409zM234.325 75.492h76.089v-64.37h-76.089v64.37zM372.821 152.718c0-10.638 8.647-19.314 19.285-19.314h80.185c10.61 0 19.285 8.676 19.285 19.314v68.409c0 10.638-8.676 19.314-19.285 19.314h-80.185c-10.638 0-19.285-8.647-19.285-19.314v-68.409zM394.155 219.108h76.089v-64.37h-76.089v64.37zM232.306 133.404h80.128c10.638 0 19.314 8.676 19.314 19.314v68.409c0 10.638-8.676 19.314-19.314 19.314h-80.128c-10.638 0-19.314-8.647-19.314-19.314v-68.409c0-10.638 8.676-19.314 19.314-19.314zM234.325 219.108h76.089v-64.37h-76.089v64.37zM372.821 296.334c0-10.638 8.647-19.314 19.285-19.314h80.185c10.61 0 19.285 8.647 19.285 19.314v68.409c0 10.638-8.676 19.285-19.285 19.285h-80.185c-10.638 0-19.285-8.647-19.285-19.285v-68.409zM394.155 362.724h76.089v-64.341h-76.089v64.341zM392.107 420.665h80.185c10.61 0 19.285 8.647 19.285 19.314v68.409c0 10.638-8.676 19.285-19.285 19.285h-80.185c-10.638 0-19.285-8.647-19.285-19.285v-68.409c0-10.667 8.647-19.314 19.285-19.314zM394.155 506.34h76.089v-64.341h-76.089v64.341zM551.708 420.665h80.156c10.638 0 19.285 8.647 19.285 19.314v68.409c0 10.638-8.647 19.285-19.285 19.285h-80.156c-10.638 0-19.314-8.647-19.314-19.285v-68.409c0-10.667 8.676-19.314 19.314-19.314zM553.728 506.34h76.089v-64.341h-76.089v64.341z" />
<glyph unicode="&#xe91b;" glyph-name="largehouse" d="M360.676 466.176c9.33 0 18.091-3.584 24.718-10.098l245.817-246.784c14.592-14.649 9.614-26.624-11.065-26.624h-56.974l-0.114-264.846h-126.72v175.275c0 8.846-6.94 15.957-15.417 15.957h-119.694c-8.391 0-15.36-7.14-15.36-15.957v-175.275h-101.148c-14.564 0-26.567 12.032-26.567 26.709v238.165h-56.917c-20.679 0-25.657 11.975-11.065 26.624l245.845 246.784c6.628 6.514 15.388 10.069 24.661 10.069zM942.194-55.979l-0.199 0.512 0.142-0.484c0-14.393-11.748-26.226-25.97-26.226h-310.414l0.085 222.18h14.336c27.534 0 49.266 12.743 58.14 34.133 8.875 21.362 2.56 45.767-16.868 65.28l-129.451 129.963h266.297c12.914 0 25.031-4.949 34.219-13.966l95.915-96.028c6.855-6.4 13.796-20.281 13.796-36.181v-279.182zM832.939 98.076c0 5.632-4.58 10.24-10.24 10.24h-95.090c-5.66 0-10.24-4.608-10.24-10.24v-81.18c0-5.632 4.58-10.24 10.24-10.24h95.090c5.66 0 10.24 4.608 10.24 10.24v81.18z" />
<glyph unicode="&#xe91c;" glyph-name="largehouseL" d="M917.959 267.435l-95.972 96.114c-11.207 10.98-25.998 17.010-41.671 17.010l-256.028-0.228-88.292 83.627c-17.124 17.209-47.417 17.152-64.228 0.341l-279.268-264.448c-4.267-4.039-4.466-10.809-0.398-15.076 2.105-2.219 4.921-3.328 7.737-3.328 2.645 0 5.262 0.967 7.339 2.93l70.087 66.389-0.142-305.209c0-20.878 16.981-37.86 37.831-37.86h683.264c19.769 0 35.954 15.844 36.608 35.584l0.085 1.28v279.154c-0.057 19.314-8.676 36.011-16.953 43.719zM472.832-70.997h-138.468v176.839c0 3.1 2.532 5.632 5.66 5.632h127.147c3.072 0 5.66-2.588 5.66-5.632v-176.839zM913.522-54.158l-0.057-1.593c-0.171-8.306-7.111-15.246-15.303-15.246h-403.996v176.839c0 14.876-12.117 26.965-26.994 26.965h-127.147c-14.876 0-26.994-12.089-26.994-26.965v-176.839h-98.133c-9.102 0-16.498 7.396-16.498 16.526l0.171 325.433 188.046 178.062c9.159 9.159 24.946 9.244 34.475-0.313l187.847-177.948-0.057-0.256-0.057-249.941c0-5.888 4.779-10.667 10.667-10.667s10.667 4.779 10.667 10.667l0.057 230.059 69.916-66.247c4.238-4.039 11.036-3.868 15.076 0.398s3.868 11.036-0.427 15.076l-168.277 159.403h233.756c10.069 0 19.57-3.868 26.681-10.837l96.171-96.284c4.181-3.897 10.411-14.706 10.411-28.388v-277.902zM819.712 9.87h-95.090c-11.52 0-20.878 9.387-20.878 20.907v81.152c0 11.52 9.387 20.907 20.878 20.907h95.090c11.52 0 20.907-9.387 20.907-20.907v-81.152c0-11.548-9.387-20.907-20.907-20.907zM725.077 31.204h94.635l-0.427 80.725-94.663-0.427 0.455-80.299z" />
<glyph unicode="&#xe91d;" glyph-name="medicalfacility" d="M446.549 168.135c0-5.632-4.58-10.24-10.24-10.24h-95.090c-5.66 0-10.24 4.608-10.24 10.24v81.152c0 5.632 4.58 10.24 10.24 10.24h95.090c5.66 0 10.24-4.608 10.24-10.24v-81.152zM446.549 338.489c0-5.632-4.58-10.24-10.24-10.24h-95.090c-5.66 0-10.24 4.608-10.24 10.24v81.18c0 5.632 4.58 10.24 10.24 10.24h95.090c5.66 0 10.24-4.608 10.24-10.24v-81.18zM636.16 168.135c0-5.632-4.58-10.24-10.24-10.24h-95.090c-5.66 0-10.212 4.608-10.212 10.24v81.152c0 5.632 4.551 10.24 10.212 10.24h95.090c5.66 0 10.24-4.608 10.24-10.24v-81.152zM636.16 338.489c0-5.632-4.58-10.24-10.24-10.24h-95.090c-5.66 0-10.212 4.608-10.212 10.24v81.18c0 5.632 4.551 10.24 10.212 10.24h95.090c5.66 0 10.24-4.608 10.24-10.24v-81.18zM768 106.667c94.293 0 170.667-76.402 170.667-170.667 0-94.236-76.373-170.667-170.667-170.667-94.236 0-170.667 76.43-170.667 170.667 0 94.265 76.43 170.667 170.667 170.667zM683.52-100.21h48.327v-48.213c0-11.008 8.988-19.996 19.996-19.996h32.37c11.065 0 20.025 8.988 20.025 19.996v48.213h48.185c11.036 0 19.996 9.017 19.996 20.053v32.341c0 11.008-8.96 19.996-19.996 19.996h-48.185v48.27c0 10.98-8.96 19.996-20.025 19.996h-32.37c-11.008 0-19.996-9.017-19.996-19.996l-0.114-48.27h-48.213c-11.008 0-19.996-8.96-19.996-19.996v-32.341c0-11.036 9.017-20.053 19.996-20.053zM558.876-106.069c-2.731 13.596-4.21 27.676-4.21 42.069 0 104.562 75.691 191.63 175.132 209.721v331.861c0 22.528-18.432 40.96-40.96 40.96h-410.567c-22.528 0-40.96-18.432-40.96-40.96v-542.692c0-22.528 18.432-40.96 40.96-40.96h52.679v185.003c0 5.632 4.58 10.24 10.24 10.24h95.090c5.66 0 10.24-4.608 10.24-10.24v-185.003h112.356z" />
<glyph unicode="&#xe91e;" glyph-name="medicalfacilityL" d="M559.104 303.559h95.090c11.52 0 20.935 9.387 20.935 20.907v81.152c0 11.52-9.415 20.907-20.935 20.907h-95.090c-11.52 0-20.878-9.387-20.878-20.907v-81.18c-0.028-11.52 9.358-20.878 20.878-20.878zM653.767 405.618v-80.725l-94.236-0.427-0.455 80.725 94.692 0.427zM538.197 154.084c0-11.548 9.387-20.907 20.878-20.907h95.090c11.52 0 20.935 9.387 20.935 20.907v81.152c0 11.548-9.415 20.907-20.935 20.907h-95.090c-11.52 0-20.878-9.387-20.878-20.907v-81.152zM653.767 235.236v-80.725l-94.236-0.427-0.455 80.725 94.692 0.427zM369.493 303.559h95.090c11.52 0 20.935 9.387 20.935 20.907v81.152c0 11.52-9.415 20.907-20.935 20.907h-95.090c-11.52 0-20.907-9.387-20.907-20.907v-81.18c0-11.52 9.358-20.878 20.907-20.878zM464.156 405.618v-80.725l-94.236-0.427-0.427 80.725 94.663 0.427zM348.587 154.084c0-11.548 9.387-20.907 20.907-20.907h95.090c11.52 0 20.935 9.387 20.935 20.907v81.152c0 11.548-9.415 20.907-20.935 20.907h-95.090c-11.52 0-20.907-9.387-20.907-20.907v-81.152zM464.156 235.236v-80.725l-94.236-0.427-0.427 80.725 94.663 0.427zM769.536 117.476v332.885c0 35.726-29.042 64.768-64.74 64.768h-384.284c-35.726 0-64.825-29.070-64.825-64.768v-401.835c0-5.888 4.779-10.667 10.695-10.667 5.86 0 10.638 4.779 10.638 10.667v401.835c0 23.95 19.513 43.435 43.492 43.435h384.256c23.95 0 43.406-19.484 43.406-43.435v-334.108c-90.396-10.212-160.882-87.040-160.882-180.11 0-15.787 2.247-31.033 6.030-45.625h-107.861v174.336c0 11.52-9.415 20.907-20.935 20.907h-95.033c-11.52 0-20.907-9.387-20.907-20.907v-174.336h-40.903c-5.888 0-10.667-4.779-10.667-10.667s4.779-10.667 10.667-10.667h292.608c26.709-66.901 92.018-114.375 168.363-114.375 99.982 0 181.333 81.351 181.333 181.333 0 99.726-80.896 180.85-180.452 181.333zM369.493 64.455l94.663 0.427v-174.336h-94.265l-0.398 173.909zM768.654-223.829c-88.235 0-160 71.794-160 160 0 88.235 71.765 160 160 160s160-71.765 160-160c0-88.206-71.794-160-160-160zM853.077-17.010h-37.518v37.604c0 16.896-13.767 30.663-30.692 30.663h-32.37c-16.924 0-30.692-13.767-30.692-30.635l-0.085-37.632h-37.575c-16.924 0-30.72-13.739-30.72-30.663v-32.341c0-16.924 13.767-30.72 30.72-30.72h37.66v-37.547c0-16.896 13.767-30.663 30.692-30.663h32.37c16.924 0 30.692 13.767 30.692 30.663v37.547h37.518c16.924 0 30.663 13.767 30.663 30.72v32.341c0.028 16.924-13.739 30.663-30.663 30.663zM862.436-80.014c0-5.177-4.153-9.387-9.33-9.387h-48.185c-5.916 0-10.695-4.779-10.695-10.667v-48.213c0-5.148-4.181-9.33-9.33-9.33h-32.37c-5.148 0-9.358 4.181-9.358 9.33v48.213c0 5.888-4.779 10.667-10.667 10.667h-48.327c-5.148 0-9.387 4.21-9.387 9.387v32.341c0 5.148 4.21 9.33 9.387 9.33h48.213c5.86 0 10.638 4.75 10.667 10.638l0.114 48.299c0 5.148 4.181 9.33 9.358 9.33h32.37c5.148 0 9.33-4.181 9.33-9.33v-48.27c0-5.888 4.779-10.667 10.695-10.667h48.185c5.177 0 9.33-4.181 9.33-9.33v-32.341z" />
<glyph unicode="&#xe91f;" glyph-name="midsizedbuilding" d="M544.882 416.768h-410.567c-22.528 0-40.96-18.432-40.96-40.96v-542.692c0-22.528 18.432-40.96 40.96-40.96h242.29v185.003c0 5.632 4.58 10.24 10.24 10.24h95.090c5.66 0 10.24-4.608 10.24-10.24v-185.003h93.639v583.652c0.028 22.528-18.404 40.96-40.932 40.96zM302.564-103.993c0-5.632-4.551-10.24-10.212-10.24h-95.118c-5.66 0-10.24 4.608-10.24 10.24v81.18c0 5.632 4.58 10.24 10.24 10.24h95.090c5.66 0 10.212-4.608 10.212-10.24v-81.18zM302.564 66.389c0-5.632-4.551-10.24-10.212-10.24h-95.118c-5.66 0-10.24 4.608-10.24 10.24v81.152c0 5.632 4.58 10.24 10.24 10.24h95.090c5.66 0 10.212-4.608 10.212-10.24v-81.152zM302.564 236.743c0-5.632-4.551-10.24-10.212-10.24h-95.118c-5.66 0-10.24 4.608-10.24 10.24v81.18c0 5.632 4.58 10.24 10.24 10.24h95.090c5.66 0 10.212-4.608 10.212-10.24v-81.18zM492.174 66.389c0-5.632-4.58-10.24-10.24-10.24h-95.090c-5.66 0-10.24 4.608-10.24 10.24v81.152c0 5.632 4.58 10.24 10.24 10.24h95.090c5.66 0 10.24-4.608 10.24-10.24v-81.152zM492.174 236.743c0-5.632-4.58-10.24-10.24-10.24h-95.090c-5.66 0-10.24 4.608-10.24 10.24v81.18c0 5.632 4.58 10.24 10.24 10.24h95.090c5.66 0 10.24-4.608 10.24-10.24v-81.18zM930.645 549.717v-716.572c0-22.528-18.432-40.96-40.96-40.96h-261.205v583.623c0 46.108-37.518 83.627-83.627 83.627h-77.767v90.283c0 22.528 18.432 40.96 40.96 40.96h381.611c22.556 0 40.988-18.432 40.988-40.96zM837.006 317.924c0 5.632-4.636 10.24-10.24 10.24h-95.090c-5.66 0-10.24-4.608-10.24-10.24v-81.152c0-5.632 4.58-10.24 10.24-10.24h95.090c5.604 0 10.24 4.608 10.24 10.24v81.152zM837.006 488.277c0 5.632-4.636 10.24-10.24 10.24h-95.090c-5.66 0-10.24-4.608-10.24-10.24v-81.152c0-5.632 4.58-10.24 10.24-10.24h95.090c5.604 0 10.24 4.608 10.24 10.24v81.152zM837.006 147.541c0 5.632-4.636 10.24-10.24 10.24h-95.090c-5.66 0-10.24-4.608-10.24-10.24v-81.152c0-5.632 4.58-10.24 10.24-10.24h95.090c5.604 0 10.24 4.608 10.24 10.24v81.152zM837.006-22.812c0 5.632-4.636 10.24-10.24 10.24h-95.090c-5.66 0-10.24-4.608-10.24-10.24v-81.18c0-5.632 4.58-10.24 10.24-10.24h95.090c5.604 0 10.24 4.608 10.24 10.24v81.18z" />
<glyph unicode="&#xe920;" glyph-name="midsizedbuildingL" d="M852.252 602.482h-305.692c-35.698 0-64.74-29.070-64.74-64.768v-51.655c0-5.888 4.779-10.667 10.667-10.667s10.667 4.779 10.667 10.667v51.655c0 23.95 19.484 43.435 43.406 43.435h305.721c23.95 0 43.435-19.484 43.435-43.435v-691.428c0-23.95-19.513-43.406-43.435-43.406h-325.973v174.336c0 11.52-9.387 20.907-20.907 20.907h-95.090c-11.52 0-20.878-9.387-20.878-20.907v-174.336h-217.685c-23.979 0-43.435 19.484-43.435 43.406v516.38c0 23.95 19.484 43.435 43.435 43.435h384.256c23.95 0 43.435-19.484 43.435-43.435v-477.326c0-5.888 4.779-10.667 10.667-10.667s10.667 4.779 10.667 10.667v477.326c0 35.726-29.042 64.768-64.768 64.768h-384.284c-35.698 0.028-64.768-29.042-64.768-64.768v-516.409c0-35.698 29.070-64.74 64.768-64.74h680.533c35.726 0 64.768 29.042 64.768 64.74v691.456c0.028 35.698-29.042 64.768-64.768 64.768zM410.311-23.239l94.692 0.427v-174.336h-94.265l-0.427 173.909zM707.356 386.219h95.090c11.52 0 20.907 9.387 20.907 20.907v81.152c0 11.52-9.387 20.907-20.907 20.907h-95.090c-11.52 0-20.907-9.387-20.907-20.907v-81.152c-0.028-11.52 9.358-20.907 20.907-20.907zM802.020 488.277v-80.725l-94.265-0.427-0.427 80.725 94.692 0.427zM686.421 236.772c0-11.52 9.387-20.907 20.907-20.907h95.090c11.52 0 20.907 9.387 20.907 20.907v81.152c0 11.52-9.387 20.907-20.907 20.907h-95.090c-11.52 0-20.907-9.387-20.907-20.907v-81.152zM802.020 317.924v-80.725l-94.265-0.427-0.427 80.725 94.692 0.427zM686.421 66.389c0-11.52 9.387-20.907 20.907-20.907h95.090c11.52 0 20.907 9.387 20.907 20.907v81.152c0 11.52-9.387 20.907-20.907 20.907h-95.090c-11.52 0-20.907-9.387-20.907-20.907v-81.152zM802.020 147.541v-80.725l-94.265-0.427-0.427 80.725 94.692 0.427zM686.421-103.993c0-11.52 9.387-20.907 20.907-20.907h95.090c11.52 0 20.907 9.387 20.907 20.907v81.18c0 11.52-9.387 20.907-20.907 20.907h-95.090c-11.52 0-20.907-9.387-20.907-20.907v-81.18zM802.020-22.812v-80.754l-94.265-0.427-0.427 80.754 94.692 0.427zM336.725 317.924c0 11.52-9.415 20.907-20.935 20.907h-95.090c-11.52 0-20.907-9.387-20.907-20.907v-81.152c0-11.52 9.387-20.907 20.907-20.907h95.090c11.52 0 20.935 9.387 20.935 20.907v81.152zM315.364 237.17l-94.265-0.427-0.427 80.725 94.663 0.427v-80.725zM336.725 147.541c0 11.52-9.415 20.907-20.935 20.907h-95.090c-11.52 0-20.907-9.387-20.907-20.907v-81.152c0-11.52 9.387-20.907 20.907-20.907h95.090c11.52 0 20.935 9.387 20.935 20.907v81.152zM315.364 66.816l-94.265-0.427-0.427 80.725 94.663 0.427v-80.725zM315.79-1.906h-95.090c-11.52 0-20.907-9.387-20.907-20.907v-81.18c0-11.52 9.387-20.907 20.907-20.907h95.090c11.52 0 20.935 9.387 20.935 20.907v81.18c0 11.52-9.415 20.907-20.935 20.907zM315.364-103.566l-94.265-0.427-0.427 80.754 94.663 0.427v-80.754zM526.308 317.924c0 11.52-9.387 20.907-20.907 20.907h-95.090c-11.52 0-20.878-9.387-20.878-20.907v-81.152c0-11.52 9.387-20.907 20.878-20.907h95.090c11.52 0 20.907 9.387 20.907 20.907v81.152zM505.003 237.17l-94.236-0.427-0.455 80.725 94.692 0.427v-80.725zM505.401 168.476h-95.090c-11.52 0-20.878-9.387-20.878-20.907v-81.152c0-11.52 9.387-20.907 20.878-20.907h95.090c11.52 0 20.907 9.387 20.907 20.907v81.152c0 11.492-9.387 20.907-20.907 20.907zM505.003 66.816l-94.236-0.427-0.455 80.725 94.692 0.427v-80.725z" />
<glyph unicode="&#xe921;" glyph-name="mobileworkplace" d="M558.876-106.069c-2.731 13.596-4.21 27.676-4.21 42.069 0 104.562 75.691 191.63 175.132 209.721v331.861c0 22.528-18.432 40.96-40.96 40.96h-410.567c-22.528 0-40.96-18.432-40.96-40.96v-542.692c0-22.528 18.432-40.96 40.96-40.96h52.679v185.003c0 5.632 4.58 10.24 10.24 10.24h95.090c5.66 0 10.24-4.608 10.24-10.24v-185.003h112.356zM520.59 419.669c0 5.632 4.551 10.24 10.212 10.24h95.090c5.66 0 10.24-4.608 10.24-10.24v-81.152c0-5.632-4.58-10.24-10.24-10.24h-95.090c-5.66 0-10.212 4.608-10.212 10.24v81.152zM520.59 249.287c0 5.632 4.551 10.24 10.212 10.24h95.090c5.66 0 10.24-4.608 10.24-10.24v-81.152c0-5.632-4.58-10.24-10.24-10.24h-95.090c-5.66 0-10.212 4.608-10.212 10.24v81.152zM330.951 419.669c0 5.632 4.58 10.24 10.24 10.24h95.090c5.66 0 10.24-4.608 10.24-10.24v-81.152c0-5.632-4.58-10.24-10.24-10.24h-95.090c-5.66 0-10.24 4.608-10.24 10.24v81.152zM436.281 157.895h-95.090c-5.66 0-10.24 4.608-10.24 10.24v81.152c0 5.632 4.58 10.24 10.24 10.24h95.090c5.66 0 10.24-4.608 10.24-10.24v-81.152c0.028-5.632-4.551-10.24-10.24-10.24zM768 106.667c94.236 0 170.667-76.43 170.667-170.667s-76.43-170.667-170.667-170.667-170.667 76.43-170.667 170.667 76.43 170.667 170.667 170.667zM767.829-114.631c-14.478 0-26.254-11.776-26.254-26.254s11.776-26.226 26.254-26.226c14.45 0 26.226 11.776 26.226 26.226 0 14.478-11.776 26.254-26.226 26.254zM880.327-16.811c-23.125 17.835-49.436 29.611-78.251 34.987-50.83 9.586-103.737-2.901-145.124-34.162-6.286-4.75-7.509-13.653-2.788-19.911 4.693-6.258 13.653-7.509 19.911-2.759 35.015 26.453 79.758 36.978 122.738 28.9 24.348-4.551 46.592-14.478 66.105-29.554 2.588-1.991 5.66-2.958 8.676-2.958 4.267 0 8.476 1.906 11.264 5.518 4.836 6.229 3.669 15.161-2.532 19.94zM789.76-49.749c-33.109 6.201-67.556-1.934-94.436-22.329-6.258-4.75-7.481-13.653-2.731-19.94 4.75-6.229 13.625-7.481 19.94-2.731 20.508 15.559 46.734 21.788 71.993 17.038 14.364-2.702 27.335-8.448 38.599-17.038 2.588-1.963 5.604-2.93 8.619-2.93 4.267 0 8.505 1.934 11.321 5.575 4.75 6.229 3.556 15.161-2.674 19.94-14.848 11.349-31.858 18.859-50.631 22.414z" />
<glyph unicode="&#xe922;" glyph-name="mobileworkplaceL" d="M545.166 303.218h95.090c11.548 0 20.935 9.387 20.935 20.907v81.18c0 11.52-9.387 20.907-20.935 20.907h-95.090c-11.52 0-20.878-9.387-20.878-20.907v-81.18c0-11.548 9.358-20.907 20.878-20.907zM639.858 405.276v-80.725l-94.236-0.427-0.455 80.725 94.692 0.427zM524.288 153.742c0-11.52 9.387-20.907 20.878-20.907h95.090c11.548 0 20.935 9.387 20.935 20.907v81.152c0 11.548-9.387 20.907-20.935 20.907h-95.090c-11.52 0-20.878-9.387-20.878-20.907v-81.152zM639.858 234.894v-80.725l-94.236-0.427-0.455 80.725 94.692 0.427zM355.556 303.218h95.090c11.548 0 20.935 9.387 20.935 20.907v81.18c0 11.52-9.387 20.907-20.935 20.907h-95.090c-11.492 0-20.907-9.387-20.907-20.907v-81.18c0-11.548 9.415-20.907 20.907-20.907zM450.247 405.276v-80.725l-94.265-0.427-0.427 80.725 94.692 0.427zM334.649 153.742c0-11.52 9.415-20.907 20.907-20.907h95.090c11.548 0 20.935 9.387 20.935 20.907v81.152c0 11.548-9.387 20.907-20.935 20.907h-95.090c-11.492 0-20.907-9.387-20.907-20.907v-81.152zM450.247 234.894v-80.725l-94.265-0.427-0.427 80.754 94.692 0.398zM760.292 117.163l-4.636-0.057v332.914c0 35.726-29.042 64.768-64.768 64.768h-384.284c-35.726 0.028-64.825-29.042-64.825-64.768v-401.835c0-5.888 4.779-10.667 10.695-10.667 5.86 0 10.638 4.779 10.638 10.667v401.835c0 23.95 19.513 43.435 43.492 43.435h384.256c23.95 0 43.435-19.484 43.435-43.435v-334.763c-88.576-12.516-155.364-87.751-155.364-179.428 0-15.787 2.219-31.004 6.030-45.625h-113.408v174.336c0 11.52-9.387 20.907-20.935 20.907h-95.061c-11.492 0-20.907-9.387-20.907-20.907v-174.336h-40.903c-5.888 0-10.667-4.779-10.667-10.667s4.75-10.667 10.667-10.667h298.183c26.681-66.93 92.018-114.375 168.363-114.375 99.982 0 181.333 81.351 181.333 181.333s-81.38 181.333-181.333 181.333zM355.556 64.114l94.692 0.427v-174.336h-94.293l-0.398 173.909zM760.292-224.171c-88.263 0-160 71.765-160 160 0 86.926 67.982 157.156 154.823 159.915l5.177 0.085c88.235 0 160-71.765 160-160 0-88.206-71.794-160-160-160zM848.356-58.254c4.665-3.584 5.518-10.297 1.877-14.962-2.076-2.731-5.234-4.153-8.42-4.153-2.276 0-4.608 0.711-6.485 2.219-15.218 11.719-32.54 19.456-51.428 22.983-33.451 6.286-68.267-1.906-95.516-22.5-4.75-3.556-11.406-2.617-14.962 2.076-3.527 4.693-2.588 11.378 2.105 14.933 32.028 24.206 72.932 33.792 112.299 26.425 22.272-4.124 42.61-13.227 60.53-27.022zM817.323-103.623c4.665-3.584 5.575-10.268 1.991-14.933-2.105-2.759-5.262-4.181-8.476-4.181-2.276 0-4.523 0.711-6.457 2.19-8.789 6.684-18.916 11.179-30.094 13.284-19.712 3.669-40.164-1.138-56.149-13.284-4.665-3.556-11.378-2.645-14.933 2.048s-2.645 11.378 2.048 14.933c20.736 15.758 47.388 22.016 72.903 17.237 14.592-2.731 27.733-8.533 39.168-17.294zM880.384-32.996c-3.698-4.58-10.439-5.262-14.99-1.593-21.106 17.038-46.421 28.729-73.273 33.792-47.9 8.988-97.081-3.612-134.855-34.617-1.963-1.621-4.352-2.418-6.741-2.418-3.072 0-6.144 1.337-8.249 3.897-3.755 4.551-3.044 11.264 1.479 15.019 42.667 34.987 98.162 49.237 152.348 39.111 30.265-5.717 58.908-18.916 82.745-38.172 4.551-3.698 5.234-10.411 1.536-15.019zM778.894-156.644c0-9.7-7.908-17.607-17.579-17.607-9.756 0-17.607 7.879-17.607 17.607 0 9.7 7.851 17.607 17.607 17.607 9.643-0.028 17.579-7.908 17.579-17.607z" />
<glyph unicode="&#xe923;" glyph-name="shades" d="M814.393 542.009h-604.786c-11.52 0-20.907-9.387-20.907-20.907v-676.011c0-11.52 9.387-20.907 20.907-20.907h604.786c11.52 0 20.907 9.387 20.907 20.907v676.011c0 11.548-9.358 20.907-20.907 20.907zM245.589 395.861h84.821v-85.419c-26.965-12.288-41.614-47.047-19.712-80.185 2.020-3.044 4.75-5.774 7.794-7.794 52.366-34.674 108.914 21.902 74.268 74.268-2.020 3.044-4.75 5.774-7.794 7.794-3.954 2.617-7.936 4.551-11.89 6.172v85.191h117.589v-514.788h-245.077v514.759zM778.411-118.926h-245.077v514.788h245.077v-514.788z" />
<glyph unicode="&#xe924;" glyph-name="shadesclosed" d="M814.393 542.009h-604.786c-11.52 0-20.907-9.387-20.907-20.907v-676.011c0-11.52 9.387-20.907 20.907-20.907h604.786c11.52 0 20.907 9.387 20.907 20.907v676.011c0 11.548-9.358 20.907-20.907 20.907zM245.589 118.528h84.821v-85.419c-26.965-12.288-41.614-47.019-19.712-80.185 2.020-3.044 4.75-5.774 7.794-7.794 52.366-34.674 108.914 21.902 74.268 74.268-2.020 3.044-4.75 5.774-7.794 7.794-3.954 2.617-7.936 4.551-11.89 6.172v85.163h117.589v-237.454h-245.077v237.454zM778.411-118.926h-245.077v237.454h245.077v-237.454z" />
<glyph unicode="&#xe925;" glyph-name="shadesL" d="M789.902 542.037h-555.804c-17.18 0-31.147-13.966-31.147-31.147v-637.753c0-17.18 13.966-31.147 31.147-31.147h555.804c17.18 0 31.147 13.966 31.147 31.147v637.753c0 17.152-13.966 31.147-31.147 31.147zM224.284-126.891v517.006h92.103v-64.796c-23.381-4.949-40.988-25.714-40.988-50.546 0-28.501 23.182-51.684 51.684-51.684 28.473 0 51.655 23.182 51.655 51.684 0 24.832-17.607 45.625-40.988 50.546v64.796h163.641v-526.791h-267.292c-5.404-0.028-9.813 4.38-9.813 9.785zM327.054 305.095c16.725 0 30.322-13.596 30.322-30.35 0-16.725-13.596-30.35-30.322-30.35s-30.35 13.596-30.35 30.35c0.028 16.754 13.625 30.35 30.35 30.35zM799.716-126.891c0-5.404-4.409-9.813-9.813-9.813h-267.207v526.791h179.001c5.888 0 10.667 4.779 10.667 10.667s-4.779 10.667-10.667 10.667h-477.412v99.47c0 5.404 4.409 9.813 9.813 9.813h555.804c5.433 0 9.813-4.409 9.813-9.813v-637.781z" />
<glyph unicode="&#xe926;" glyph-name="smallbuilding" d="M717.284 504.292h-410.567c-22.528 0-40.96-18.432-40.96-40.96v-542.663c0-22.528 18.432-40.96 40.96-40.96h52.679v185.003c0 5.632 4.58 10.24 10.24 10.24h95.090c5.66 0 10.24-4.608 10.24-10.24v-185.003h242.29c22.528 0 40.96 18.432 40.96 40.96v542.692c0.028 22.528-18.404 40.932-40.932 40.932zM474.994 153.913c0-5.632-4.58-10.24-10.24-10.24h-95.090c-5.66 0-10.24 4.608-10.24 10.24v81.152c0 5.632 4.58 10.24 10.24 10.24h95.090c5.66 0 10.24-4.608 10.24-10.24v-81.152zM474.994 324.267c0-5.632-4.58-10.24-10.24-10.24h-95.090c-5.66 0-10.24 4.608-10.24 10.24v81.152c0 5.632 4.58 10.24 10.24 10.24h95.090c5.66 0 10.24-4.608 10.24-10.24v-81.152zM664.604-16.469c0-5.632-4.58-10.24-10.24-10.24h-95.090c-5.66 0-10.212 4.608-10.212 10.24v81.18c0 5.632 4.551 10.24 10.212 10.24h95.090c5.66 0 10.24-4.608 10.24-10.24v-81.18zM664.604 153.913c0-5.632-4.58-10.24-10.24-10.24h-95.090c-5.66 0-10.212 4.608-10.212 10.24v81.152c0 5.632 4.551 10.24 10.212 10.24h95.090c5.66 0 10.24-4.608 10.24-10.24v-81.152zM664.604 324.267c0-5.632-4.58-10.24-10.24-10.24h-95.090c-5.66 0-10.212 4.608-10.212 10.24v81.152c0 5.632 4.551 10.24 10.212 10.24h95.090c5.66 0 10.24-4.608 10.24-10.24v-81.152z" />
<glyph unicode="&#xe927;" glyph-name="smallbuildingL" d="M704.142 515.385h-384.256c-35.726 0-64.768-29.070-64.768-64.768v-401.835c0-5.888 4.779-10.667 10.667-10.667s10.667 4.779 10.667 10.667v401.835c0 23.95 19.484 43.435 43.435 43.435h384.256c23.922 0 43.435-19.484 43.435-43.435v-516.409c0-23.922-19.484-43.406-43.435-43.406h-219.278v174.336c0 11.52-9.387 20.907-20.907 20.907h-95.090c-11.52 0-20.907-9.387-20.907-20.907v-174.336h-40.903c-5.888 0-10.667-4.779-10.667-10.667s4.779-10.667 10.667-10.667h397.084c35.726 0 64.768 29.042 64.768 64.74v516.409c0 35.726-29.070 64.768-64.768 64.768zM368.839 64.711l94.663 0.427v-174.336h-94.265l-0.398 173.909zM558.45 303.787h95.090c11.52 0 20.907 9.387 20.907 20.907v81.152c0 11.52-9.387 20.907-20.907 20.907h-95.090c-11.52 0-20.878-9.387-20.878-20.907v-81.152c0-11.52 9.358-20.907 20.878-20.907zM653.113 405.874v-80.725l-94.236-0.427-0.455 80.725 94.692 0.427zM537.572 154.34c0-11.548 9.358-20.907 20.878-20.907h95.090c11.52 0 20.907 9.387 20.907 20.907v81.152c0 11.548-9.387 20.907-20.907 20.907h-95.090c-11.52 0-20.878-9.387-20.878-20.907v-81.152zM653.113 235.492v-80.725l-94.236-0.427-0.455 80.725 94.692 0.427zM537.572-16.043c0-11.52 9.358-20.907 20.878-20.907h95.090c11.52 0 20.907 9.387 20.907 20.907v81.18c0 11.52-9.387 20.907-20.907 20.907h-95.090c-11.52 0-20.878-9.387-20.878-20.907v-81.18zM653.113 65.138v-80.754l-94.236-0.427-0.455 80.725 94.692 0.455zM368.839 303.787h95.090c11.52 0 20.907 9.387 20.907 20.907v81.152c0 11.52-9.387 20.907-20.907 20.907h-95.090c-11.52 0-20.907-9.387-20.907-20.907v-81.152c0-11.52 9.387-20.907 20.907-20.907zM463.502 405.874v-80.725l-94.236-0.427-0.427 80.725 94.663 0.427zM347.932 154.34c0-11.548 9.387-20.907 20.907-20.907h95.090c11.52 0 20.907 9.387 20.907 20.907v81.152c0 11.548-9.387 20.907-20.907 20.907h-95.090c-11.52 0-20.907-9.387-20.907-20.907v-81.152zM463.502 235.492v-80.725l-94.236-0.427-0.427 80.725 94.663 0.427z" />
<glyph unicode="&#xe928;" glyph-name="smallbusiness" d="M925.099 289.166l-81.806 136.647c-2.901 4.836-9.87 8.789-15.502 8.789h-98.361v40.732c0 29.184-23.723 52.907-52.907 52.907h-329.045c-29.184 0-52.907-23.723-52.907-52.907v-40.761h-101.12c-5.632 0-12.544-3.982-15.388-8.846l-84.452-145.351c0-39.31 31.886-71.196 71.196-71.196 34.020 0 62.407 23.922 69.433 55.836 7.026-31.915 35.413-55.836 69.433-55.836 34.048 0 62.407 23.922 69.433 55.836 7.026-31.915 35.385-55.836 69.433-55.836s62.407 23.922 69.433 55.836c7.026-31.915 35.413-55.836 69.433-55.836s62.379 23.922 69.433 55.836c7.026-31.915 35.385-55.836 69.433-55.836 34.020 0 62.407 23.922 69.433 55.836 7.054-31.915 35.413-55.836 69.433-55.836 39.31 0 71.196 31.886 71.196 71.196l-5.234 8.789zM686.763 434.603v-40.761c0-5.632-4.608-10.24-10.24-10.24h-329.045c-5.632 0-10.24 4.608-10.24 10.24v81.493c0 5.632 4.608 10.24 10.24 10.24h329.074c5.632 0 10.24-4.608 10.24-10.24v-40.732zM870.485 181.447v-252.274c0-22.528-18.432-40.96-40.96-40.96h-635.051c-22.528 0-40.96 18.432-40.96 40.96v252.274l11.321-0.683c10.866 0 21.419 1.906 31.346 5.262v-255.118h106.524v191.147c0 7.452 6.087 13.568 13.596 13.568h126.18c7.509 0 13.596-6.116 13.596-13.568v-191.147h371.712v255.147c9.956-3.356 20.48-5.262 31.374-5.262l11.321 0.654zM567.95 122.027c0 7.452 6.059 13.568 13.568 13.568h126.18c7.509 0 13.596-6.116 13.596-13.568v-107.691c0-7.481-6.087-13.596-13.596-13.596h-126.18c-7.509 0-13.568 6.116-13.568 13.596v107.691z" />
<glyph unicode="&#xe929;" glyph-name="smallbusinessL" d="M709.689-21.618h-129.28c-11.861 0-21.532 9.643-21.532 21.532v100.295c0 11.89 9.643 21.532 21.532 21.532h129.28c11.861 0 21.532-9.643 21.532-21.532v-100.295c0-11.89-9.643-21.532-21.532-21.532zM580.409 100.38l-0.199-100.494 129.479-0.199 0.199 0.199v100.295l-129.479 0.199zM938.724 272.185c0.228 2.133 0 4.267-1.052 6.229l-89.685 164.011c-1.877 3.413-5.461 5.547-9.358 5.547h-131.271v49.38c0 5.888-4.779 10.667-10.667 10.667h-371.541c-5.888 0-10.667-4.779-10.667-10.667v-49.408h-129.109c-3.897 0-7.481-2.133-9.358-5.547l-89.685-164.011c-1.052-1.934-1.28-4.096-1.052-6.229l-0.256-1.28c0-37.888 26.539-69.604 61.98-77.739v-202.439c0-5.888 4.779-10.667 10.667-10.667s10.667 4.779 10.667 10.667v200.533c28.103 1.223 52.452 16.953 65.678 39.964 13.796-23.95 39.595-40.135 69.148-40.135 29.582 0 55.381 16.185 69.177 40.135 13.796-23.95 39.595-40.135 69.177-40.135 29.554 0 55.353 16.185 69.177 40.135 13.796-23.95 39.595-40.135 69.148-40.135s55.381 16.185 69.177 40.135c13.796-23.95 39.595-40.135 69.148-40.135 30.123 0 56.405 16.27 70.428 40.277 13.767-24.036 39.623-40.277 69.262-40.277l4.665 0.228v-244.139c0-25.742-20.935-46.677-46.677-46.677h-350.862v199.708c0 11.89-9.643 21.532-21.532 21.532h-115.058c-11.861 0-21.532-9.643-21.532-21.532v-199.708h-112.384c-5.888 0-10.667-4.779-10.667-10.667s4.779-10.667 10.667-10.667h621.312c37.49 0 68.011 30.521 68.011 68.011v248.178c32.028 10.695 55.182 40.476 55.182 75.548l-0.256 1.308zM443.648-99.527h-115.399l0.171 199.908 115.257-0.199v-199.708zM335.815 486.684h350.208v-98.133h-350.208v98.133zM164.836 212.395c-29.412 0-53.589 21.902-57.657 50.233h115.342c-4.068-28.331-28.245-50.233-57.685-50.233zM303.132 212.395c-29.412 0-53.561 21.902-57.628 50.233h115.314c-4.068-28.331-28.245-50.233-57.685-50.233zM441.486 212.395c-29.412 0-53.589 21.902-57.657 50.233h115.314c-4.068-28.331-28.217-50.233-57.657-50.233zM579.812 212.395c-29.412 0-53.589 21.902-57.657 50.233h115.314c-4.068-28.331-28.217-50.233-57.657-50.233zM718.137 212.395c-29.412 0-53.589 21.902-57.657 50.233h116.622c-4.295-27.932-29.412-50.233-58.965-50.233zM113.664 283.932l78.023 142.677h122.795v-48.725c0-5.888 4.779-10.667 10.667-10.667h371.541c5.888 0 10.667 4.779 10.667 10.667v48.725h124.956l78.023-142.677h-796.672zM857.799 212.395c-29.44 0-53.589 21.902-57.657 50.233h116.622c-4.267-27.932-29.412-50.233-58.965-50.233z" />
<glyph unicode="&#xe92a;" glyph-name="stadium" d="M277.476 98.901h-202.439v59.847h211.257c-3.385-19.257-6.372-39.253-8.818-59.847zM313.202-3.584h106.382v114.034c0 22.528 18.432 40.96 40.96 40.96h102.94c22.528 0 40.96-18.432 40.96-40.96v-114.034h106.382c-3.612 208.953-79.189 379.506-94.919 412.814-33.508 7.054-68.267 10.809-103.879 10.809s-70.372-3.755-103.879-10.809c-15.758-33.394-91.335-204.288-94.948-412.814zM948.964 98.731v60.217l-1.849-0.199h-209.408c3.385-19.257 6.372-39.253 8.818-59.847l202.439-0.171zM729.316 201.415l219.648-0.199v19.058c0 22.528-18.432 40.96-40.96 40.96h-29.525c-57.088 60.587-128.825 107.065-209.493 133.66 16.754-40.021 41.813-108.004 60.331-193.479zM294.684 201.415c18.517 85.476 43.548 153.458 60.331 193.508-80.668-26.596-152.405-73.045-209.493-133.66h-29.525c-22.528 0-40.96-18.432-40.96-40.96v-18.887h219.648zM947.115 56.235h-196.437c1.508-19.513 2.475-39.481 2.788-59.847h154.51c22.528 0 40.96 18.432 40.96 40.96v19.058l-1.82-0.171zM273.323 56.235h-198.258v-18.887c0-22.528 18.432-40.96 40.96-40.96h154.51c0.313 20.366 1.28 40.334 2.788 59.847z" />
<glyph unicode="&#xe92b;" glyph-name="stadiumL" d="M899.271 268.146h-12.288c-97.166 103.538-233.529 162.901-374.983 162.901s-277.817-59.364-374.983-162.901h-12.316c-28.473 0-51.627-23.154-51.627-51.627v-165.092c0-5.888 4.779-10.667 10.667-10.667s10.667 4.779 10.667 10.667v38.912h189.355c-1.394-18.148-2.304-36.921-2.503-56.491h-104.96c-5.888 0-10.667-4.779-10.667-10.667s4.779-10.667 10.667-10.667h723.001c28.444 0 51.627 23.154 51.627 51.598v152.405c0 28.444-23.182 51.627-51.655 51.627zM731.392 163.755h198.201v-52.082h-191.033c-1.849 18.233-4.352 35.413-7.168 52.082zM882.489 246.812h16.811c16.697 0 30.293-13.596 30.293-30.293v-31.431h-201.87c-4.352 22.187-9.444 42.667-14.876 61.724h169.643zM706.332 268.146c-18.375 57.458-39.282 98.105-52.565 120.519 75.918-22.983 146.062-64.171 203.52-120.519h-150.955zM623.388 396.686l0.028-0.085c0.569-0.768 32.711-45.938 60.103-128.484h-343.012c27.364 82.546 59.534 127.716 60.103 128.484l0.028 0.085c36.295 8.505 73.614 13.028 111.388 13.028 37.717 0 75.065-4.523 111.36-13.028zM370.233 388.665c-13.284-22.414-34.19-63.061-52.565-120.519h-150.955c57.458 56.348 127.602 97.536 203.52 120.519zM124.7 246.812h186.482c-5.433-19.029-10.553-39.538-14.876-61.724h-201.899v31.431c0 16.697 13.596 30.293 30.293 30.293zM94.407 111.673v52.082h198.201c-2.816-16.64-5.319-33.849-7.168-52.082h-191.033zM333.767 246.812h356.466c16.754-56.519 30.18-128.171 31.175-212.964h-107.008v109.881c0 28.473-23.182 51.627-51.627 51.627h-102.94c-28.473 0-51.627-23.154-51.627-51.627v-109.881h-105.614c0.996 84.793 14.393 156.444 31.175 212.964zM593.067 33.849h-163.527v109.881c0 16.697 13.596 30.293 30.293 30.293h102.94c16.697 0 30.293-13.596 30.293-30.293v-109.881zM899.271 33.849h-156.53c-0.228 19.57-1.109 38.343-2.503 56.491h189.355v-26.226c0-16.697-13.596-30.265-30.322-30.265z" />
<glyph unicode="&#xe92c;" glyph-name="takeoverrange" d="M512-220.444c-227.413 0-412.444 185.031-412.444 412.444 0 15.701 12.743 28.444 28.444 28.444s28.444-12.743 28.444-28.444c0-196.068 159.488-355.556 355.556-355.556s355.556 159.488 355.556 355.556c0 15.701 12.743 28.444 28.444 28.444s28.444-12.743 28.444-28.444c0-227.413-185.031-412.444-412.444-412.444zM374.699 389.348c40.704 27.221 88.149 41.586 137.301 41.586s96.597-14.364 137.244-41.586c13.056-8.732 30.72-5.234 39.452 7.822s5.234 30.72-7.822 39.452c-50.034 33.508-108.43 51.2-168.875 51.2s-118.841-17.721-168.932-51.2c-13.056-8.732-16.555-26.396-7.822-39.452 5.49-8.192 14.478-12.629 23.666-12.629 5.433 0 10.923 1.536 15.787 4.807zM894.663 449.223l-43.492-22.955c-76.26 109.881-203.093 178.176-339.172 178.176-135.822 0-262.827-68.267-339.115-178.062l-43.264 22.841c-7.225 3.812-12.203 0.313-11.065-7.765l3.47-24.69 14.080-100.238c0.853-6.059 6.030-8.789 11.52-6.087l113.067 55.95c7.31 3.612 7.396 9.7 0.171 13.511l-37.262 19.684c66.219 91.364 173.625 147.968 288.398 147.968 115.001 0 222.322-56.604 288.427-148.082l-37.063-19.57c-7.225-3.812-7.14-9.899 0.171-13.511l113.067-55.95c5.49-2.702 10.667 0.028 11.548 6.087l17.55 124.928c1.166 8.078-3.812 11.577-11.036 7.765zM690.005 204.373l-161.764 162.389c-4.38 4.295-10.126 6.656-16.27 6.656-6.087 0-11.861-2.361-16.242-6.656l-161.764-162.389c-9.586-9.643-6.315-17.522 7.282-17.522h37.461v-156.729c0-9.643 7.908-17.579 17.493-17.579h66.588v115.342c0 5.831 4.58 10.496 10.098 10.496h78.763c5.547 0 10.126-4.693 10.126-10.496v-115.342h66.020c9.529 0 17.408 7.908 17.408 17.579h0.028v156.729h37.49c13.596 0 16.868 7.879 7.282 17.522z" />
<glyph unicode="&#xe92d;" glyph-name="takeoverrangeL" d="M720.356 199.481l-184.405 174.649c-12.658 12.772-35.186 12.686-47.531 0.313l-184.775-174.962c-4.267-4.039-4.466-10.809-0.398-15.076 2.105-2.219 4.921-3.328 7.737-3.328 2.645 0 5.262 0.967 7.339 2.93l40.306 38.144-0.114-193.564c0-15.815 12.857-28.672 28.644-28.672h249.714c15.787 0 28.644 12.857 28.644 28.672l0.057 193.422 40.135-38.030c4.238-4.039 11.008-3.868 15.076 0.398 4.039 4.295 3.868 11.036-0.427 15.104zM644.153 28.587c0-3.982-3.356-7.339-7.31-7.339h-61.326v89.088c0 11.833-9.643 21.447-21.476 21.447h-84.139c-11.833 0-21.476-9.614-21.476-21.447v-37.888c0-5.888 4.779-10.667 10.667-10.667s10.667 4.779 10.667 10.667l0.142 38.002 84.281-0.114v-89.088h-167.054c-3.954 0-7.31 3.356-7.31 7.339l0.114 213.76 123.335 116.793c4.693 4.693 12.686 4.836 17.778-0.284l123.164-116.651-0.057-213.618zM512-202.667c-217.628 0-394.667 177.038-394.667 394.667 0 5.888 4.779 10.667 10.667 10.667s10.667-4.779 10.667-10.667c0-205.852 167.481-373.333 373.333-373.333s373.333 167.481 373.333 373.333c0 5.888 4.779 10.667 10.667 10.667s10.667-4.779 10.667-10.667c0-217.628-177.038-394.667-394.667-394.667zM892.786 489.899l-7.908-114.034c-0.882-12.743-6.884-23.694-16.498-30.009-5.831-3.84-12.686-5.803-19.883-5.803-4.636 0-9.472 0.825-14.194 2.475l-107.947 37.604c-5.547 1.934-8.505 8.021-6.571 13.568 1.934 5.575 7.993 8.533 13.596 6.571l107.947-37.604 2.873-0.74c-63.516 123.876-192.484 203.406-332.203 203.406-139.662 0-268.999-79.73-332.43-203.748l4.779 1.081 107.975 37.632c5.547 1.963 11.662-0.996 13.568-6.571 1.934-5.575-0.996-11.634-6.571-13.568l-107.947-37.632c-4.722-1.65-9.529-2.475-14.165-2.475-7.196 0-14.052 1.963-19.883 5.803-9.614 6.315-15.644 17.266-16.526 30.009l-7.936 114.034c-0.398 5.888 4.039 10.98 9.927 11.378 5.803 0.455 10.951-4.039 11.378-9.899l7.908-114.034 0.398-2.503c67.698 129.052 203.236 211.826 349.525 211.826 147.371 0 283.392-83.684 350.72-214.101l0.853 4.779 7.908 114.034c0.398 5.888 5.66 10.382 11.378 9.899 5.888-0.398 10.325-5.49 9.927-11.378zM358.912 425.529c-3.442 0-6.827 1.65-8.875 4.75-3.271 4.892-1.963 11.52 2.93 14.791 47.132 31.516 102.116 48.185 159.033 48.185s111.9-16.668 158.976-48.185c4.892-3.271 6.201-9.899 2.93-14.791s-9.899-6.229-14.791-2.93c-43.577 29.156-94.436 44.572-147.115 44.572-52.651 0-103.566-15.417-147.172-44.601-1.82-1.223-3.897-1.792-5.916-1.792z" />
<glyph unicode="&#xe92e;" glyph-name="totalhomedvr" d="M887.922 229.006l-341.589 342.926c-9.216 9.045-21.419 14.023-34.361 14.023-12.857 0-25.060-4.978-34.276-14.023l-341.618-342.926c-20.252-20.366-13.34-37.006 15.388-37.006h79.104v-330.951c0-20.395 16.668-37.12 36.921-37.12h140.601v204.516c0 12.288 9.671 22.187 21.333 22.187h166.315c11.748 0 21.419-9.899 21.419-22.187v-204.516h139.406c20.11 0 36.779 16.725 36.779 37.12l-0.228 0.711 0.284-0.711v330.951h79.189c28.672 0 35.584 16.64 15.332 37.006zM355.925 134.201h-47.36v134.087c0 7.964 5.461 13.198 12.516 13.198h35.982c50.091 0 79.9-27.307 79.9-73.301s-30.492-73.984-81.038-73.984zM531.371 134.201h-22.983l-55.78 140.686c-0.91 2.048 6.372 7.509 13.881 7.509 5.916 0 11.15-3.186 13.653-10.695l40.078-112.242 40.078 112.242c2.731 7.964 7.964 10.695 12.971 10.695 7.282 0 14.336-5.461 13.653-7.509l-55.552-140.686zM721.408 142.848c1.138-1.365-3.868-9.557-13.653-9.557-6.144 0-10.24 2.503-15.246 9.102l-40.306 49.408h-16.156v-57.6h-23.211v134.087c0 7.964 5.006 13.198 12.516 13.198h41.87c35.982 0 55.097-15.019 55.097-44.146 0-25.031-15.474-40.988-43.918-43.264l43.008-51.228zM698.652 236.174c0-15.929-10.24-25.97-31.858-25.97h-30.948v51.911h30.265c21.618 0 32.54-8.875 32.54-25.941zM413.298 207.929c0-33.906-20.935-53.476-56.917-53.476h-24.604v106.752h24.832c35.527 0 56.69-19.797 56.69-53.276z" />
<glyph unicode="&#xe92f;" glyph-name="totalhomedvrL" d="M937.387 209.351l-383.716 363.492c-11.093 11.15-25.884 17.294-41.671 17.294-15.616 0-30.293-6.059-41.102-16.896l-384.284-363.89c-4.267-4.039-4.466-10.809-0.398-15.076 4.039-4.267 10.809-4.466 15.076-0.398l103.253 97.764-0.256-429.312c0-26.51 21.561-48.071 48.043-48.071h519.31c26.482 0 48.014 21.561 48.014 48.071l0.085 429.084 102.969-97.536c2.048-1.963 4.693-2.93 7.339-2.93 2.816 0 5.66 1.109 7.737 3.328 4.068 4.295 3.897 11.036-0.398 15.076zM798.436 309.476l-0.085-447.147c0-14.734-11.975-26.738-26.681-26.738h-139.065v196.75c0 18.261-14.848 33.109-33.138 33.109h-174.962c-18.261 0-33.138-14.848-33.138-33.109v-103.708c0-5.888 4.779-10.667 10.667-10.667s10.667 4.779 10.667 10.667v103.708c0 6.514 5.291 11.776 11.804 11.776h174.962c6.514 0 11.804-5.262 11.804-11.776v-196.75h-358.94c-14.734 0-26.709 12.004-26.709 26.738l0.256 447.972-0.256 1.337 260.153 246.329c14.108 14.108 38.571 14.137 53.020-0.37l260.039-246.3-0.398-1.82zM355.385 291.641h-34.844c-5.746 0-10.439-4.665-10.439-10.411v-140.43h44.117c52.281 0 83.484 28.331 83.484 75.776 0.028 46.99-30.748 75.065-82.318 75.065zM355.157 158.009h-25.998v116.423h26.226c39.367 0 62.862-21.817 62.862-58.311 0-36.921-23.012-58.112-63.090-58.112zM583.339 288.057l0.313-2.56-55.922-144.697h-19.74l-55.979 144.782 0.341 2.418c1.422 2.162 6.030 4.58 10.411 4.58 2.901 0 8.135-1.081 10.78-8.249l44.544-120.263 44.772 120.263c2.645 7.168 7.737 8.249 10.524 8.249 4.21 0 8.533-2.332 9.956-4.523zM665.401 202.837c29.355 1.479 46.763 17.892 46.763 44.459 0 29.013-18.972 44.345-54.812 44.345h-40.505c-5.746 0-10.439-4.665-10.439-10.411v-140.43h18.802v61.924h15.844l47.275-56.718c3.413-4.096 6.997-6.116 10.923-6.116 5.547 0 9.444 3.925 10.695 6.571v3.641l-44.544 52.736zM658.716 219.477h-33.508v54.727h32.597c23.125 0 34.873-9.216 34.873-27.364 0-17.636-12.060-27.364-33.963-27.364z" />
<glyph unicode="&#xe930;" glyph-name="warehouse" d="M761.913 106.667c-94.236 0-170.667-76.402-170.667-170.667 0-94.236 76.43-170.667 170.667-170.667 94.265 0 170.667 76.43 170.667 170.667 0 94.265-76.402 170.667-170.667 170.667zM662.3-68.58l15.673 67.442c0.569 2.503 3.072 4.068 5.575 3.499l67.413-15.701c2.503-0.569 4.068-3.072 3.499-5.575l-14.478-65.849c-0.711-2.133-3.1-5.973-6.428-5.006l-67.783 15.616c-2.475 0.569-4.096 3.1-3.47 5.575zM866.617 14.763c-3.271-7.168-11.719-10.297-18.83-7.026 0 0-4.011 1.678-12.999 3.755-2.446 0.569-4.523 0.341-6.201-0.711-2.987-1.849-5.49-6.571-7.026-13.227l-25.259-104.334-0.54-1.621c12.629-7.282 21.248-20.764 21.248-36.38 0-23.239-18.916-42.155-42.155-42.155-21.476 0-39.054 16.185-41.643 36.978l-5.433 0.626-73.5 17.067c-7.652 1.792-12.402 9.415-10.638 17.067 1.792 7.652 9.444 12.402 17.067 10.638l73.472-17.095 5.092-0.654c6.229 9.785 16.356 16.811 28.217 18.916l1.081 3.186 25.259 104.306c3.328 14.364 9.984 24.804 19.684 30.834 8.078 5.035 17.892 6.542 27.648 4.238 11.833-2.731 17.38-5.12 18.347-5.575 7.225-3.243 10.354-11.691 7.111-18.83zM460.516 238.364c11.264 0 20.48-9.216 20.48-20.48v-66.332h-210.375v66.332c0 11.264 9.216 20.48 20.48 20.48h169.415zM632.434 305.522h-394.923c-22.528 0-40.932-18.432-40.932-40.96v-343.58h-57.116c-27.364 0-48.043 25.998-48.043 54.073v388.722c0 22.528 16.043 50.034 35.641 61.127l277.874 157.212c14.706 8.306 38.827 8.391 53.589 0.171l283.876-157.98c19.655-10.951 35.755-38.343 35.755-60.871v-214.926c-5.376 0.398-10.752 0.825-16.242 0.825-31.602 0-61.497-7.083-88.491-19.456v134.713c-0.028 22.528-18.46 40.932-40.988 40.932zM549.319-78.99h-258.219c-11.264 0-20.48 9.216-20.48 20.48v181.589h309.22c11.264 0 20.48-9.216 20.48-20.48v-27.762c-32.142-37.348-51.712-85.817-51.712-138.866l0.711-14.962z" />
<glyph unicode="&#xe931;" glyph-name="warehouseL" d="M864.853 88.491v275.115c0 26.482-18.119 57.316-41.244 70.201l-283.847 157.952c-18.005 10.012-46.108 9.927-64.057-0.199l-277.845-157.184c-23.012-13.028-41.045-43.975-41.045-70.4v-388.722c0-35.072 26.852-64.711 58.681-64.711h372.025c12.516-87.865 88.064-155.705 179.314-155.705 99.982 0 181.333 81.351 181.333 181.333 0 63.858-33.28 120.007-83.314 152.32zM215.495-68.124c-20.252 0-37.348 19.854-37.348 43.378v388.722c0 18.83 13.824 42.553 30.236 51.854l277.845 157.212c11.463 6.457 31.602 6.542 43.15 0.142h0.028l283.819-157.98c16.441-9.131 30.293-32.768 30.293-51.57v-263.367c-23.324 10.951-49.266 17.237-76.686 17.237l-6.713-0.341v147.598c0 28.473-23.182 51.627-51.627 51.627h-394.951c-28.444 0-51.598-23.154-51.598-51.627v-142.108c0-5.888 4.779-10.667 10.667-10.667s10.667 4.779 10.667 10.667v142.108c0 16.697 13.568 30.293 30.265 30.293h394.923c16.697 0 30.293-13.596 30.293-30.293v-149.646c-22.329-3.499-43.292-11.008-62.18-21.874l-0.085 39.538c0 15.872-12.885 28.786-28.757 28.786h-74.012l-0.028 48.014c-0.028 15.872-12.942 28.757-28.814 28.757h-169.301c-15.872 0-28.786-12.914-28.786-28.786l0.057-58.396-0.057-0.256 0.057-0.256 0.057-75.975-0.114-0.597 0.114-0.569 0.057-58.084c0-15.872 12.885-28.786 28.786-28.786h217.003c-4.636-16.043-7.282-32.939-7.282-50.46l0.228-4.295h-370.204zM600.377 7.993h-26.567l-0.028 55.438h64.028c-15.644-15.9-28.444-34.674-37.433-55.438zM368.156 209.55c0 4.039 3.413 7.452 7.452 7.452h73.984l0.057-55.438h-81.465l-0.028 47.986zM573.753 84.764l-0.057 55.467h74.041c4.124 0 7.424-3.356 7.424-7.481l0.114-48.014h-81.522zM368.213 140.231h81.436l0.057-55.467h-81.436l-0.057 55.467zM470.983 140.231h81.38l0.057-55.467h-81.38l-0.057 55.467zM470.983 161.564l-0.057 55.438h73.984c4.124 0 7.481-3.356 7.481-7.452l0.028-47.986h-81.436zM449.707 63.431l0.057-55.438h-74.012c-4.039 0-7.452 3.413-7.452 7.481l-0.057 47.986h81.465zM471.097 7.993l-0.057 55.438h81.38l0.057-55.438h-81.38zM766.834-223.829c-88.235 0-160 71.794-160 160 0 88.235 71.765 160 160 160s160-71.765 160-160c0-88.206-71.794-160-160-160zM869.433 18.432c-1.337-5.746-7.168-9.273-12.828-7.964l-20.11 4.665c-3.015-0.142-12.601-10.212-16.953-29.099l-21.333-91.705-2.503-7.68c11.52-5.746 19.513-17.522 19.513-31.26 0-19.314-15.73-35.044-35.072-35.044-18.517 0-33.564 14.478-34.816 32.626-3.783 0.057-7.623 0.455-11.435 1.337l-73.5 17.095c-5.717 1.337-9.301 7.083-7.964 12.8 1.337 5.746 7.054 9.301 12.828 7.964l73.472-17.095c4.124-0.967 8.22-1.024 12.203-0.427 5.092 7.68 13.084 13.227 22.443 15.076 1.764 2.873 3.214 5.945 4.039 9.415l21.333 91.676c4.352 18.83 13.909 34.788 24.974 41.643 5.746 3.584 11.861 4.75 17.636 3.413l20.082-4.665c5.774-1.308 9.33-7.026 7.993-12.772zM678.628-93.44l62.578-14.421 3.925-0.569c7.68 0 13.141 6.087 15.445 13.17l13.511 61.326c1.792 8.021-3.271 16.043-11.236 17.892l-62.891 14.649-3.3 0.37c-7.054 0-13.084-4.807-14.62-11.605l-14.564-62.635c-0.996-3.897-0.37-7.936 1.735-11.349 2.048-3.413 5.461-5.916 9.415-6.827zM701.355-23.609l50.546-11.776-11.093-50.517-51.2 11.833 11.748 50.46z" />
</font>
</defs>
</svg>
