<?xml version="1.0" standalone="no"?>
<!DOCTYPE svg PUBLIC "-//W3C//DTD SVG 1.1//EN" "http://www.w3.org/Graphics/SVG/1.1/DTD/svg11.dtd" >
<svg xmlns="http://www.w3.org/2000/svg">
<metadata>Generated by IcoMoon</metadata>
<defs>
<font id="icomoon" horiz-adv-x="1024">
<font-face units-per-em="1024" ascent="716.6999022482894" descent="-307.30009775171067" />
<missing-glyph horiz-adv-x="1024" />
<glyph unicode="&#x20;" horiz-adv-x="174.17008797653958" d="" />
<glyph unicode="&#xe900;" glyph-name="left-arrow" d="M142.222 209.067l8.533 5.689 76.8 68.267 128 110.933c17.067 14.222 28.444 8.533 28.444-14.222v-102.4h486.4c11.378 0 19.911-8.533 19.911-19.911v-130.844c0-11.378-8.533-19.911-19.911-19.911h-486.4v-102.4c0-19.911-14.222-25.6-28.444-14.222l-213.333 184.889c-11.378 8.533-11.378 25.6 0 34.133z" />
<glyph unicode="&#xe901;" glyph-name="curved-arrow" d="M933.89 193.724l-150.903 108.195-37.014 25.625c-11.389 8.541-22.778 2.847-22.778-11.389v-79.722h-39.861c-301.806 0-438.472-130.972-526.736-267.639-8.541-8.541-14.236-19.93-14.236-19.93-2.847-5.695 0-11.389 2.847-14.236l79.722-48.403c5.695-2.847 11.389 0 14.236 2.847 0 0 8.541 14.236 17.084 25.625 68.334 108.195 173.681 210.695 427.084 210.695h39.861v-79.722c0-14.236 8.541-19.93 22.778-11.389l37.014 25.625 108.195 76.875 37.014 25.625 5.695 2.847c8.541 11.389 8.541 22.778 0 28.472z" />
<glyph unicode="&#xe902;" glyph-name="curved-arrowL" d="M913.96 227.891l-165.139 125.278c-5.695 2.847-11.389 2.847-14.236-2.847s-2.847-11.389 2.847-14.236l165.139-125.278c8.541-5.695 11.389-11.389 14.236-19.93h-185.070c-392.917 0-569.445-173.681-637.779-276.181-2.847-5.695-2.847-11.389 2.847-14.236s11.389 0 14.236 2.847c68.334 99.653 239.167 267.639 620.695 267.639h187.917c-2.847-8.541-8.541-14.236-14.236-19.93l-162.291-125.278c-5.695-2.847-5.695-11.389-2.847-14.236s8.541-5.695 14.236-2.847l162.291 125.278c17.084 11.389 25.625 28.472 25.625 48.403-2.847 17.084-11.389 34.166-28.472 45.555z" />
<glyph unicode="&#xe903;" glyph-name="decrease" d="M512.5-241.902c-227.778 0-412.847 185.070-412.847 412.847 0 17.084 11.389 28.472 28.472 28.472s28.472-11.389 28.472-28.472c0-196.459 159.445-355.904 355.904-355.904 165.139 0 307.5 111.041 344.514 270.486 5.695 28.472 11.389 56.945 11.389 85.416 0 17.084 11.389 28.472 28.472 28.472s28.472-11.389 28.472-28.472c0-34.166-2.847-68.334-11.389-99.653-45.555-182.222-210.695-313.195-401.459-313.195zM717.501 279.141h-93.959v224.931c0 11.389-8.541 17.084-17.084 17.084h-179.375c-11.389 0-17.084-8.541-17.084-17.084v-224.931h-93.959c-22.778 0-28.472-14.236-14.236-31.32l190.764-222.084 5.695-8.541c11.389-11.389 28.472-11.389 39.861 0l5.695 8.541 190.764 222.084c11.389 17.084 5.695 31.32-17.084 31.32z" />
<glyph unicode="&#xe904;" glyph-name="decreaseL" d="M948.126 176.641c0-37.014-5.695-71.181-14.236-105.347-48.403-196.459-222.084-333.125-424.236-333.125-242.014 0-438.472 196.459-438.472 438.472 0 5.695 5.695 11.389 11.389 11.389s11.389-5.695 11.389-11.389c0-230.625 187.917-415.695 415.695-415.695 190.764 0 358.75 130.972 404.306 316.042 8.541 31.32 11.389 65.486 11.389 99.653 0 5.695 5.695 11.389 11.389 11.389s11.389-5.695 11.389-11.389zM703.265 173.793c-2.847 2.847-11.389 2.847-14.236 0l-142.361-145.209c-5.695-8.541-14.236-11.389-25.625-14.236v589.376c0 5.695-5.695 11.389-11.389 11.389s-11.389-5.695-11.389-11.389v-589.376c-11.389 2.847-19.93 5.695-28.472 14.236l-142.361 145.209c-2.847 2.847-11.389 5.695-14.236 0-2.847-2.847-5.695-11.389 0-14.236l142.361-145.209c14.236-14.236 31.32-22.778 51.25-22.778s37.014 8.541 51.25 22.778l142.361 145.209c5.695 2.847 5.695 11.389 2.847 14.236z" />
<glyph unicode="&#xe905;" glyph-name="download" d="M85.416 179.488c0 236.32 190.764 427.084 427.084 427.084s427.084-190.764 427.084-427.084-190.764-427.084-427.084-427.084-427.084 190.764-427.084 427.084zM714.654 179.488h-93.959v224.931c0 11.389-8.541 17.084-17.084 17.084h-179.375c-11.389 0-17.084-8.541-17.084-17.084v-224.931h-93.959c-22.778 0-28.472-14.236-14.236-31.32l190.764-222.084 5.695-8.541c11.389-11.389 28.472-11.389 39.861 0l5.695 8.541 190.764 222.084c11.389 17.084 5.695 31.32-17.084 31.32z" />
<glyph unicode="&#xe906;" glyph-name="downloadL" d="M572.292-68.221c-14.236-14.236-31.32-22.778-51.25-22.778s-37.014 8.541-51.25 22.778l-142.361 145.209c-2.847 2.847-2.847 11.389 0 14.236s11.389 2.847 14.236 0l142.361-145.209c8.541-8.541 17.084-11.389 28.472-14.236v501.111c0 5.695 5.695 11.389 11.389 11.389s11.389-5.695 11.389-11.389v-501.111c8.541 2.847 17.084 5.695 25.625 14.236l142.361 145.209c2.847 2.847 11.389 5.695 14.236 0 2.847-2.847 5.695-11.389 0-14.236l-145.209-145.209zM512.5 617.96c-202.153 0-375.834-136.666-424.236-333.125-8.541-34.166-14.236-71.181-14.236-105.347 0-54.097 8.541-105.347 28.472-153.75 31.32-79.722 85.416-150.903 153.75-202.153 5.695-2.847 11.389-2.847 14.236 2.847s2.847 11.389-2.847 14.236c-68.334 48.403-119.584 113.889-148.056 190.764-17.084 45.555-25.625 96.806-25.625 148.056 0 34.166 2.847 68.334 11.389 99.653 48.403 187.917 216.389 316.042 407.154 316.042 230.625 0 415.695-187.917 415.695-415.695 0-219.236-170.834-401.459-387.222-415.695-5.695 0-11.389-5.695-8.541-11.389 0-5.695 5.695-11.389 11.389-11.389 227.778 14.236 407.154 207.847 407.154 435.625 0 244.861-196.459 441.32-438.472 441.32z" />
<glyph unicode="&#xe907;" glyph-name="export" d="M817.154-187.804h-609.306c-37.014 0-65.486 28.472-65.486 65.486v301.806c0 17.084 11.389 28.472 28.472 28.472s28.472-11.389 28.472-28.472v-304.654c0-2.847 2.847-8.541 8.541-8.541h606.459c2.847 0 8.541 2.847 8.541 8.541v304.654c0 17.084 11.389 28.472 28.472 28.472s28.472-11.389 28.472-28.472v-304.654c0-34.166-28.472-62.639-62.639-62.639zM307.5 276.293h93.959v-224.931c0-11.389 8.541-17.084 17.084-17.084h179.375c11.389 0 17.084 8.541 17.084 17.084v224.931h93.959c22.778 0 28.472 14.236 14.236 31.32l-190.764 222.084-5.695 8.541c-11.389 11.389-28.472 11.389-39.861 0l-2.847-8.541-190.764-222.084c-14.236-19.93-8.541-31.32 14.236-31.32z" />
<glyph unicode="&#xe908;" glyph-name="exportL" d="M318.889 350.322c-2.847 2.847-5.695 11.389 0 14.236l142.361 145.209c14.236 14.236 31.32 22.778 51.25 22.778s37.014-8.541 51.25-22.778l142.361-145.209c2.847-2.847 2.847-11.389 0-14.236s-11.389-2.847-14.236 0l-142.361 145.209c-8.541 8.541-17.084 11.389-28.472 14.236v-501.111c0-5.695-5.695-11.389-11.389-11.389s-11.389 5.695-11.389 11.389v501.111c-8.541-2.847-17.084-5.695-25.625-14.236l-142.361-145.209c2.847-2.847-5.695-8.541-11.389 0zM896.876 190.877c-5.695 0-11.389-5.695-11.389-11.389v-344.514c0-17.084-14.236-31.32-31.32-31.32h-686.181c-17.084 0-31.32 14.236-31.32 31.32v344.514c0 5.695-5.695 11.389-11.389 11.389s-11.389-5.695-11.389-11.389v-344.514c0-28.472 22.778-51.25 51.25-51.25h686.181c28.472 0 51.25 22.778 51.25 51.25v344.514c5.695 5.695 0 11.389-5.695 11.389z" />
<glyph unicode="&#xe909;" glyph-name="incoming-call" d="M512.5 606.572c-236.32 0-427.084-190.764-427.084-427.084s190.764-427.084 427.084-427.084 427.084 190.764 427.084 427.084-190.764 427.084-427.084 427.084zM754.515 88.377c0-11.389-8.541-17.084-17.084-17.084h-224.931v-93.959c0-22.778-14.236-28.472-31.32-14.236l-222.084 190.764-8.541 5.695c-11.389 11.389-11.389 28.472 0 39.861l8.541 5.695 222.084 190.764c17.084 14.236 31.32 8.541 31.32-14.236v-93.959h224.931c11.389 0 17.084-8.541 17.084-17.084v-182.222z" />
<glyph unicode="&#xe90a;" glyph-name="incoming-callL" d="M429.931 8.654c2.847-2.847 5.695-11.389 0-14.236-2.847-2.847-5.695-2.847-8.541-2.847s-5.695 0-8.541 2.847l-145.209 142.361c-14.236 14.236-22.778 31.32-22.778 51.25s8.541 37.014 22.778 51.25l145.209 142.361c2.847 2.847 11.389 2.847 14.236 0s2.847-11.389 0-14.236l-145.209-142.361c-8.541-8.541-11.389-17.084-14.236-28.472h501.111c5.695 0 11.389-5.695 11.389-11.389s-5.695-11.389-11.389-11.389h-498.265c2.847-8.541 5.695-17.084 14.236-25.625l145.209-139.514zM512.5 617.96c-202.153 0-375.834-136.666-424.236-333.125-8.541-34.166-14.236-71.181-14.236-105.347 0-54.097 8.541-105.347 28.472-153.75 31.32-79.722 85.416-150.903 153.75-202.153 5.695-2.847 11.389-2.847 14.236 2.847s2.847 11.389-2.847 14.236c-68.334 48.403-119.584 113.889-148.056 190.764-17.084 45.555-25.625 96.806-25.625 148.056 0 34.166 2.847 68.334 11.389 99.653 48.403 187.917 216.389 316.042 407.154 316.042 230.625 0 415.695-187.917 415.695-415.695 0-219.236-170.834-401.459-387.222-415.695-5.695 0-11.389-5.695-8.541-11.389 0-5.695 5.695-11.389 11.389-11.389 227.778 14.236 407.154 207.847 407.154 435.625 0 244.861-196.459 441.32-438.472 441.32z" />
<glyph unicode="&#xe90b;" glyph-name="increase" d="M896.876 159.557c-17.084 0-28.472 11.389-28.472 28.472 0 196.459-159.445 355.904-355.904 355.904-165.139 0-307.5-111.041-344.514-270.486-5.695-28.472-11.389-56.945-11.389-85.416 0-17.084-11.389-28.472-28.472-28.472s-28.472 11.389-28.472 28.472c0 34.166 2.847 68.334 11.389 99.653 45.555 185.070 210.695 313.195 401.459 313.195 227.778 0 412.847-185.070 412.847-412.847 0-17.084-11.389-28.472-28.472-28.472zM307.5 79.834h93.959v-224.931c0-11.389 8.541-17.084 17.084-17.084h179.375c11.389 0 17.084 8.541 17.084 17.084v224.931h93.959c22.778 0 28.472 14.236 14.236 31.32l-190.764 222.084-5.695 8.541c-11.389 11.389-28.472 11.389-39.861 0l-2.847-8.541-190.764-222.084c-14.236-17.084-8.541-31.32 14.236-31.32z" />
<glyph unicode="&#xe90c;" glyph-name="increaseL" d="M518.195 617.96c-202.153 0-375.834-136.666-424.236-333.125-8.541-34.166-14.236-68.334-14.236-105.347 0-5.695 5.695-11.389 11.389-11.389s11.389 5.695 11.389 11.389c0 34.166 2.847 68.334 11.389 99.653 45.555 187.917 210.695 316.042 404.306 316.042 230.625 0 415.695-187.917 415.695-415.695 0-5.695 5.695-11.389 11.389-11.389s11.389 5.695 11.389 11.389c0 242.014-196.459 438.472-438.472 438.472zM711.806 196.571c2.847-2.847 2.847-11.389 0-14.236s-11.389-2.847-14.236 0l-142.361 145.209c-8.541 8.541-17.084 11.389-28.472 14.236v-503.959c0-5.695-5.695-11.389-11.389-11.389s-11.389 5.695-11.389 11.389v501.111c-8.541-2.847-17.084-5.695-25.625-14.236l-136.666-145.209c-2.847-2.847-5.695-2.847-8.541-2.847s-5.695 0-8.541 2.847c-2.847 2.847-5.695 11.389 0 14.236l142.361 145.209c14.236 14.236 31.32 22.778 51.25 22.778s37.014-8.541 51.25-22.778l142.361-142.361z" />
<glyph unicode="&#xe90d;" glyph-name="interaction" d="M822.848 267.752l-210.695-17.084h-8.541c-11.389 0-19.93 8.541-19.93 19.93v8.541l17.084 210.695c0 17.084 11.389 19.93 22.778 8.541l48.403-48.403 113.889 113.889c5.695 5.695 14.236 5.695 19.93 0l91.111-91.111c5.695-5.695 5.695-14.236 0-19.93l-113.889-113.889 48.403-48.403c11.389-11.389 5.695-22.778-8.541-22.778zM193.611 68.446l48.403-48.403-113.889-113.889c-5.695-5.695-5.695-14.236 0-19.93l91.111-91.111c5.695-5.695 14.236-5.695 19.93 0l113.889 113.889 48.403-48.403c11.389-11.389 22.778-8.541 22.778 8.541l17.084 210.695v8.541c0 11.389-8.541 19.93-19.93 19.93h-8.541l-210.695-17.084c-14.236 0-19.93-11.389-8.541-22.778zM623.542-139.402l48.403 48.403 113.889-113.889c5.695-5.695 14.236-5.695 19.93 0l91.111 91.111c5.695 5.695 5.695 14.236 0 19.93l-113.889 113.889 48.403 48.403c11.389 11.389 8.541 22.778-8.541 22.778l-210.695 17.084h-8.541c-11.389 0-19.93-8.541-19.93-19.93v-8.541l17.084-210.695c0-14.236 11.389-19.93 22.778-8.541zM401.459 498.377l-48.403-48.403-113.889 113.889c-5.695 5.695-14.236 5.695-19.93 0l-91.111-91.111c-5.695-5.695-5.695-14.236 0-19.93l113.889-113.889-48.403-48.403c-11.389-11.389-8.541-22.778 8.541-22.778l210.695-17.084h8.541c11.389 0 19.93 8.541 19.93 19.93v8.541l-17.084 210.695c0 14.236-11.389 19.93-22.778 8.541z" />
<glyph unicode="&#xe90e;" glyph-name="interactionL" d="M601.96 267.894c-10.506 10.534-15.233 26.052-12.984 42.538l21.724 159.872c0.797 5.837 6.093 9.909 12.016 9.14 5.866-0.797 9.937-6.178 9.14-12.016l-21.724-159.872c-0.712-5.21-0.313-10.051 0.968-14.35l274.444 274.444c4.157 4.185 10.934 4.185 15.091 0 4.157-4.157 4.157-10.934 0-15.091l-274.957-274.928c4.67-1.794 10.051-2.477 15.916-1.709l160.014 21.070c5.894 0.797 11.218-3.359 11.959-9.197 0.769-5.837-3.331-11.218-9.197-11.987l-160.014-21.070c-18.621-2.734-33.484 4.214-42.395 13.154zM416.178 470.787c-0.769 5.866-6.15 9.966-11.987 9.197-5.866-0.769-9.966-6.122-9.197-11.987l21.070-159.985c0.769-5.894 0.057-11.247-1.709-15.916l-274.928 274.957c-4.157 4.185-10.934 4.185-15.091 0-4.185-4.185-4.185-10.934 0-15.091l274.444-274.444c-4.299-1.309-9.14-1.68-14.35-0.997l-159.9 21.753c-5.809 0.883-11.218-3.303-12.016-9.14s3.303-11.218 9.14-12.016c0 0 161.381-22.607 169.381-22.436 11.133 0.228 24.23 4.897 33.028 13.695 10.534 10.478 15.318 25.966 13.154 42.452l-21.041 159.957zM380.589 104.207l-160.014-21.070c-5.866-0.769-9.966-6.122-9.197-11.959s6.15-10.079 11.987-9.197l160.014 21.070c5.866 0.741 11.218 0.057 15.888-1.709l-274.928-274.928c-4.185-4.157-4.185-10.934 0-15.091 2.078-2.078 4.812-3.132 7.545-3.132s5.466 1.053 7.545 3.132l274.444 274.444c1.309-4.299 1.709-9.14 0.997-14.35l-21.753-159.872c-0.797-5.837 3.303-11.218 9.14-12.016l1.452-0.085c5.267 0 9.823 3.872 10.563 9.253l21.753 159.872c2.249 16.485-2.477 32.003-12.984 42.538-10.478 10.478-25.966 15.29-42.452 13.097zM626.219 81.458c4.299 1.309 9.14 1.709 14.35 0.968l159.9-21.753c5.695-0.826 11.218 3.303 12.016 9.14s-3.303 11.218-9.14 12.016l-159.9 21.753c-16.457 2.192-32.003-2.505-42.538-12.984-10.677-10.648-15.375-25.739-13.154-42.48l21.041-159.985c0.712-5.381 5.296-9.282 10.563-9.282l1.395 0.085c5.866 0.769 9.966 6.122 9.197 11.959l-21.041 159.985c-0.769 5.894-0.057 11.247 1.709 15.916l274.928-274.957c2.078-2.078 4.812-3.132 7.545-3.132s5.466 1.053 7.545 3.132c4.157 4.185 4.157 10.934 0 15.091l-274.416 274.529z" />
<glyph unicode="&#xe90f;" glyph-name="multi-tasking" d="M408.378 559.877c22.55 0 40.972-18.45 40.972-41v-256.25c0-22.55-18.45-41-40.972-41h-256.278c-22.55 0-41 18.45-41 41v256.25c0 22.55 18.45 41 41 41h256.278zM819.090 302.289l-45.841 0.028v49.115c0 60.902-49.541 110.472-110.472 110.472h-170.691v-56.945h170.691c29.526 0 53.528-24.002 53.528-53.528v-49.086l-45.841 0.028c-8.172 0-10.962-5.409-6.178-12.044l73.885-102.415c3.588-4.983 9.453-4.983 13.041 0l73.999 102.329c4.812 6.634 2.050 12.044-6.122 12.044zM872.902 137.349c22.55 0 41-18.45 41-41v-256.25c0-22.55-18.45-41-41-41h-256.278c-22.55 0-40.972 18.45-40.972 41v256.25c0 22.55 18.45 41 40.972 41h256.278zM362.224-45.984c-29.526 0-53.528 24.002-53.528 53.528v49.086l45.841-0.028c8.172 0 10.962 5.409 6.178 12.044l-73.885 102.415c-3.588 4.954-9.453 4.983-13.041 0l-74.028-102.329c-4.784-6.634-2.022-12.044 6.15-12.044l45.841-0.028v-49.115c0-60.902 49.541-110.472 110.472-110.472h170.691v56.945h-170.691z" />
<glyph unicode="&#xe910;" glyph-name="multi-taskingL" d="M847.334 148.054h-256.278c-28.472 0-51.677-23.177-51.677-51.677v-166.449h-175.417c-39.32 0-71.323 32.003-71.323 71.323v138.945l32.116-42.224c2.107-2.762 5.296-4.214 8.513-4.214 2.249 0 4.527 0.712 6.463 2.164 4.698 3.588 5.609 10.278 2.022 14.977l-39.348 51.735c-5.296 6.947-13.154 11.218-20.927 10.962-7.972 0-15.574-3.958-20.87-10.848l-39.577-51.563c-3.588-4.67-2.705-11.36 1.965-14.977 4.67-3.588 11.389-2.705 14.977 1.965l33.313 43.42v-140.34c0-51.108 41.57-92.678 92.678-92.678h175.417v-68.447c0-28.501 23.177-51.677 51.677-51.677h256.278c28.472 0 51.648 23.177 51.648 51.677v256.25c0 28.472-23.177 51.677-51.648 51.677zM877.629-159.902c0-16.713-13.581-30.323-30.295-30.323h-256.278c-16.713 0-30.323 13.609-30.323 30.323v256.25c0 16.713 13.609 30.323 30.323 30.323h256.278c16.713 0 30.295-13.609 30.295-30.323v-256.25zM485.594 262.627v166.421h179.233c39.32 0 71.323-32.003 71.323-71.323v-138.973l-32.116 42.224c-3.559 4.698-10.278 5.609-14.948 2.022-4.698-3.559-5.609-10.278-2.022-14.948l39.32-51.705c5.267-6.947 12.87-10.934 20.841-10.962h0.057c7.972 0 15.574 3.958 20.87 10.848l39.577 51.563c3.588 4.67 2.705 11.389-1.965 14.977-4.698 3.616-11.36 2.705-14.977-1.965l-33.313-43.391v140.311c0 51.108-41.57 92.678-92.678 92.678h-179.233v68.476c0 28.501-23.177 51.677-51.677 51.677h-256.25c-28.501 0-51.677-23.177-51.677-51.677v-256.25c0-28.501 23.177-51.677 51.677-51.677h256.25c28.529 0 51.705 23.177 51.705 51.677zM147.316 262.627v256.25c0 16.713 13.609 30.323 30.323 30.323h256.25c16.713 0 30.323-13.609 30.323-30.323v-256.25c0-16.713-13.609-30.323-30.323-30.323h-256.25c-16.713 0-30.323 13.609-30.323 30.323z" />
<glyph unicode="&#xe911;" glyph-name="outgoing-call" d="M85.416 179.488c0-235.864 191.22-427.084 427.084-427.084s427.084 191.22 427.084 427.084-191.22 427.084-427.084 427.084c-235.864 0-427.084-191.22-427.084-427.084zM543.706 396.731l230.341-197.427c12.727-10.905 12.727-28.757 0-39.662l-230.34-197.427c-16.97-14.549-30.835-8.172-30.835 14.179v94.898h-224.817c-9.994 0-18.166 8.2-18.166 18.194v180.030c0 9.994 8.172 18.166 18.166 18.166h224.817v94.898c0 22.322 13.895 28.7 30.835 14.151z" />
<glyph unicode="&#xe912;" glyph-name="outgoing-callL" d="M258.101 198.621h501.482c-2.249 9.396-7.004 18.052-14.151 24.998l-145.635 141.393c-4.242 4.1-4.328 10.877-0.228 15.091 4.157 4.242 10.905 4.328 15.091 0.228l145.635-141.393c14.265-13.866 22.152-32.402 22.18-52.218 0.028-19.759-7.745-38.295-21.952-52.19l-145.066-142.020c-2.078-2.022-4.784-3.047-7.459-3.047-2.762 0-5.523 1.082-7.63 3.217-4.128 4.214-4.043 10.962 0.171 15.119l145.066 142.020c7.716 7.573 12.698 17.112 14.606 27.447h-502.108c-5.894 0-10.677 4.784-10.677 10.677s4.784 10.677 10.677 10.677zM512.5 617.248c-201.726 0-376.46-136.553-424.92-332.072-8.541-34.395-12.841-69.928-12.841-105.689 0-53.129 9.424-105.091 28.016-154.434 30.579-81.089 84.135-150.76 154.832-201.498 4.812-3.445 11.446-2.363 14.891 2.448 3.445 4.784 2.334 11.446-2.448 14.891-67.28 48.26-118.216 114.544-147.287 191.675-17.681 46.922-26.65 96.35-26.65 146.916 0 34.024 4.1 67.849 12.186 100.535 46.125 185.981 212.346 315.871 404.221 315.871 229.6 0 416.407-186.806 416.407-416.407 0-218.553-170.635-401.032-388.447-415.496-5.866-0.398-10.335-5.466-9.937-11.36 0.37-5.638 5.068-9.966 10.648-9.966l0.712 0.028c229.003 15.176 408.378 207.050 408.378 436.793 0 241.388-196.373 437.761-437.761 437.761z" />
<glyph unicode="&#xe913;" glyph-name="overnight" d="M660.215-14.152c-43.791-83.908-129.862-136.041-224.617-136.041-40.43 0-80.89 9.966-116.992 28.785-25.397 13.268-48.147 30.579-67.65 51.421-3.103 3.303-3.787 8.228-1.68 12.243s6.378 6.349 10.991 5.638c10.934-1.595 22.066-2.391 33.113-2.391 86.755 0 165.538 47.691 205.655 124.481 45.527 87.153 30.949 193.953-36.216 265.732-3.103 3.303-3.759 8.228-1.68 12.243 2.107 4.015 6.378 6.349 10.991 5.638 28.273-4.1 55.464-12.898 80.833-26.166 59.935-31.291 104.123-84.050 124.366-148.568 20.272-64.547 14.179-133.079-17.112-193.013zM907.24 325.095l-44.673-10.62c-47.805 101.105-135.471 180.002-242.527 215.791-104.578 34.935-216.531 27.077-315.188-22.152-88.378-44.075-156.597-116.622-195.006-206.367-4.498-10.478-8.77-22.493-8.77-22.493-1.879-5.296 0.94-11.104 6.264-12.898l34.566-11.559c5.353-1.794 11.303 1.082 13.211 6.378 0 0 4.613 12.727 9.396 23.461 33.512 74.882 91.367 135.414 165.766 172.513 85.075 42.423 181.567 49.228 271.739 19.077 88.434-29.554 161.495-93.332 203.719-175.332l-43.050-10.25c-7.944-1.879-9.396-7.802-3.189-13.154l92.82-80.064c6.178-5.353 13.809-3.53 16.941 4.043l46.809 113.291c3.103 7.573-0.854 12.215-8.827 10.335z" />
<glyph unicode="&#xe914;" glyph-name="overnightL" d="M552.874 327.486c-25.369 13.268-52.588 22.066-80.833 26.166-4.527 0.684-8.912-1.595-10.991-5.638-2.078-4.015-1.423-8.912 1.68-12.243 67.166-71.778 81.744-178.578 36.216-265.732-40.089-76.79-118.9-124.481-205.655-124.481-11.047 0-22.209 0.797-33.113 2.391-4.498 0.598-8.912-1.595-10.991-5.638-2.107-4.015-1.423-8.912 1.68-12.243 19.532-20.841 42.281-38.124 67.678-51.421 36.103-18.848 76.562-28.814 116.992-28.814 94.756 0 180.828 52.133 224.617 136.041 31.32 59.935 37.385 128.466 17.141 192.984-20.329 64.575-64.49 117.363-124.424 148.625zM641.138-4.187c-40.089-76.818-118.9-124.566-205.684-124.566-37.555 0-73.572 8.884-107.113 26.394-14.35 7.516-27.817 16.428-40.203 26.65l5.125-0.057c94.728 0 180.771 52.104 224.56 135.955 44.844 85.872 36.273 189.198-19.703 266.159 15.46-4.328 30.466-10.278 44.844-17.795 54.895-28.643 95.325-76.96 113.889-136.041 18.535-59.052 12.955-121.804-15.716-176.699zM923.981 361.511l-27.874-112.864c-3.132-12.584-11.047-22.465-21.753-27.105-4.47-1.936-9.253-2.904-14.179-2.904-6.834 0-13.866 1.879-20.443 5.552l-101.532 56.631c-5.153 2.876-7.004 9.367-4.128 14.521s9.396 7.033 14.521 4.128c0 0 102.841-57.201 103.468-57.485-33.882 112.551-115.853 201.555-225.329 244.378-94.499 37.014-197.768 34.992-290.787-5.723-92.991-40.687-164.57-115.141-201.555-209.67-2.107-5.523-8.314-8.2-13.78-6.065-5.495 2.135-8.2 8.342-6.036 13.838 39.035 99.795 114.629 178.464 212.859 221.428 98.229 42.993 207.278 45.128 307.13 6.065 115.825-45.299 202.523-139.542 238.199-258.699 1.11 1.822 30.494 119.071 30.494 119.071 1.423 5.723 7.232 9.197 12.927 7.802 5.723-1.395 9.197-7.175 7.802-12.898z" />
<glyph unicode="&#xe915;" glyph-name="quick-sync" d="M361.825 186.805l73.601 169.809c0.114 0.37 5.381 14.891 23.291 14.891h87.809c7.63 0 13.012-2.050 16.030-6.093 3.702-4.954 2.135-10.677 1.936-11.332l-26.023-77.957-0.313-0.911c-0.94-2.648-2.705-7.602-0.854-10.222 1.395-1.965 4.954-3.018 10.335-3.018h50.795c7.175 0 12.044-2.050 14.464-6.122 3.673-6.15-0.284-13.78-0.741-14.634-1.965-2.876-176.272-253.574-181.34-261.034-2.677-3.872-6.805-6.178-11.076-6.178-3.189 0-6.065 1.338-7.887 3.645-1.993 2.534-2.563 6.008-1.652 9.823 1.281 5.267 36.815 160.328 37.156 161.893 0.085 0.37 1.936 6.378-0.94 10.421-1.965 2.734-5.866 4.185-11.588 4.299-10.449 0.228-20.472 0.171-32.8 0.085l-24.030-0.085c-8.855 0-14.72 2.391-17.425 7.118-3.787 6.72 0.712 14.72 1.253 15.603zM142.077 113.631c-3.958 21.269-5.951 42.993-5.951 64.831 0 116.964 57.144 225.5 152.839 290.303 5.523 3.759 13.353 8.143 21.497 12.442l9.795-41.199c1.908-7.944 7.802-9.396 13.154-3.189l82.485 95.638c4.015 4.641 2.648 10.364-3.047 12.698l-116.708 48.232c-7.573 3.132-12.186-0.826-10.307-8.77l11.047-46.381c-13.183-6.577-28.928-14.92-39.833-22.294-111.384-75.423-177.866-201.584-177.866-337.482 0-26.166 2.477-52.218 7.374-77.701l2.847-13.439c1.309-5.495 6.834-8.827 12.3-7.431l35.335 8.997c5.466 1.395 8.884 7.004 7.573 12.499l-2.534 12.243zM741.417-80.89c-3.929 4.043-10.506 4.185-14.606 0.313l-9.367-8.314c-16.428-14.066-34.252-26.65-53.186-37.584-101.304-58.482-223.849-63.266-327.829-12.813-6.008 2.933-13.723 7.488-21.525 12.385l30.778 29.070c5.922 5.638 4.242 11.474-3.816 12.984l-124.053 23.632c-6.036 1.139-10.307-2.904-9.481-8.969l0.484-3.673 16.116-121.52c1.082-8.115 6.805-10.136 12.755-4.527l34.622 32.743c12.272-8.115 27.391-17.596 39.234-23.347 121.007-58.738 263.482-53.243 381.186 14.72 22.664 13.097 43.99 28.245 63.607 45.242l10.222 9.197c4.1 3.872 4.242 10.364 0.284 14.378l-25.426 26.080zM939.129 153.891l-45.67 13.638c0.911 14.691 1.538 32.516 0.598 45.641-9.623 134.161-85.645 254.798-203.321 322.761-22.664 13.097-46.466 23.973-70.981 32.459l-13.069 4.271c-5.409 1.623-11.076-1.509-12.613-6.947l-9.88-35.078c-1.538-5.438 1.652-11.19 7.033-12.813l11.873-3.929c20.443-7.232 40.259-16.372 59.166-27.277 101.304-58.482 166.734-162.234 174.991-277.519 0.484-6.663 0.37-15.631 0.028-24.828l-40.573 12.101c-7.83 2.334-12.044-2.078-9.367-9.795l21.127-60.532 20.472-58.709c2.022-5.78 7.659-7.459 12.499-3.73l100.137 76.96c6.491 4.983 5.381 10.991-2.448 13.325z" />
<glyph unicode="&#xe916;" glyph-name="quick-syncL" d="M952.766 135.868l-84.363-77.302c-7.716-7.118-17.197-10.962-26.593-10.962l-5.979 0.513c-11.332 1.993-21.241 9.68-27.105 21.070l-52.36 101.759c-2.705 5.267-0.655 11.673 4.613 14.378 5.239 2.677 11.673 0.627 14.378-4.613l52.332-101.731 2.933-4.299 2.99 10.307c7.972 30.608 12.016 62.354 12.016 94.357 0 170.635-115.256 319.487-280.31 361.939-5.723 1.48-9.14 7.289-7.688 13.012 1.48 5.723 7.289 9.168 12.984 7.688 174.506-44.901 296.367-202.238 296.367-382.639 0-33.797-4.299-67.337-12.727-99.738l-1.879-6.548 1.595 1.253 84.363 77.302c4.356 4.015 11.104 3.673 15.091-0.627 3.986-4.384 3.702-11.133-0.655-15.119zM98.229 179.346c0 168.67 112.038 315.046 273.504 359.832l-2.050-6.321-51.763-102.016c-2.677-5.267-0.57-11.673 4.698-14.35l4.841-1.139c3.901 0 7.659 2.135 9.538 5.837l51.763 102.016c5.78 11.417 6.235 23.916 1.224 34.31-5.011 10.364-15.062 17.766-27.561 20.329l-112.095 23.091c-5.752 1.224-11.417-2.505-12.584-8.285-1.196-5.78 2.505-11.417 8.285-12.613l111.128-22.92c-165.908-50.197-280.281-202.58-280.281-377.77 0-40.63 6.122-80.662 18.251-118.957 1.423-4.555 5.638-7.459 10.165-7.459l3.217 0.513c5.638 1.794 8.741 7.773 6.976 13.41-11.446 36.216-17.254 74.056-17.254 112.494zM733.132-87.895c-70.213-68.647-162.975-106.458-261.176-106.458-87.011 0-171.716 30.579-238.541 86.043-10.136 8.428-19.674 17.51-28.814 26.849l6.834 0.997 114.288-5.153c6.093-0.228 10.877 4.299 11.161 10.193 0.256 5.894-4.299 10.877-10.165 11.133l-114.345 5.182c-12.841 0.684-24.401-4.157-31.775-13.012-7.374-8.827-9.994-21.041-7.175-33.484l25.084-111.64c1.11-4.954 5.523-8.342 10.392-8.342l2.334 0.256c5.752 1.281 9.367 7.004 8.086 12.755l-24.941 111.041c8.115-8.029 16.514-15.888 25.341-23.205 70.668-58.681 160.241-90.969 252.207-90.969 103.809 0 201.868 39.975 276.124 112.551 4.214 4.128 4.299 10.877 0.171 15.091-4.128 4.242-10.905 4.299-15.091 0.171zM349.697 193.61l75.31 173.852c2.306 6.777 11.673 19.475 30.266 19.475h90.314c10.136 0 17.539-3.047 22.009-9.026 5.695-7.63 3.559-16.116 3.075-17.738l-26.821-80.32-1.595-5.125 4.47-0.398h52.247c12.442 0 18.166-5.267 20.784-9.652 5.58-9.396 0.455-19.845-0.627-21.866l-186.863-269.035c-4.043-5.866-10.421-9.339-17.084-9.339-5.409 0-10.335 2.334-13.524 6.378-3.388 4.299-4.441 9.966-2.961 15.973 1.309 5.381 37.84 164.797 38.209 166.391l0.142 5.153c-0.284 0.398-2.022 1.452-6.463 1.538l-16.798 0.171-41.485-0.171c-11.788 0-19.816 3.645-23.916 10.791-5.837 10.25 0.57 21.667 1.309 22.948zM367.634 181.595l4.67-0.398 41.455 0.171 17.283-0.171c13.353-0.284 20.13-5.866 23.433-10.534 7.033-9.909 3.445-21.866 3.018-23.205-1.025-4.613-24.685-107.909-34.166-149.138 35.448 51.051 164.428 236.576 176.927 254.571l-1.281 0.028h-52.247c-10.591 0-18.137 3.103-22.465 9.225-6.235 8.827-2.534 19.247-0.94 23.717l26.479 79.266-4.242 0.427h-90.285c-7.403 0-9.88-4.67-10.478-6.093l-77.159-177.866z" />
<glyph unicode="&#xe917;" glyph-name="repeat-item" d="M660.528 466.973l-127.185-91.453c-8.228-5.922-14.948-2.477-14.92 7.688l0.114 49.456h-167.474c-109.959 0-199.448-89.459-199.448-199.448 0-72.263 38.694-137.891 100.308-173.14 6.891-3.958 12.215-6.378 12.215-6.378 5.125-2.363 7.516-8.513 5.324-13.723l-25.284-59.791c-2.192-5.182-8.2-7.573-13.353-5.267l-9.994 4.897c-94.584 48.573-154.604 145.834-154.604 253.403 0 157.081 127.784 284.865 284.865 284.865h167.645l0.114 49.484c0.028 10.136 6.748 13.553 14.948 7.602l126.759-91.994c6.178-4.47 6.15-11.759-0.028-16.201zM585.674 33.766h-79.181l0.114 49.428c0.028 10.136-6.691 13.609-14.92 7.688l-127.185-91.453c-6.178-4.441-6.178-11.73-0.028-16.201l126.787-92.022c8.2-5.951 14.948-2.534 14.977 7.602l0.114 49.484h50.481c3.502 31.263 13.638 60.134 28.842 85.473zM760.864 412.733s5.324-2.42 12.186-6.378c61.614-35.248 100.308-100.878 100.308-173.14 0-40.545-12.243-78.27-33.113-109.789 27.561-9.652 52.275-24.685 73.088-43.961 28.615 44.416 45.441 97.119 45.441 153.75 0 107.568-60.020 204.829-154.604 253.403l-9.994 4.897c-5.153 2.306-11.161-0.085-13.353-5.267l-25.284-59.791c-2.192-5.182 0.199-11.36 5.324-13.723zM768.039 93.131c-95.723 0-170.122-74.398-170.122-170.122 0-95.24 74.398-169.638 169.638-169.638 95.723 0 170.606 73.914 170.606 169.638 0 95.24-74.882 170.122-170.122 170.122zM757.647-152.1v117.818c-5.723-4.157-13.553-6.777-20.841-6.777-15.119 0-28.672 9.367-28.672 23.973 0 13.041 9.909 18.763 10.934 18.763 5.723-5.21 11.474-8.342 20.329-8.342 13.041 0 25.027 9.396 27.105 22.948h11.987c10.962 0 17.738-5.723 17.738-17.709v-150.647c0-11.474-6.777-17.709-17.738-17.709h-4.698c-10.934-0.028-16.144 6.235-16.144 17.681z" />
<glyph unicode="&#xe918;" glyph-name="repeat-itemL" d="M352.344-76.762c0-5.894-4.784-10.677-10.677-10.677-147.173 0-266.928 119.754-266.928 266.928 0 147.202 119.754 266.928 266.928 266.928l239.253 0.114-80.947 62.127c-4.67 3.588-5.552 10.278-1.965 14.977 3.588 4.67 10.278 5.552 14.977 1.965l80.947-62.127c9.339-7.175 14.72-17.368 14.691-28.016-0.028-10.62-5.409-20.813-14.777-27.931l-81.288-61.756c-1.936-1.48-4.185-2.164-6.434-2.164-3.217 0-6.406 1.452-8.513 4.214-3.559 4.698-2.648 11.389 2.050 14.948l81.259 61.756 0.598 0.541h-239.85c-135.414 0-245.573-110.16-245.573-245.573s110.16-245.573 245.573-245.573c5.894 0 10.677-4.784 10.677-10.677zM909.261 37.981c25.597-31.291 41-71.238 41-114.743 0-100.080-81.431-181.51-181.51-181.51-96.492 0-175.389 75.736-180.97 170.834l-143.728-0.114 80.975-62.127c4.67-3.588 5.552-10.278 1.965-14.977-2.107-2.734-5.267-4.185-8.484-4.185-2.278 0-4.555 0.712-6.491 2.221l-80.975 62.127c-9.339 7.175-14.691 17.397-14.663 28.016s5.409 20.813 14.748 27.931l81.316 61.756c4.698 3.559 11.389 2.648 14.948-2.050s2.648-11.389-2.050-14.948l-81.316-61.756-0.598-0.541h144.326c5.58 95.097 84.477 170.834 180.97 170.834 48.63 0 92.763-19.333 125.391-50.595 21.952 36.729 34.765 79.523 34.765 125.334 0 135.414-110.16 245.573-245.573 245.573-5.894 0-10.677 4.784-10.677 10.677s4.784 10.677 10.677 10.677c147.173 0 266.928-119.726 266.928-266.928 0.028-52.019-15.147-100.45-40.972-141.507zM928.907-76.762c0 88.321-71.835 160.156-160.156 160.156s-160.156-71.835-160.156-160.156 71.835-160.156 160.156-160.156 160.156 71.835 160.156 160.156zM764.509-165.169h18.393v167.673c0 5.409-2.705 8.371-8.115 8.371h-7.83c-0.57-11.616-9.481-21.098-21.098-21.098-7.033 0-11.902 2.705-15.403 6.748-0.284 0.284-5.695-3.787-5.695-9.994 0-4.043 1.338-7.033 4.328-9.994 3.502-3.53 8.912-5.409 15.403-5.409 8.655 0 15.659 4.043 20.016 9.994v-146.291z" />
<glyph unicode="&#xe919;" glyph-name="repeat-off" d="M660.528 466.973l-127.185-91.453c-8.228-5.922-14.948-2.477-14.92 7.688l0.114 49.456h-167.474c-109.959 0-199.448-89.459-199.448-199.448 0-72.263 38.694-137.891 100.308-173.14 6.891-3.958 12.215-6.378 12.215-6.378 5.125-2.363 7.516-8.513 5.324-13.723l-25.284-59.791c-2.192-5.182-8.2-7.573-13.353-5.267l-9.994 4.897c-94.584 48.573-154.604 145.834-154.604 253.403 0 157.081 127.784 284.865 284.865 284.865h167.645l0.114 49.484c0.028 10.136 6.748 13.553 14.948 7.602l126.759-91.994c6.178-4.47 6.15-11.759-0.028-16.201zM768.751 94.071c-43.734 0-87.438-16.684-120.808-50.026-66.71-66.71-66.71-174.877 0-241.587 33.37-33.37 77.103-50.054 120.808-50.054s87.438 16.684 120.808 50.026c66.71 66.71 66.71 174.877 0 241.587-33.37 33.37-77.074 50.054-120.808 50.054zM711.122-162.863c-7.289 0-14.578 2.791-20.13 8.342-11.104 11.133-11.104 29.155 0 40.259l37.498 37.498-37.498 37.498c-11.133 11.133-11.133 29.155 0 40.259 5.552 5.552 12.841 8.342 20.13 8.342s14.578-2.791 20.13-8.342l37.498-37.498 37.498 37.498c5.552 5.552 12.841 8.342 20.13 8.342s14.578-2.791 20.13-8.342c11.104-11.133 11.104-29.155 0-40.259l-37.498-37.498 37.47-37.47c11.133-11.104 11.133-29.155 0-40.259-5.552-5.552-12.841-8.342-20.13-8.342s-14.578 2.791-20.13 8.342l-37.47 37.47-37.498-37.498c-5.552-5.552-12.841-8.342-20.13-8.342zM760.864 412.733s5.324-2.42 12.186-6.378c61.614-35.248 100.308-100.878 100.308-173.14 0-40.259-12.072-77.701-32.686-109.078 26.792-9.566 51.506-24.515 72.889-44.303 28.472 44.331 45.214 96.891 45.214 153.38 0 107.568-60.020 204.829-154.604 253.403l-9.994 4.897c-5.153 2.306-11.161-0.085-13.353-5.267l-25.284-59.791c-2.192-5.182 0.199-11.36 5.324-13.723zM586.244 33.766h-79.751l0.114 49.428c0.028 10.136-6.691 13.609-14.92 7.688l-127.185-91.453c-6.178-4.441-6.178-11.73-0.028-16.201l126.787-92.022c8.2-5.951 14.948-2.534 14.977 7.602l0.114 49.484h50.538c3.502 30.551 13.553 59.507 29.355 85.473z" />
<glyph unicode="&#xe91a;" glyph-name="repeat-offL" d="M352.344-76.762c0-5.894-4.784-10.677-10.677-10.677-147.173 0-266.928 119.726-266.928 266.928 0 147.173 119.754 266.928 266.928 266.928l239.253 0.114-80.947 62.127c-4.67 3.588-5.552 10.278-1.965 14.977 3.588 4.67 10.278 5.552 14.977 1.965l80.947-62.127c9.339-7.175 14.72-17.368 14.691-28.016-0.028-10.62-5.409-20.813-14.777-27.931l-81.316-61.756c-1.936-1.48-4.185-2.164-6.434-2.164-3.217 0-6.406 1.452-8.513 4.214-3.559 4.698-2.648 11.389 2.050 14.948l81.288 61.756 0.598 0.541h-239.85c-135.414 0-245.573-110.16-245.573-245.573s110.16-245.573 245.573-245.573c5.894 0 10.677-4.784 10.677-10.677zM909.261 37.981c25.597-31.291 41-71.238 41-114.743 0-100.080-81.431-181.51-181.51-181.51-96.492 0-175.389 75.736-180.97 170.834l-143.728-0.114 80.947-62.127c4.67-3.588 5.552-10.278 1.965-14.977-2.107-2.734-5.267-4.185-8.484-4.185-2.278 0-4.555 0.712-6.491 2.221l-80.947 62.127c-9.339 7.175-14.691 17.397-14.663 28.016s5.409 20.813 14.777 27.931l81.288 61.756c4.698 3.559 11.389 2.648 14.948-2.050s2.648-11.389-2.050-14.948l-81.288-61.756-0.598-0.541h144.297c5.58 95.097 84.506 170.834 180.97 170.834 48.63 0 92.763-19.333 125.391-50.595 21.952 36.729 34.765 79.523 34.765 125.334 0 135.414-110.16 245.573-245.573 245.573-5.894 0-10.677 4.784-10.677 10.677s4.784 10.677 10.677 10.677c147.202 0 266.928-119.754 266.928-266.928 0.028-52.019-15.147-100.45-40.972-141.507zM768.751 83.394c-88.321 0-160.156-71.835-160.156-160.156s71.835-160.156 160.156-160.156 160.156 71.835 160.156 160.156-71.835 160.156-160.156 160.156zM840.302-5.184c-4.185 4.157-10.934 4.157-15.091 0l-56.46-56.489-56.46 56.46c-4.157 4.157-10.934 4.157-15.091 0-4.185-4.157-4.185-10.934 0-15.091l56.432-56.46-56.46-56.489c-4.185-4.157-4.185-10.934 0-15.091 2.078-2.078 4.812-3.132 7.545-3.132s5.466 1.053 7.545 3.132l56.489 56.489 56.46-56.46c2.078-2.078 4.812-3.132 7.545-3.132s5.466 1.053 7.545 3.132c4.157 4.185 4.157 10.934 0 15.091l-56.46 56.46 56.46 56.489c4.185 4.157 4.185 10.934 0 15.091z" />
<glyph unicode="&#xe91b;" glyph-name="replay-restart" d="M919.654 352.969l-47.207-15.916c-6.178 14.663-13.069 29.013-20.955 42.879-72.091 126.759-207.392 205.513-353.056 205.513-223.821 0-405.928-182.137-405.928-405.957s182.109-405.957 405.928-405.957c140.254 0 268.692 70.924 343.575 189.682 9.994 15.83 22.066 40.288 22.066 40.288 2.477 5.040 0.341 11.076-4.812 13.41l-59.166 26.678c-5.153 2.306-11.389 0.085-13.895-4.983 0 0-8.57-17.34-16.457-29.839-59.166-93.816-160.584-149.821-271.341-149.849-176.756 0-320.512 143.784-320.512 320.541s143.784 320.541 320.512 320.541c115.028 0 221.885-62.184 278.828-162.321 5.182-9.111 9.738-18.507 13.98-28.073l-46.239-15.603c-9.623-3.246-10.705-10.705-2.477-16.599l127.499-90.997c6.178-4.413 13.097-2.078 15.347 5.182l1.366 4.413 16.542 53.499 19.247 62.184 9.14 29.583c3.047 9.68-2.363 14.948-11.987 11.702z" />
<glyph unicode="&#xe91c;" glyph-name="replay-restartL" d="M978.904 349.068c-5.353 2.534-11.702 0.256-14.236-5.040l-54.609-114.772c-1.338-2.791-3.018-5.068-4.897-6.976-21.44 198.253-192.074 352.259-392.632 352.259-217.841 0-395.053-177.211-395.053-395.053s177.211-395.053 395.053-395.053c136.496 0 261.517 69.045 334.407 184.614 16.315 25.853 29.583 53.613 39.463 82.456 1.908 5.58-1.082 11.645-6.663 13.553s-11.645-1.082-13.553-6.663c-9.31-27.277-21.866-53.499-37.298-77.957-68.959-109.362-187.205-174.649-316.327-174.678-206.053 0-373.698 167.645-373.698 373.698s167.645 373.698 373.698 373.698c189.881 0 351.433-145.978 371.478-333.752l-4.812 3.274-96.407 82.883c-4.47 3.844-11.218 3.331-15.062-1.139s-3.331-11.218 1.139-15.062l96.407-82.883c8.314-7.147 18.194-10.962 27.959-10.962l7.63 0.797c12.158 2.563 22.522 11.218 28.501 23.717l54.609 114.772c2.477 5.381 0.228 11.73-5.097 14.265z" />
<glyph unicode="&#xe91d;" glyph-name="reusable" d="M924.665 184.015l-108.963-112.551c-5.296-5.466-12.499-4.413-16.030 2.306l-72.604 138.831c-4.698 8.997-0.341 15.147 9.709 13.695l47.065-6.805c-12.101 93.616-66.938 176.556-149.081 223.963-10.222 5.922-20.756 11.218-31.519 15.859-12.414 5.381-28.359 10.449-28.359 10.449-5.353 1.709-8.513 7.545-6.976 12.984l17.567 62.497c1.538 5.438 7.175 8.513 12.584 6.834 0 0 14.407-4.441 26.223-9.054 18.279-7.147 36.074-15.716 53.186-25.568 110.956-64.063 183.162-178.634 193.185-306.503l-0.085-3.986 48.66-7.033c10.051-1.48 12.499-8.627 5.438-15.916zM183.731 142.645c-1.338 11.645-2.022 23.404-2.022 35.22 0 94.841 44.416 183.817 119.413 241.074l17.624-44.16c3.759-9.424 11.275-10.108 16.713-1.538l16.599 26.138 67.337 106.145c4.072 6.406 1.366 13.183-6.008 15.034l-4.47 1.11-147.458 36.957c-9.823 2.477-14.805-3.217-11.047-12.641l18.222-45.641-3.502-1.908c-105.717-72.604-168.841-192.444-168.841-320.569 0-19.759 1.48-39.435 4.441-58.852 1.908-12.556 5.267-27.248 5.267-27.248 1.253-5.495 6.748-8.855 12.215-7.459l62.895 16.030c5.466 1.395 8.941 7.033 7.745 12.528 0 0.028-3.559 16.343-5.125 29.782zM704.062-47.351c-3.929 4.043-10.563 4.242-14.72 0.455 0 0-12.357-11.275-23.234-19.333-9.424-6.976-19.276-13.439-29.497-19.361-82.114-47.406-181.397-53.442-268.493-17.112l29.412 37.355c6.264 7.972 3.103 14.834-7.004 15.261l-156.541 6.52c-7.602 0.313-12.101-5.409-10.022-12.727l1.253-4.441 41.769-146.205c2.791-9.766 10.193-11.218 16.457-3.246l30.409 38.609 3.388-2.078c115.74-55.236 251.097-49.997 362.025 14.066 17.112 9.88 33.427 21.013 48.745 33.255 9.909 7.916 20.955 18.166 20.955 18.166 4.128 3.844 4.299 10.278 0.37 14.322l-45.271 46.495z" />
<glyph unicode="&#xe91e;" glyph-name="reusableL" d="M952.766 135.868l-84.363-77.302c-7.745-7.118-17.197-10.934-26.622-10.934l-6.008 0.513c-11.332 1.993-21.241 9.68-27.105 21.041l-52.332 101.759c-2.705 5.239-0.627 11.673 4.613 14.378s11.702 0.627 14.378-4.613l52.332-101.731 2.933-4.299 2.99 10.335c7.972 30.636 12.016 62.383 12.016 94.357 0 170.635-115.256 319.487-280.31 361.939-5.723 1.48-9.14 7.289-7.688 13.012 1.48 5.723 7.403 9.14 13.012 7.688 174.506-44.929 296.367-202.267 296.367-382.667 0-33.797-4.299-67.337-12.727-99.738l-1.908-6.548 1.623 1.253 84.363 77.302c4.356 3.986 11.133 3.673 15.091-0.655 3.986-4.356 3.702-11.104-0.655-15.091zM98.229 179.346c0 168.641 112.038 315.046 273.504 359.832l-2.050-6.321-51.763-102.016c-2.677-5.267-0.57-11.673 4.698-14.35l4.812-1.139c3.901 0 7.659 2.135 9.538 5.837l51.763 102.016c5.78 11.417 6.235 23.916 1.224 34.31-5.011 10.364-15.062 17.766-27.561 20.329l-112.066 23.091c-5.723 1.253-11.417-2.505-12.584-8.285-1.196-5.78 2.505-11.417 8.285-12.613l111.128-22.92c-165.908-50.197-280.281-202.609-280.281-377.77 0-40.63 6.122-80.662 18.222-118.957 1.423-4.555 5.638-7.459 10.193-7.459l3.217 0.513c5.609 1.766 8.741 7.773 6.976 13.382-11.446 36.216-17.254 74.084-17.254 112.522zM733.132-87.895c-70.241-68.647-163.003-106.458-261.176-106.458-87.011 0-171.716 30.579-238.569 86.072-10.222 8.484-19.816 17.624-28.984 27.048l7.033 0.826 114.288-5.182c5.894-0.541 10.877 4.299 11.133 10.193 0.284 5.894-4.299 10.877-10.193 11.161l-114.288 5.182c-12.727 0.541-24.401-4.185-31.775-13.041-7.374-8.827-9.966-21.041-7.175-33.455l25.084-111.64c1.11-4.983 5.523-8.342 10.421-8.342l2.334 0.256c5.752 1.281 9.367 7.004 8.086 12.755l-24.941 111.041c8.115-8.029 16.485-15.859 25.341-23.205 70.668-58.681 160.213-90.997 252.207-90.997 103.809 0 201.868 39.975 276.124 112.551 4.214 4.1 4.299 10.877 0.171 15.091-4.157 4.185-10.905 4.271-15.119 0.142z" />
<glyph unicode="&#xe91f;" glyph-name="share" d="M977.338 88.633l-48.061-0.142c-24.23-110.103-91.424-207.961-187.49-269.177-187.803-119.697-434.6-73.772-567.879 99.539-7.659 9.966-16.116 22.607-16.116 22.607-3.132 4.698-1.794 10.991 2.933 14.037l54.752 34.878c4.755 3.047 11.218 1.68 14.378-2.99 0 0 7.745-11.446 15.091-20.728 107.397-135.072 302.261-170.036 450.915-75.31 71.409 45.527 122.886 116.366 145.379 196.857l-48.26-0.142c-10.136-0.028-13.609 6.691-7.688 14.92l18.052 25.141 73.26 102.13c4.441 6.178 11.73 6.207 16.201 0.057l2.705-3.73 89.374-122.972c6.008-8.2 2.591-14.92-7.545-14.977zM221.144 230.823l18.052 25.17c5.922 8.228 2.448 14.948-7.688 14.92l-48.26-0.142c22.493 80.491 73.971 151.359 145.379 196.857 148.682 94.756 343.546 59.763 450.915-75.31 7.374-9.282 15.119-20.728 15.119-20.728 3.16-4.67 9.623-6.036 14.378-2.99l54.752 34.878c4.755 3.047 6.093 9.339 2.961 14.037 0 0-8.456 12.641-16.116 22.607-133.307 173.31-380.076 219.208-567.879 99.539-96.066-61.216-163.259-159.074-187.49-269.177l-48.061-0.142c-10.136-0.028-13.553-6.777-7.602-14.977l92.079-126.73c4.47-6.15 11.759-6.122 16.201 0.057l73.26 102.13z" />
<glyph unicode="&#xe920;" glyph-name="shareL" d="M244.435 278.6l-88.292-72.832c-7.573-6.264-16.485-9.623-25.312-9.623l-7.802 0.883c-11.218 2.591-20.671 10.791-25.938 22.465l-47.036 104.266c-2.42 5.381-0.028 11.702 5.353 14.122 5.381 2.448 11.702 0.028 14.122-5.353l47.036-104.294 3.331-5.21c13.553 121.52 80.691 227.978 184.642 292.324 185.212 114.629 429.191 57.229 543.848-127.954 3.103-5.011 1.566-11.588-3.473-14.691-5.011-3.103-11.588-1.538-14.691 3.445-108.479 175.19-339.247 229.486-514.465 121.035-98.144-60.759-161.609-161.209-174.563-275.924l1.338 0.911 88.321 72.86c4.555 3.759 11.275 3.103 15.034-1.452 3.759-4.498 3.103-11.218-1.452-14.977zM974.918 35.219l-47.065 104.266c-5.267 11.673-14.691 19.873-25.938 22.465-11.218 2.62-23.291-0.598-33.113-8.741l-88.264-72.832c-4.555-3.759-5.182-10.478-1.423-15.034s10.506-5.153 15.034-1.423l88.264 72.86 1.253 0.883c-12.898-113.263-77.416-215.791-174.478-275.896-84.876-52.531-185.127-68.903-282.303-46.011-97.176 22.863-179.603 82.199-232.135 167.047-3.103 5.011-9.709 6.577-14.691 3.473-5.011-3.103-6.577-9.68-3.473-14.691 55.521-89.716 142.674-152.441 245.403-176.613 30.295-7.118 60.873-10.648 91.253-10.648 72.576 0 143.928 20.159 207.192 59.308 102.813 63.664 171.090 172.399 184.528 292.41l3.416-5.296 47.065-104.294c1.794-3.958 5.666-6.292 9.738-6.292l4.384 0.94c5.409 2.42 7.773 8.741 5.353 14.122z" />
<glyph unicode="&#xe921;" glyph-name="shuffle" d="M296.026 164.568l-18.052-25.141-73.345-102.045c-4.441-6.178-11.73-6.178-16.201-0.028l-2.705 3.73-89.346 123.028c-5.951 8.2-2.534 14.948 7.602 14.948l49.484 0.114v153.75c0 80.064 65.145 145.209 145.209 145.209h193.611c80.064 0 145.209-65.145 145.209-145.209v-143.216c0-5.638-4.613-10.25-10.25-10.25h-64.916c-5.638 0-10.25 4.613-10.25 10.25v143.216c0 32.971-26.821 59.791-59.791 59.791h-193.611c-32.971 0-59.791-26.821-59.791-59.791v-153.579l49.484 0.142c10.136 0.028 13.581-6.691 7.659-14.92zM928.594 194.863l-92.022 126.787c-4.47 6.15-11.759 6.15-16.201-0.028l-91.424-127.214c-5.922-8.228-2.477-14.948 7.659-14.92l49.456 0.114v-153.579c0-32.971-26.821-59.791-59.791-59.791h-193.611c-32.971 0-59.791 26.821-59.791 59.791v143.216c0 5.638-4.613 10.25-10.25 10.25h-64.916c-5.638 0-10.25-4.613-10.25-10.25v-143.216c0-80.064 65.145-145.209 145.209-145.209h193.611c80.064 0 145.209 65.145 145.209 145.209v153.75l49.484 0.114c10.165 0.028 13.581 6.777 7.63 14.977z" />
<glyph unicode="&#xe922;" glyph-name="shuffle-item" d="M627.273 179.488h-64.916c-5.638 0-10.25 4.613-10.25 10.25v143.216c0 32.971-26.821 59.791-59.791 59.791h-193.611c-32.971 0-59.791-26.821-59.791-59.791v-153.579l49.456 0.114c10.136 0.028 13.581-6.691 7.659-14.92l-18.052-25.141-73.345-102.045c-4.441-6.178-11.73-6.178-16.201-0.028l-2.705 3.73-89.346 123.028c-5.951 8.2-2.534 14.948 7.602 14.948l49.484 0.114v153.75c0 80.064 65.145 145.209 145.209 145.209h193.611c80.064 0 145.209-65.145 145.209-145.209v-143.216c0.028-5.609-4.584-10.222-10.222-10.222zM736.634 179.488l49.456 0.114v-45.527c30.921-2.278 59.82-10.734 85.416-24.429v70.127l49.484 0.114c10.136 0.028 13.553 6.748 7.602 14.948l-91.994 126.787c-4.47 6.15-11.759 6.15-16.201-0.028l-91.424-127.214c-5.922-8.2-2.477-14.92 7.659-14.891zM532.687-33.769c-32.971 0-59.791 26.821-59.791 59.791v143.216c0 5.638-4.613 10.25-10.25 10.25h-64.916c-5.638 0-10.25-4.613-10.25-10.25v-143.216c0-80.064 65.145-145.209 145.209-145.209h27.874c-2.534 13.325-3.929 27.077-3.929 41.228 0 15.204 1.538 29.953 4.441 44.189h-28.387zM939.585-77.959c0-95.695-74.882-169.638-170.606-169.638-95.24 0-169.638 74.398-169.638 169.638 0 95.723 74.398 170.122 170.122 170.122 95.24 0 170.122-74.853 170.122-170.122zM797.622-0.485c0 11.987-6.777 17.738-17.709 17.738h-11.987c-2.078-13.553-14.066-22.948-27.105-22.948-8.855 0-14.606 3.132-20.329 8.342-1.053 0-10.934-5.723-10.934-18.763 0-14.606 13.553-23.973 28.672-23.973 7.289 0 15.119 2.62 20.841 6.777v-117.818c0-11.474 5.21-17.709 16.144-17.709h4.698c10.962 0 17.709 6.264 17.709 17.709v150.647z" />
<glyph unicode="&#xe923;" glyph-name="shuffle-itemL" d="M187.717 304.481v-208.446l0.171 0.171 62.127 80.947c3.588 4.698 10.278 5.58 14.977 1.965 4.67-3.588 5.552-10.278 1.965-14.977l-62.127-80.947c-7.147-9.339-17.34-14.691-27.959-14.691h-0.057c-10.62 0-20.813 5.409-27.959 14.777l-61.756 81.259c-3.559 4.698-2.648 11.389 2.050 14.977s11.389 2.648 14.948-2.050l61.756-81.259 0.484-0.541v208.816c0 75.822 61.671 137.492 137.492 137.492h169.097c75.822 0 137.492-61.671 137.492-137.492v-125.078c0-5.894-4.784-10.677-10.677-10.677s-10.677 4.784-10.677 10.677v125.078c0 64.035-52.104 116.138-116.138 116.138h-169.097c-64.006 0-116.109-52.076-116.109-116.138zM940.068-76.762c0-100.080-81.431-181.51-181.51-181.51-97.973 0-177.866 78.071-181.197 175.247h-44.246c-75.822 0-137.492 61.699-137.492 137.492v125.078c0 5.894 4.784 10.677 10.677 10.677s10.677-4.784 10.677-10.677v-125.078c0-64.035 52.104-116.138 116.138-116.138h44.673c7.716 93.019 85.759 166.421 180.742 166.421 20.984 0 41.057-3.759 59.82-10.335v168.528l-0.171-0.171-62.127-80.947c-3.559-4.67-10.278-5.58-14.977-1.965-4.67 3.588-5.552 10.307-1.965 14.977l62.127 80.947c7.147 9.339 17.34 14.691 27.959 14.691h0.057c10.62-0.028 20.813-5.409 27.931-14.777l61.756-81.288c3.559-4.698 2.648-11.389-2.050-14.948-1.936-1.48-4.214-2.164-6.434-2.164-3.217 0-6.406 1.452-8.513 4.214l-61.756 81.288-0.484 0.513v-177.895c59.422-29.924 100.365-91.282 100.365-162.178zM918.714-76.762c0 88.321-71.835 160.156-160.156 160.156-88.292 0-160.156-71.835-160.156-160.156 0-88.292 71.864-160.156 160.156-160.156s160.156 71.864 160.156 160.156zM764.623 10.875h-7.83c-0.57-11.616-9.481-21.098-21.098-21.098-7.033 0-11.902 2.705-15.403 6.748-0.284 0.284-5.695-3.787-5.695-9.994 0-4.043 1.338-7.033 4.328-9.994 3.53-3.53 8.912-5.409 15.432-5.409 8.655 0 15.688 4.043 20.016 9.994v-146.319h18.393v167.673c-0.057 5.438-2.762 8.399-8.143 8.399z" />
<glyph unicode="&#xe924;" glyph-name="shuffleL" d="M926.402 179.431c-1.936-1.48-4.214-2.164-6.463-2.164-3.217 0-6.406 1.452-8.513 4.214l-61.756 81.288-0.484 0.513v-208.787c0-75.822-61.699-137.492-137.521-137.492h-169.068c-75.822 0-137.492 61.699-137.492 137.492v125.078c0 5.894 4.784 10.677 10.677 10.677s10.677-4.784 10.677-10.677v-125.078c0-64.035 52.104-116.138 116.138-116.138h169.068c64.063 0 116.166 52.104 116.166 116.138v208.474l-0.171-0.171-62.127-80.947c-3.559-4.67-10.278-5.58-14.977-1.965-4.67 3.588-5.552 10.307-1.965 14.977l62.127 80.947c7.147 9.339 17.34 14.691 27.931 14.691h0.085c10.62-0.028 20.813-5.409 27.931-14.777l61.756-81.288c3.559-4.755 2.648-11.446-2.022-15.005zM313.337 420.619h169.097c64.035 0 116.138-52.104 116.138-116.138v-125.078c0-5.894 4.784-10.677 10.677-10.677s10.677 4.784 10.677 10.677v125.078c0 75.822-61.671 137.492-137.492 137.492h-169.097c-75.822 0-137.492-61.671-137.492-137.492v-208.787l-0.484 0.541-61.784 81.259c-3.559 4.698-10.278 5.609-14.948 2.050-4.698-3.559-5.609-10.278-2.050-14.977l61.756-81.259c7.118-9.367 17.311-14.777 27.959-14.777h0.028c10.62 0 20.813 5.353 27.959 14.691l62.127 80.947c3.588 4.67 2.705 11.389-1.965 14.977-4.698 3.616-11.389 2.705-14.977-1.965l-62.297-81.117v208.417c0 64.063 52.104 116.138 116.166 116.138z" />
<glyph unicode="&#xe925;" glyph-name="shuffle-off" d="M627.273 179.488h-64.916c-5.638 0-10.25 4.613-10.25 10.25v143.216c0 32.971-26.821 59.791-59.791 59.791h-193.611c-32.971 0-59.791-26.821-59.791-59.791v-153.579l49.456 0.114c10.136 0.028 13.581-6.691 7.659-14.92l-18.052-25.141-73.345-102.045c-4.441-6.178-11.73-6.178-16.201-0.028l-2.705 3.73-89.346 123.028c-5.951 8.2-2.534 14.948 7.602 14.948l49.484 0.114v153.75c0 80.064 65.145 145.209 145.209 145.209h193.611c80.064 0 145.209-65.145 145.209-145.209v-143.216c0.028-5.609-4.584-10.222-10.222-10.222zM889.559-197.57c-33.37-33.341-77.103-50.026-120.808-50.026-43.734 0-87.438 16.684-120.808 50.026-66.71 66.71-66.71 174.877 0 241.587 33.37 33.37 77.074 50.054 120.808 50.054 43.705 0 87.438-16.684 120.808-50.026 66.682-66.71 66.682-174.877 0-241.616zM809.010-76.762l37.498 37.498c11.104 11.104 11.104 29.155 0 40.259-5.552 5.552-12.841 8.342-20.13 8.342s-14.578-2.791-20.13-8.342l-37.498-37.498-37.498 37.498c-5.552 5.552-12.841 8.342-20.13 8.342s-14.578-2.791-20.13-8.342c-11.104-11.104-11.104-29.155 0-40.259l37.498-37.498-37.498-37.498c-11.104-11.104-11.104-29.155 0-40.259 5.552-5.552 12.841-8.342 20.13-8.342s14.578 2.791 20.13 8.342l37.498 37.498 37.47-37.47c5.552-5.552 12.841-8.342 20.13-8.342s14.578 2.791 20.13 8.342c11.133 11.104 11.133 29.155 0 40.259l-37.47 37.47zM532.687-33.769c-32.971 0-59.791 26.821-59.791 59.791v143.216c0 5.638-4.613 10.25-10.25 10.25h-64.916c-5.638 0-10.25-4.613-10.25-10.25v-143.216c0-80.064 65.145-145.209 145.209-145.209h26.934c-5.666 28.188-5.609 57.258 0.142 85.416h-27.077zM736.634 179.488l49.456 0.114v-43.677c30.266-2.42 59.251-11.104 85.416-25.511v69.359l49.484 0.114c10.136 0.028 13.553 6.748 7.602 14.948l-91.994 126.787c-4.47 6.15-11.759 6.15-16.201-0.028l-91.424-127.214c-5.922-8.2-2.477-14.92 7.659-14.891z" />
<glyph unicode="&#xe926;" glyph-name="shuffle-offL" d="M619.897 304.481v-125.078c0-5.894-4.784-10.677-10.677-10.677s-10.677 4.784-10.677 10.677v125.078c0 64.035-52.104 116.138-116.138 116.138h-169.097c-64.035 0-116.138-52.104-116.138-116.138v-208.446l0.171 0.171 62.127 80.947c3.559 4.698 10.278 5.58 14.977 1.965 4.67-3.588 5.552-10.278 1.965-14.977l-62.127-80.947c-7.147-9.339-17.34-14.691-27.931-14.691h-0.028c-10.648 0-20.841 5.409-27.959 14.777l-61.756 81.259c-3.559 4.698-2.648 11.389 2.050 14.977s11.389 2.648 14.948-2.050l61.756-81.259 0.484-0.541v208.816c0 75.822 61.671 137.492 137.492 137.492h169.097c75.793 0 137.464-61.671 137.464-137.492zM950.261-76.762c0-100.080-81.431-181.51-181.51-181.51-97.973 0-177.866 78.071-181.197 175.247h-44.986c-75.822 0-137.492 61.699-137.492 137.492v125.078c0 5.894 4.784 10.677 10.677 10.677s10.677-4.784 10.677-10.677v-125.078c0-64.035 52.104-116.138 116.138-116.138h45.413c7.716 93.019 85.759 166.421 180.742 166.421 20.699 0 40.516-3.645 59.080-10.079v168.271l-0.171-0.171-62.127-80.947c-3.559-4.67-10.278-5.58-14.977-1.965-4.67 3.588-5.552 10.307-1.965 14.977l62.127 80.947c7.147 9.339 17.34 14.691 27.931 14.691h0.085c10.62-0.028 20.813-5.409 27.931-14.777l61.756-81.288c3.559-4.698 2.648-11.389-2.050-14.948-1.936-1.48-4.214-2.164-6.463-2.164-3.217 0-6.406 1.452-8.513 4.214l-61.756 81.288-0.484 0.513v-177.553c59.848-29.753 101.134-91.339 101.134-162.52zM928.907-76.762c0 88.321-71.864 160.156-160.156 160.156-88.321 0-160.156-71.835-160.156-160.156 0-88.292 71.835-160.156 160.156-160.156 88.292 0 160.156 71.864 160.156 160.156zM783.841-76.762l56.46 56.489c4.157 4.157 4.157 10.934 0 15.091-4.185 4.157-10.934 4.157-15.091 0l-56.46-56.489-56.46 56.46c-4.157 4.157-10.934 4.157-15.091 0s-4.157-10.934 0-15.091l56.432-56.46-56.46-56.489c-4.157-4.157-4.157-10.934 0-15.091 2.078-2.078 4.812-3.132 7.545-3.132s5.466 1.053 7.545 3.132l56.489 56.489 56.46-56.46c2.078-2.078 4.812-3.132 7.545-3.132s5.466 1.053 7.545 3.132c4.157 4.185 4.157 10.934 0 15.091l-56.46 56.46z" />
<glyph unicode="&#xe927;" glyph-name="skip-track" d="M639.145 536.359h-135.129c-5.638 0-10.25-4.613-10.25-10.25v-93.389c0-5.638 4.613-10.25 10.25-10.25h135.129c88.606 0 160.697-72.091 160.697-160.697s-72.091-160.669-160.697-160.669h-297.592l0.114 80.007c0.028 15.034-9.937 20.13-22.123 11.36l-188.316-135.641c-9.14-6.577-9.168-17.368-0.028-23.973l7.573-5.466 180.4-130.66c12.158-8.798 22.152-3.73 22.152 11.303l0.114 79.209h297.735c151.387 0 274.586 123.171 274.586 274.558-0.057 151.387-123.228 274.558-274.615 274.558z" />
<glyph unicode="&#xe928;" glyph-name="skip-trackL" d="M867.435 261.801c0-125.904-102.415-228.319-228.291-228.319h-458.347c2.534-7.63 7.602-14.72 15.261-20.528l164.199-124.908c4.698-3.559 5.609-10.25 2.022-14.948-2.107-2.762-5.296-4.214-8.513-4.214-2.249 0-4.527 0.712-6.463 2.192l-164.199 124.908c-16.457 12.499-25.54 29.497-25.597 47.834-0.028 18.336 8.969 35.335 25.397 47.862l163.659 125.591c4.67 3.588 11.36 2.705 14.977-1.965 3.588-4.67 2.705-11.389-1.965-14.977l-163.63-125.62c-7.403-5.666-12.328-12.528-14.891-19.873h458.118c114.116 0 206.936 92.848 206.936 206.965s-92.848 206.936-206.936 206.936h-124.025c-5.894 0-10.677 4.784-10.677 10.677s4.784 10.677 10.677 10.677h124.025c125.847 0 228.262-102.415 228.262-228.291z" />
<glyph unicode="&#xe929;" glyph-name="straight-arrow" d="M883.267 197.938l-7.147 6.15-207.078 177.524c-15.773 13.524-28.672 7.573-28.672-13.183v-103.525h-487.018c-11.275 0-20.5-9.225-20.5-20.5v-129.834c0-11.275 9.225-20.5 20.5-20.5h486.99v-103.497c0-20.784 12.898-26.707 28.672-13.183l214.253 183.646c11.845 10.136 11.845 26.764 0 36.9z" />
<glyph unicode="&#xe92a;" glyph-name="straight-arrowL" d="M913.532 228.346l-164.199 124.908c-4.698 3.588-11.389 2.648-14.948-2.022-3.559-4.698-2.677-11.389 2.022-14.948l164.199-124.908c7.203-5.466 12.016-12.072 14.72-19.191h-825.524c-5.894 0-10.677-4.784-10.677-10.677s4.784-10.677 10.677-10.677h826.35c-2.391-7.887-7.573-15.204-15.432-21.212l-163.687-125.591c-4.67-3.616-5.552-10.307-1.965-14.977 2.107-2.734 5.267-4.157 8.456-4.157 2.278 0 4.555 0.712 6.491 2.192l163.687 125.591c16.372 12.556 25.369 29.554 25.341 47.891 0 18.308-9.054 35.277-25.511 47.777z" />
<glyph unicode="&#xe92b;" glyph-name="transform" d="M958.803 179.488c0-157.081-127.784-284.865-284.865-284.865h-167.645l-0.114-49.484c-0.028-10.136-6.748-13.553-14.977-7.602l-126.759 91.994c-6.15 4.47-6.15 11.759 0.028 16.201l127.185 91.453c8.228 5.922 14.948 2.477 14.92-7.659l-0.114-49.456h167.446c109.959 0 199.448 89.459 199.448 199.448 0 72.263-38.694 137.891-100.308 173.14l-12.186 6.378c-5.125 2.363-7.516 8.513-5.324 13.723l25.284 59.791c2.192 5.182 8.2 7.573 13.353 5.267l9.994-4.897c94.613-48.602 154.633-145.863 154.633-253.431zM351.063 378.936h167.446l-0.114-49.428c-0.028-10.136 6.691-13.581 14.92-7.659l127.185 91.453c6.178 4.441 6.178 11.73 0.028 16.201l-126.787 92.022c-8.2 5.951-14.948 2.534-14.948-7.602l-0.114-49.484h-167.616c-157.081-0.085-284.865-127.869-284.865-284.95 0-107.568 60.020-204.829 154.604-253.403l9.994-4.897c5.153-2.306 11.161 0.085 13.353 5.267l25.284 59.791c2.192 5.182-0.199 11.36-5.324 13.723 0 0-5.324 2.42-12.215 6.378-61.585 35.248-100.279 100.878-100.279 173.14 0 109.988 89.488 199.448 199.448 199.448z" />
<glyph unicode="&#xe92c;" glyph-name="transformL" d="M950.917 179.488c0-147.173-119.726-266.928-266.928-266.928l-239.281-0.114 80.975-62.127c4.67-3.616 5.58-10.307 1.965-14.977-2.107-2.734-5.267-4.157-8.484-4.157-2.278 0-4.555 0.712-6.491 2.192l-80.975 62.127c-9.339 7.175-14.691 17.368-14.663 28.016 0 10.62 5.381 20.813 14.777 27.931l81.288 61.784c4.698 3.559 11.389 2.648 14.977-2.050 3.559-4.67 2.648-11.389-2.050-14.948l-81.288-61.756-0.598-0.541h239.85c135.414 0 245.573 110.16 245.573 245.573s-110.16 245.573-245.573 245.573c-5.894 0-10.677 4.784-10.677 10.677s4.784 10.677 10.677 10.677c147.202-0.028 266.928-119.754 266.928-266.956zM594.615 463.47l-80.947 62.127c-4.67 3.588-11.389 2.705-14.977-1.965s-2.705-11.389 1.965-14.977l81.060-62.241h-239.395c-147.173 0-266.928-119.726-266.928-266.928 0-147.173 119.754-266.928 266.928-266.928 5.894 0 10.677 4.784 10.677 10.677s-4.784 10.677-10.677 10.677c-135.414 0-245.573 110.16-245.573 245.573s110.16 245.573 245.573 245.573h239.85l-0.598-0.541-81.259-61.756c-4.698-3.559-5.609-10.278-2.050-14.948 2.107-2.762 5.296-4.214 8.513-4.214 2.249 0 4.527 0.712 6.434 2.164l81.288 61.756c9.367 7.118 14.748 17.311 14.777 27.959 0.028 10.62-5.324 20.841-14.663 27.988z" />
<glyph unicode="&#xe92d;" glyph-name="ultra-fast-speed" d="M936.253 195.204l-8.513 5.239-231.821 142.276c-18.791 11.531-34.166 2.933-34.166-19.134v-51.591h-373.954c-11.788 0-21.354-9.566-21.354-21.354s9.566-21.354 21.354-21.354h157.31c7.859 0 14.236-6.378 14.236-14.236s-6.378-14.236-14.236-14.236h-249.132c-11.788 0-21.354-9.566-21.354-21.354s9.566-21.354 21.354-21.354h152.697c7.859 0 14.236-6.378 14.236-14.236s-6.378-14.236-14.236-14.236h-249.132c-11.788 0-21.354-9.566-21.354-21.354s9.566-21.354 21.354-21.354h562.156v-51.591c0-22.038 15.375-30.665 34.166-19.134l240.335 147.515c14.151 8.684 14.151 22.863 0.057 31.491z" />
<glyph unicode="&#xe92e;" glyph-name="ultra-fast-speedL" d="M945.108 180.57c0-16.343-10.165-31.205-28.643-41.883l-179.803-103.809c-10.534-6.065-20.87-9.14-30.466-9.14-7.232 0-14.037 1.737-20.13 5.267-14.151 8.172-21.952 24.401-21.952 45.755v34.509h-573.545c-5.894 0-10.677 4.784-10.677 10.677s4.784 10.677 10.677 10.677h584.279c2.847 0 5.552-1.139 7.545-3.132s3.132-4.727 3.132-7.545l-0.028-45.185c0-13.183 4.1-23.12 11.275-27.248 7.147-4.157 17.795-2.734 29.241 3.872l179.803 103.809c11.417 6.605 17.966 15.119 17.966 23.376s-6.548 16.798-17.966 23.376l-179.803 103.809c-11.417 6.605-22.066 8.001-29.241 3.872s-11.275-14.066-11.275-27.248v-43.99c0-5.894-4.784-10.677-10.677-10.677h-210.837c-5.894 0-10.677 4.784-10.677 10.677s4.784 10.677 10.677 10.677h200.159v33.313c0 21.326 7.802 37.584 21.952 45.755s32.116 6.777 50.595-3.872l179.803-103.809c18.45-10.648 28.615-25.54 28.615-41.883zM277.263 170.291h397.529c5.894 0 10.677 4.784 10.677 10.677s-4.784 10.677-10.677 10.677h-397.529c-5.894 0-10.677-4.784-10.677-10.677s4.784-10.677 10.677-10.677z" />
<glyph unicode="&#xe92f;" glyph-name="update-refresh-sync" d="M462.738-263.775l-4.96-2.017-163.703-66.096c-10.912-4.397-17.524 1.322-14.713 12.762l13.358 54.193c-117.213 58.293-208.571 161.521-250.53 287-82.033 245.273 39.148 510.384 271.89 611.793 13.391 5.82 29.989 11.805 29.989 11.805 6.15 2.215 12.896-1.058 14.979-7.274l23.905-71.486c2.083-6.216-1.256-13.127-7.406-15.375 0 0-15.078-5.488-27.609-11.176-182.384-82.992-276.618-292.688-211.713-486.842 31.179-93.275 96.548-171.208 180.896-219.185l13.424 54.424c2.811 11.44 11.374 13.457 18.98 4.463l117.71-138.705c5.721-6.779 3.704-14.979-4.496-18.285zM982.91 336.544c-41.926 125.48-133.283 228.707-250.53 287l13.358 54.193c2.811 11.44-3.803 17.194-14.713 12.762l-168.663-68.113c-8.2-3.306-10.217-11.506-4.496-18.252l117.71-138.705c7.604-8.994 16.169-6.977 18.98 4.463l13.391 54.424c84.38-48.010 149.716-125.91 180.896-219.185 64.905-194.155-29.329-403.883-211.713-486.842-12.531-5.688-27.609-11.176-27.609-11.176-6.15-2.248-9.489-9.159-7.406-15.342l23.905-71.486c2.083-6.216 8.829-9.489 14.979-7.274 0 0 16.631 5.985 29.989 11.805 232.774 101.31 353.923 366.455 271.923 611.727z" />
<glyph unicode="&#xe930;" glyph-name="update-refresh-syncL" d="M681.011-264.44l-4.681-0.888c-5.125 0-9.943 3.109-11.959 8.132-2.563 6.594 0.684 14.043 7.277 16.605 230.25 90.098 344.263 350.756 254.166 581.004-49.918 127.579-157.030 225.911-287.923 265.646l0.752-1.709 66.898-119.925c3.45-6.184 1.23-13.975-4.988-17.425l-6.218-1.606c-4.475 0-8.85 2.357-11.207 6.56l-66.898 119.925c-7.482 13.359-8.61 28.325-3.109 41s17.22 22.072 32.116 25.762l133.25 32.971c6.868 1.743 13.803-2.494 15.512-9.362s-2.494-13.803-9.362-15.512l-133.284-32.971-7.004-2.87c138.75-41.854 252.321-145.961 305.211-281.090 95.393-243.472-25.147-518.992-268.55-614.249zM333.262-117.934c-3.45 6.184-11.241 8.405-17.425 4.92-6.184-3.45-8.405-11.241-4.954-17.425l66.864-119.959 0.82-1.811c-132.6 40.146-237.493 136.77-287.957 265.783-90.098 230.25 23.916 490.907 254.2 581.004 6.594 2.563 9.84 10.011 7.277 16.605-2.563 6.628-10.011 9.84-16.605 7.277-243.404-95.257-363.977-370.811-268.687-614.215 53.437-136.598 164.547-238.893 305.040-281.192l-6.834-2.802-133.284-32.971c-6.868-1.709-11.070-8.644-9.362-15.512 1.435-5.843 6.663-9.738 12.437-9.738l3.075 0.375 133.25 32.971c14.897 3.69 26.616 13.086 32.116 25.762s4.339 27.607-3.143 40.966l-66.83 119.959z" />
<glyph unicode="&#xe931;" glyph-name="upload" d="M939.585 179.488c0-235.864-191.22-427.084-427.084-427.084s-427.084 191.22-427.084 427.084c0 235.864 191.22 427.084 427.084 427.084s427.084-191.22 427.084-427.084zM309.436 179.858h94.87v-224.817c0-9.994 8.172-18.166 18.166-18.166h180.030c9.994 0 18.166 8.172 18.166 18.166v224.817h94.87c22.351 0 28.728 13.866 14.179 30.835l-197.427 230.341c-10.905 12.727-28.757 12.727-39.662 0l-6.605-7.716-190.821-222.624c-14.492-16.941-8.115-30.835 14.236-30.835z" />
<glyph unicode="&#xe932;" glyph-name="uploadL" d="M528.587 422.356v-502.108c0-5.894-4.784-10.677-10.677-10.677s-10.677 4.784-10.677 10.677v501.482c-9.396-2.249-18.052-7.004-24.941-14.151l-141.45-145.635c-2.107-2.164-4.869-3.246-7.688-3.246-2.677 0-5.353 0.997-7.431 3.018-4.214 4.1-4.328 10.877-0.228 15.091l141.393 145.635c13.866 14.265 32.402 22.152 52.218 22.18h0.142c19.703 0 38.209-7.773 52.047-21.952l142.020-145.038c4.128-4.214 4.072-10.962-0.171-15.091-4.214-4.128-10.962-4.043-15.091 0.142l-142.020 145.066c-7.545 7.745-17.084 12.698-27.447 14.606zM512.5 617.334c-201.726 0-376.46-136.553-424.92-332.072-8.513-34.366-12.841-69.928-12.841-105.689 0-53.243 9.424-105.205 28.016-154.434 30.551-81.060 84.107-150.732 154.832-201.498 4.784-3.445 11.474-2.334 14.891 2.448 3.445 4.812 2.334 11.446-2.448 14.92-67.309 48.289-118.216 114.572-147.316 191.675-17.681 46.837-26.65 96.236-26.65 146.888 0 34.024 4.128 67.878 12.215 100.535 46.125 185.981 212.346 315.871 404.221 315.871 229.6 0 416.407-186.806 416.407-416.407 0-218.553-170.635-401.032-388.447-415.496-5.866-0.398-10.335-5.466-9.937-11.36 0.398-5.638 5.068-9.966 10.648-9.966l0.712 0.028c229.003 15.176 408.378 207.022 408.378 436.793 0 241.388-196.373 437.761-437.761 437.761z" />
<glyph unicode="&#xe933;" glyph-name="uniE933" d="M879.792 79.834l-293.264 566.597c-11.389 31.32-39.861 45.555-65.486 45.555s-54.097-19.93-65.486-45.555l-301.806-566.597c-19.93-39.861-19.93-79.722-5.695-105.347s39.861-39.861 65.486-39.861h99.653v-219.236c0-25.625 19.93-45.555 45.555-45.555h318.889c25.625 0 45.555 19.93 45.555 45.555v224.931h99.653c25.625 0 54.097 14.236 65.486 39.861 19.93 25.625 11.389 59.791-8.541 99.653z" />
<glyph unicode="&#xe934;" glyph-name="uniE934" d="M802.917 54.209c2.847-14.236-8.541-19.93-22.778-19.93h-133.82v-259.097c0-17.084-5.695-28.472-25.625-28.472l-207.847-2.847c-11.389 0-19.93 8.541-19.93 31.32v259.097h-145.209c-14.236 0-19.93 5.695-14.236 19.93l267.639 512.5c5.695 14.236 25.625 14.236 34.166 0l267.639-512.5z" />
<glyph unicode="&#xe935;" glyph-name="reminder-email" d="M740.279 230.738l-93.959 71.181c-2.847 2.847-5.695 2.847-8.541 0s-2.847-5.695 0-8.541l93.959-71.181c2.847-2.847 5.695-5.695 8.541-11.389h-105.347c-222.084 0-321.736-96.806-361.597-156.597-2.847-2.847 0-5.695 2.847-8.541s8.541 0 8.541 2.847c37.014 56.945 133.82 150.903 350.209 150.903h105.347c0-5.695-5.695-8.541-8.541-11.389l-91.111-71.181c-2.847-2.847-2.847-5.695 0-8.541 0-2.847 2.847-2.847 8.541 0l91.111 71.181c8.541 5.695 14.236 17.084 14.236 25.625s-5.695 19.93-14.236 25.625zM512.5 617.96c-202.153 0-375.834-136.666-424.236-333.125-8.541-34.166-14.236-71.181-14.236-105.347 0-54.097 8.541-105.347 28.472-153.75 31.32-79.722 85.416-150.903 153.75-202.153 5.695-2.847 11.389-2.847 14.236 2.847s2.847 11.389-2.847 14.236c-68.334 48.403-119.584 113.889-148.056 190.764-17.084 45.555-25.625 96.806-25.625 148.056 0 34.166 2.847 68.334 11.389 99.653 48.403 187.917 216.389 316.042 407.154 316.042 230.625 0 415.695-187.917 415.695-415.695 0-219.236-170.834-401.459-387.222-415.695-5.695 0-11.389-5.695-8.541-11.389 0-5.695 5.695-11.389 11.389-11.389 227.778 14.236 407.154 207.847 407.154 435.625 0 244.861-196.459 441.32-438.472 441.32z" />
<glyph unicode="&#xe936;" glyph-name="curved-arrow2" d="M91.111 193.724l150.903 108.195 37.014 25.625c11.389 8.541 22.778 2.847 22.778-11.389v-79.722h39.861c301.806 0 438.472-130.972 526.736-267.639 5.695-11.389 14.236-22.778 14.236-22.778 2.847-5.695 0-11.389-2.847-14.236l-79.722-48.403c-5.695-2.847-11.389 0-14.236 2.847 0 0-8.541 14.236-17.084 25.625-68.334 108.195-173.681 210.695-427.084 210.695h-39.861v-79.722c0-14.236-8.541-19.93-22.778-11.389l-37.014 25.625-108.195 76.875-37.014 25.625-5.695 2.847c-8.541 14.236-8.541 25.625 0 31.32z" />
<glyph unicode="&#xe937;" glyph-name="double-curved-arrow" d="M242.014 193.724l150.903 108.195 37.014 25.625c11.389 8.541 22.778 2.847 22.778-11.389v-79.722h39.861c216.389 0 353.056-130.972 441.32-267.639 5.695-11.389 14.236-22.778 14.236-22.778 2.847-5.695 0-11.389-2.847-14.236l-79.722-48.403c-5.695-2.847-11.389 0-14.236 2.847 0 0-8.541 14.236-17.084 25.625-68.334 108.195-170.834 210.695-341.667 210.695h-39.861v-79.722c0-14.236-8.541-19.93-22.778-11.389l-37.014 25.625-108.195 82.57-37.014 25.625-5.695 2.847c-8.541 8.541-8.541 19.93 0 25.625zM224.931 131.085l-5.695 2.847c-14.236 11.389-25.625 28.472-25.625 45.555s8.541 34.166 25.625 45.555l74.028 54.097v37.014c0 14.236-11.389 19.93-22.778 11.389l-37.014-25.625-150.903-108.195c-8.541-5.695-8.541-17.084 0-22.778l2.847-5.695 37.014-25.625 108.195-76.875 37.014-25.625c11.389-8.541 22.778-2.847 22.778 11.389v37.014l-31.32 22.778-34.166 22.778z" />
<glyph unicode="&#xe938;" glyph-name="skip-back" d="M54.097 168.099l45.555-14.236c51.25 122.431 170.834 202.153 304.654 202.153 122.431 0 230.625-68.334 287.57-167.986 51.25 91.111 145.209 156.597 256.25 167.986h22.778c5.695 0 11.389-5.695 11.389-11.389v-65.486c0-5.695-5.695-11.389-11.389-11.389 0 0-11.389 0-22.778-2.847-111.041-14.236-199.306-105.347-210.695-216.389v-17.084c0-5.695-5.695-11.389-11.389-11.389h-65.486c-5.695 0-11.389 5.695-11.389 11.389v14.236c-14.236 122.431-116.736 219.236-244.861 219.236-93.959 0-182.222-56.945-222.084-139.514l45.555-14.236c8.541-2.847 11.389-11.389 2.847-17.084l-25.625-19.93-99.653-76.875c-5.695-5.695-14.236-2.847-14.236 5.695l-2.847 5.695-14.236 56.945-22.778 62.639-11.389 28.472c0 8.541 5.695 14.236 14.236 11.389z" />
<glyph unicode="&#xe939;" glyph-name="skip-forward" d="M970.904 168.099l-45.555-14.236c-51.25 122.431-170.834 202.153-304.654 202.153-122.431 0-230.625-68.334-287.57-167.986-51.25 91.111-145.209 156.597-256.25 167.986h-22.778c-5.695 0-11.389-5.695-11.389-11.389v-65.486c0-5.695 5.695-11.389 11.389-11.389 0 0 11.389 0 22.778-2.847 111.041-14.236 199.306-105.347 210.695-216.389v-17.084c0-5.695 5.695-11.389 11.389-11.389h65.486c5.695 0 11.389 5.695 11.389 11.389v14.236c14.236 122.431 116.736 219.236 244.861 219.236 93.959 0 182.222-56.945 222.084-139.514l-45.555-14.236c-8.541-2.847-11.389-11.389-2.847-17.084l25.625-19.93 99.653-76.875c5.695-5.695 14.236-2.847 14.236 5.695l2.847 5.695 19.93 54.097 22.778 62.639 11.389 28.472c-5.695 11.389-11.389 17.084-19.93 14.236z" />
<glyph unicode="&#xe93a;" glyph-name="sort" d="M837.084 136.779l-125.278 242.014c-5.695 14.236-17.084 19.93-28.472 19.93s-22.778-8.541-28.472-19.93l-128.125-242.014c-8.541-17.084-8.541-34.166-2.847-45.555s17.084-17.084 28.472-17.084h42.709v-93.959c0-11.389 8.541-19.93 19.93-19.93h136.666c11.389 0 19.93 8.541 19.93 19.93v96.806h42.709c11.389 0 22.778 5.695 28.472 17.084s2.847 25.625-5.695 42.709zM794.376 116.849h-62.639v-111.041c0-2.847-2.847-5.695-5.695-5.695h-91.111c-2.847 0-5.695 2.847-5.695 5.695v111.041h-62.639c-5.695 0-8.541 2.847-5.695 8.541l113.889 219.236c2.847 5.695 5.695 5.695 8.541 0l113.889-219.236c5.695-5.695 2.847-8.541-2.847-8.541zM187.917 222.196l125.278-242.014c5.695-14.236 17.084-19.93 28.472-19.93s22.778 8.541 28.472 19.93l128.125 242.014c8.541 17.084 8.541 34.166 2.847 45.555s-17.084 17.084-28.472 17.084h-42.709v93.959c0 11.389-8.541 19.93-19.93 19.93h-133.82c-11.389 0-19.93-8.541-19.93-19.93v-96.806h-42.709c-11.389 0-22.778-5.695-28.472-17.084-8.541-11.389-5.695-25.625 2.847-42.709zM230.625 242.127h62.639v111.041c0 2.847 2.847 5.695 5.695 5.695h91.111c2.847 0 5.695-2.847 5.695-5.695v-111.041h62.639c5.695 0 8.541-2.847 5.695-8.541l-113.889-219.236c-2.847-5.695-5.695-5.695-8.541 0l-113.889 219.236c-5.695 5.695-2.847 8.541 2.847 8.541z" />
<glyph unicode="&#xe93b;" glyph-name="sort-ascending" d="M187.917 222.196l125.278-242.014c5.695-14.236 17.084-19.93 28.472-19.93s22.778 8.541 28.472 19.93l128.125 242.014c8.541 17.084 8.541 34.166 2.847 45.555s-17.084 17.084-28.472 17.084h-42.709v93.959c0 11.389-8.541 19.93-19.93 19.93h-133.82c-11.389 0-19.93-8.541-19.93-19.93v-96.806h-42.709c-11.389 0-22.778-5.695-28.472-17.084-8.541-11.389-5.695-25.625 2.847-42.709zM230.625 242.127h62.639v111.041c0 2.847 2.847 5.695 5.695 5.695h91.111c2.847 0 5.695-2.847 5.695-5.695v-111.041h62.639c5.695 0 8.541-2.847 5.695-8.541l-113.889-219.236c-2.847-5.695-5.695-5.695-8.541 0l-113.889 219.236c-5.695 5.695-2.847 8.541 2.847 8.541zM518.195 108.307l145.209 273.334 5.695 8.541c8.541 14.236 19.93 14.236 28.472 0l5.695-8.541 145.209-273.334c8.541-14.236 0-28.472-17.084-28.472h-68.334v-99.653c0-11.389-8.541-19.93-19.93-19.93h-116.736c-11.389 0-19.93 8.541-19.93 19.93v99.653h-68.334c-19.93 0-28.472 11.389-19.93 28.472z" />
<glyph unicode="&#xe93c;" glyph-name="sort-descending" d="M837.084 136.779l-125.278 242.014c-5.695 14.236-17.084 19.93-28.472 19.93s-22.778-8.541-28.472-19.93l-128.125-242.014c-8.541-17.084-8.541-34.166-2.847-45.555s17.084-17.084 28.472-17.084h42.709v-93.959c0-11.389 8.541-19.93 19.93-19.93h136.666c11.389 0 19.93 8.541 19.93 19.93v96.806h42.709c11.389 0 22.778 5.695 28.472 17.084s2.847 25.625-5.695 42.709zM794.376 116.849h-62.639v-111.041c0-2.847-2.847-5.695-5.695-5.695h-91.111c-2.847 0-5.695 2.847-5.695 5.695v111.041h-62.639c-5.695 0-8.541 2.847-5.695 8.541l113.889 219.236c2.847 5.695 5.695 5.695 8.541 0l113.889-219.236c5.695-5.695 2.847-8.541-2.847-8.541zM506.806 250.668l-142.361-270.486-5.695-8.541c-8.541-14.236-19.93-14.236-28.472 0l-5.695 8.541-145.209 273.334c-8.541 14.236 0 28.472 17.084 28.472h68.334v96.806c0 11.389 8.541 19.93 19.93 19.93h116.736c11.389 0 19.93-8.541 19.93-19.93v-99.653h68.334c17.084 0 25.625-11.389 17.084-28.472z" />
<glyph unicode="&#xe93d;" glyph-name="trending-down" d="M837.084-128.013l-2.847 8.541-37.014 233.472c-2.847 17.084-14.236 19.93-25.625 8.541l-59.791-59.791-429.931 432.779c-11.389 11.389-34.166 11.389-45.555 0l-39.861-39.861c-11.389-11.389-11.389-34.166 0-45.555l432.779-432.779-59.791-59.791c-11.389-11.389-8.541-22.778 8.541-25.625l48.403-8.541 196.459-31.32c8.541 0 17.084 8.541 14.236 19.93z" />
<glyph unicode="&#xe93e;" glyph-name="trending-up" d="M820.001 504.072l-8.541-2.847-233.472-37.014c-17.084 0-19.93-11.389-8.541-22.778l59.791-59.791-432.779-432.779c-11.389-11.389-11.389-34.166 0-45.555l39.861-39.861c11.389-11.389 34.166-11.389 45.555 0l432.779 432.779 59.791-59.791c11.389-11.389 22.778-8.541 25.625 8.541l8.541 48.403 31.32 196.459c0 8.541-8.541 17.084-19.93 14.236z" />
<glyph unicode="&#xe93f;" glyph-name="vertical-arrow" d="M495.417 549.627l-5.695-8.541-68.334-76.875-111.041-128.125c-14.236-17.084-8.541-28.472 14.236-28.472h102.5v-486.875c0-11.389 8.541-19.93 19.93-19.93h130.972c11.389 0 19.93 8.541 19.93 19.93v486.875h102.5c19.93 0 25.625 14.236 14.236 28.472l-185.070 213.542c-8.541 11.389-25.625 11.389-34.166 0z" />
<glyph unicode="&#xe940;" glyph-name="vertical-arrowL" d="M464.097 580.947l-125.278-165.139c-2.847-5.695-2.847-11.389 2.847-14.236s11.389-2.847 14.236 2.847l125.278 165.139c5.695 8.541 11.389 11.389 19.93 14.236v-825.695c0-5.695 5.695-11.389 11.389-11.389s11.389 5.695 11.389 11.389v825.695c8.541-2.847 14.236-8.541 19.93-14.236l125.278-162.291c2.847-5.695 11.389-5.695 14.236-2.847s2.847 5.695 2.847 8.541c0 2.847 0 5.695-2.847 5.695l-125.278 162.291c-11.389 17.084-28.472 25.625-45.555 25.625-19.93 0-37.014-8.541-48.403-25.625z" />
<glyph unicode="&#xe941;" glyph-name="vertical-arrow-down" d="M529.584-190.652l5.695 8.541 68.334 79.722 111.041 128.125c14.236 17.084 8.541 28.472-14.236 28.472h-102.5v484.029c0 11.389-8.541 19.93-19.93 19.93h-130.972c-11.389 0-19.93-8.541-19.93-19.93v-486.875h-102.5c-19.93 0-25.625-14.236-14.236-28.472l185.070-213.542c8.541-11.389 25.625-11.389 34.166 0z" />
</font>
</defs>
</svg>
