<?xml version="1.0" standalone="no"?>
<!DOCTYPE svg PUBLIC "-//W3C//DTD SVG 1.1//EN" "http://www.w3.org/Graphics/SVG/1.1/DTD/svg11.dtd" >
<svg xmlns="http://www.w3.org/2000/svg">
<metadata>Generated by IcoMoon</metadata>
<defs>
<font id="icoPrimary" horiz-adv-x="1024">
<font-face units-per-em="1024" ascent="716.8" descent="-307.2" />
<missing-glyph horiz-adv-x="1024" />
<glyph unicode="&#x20;" horiz-adv-x="174.08" d="" />
<glyph unicode="&#xe900;" glyph-name="windyL" d="M528.441 267.207h-298.041c-5.888 0-10.667 4.779-10.667 10.667s4.779 10.667 10.667 10.667l370.916 0.057c52.196 0 94.663 42.468 94.663 94.692 0 52.196-42.468 94.663-94.663 94.663-26.88 0-52.622-11.492-70.514-31.516-3.925-4.38-10.667-4.779-15.047-0.825-4.38 3.925-4.75 10.667-0.825 15.047 21.959 24.548 53.476 38.628 86.414 38.628 63.972 0 115.996-52.053 115.996-115.996 0-63.972-52.025-116.025-115.996-116.025l-72.903-0.057zM542.208-105.045c46.82 0 84.878 38.059 84.878 84.878s-38.059 84.907-84.878 84.907l-311.78 0.028c-5.888 0-10.667-4.779-10.667-10.667s4.779-10.667 10.667-10.667l311.78-0.028c35.015 0 63.545-28.53 63.545-63.573s-28.53-63.545-63.545-63.545c-18.062 0-35.3 7.708-47.36 21.163-3.925 4.38-10.667 4.779-15.076 0.825-4.38-3.897-4.75-10.667-0.825-15.047 16.1-17.977 39.168-28.274 63.26-28.274zM745.7 151.524c32.284 0 58.567 26.254 58.567 58.567 0 32.284-26.254 58.567-58.567 58.567-16.64 0-32.54-7.111-43.634-19.513-3.954-4.38-3.556-11.15 0.825-15.047 4.38-3.954 11.15-3.556 15.047 0.825 7.054 7.851 17.152 12.373 27.733 12.373 20.508 0 37.234-16.697 37.234-37.234s-16.697-37.234-37.234-37.234h-515.243c-5.888 0-10.667-4.779-10.667-10.667s4.779-10.667 10.667-10.667l515.271 0.028zM542.208-112.156c-26.112 0-51.086 11.179-68.551 30.635-3.186 3.584-4.779 8.164-4.494 12.914s2.361 9.074 5.916 12.231c6.997 6.229 18.802 5.575 25.088-1.422 10.724-11.947 26.055-18.802 42.069-18.802 31.118 0 56.434 25.344 56.434 56.434 0 31.147-25.344 56.462-56.434 56.462l-311.751 0.028c-9.813 0-17.778 7.964-17.778 17.778s7.964 17.778 17.778 17.778l311.751-0.028c50.716 0 91.989-41.273 91.989-92.018-0.028-50.716-41.301-91.989-92.018-91.989zM486.884-66.105l-2.361-0.91-1.195-2.418 0.91-2.617c14.734-16.441 35.868-25.884 57.941-25.884 42.894 0 77.767 34.901 77.767 77.767s-34.901 77.796-77.767 77.796l-311.751 0.028c-1.963 0-3.556-1.593-3.556-3.556s1.593-3.556 3.556-3.556l311.751-0.028c38.969 0 70.656-31.716 70.656-70.684s-31.687-70.656-70.656-70.656c-20.053 0-39.225 8.59-52.651 23.524l-2.645 1.195zM712.533 144.384h-482.105c-9.813 0-17.778 7.964-17.778 17.778s7.964 17.778 17.778 17.778h515.243c16.612 0 30.151 13.511 30.151 30.123s-13.54 30.123-30.151 30.123c-8.562 0-16.725-3.641-22.414-10.012-6.343-6.997-18.119-7.68-25.116-1.337-3.527 3.129-5.632 7.481-5.888 12.231-0.284 4.75 1.337 9.33 4.523 12.857 12.459 13.881 30.265 21.874 48.924 21.874 36.21 0 65.707-29.468 65.707-65.678s-29.468-65.678-65.707-65.678l-33.166-0.057zM230.428 165.717c-1.963 0-3.556-1.593-3.556-3.556s1.593-3.556 3.556-3.556l515.271 0.028c28.388 0 51.484 23.097 51.484 51.456s-23.097 51.456-51.484 51.456c-14.62 0-28.587-6.258-38.343-17.152l-0.91-2.532 1.166-2.418c1.707-1.536 3.129-1.877 5.035 0.256 8.42 9.358 20.452 14.734 33.024 14.734 24.462 0 44.373-19.883 44.373-44.345 0-24.434-19.883-44.345-44.373-44.345h-515.243zM528.441 260.096h-298.041c-9.813 0-17.778 7.964-17.778 17.778s7.964 17.778 17.778 17.778l370.916 0.057c48.27 0 87.552 39.282 87.552 87.58 0 48.27-39.282 87.552-87.552 87.552-24.889 0-48.64-10.638-65.195-29.156-6.286-7.026-18.119-7.708-25.116-1.365-7.253 6.514-7.879 17.778-1.365 25.060 23.324 26.055 56.747 40.988 91.705 40.988 67.897 0 123.108-55.211 123.108-123.108s-55.211-123.136-123.108-123.136l-72.903-0.028zM601.316 485.063c56.121 0 101.774-45.653 101.774-101.774 0-56.149-45.653-101.803-101.774-101.803l-370.916-0.057c-1.963 0-3.556-1.593-3.556-3.556s1.593-3.556 3.556-3.556l370.944 0.057c60.018 0 108.885 48.868 108.885 108.914s-48.868 108.885-108.885 108.885c-30.919 0-60.501-13.227-81.124-36.267-1.308-1.451-1.166-3.698 0.284-5.006 1.65-1.451 3.129-1.849 5.006 0.284 19.228 21.532 46.876 33.877 75.804 33.877z" />
<glyph unicode="&#xe901;" glyph-name="windy" d="M477.355 249.287h-327.822c-19.627 0-35.556 15.929-35.556 35.556s15.929 35.556 35.556 35.556l407.979 0.057c44.316 0 80.356 36.039 80.356 80.299s-36.039 80.327-80.327 80.327c-22.812 0-44.629-9.756-59.819-26.738-13.113-14.62-35.584-15.872-50.204-2.759-14.62 13.084-15.872 35.584-2.788 50.204 28.7 32.057 69.803 50.432 112.811 50.432 83.513 0 151.438-67.925 151.438-151.438s-67.925-151.41-151.438-151.41l-80.185-0.085zM609.707-43.008c0 64.626-52.565 117.22-117.163 117.22l-343.012 0.028c-19.627 0-35.556-15.929-35.556-35.556s15.929-35.556 35.556-35.556l342.983-0.028c25.401 0 46.080-20.679 46.080-46.108 0-25.401-20.679-46.080-46.080-46.080-13.084 0-25.6 5.604-34.304 15.36-13.113 14.649-35.584 15.9-50.204 2.788-14.62-13.084-15.872-35.556-2.788-50.204 22.215-24.804 54.016-39.054 87.324-39.054 64.597 0 117.163 52.565 117.163 117.191zM807.14 126.236c56.718 0 102.855 46.165 102.855 102.884s-46.137 102.884-102.855 102.884c-29.241 0-57.173-12.487-76.658-34.247-13.084-14.62-11.861-37.12 2.788-50.204 14.62-13.113 37.12-11.861 50.204 2.788 6.087 6.827 14.507 10.581 23.666 10.581 17.522 0 31.744-14.251 31.744-31.772s-14.222-31.772-31.772-31.772l-657.579-0.057c-19.627 0-35.556-15.929-35.556-35.556s15.929-35.556 35.556-35.556l657.607 0.028z" />
<glyph unicode="&#xe902;" glyph-name="weatherL" d="M750.905 182.784c-3.015 0-6.002 1.252-8.107 3.726-3.84 4.466-3.328 11.207 1.166 15.047 33.82 28.985 53.22 71.111 53.22 115.541 0 54.13-29.156 104.647-76.117 131.783-46.194 26.738-106.069 26.709-152.206 0-21.077-12.174-39.14-29.468-52.281-50.005-3.157-4.949-9.785-6.4-14.734-3.243-4.949 3.186-6.4 9.785-3.243 14.734 14.962 23.381 35.556 43.093 59.563 56.974 52.622 30.464 120.917 30.464 173.568 0 53.532-30.948 86.784-88.519 86.784-150.244 0-50.66-22.101-98.674-60.672-131.726-1.991-1.764-4.466-2.588-6.94-2.588zM654.336 543.232v70.514c0 5.888-4.779 10.667-10.667 10.667s-10.667-4.779-10.667-10.667v-70.514c0-5.888 4.779-10.667 10.667-10.667s10.667 4.779 10.667 10.667zM949.959 318.549c0 5.888-4.779 10.667-10.667 10.667h-70.969c-5.888 0-10.667-4.779-10.667-10.667s4.779-10.667 10.667-10.667h70.969c5.888 0 10.667 4.779 10.667 10.667zM492.316 469.902c4.153 4.153 4.153 10.923 0 15.076l-49.010 48.981c-4.153 4.181-10.923 4.181-15.076 0-4.153-4.153-4.153-10.923 0-15.076l49.010-48.981c2.076-2.076 4.807-3.129 7.538-3.129s5.461 1.024 7.538 3.129zM860.473 101.717c4.153 4.153 4.153 10.923 0 15.076l-50.375 50.375c-4.153 4.153-10.923 4.153-15.076 0s-4.153-10.923 0-15.076l50.404-50.375c2.076-2.076 4.807-3.129 7.538-3.129s5.433 1.052 7.509 3.129zM810.098 469.902l49.721 49.692c4.153 4.153 4.153 10.923 0 15.076-4.181 4.153-10.923 4.153-15.076 0l-49.721-49.692c-4.153-4.181-4.153-10.923 0-15.076 2.076-2.076 4.807-3.129 7.538-3.129s5.461 1.024 7.538 3.129zM726.471 79.417c0 52.935-35.698 98.219-86.13 111.076-0.939 61.070-50.916 110.45-112.213 110.45l-11.179-0.597c-26.112 61.895-87.324 102.912-154.965 102.912-57.543 0-110.507-28.928-141.682-77.369-3.186-4.949-1.764-11.548 3.214-14.734 4.949-3.186 11.548-1.735 14.734 3.214 27.221 42.325 73.5 67.584 123.762 67.584 61.582 0 117.077-38.969 138.098-96.939 1.764-4.864 6.827-7.765 11.89-6.855 5.717 1.024 11.008 1.508 16.156 1.508 50.119 0 90.908-40.761 90.908-90.88l-0.228-3.356-0.256-2.645c-0.398-5.49 3.442-10.382 8.875-11.292 45.056-7.623 77.739-46.308 77.739-92.046 0-51.513-41.899-93.412-93.412-93.412h-388.352c-70.258 0-127.431 57.173-127.431 127.431s57.173 127.431 127.431 127.431c20.679 0 41.216-5.063 59.392-14.649 5.205-2.731 11.662-0.74 14.421 4.466s0.74 11.662-4.466 14.421c-21.22 11.179-45.198 17.095-69.348 17.095-82.034 0-148.764-66.731-148.764-148.764s66.731-148.764 148.764-148.764h388.267c63.289-0.028 114.773 51.428 114.773 114.716z" />
<glyph unicode="&#xe903;" glyph-name="weather" d="M613.035 545.792v65.308c0 16.441 13.34 29.781 29.781 29.781s29.781-13.34 29.781-29.781v-65.337c0-16.441-13.34-29.781-29.781-29.781-16.469 0.028-29.781 13.34-29.781 29.81zM873.244 289.166h65.337c16.441 0 29.781 13.34 29.781 29.781s-13.34 29.781-29.781 29.781h-65.337c-16.441 0-29.781-13.34-29.781-29.781s13.34-29.781 29.781-29.781zM481.65 447.744c7.623 0 15.246 2.901 21.049 8.732 11.634 11.634 11.634 30.492 0 42.098l-46.165 46.222c-11.634 11.634-30.492 11.634-42.126 0s-11.634-30.492 0-42.098l46.194-46.194c5.831-5.831 13.426-8.761 21.049-8.761zM853.76 80.754c7.623 0 15.246 2.901 21.049 8.732 11.634 11.634 11.634 30.492 0 42.126l-46.194 46.194c-11.634 11.634-30.492 11.634-42.126 0s-11.634-30.492 0-42.098l46.194-46.194c5.831-5.831 13.454-8.761 21.077-8.761zM805.006 450.304c7.623 0 15.246 2.901 21.049 8.732l46.194 46.194c11.634 11.634 11.634 30.492 0 42.098-11.634 11.634-30.492 11.634-42.098 0l-46.194-46.194c-11.634-11.634-11.634-30.492 0-42.126 5.803-5.803 13.426-8.704 21.049-8.704zM363.435 393.7c-82.375 0-150.044-62.834-157.753-143.161-63.63-8.505-113.607-59.932-119.666-124.302l-0.683-11.321 0.057-0.91-0.057-0.939c0-76.686 62.18-138.837 138.837-138.837h390.343c57.771 0 104.619 46.848 104.619 104.619 0 51.797-37.66 94.692-87.097 103.054l0.512 6.884c0 56.377-45.71 102.087-102.116 102.087-6.201 0-12.26-0.626-18.119-1.678-22.073 60.928-80.356 104.505-148.878 104.505zM538.937 333.284c67.413-3.897 122.596-54.158 134.116-119.268 20.366-8.761 38.172-21.902 52.395-38.172 48.981 28.075 82.091 80.782 82.091 141.284 0 89.97-72.932 162.901-162.901 162.901-65.536 0-121.884-38.798-147.74-94.578 16.64-14.791 30.919-32.37 42.041-52.167z" />
<glyph unicode="&#xe904;" glyph-name="temperatureL" d="M673.564 384.54c5.888 0 10.667 4.779 10.667 10.667s-4.779 10.667-10.667 10.667h-71.908l-0.142 93.924h72.078c5.888 0 10.667 4.779 10.667 10.667s-4.779 10.667-10.667 10.667h-72.107l-0.028 17.18c0 49.124-40.050 89.088-89.287 89.088-48.924 0-88.718-39.851-88.718-89.401v-473.088c-48.725-30.692-78.763-84.708-78.763-142.45 0-93.042 75.548-168.732 168.448-168.732s168.448 75.691 168.448 168.732c0 57.884-30.265 112.014-79.36 142.82l-0.142 88.718h71.509c5.888 0 10.667 4.779 10.667 10.667s-4.779 10.667-10.667 10.667h-71.538l-0.142 93.924h71.708c5.888 0 10.667 4.779 10.667 10.667s-4.779 10.667-10.667 10.667h-71.708l-0.171 93.924h71.822zM660.224-77.511c0-81.266-65.991-147.399-147.115-147.399s-147.115 66.133-147.115 147.399c0 52.224 28.132 100.978 73.444 127.204 3.3 1.906 5.319 5.433 5.319 9.244v479.659c0 37.205 30.236 67.47 67.385 67.47 37.461 0 67.954-30.407 67.954-67.783l0.768-479.061c0-3.812 2.048-7.339 5.348-9.216 45.653-26.311 74.012-75.179 74.012-127.516zM523.89 18.404v315.42c0 5.888-4.779 10.667-10.667 10.667s-10.667-4.779-10.667-10.667v-315.392c-47.986-5.262-85.447-46.023-85.447-95.374 0-52.935 43.065-96 96-96s96 43.065 96 96c0 49.294-37.348 89.97-85.22 95.346zM513.109-151.609c-41.188 0-74.667 33.508-74.667 74.667s33.508 74.667 74.667 74.667 74.667-33.508 74.667-74.667c0-41.188-33.508-74.667-74.667-74.667z" />
<glyph unicode="&#xe905;" glyph-name="temperature" d="M554.325 0.427c27.051-14.194 45.34-42.724 45.34-75.406 0-47.104-38.201-85.333-85.333-85.333s-85.333 38.229-85.333 85.333c0 32.114 17.721 60.103 43.947 74.667 4.124 2.276 13.028 8.021 13.028 18.603v303.275c0 15.701 12.743 28.444 28.444 28.444s28.444-12.743 28.444-28.444v-303.275c0.028-9.7 6.343-15.189 11.463-17.863zM700.558-75.52c0 51.769-21.447 100.494-59.278 135.765l-0.74 459.804c0 70.087-57.116 127.118-127.346 127.118-69.831 0-126.606-56.86-126.606-127.46v-460.174c-37.319-35.1-58.453-83.57-58.453-135.054 0-102.855 83.541-186.51 186.226-186.51 102.656-0.028 186.197 83.655 186.197 186.51zM583.652 520.021l0.768-472.832c0-8.619 3.925-16.725 10.638-22.13 30.919-24.86 48.64-61.525 48.64-100.608 0-71.481-58.027-129.621-129.337-129.621s-129.337 58.14-129.337 129.621c0 38.912 17.465 75.378 47.929 100.068 6.656 5.404 10.524 13.54 10.524 22.101v473.799c0 38.514 31.289 69.86 69.717 69.86 38.827 0 70.457-31.516 70.457-70.258z" />
<glyph unicode="&#xe906;" glyph-name="stormL" d="M721.92 93.554h-26.596c-5.888 0-10.667 4.779-10.667 10.667s4.779 10.667 10.667 10.667h26.596c51.484 0 93.412 41.899 93.412 93.412 0 45.739-32.683 84.452-77.739 92.046-5.404 0.91-9.244 5.774-8.875 11.236l0.228 2.788 0.228 3.271c0 50.091-40.789 90.88-90.88 90.88-5.12 0-10.553-0.512-16.156-1.508-5.262-0.91-10.126 1.991-11.89 6.855-21.020 57.998-76.516 96.939-138.098 96.939-50.261 0-96.512-25.259-123.733-67.584-3.214-4.978-9.813-6.372-14.734-3.214-4.949 3.186-6.4 9.785-3.214 14.734 31.175 48.441 84.139 77.369 141.682 77.369 67.612 0 128.825-41.017 154.965-102.912l11.179 0.597c61.298 0 111.275-49.38 112.213-110.45 50.46-12.857 86.13-58.14 86.13-111.104 0.028-63.232-51.456-114.688-114.716-114.688zM365.653 104.22c0 5.888-4.779 10.667-10.667 10.667h-21.333c-8.078 0-16.128 0.74-23.95 2.247-59.961 11.406-103.481 64.057-103.481 125.212 0 70.258 57.173 127.46 127.46 127.46 20.679 0 41.216-5.063 59.392-14.649 5.234-2.731 11.662-0.768 14.421 4.466 2.731 5.205 0.74 11.662-4.466 14.421-21.276 11.15-45.255 17.067-69.376 17.067-82.034 0-148.793-66.731-148.793-148.793 0-71.396 50.83-132.836 120.832-146.148 9.131-1.764 18.546-2.617 27.932-2.617h21.333c5.916 0 10.695 4.779 10.695 10.667zM450.304-136.306l190.521 235.264c2.588 3.186 3.1 7.595 1.337 11.321-1.792 3.698-5.518 6.059-9.614 6.059h-0.028l-91.591-0.228 51.826 176.498c1.422 4.892-0.768 10.098-5.291 12.459-4.494 2.361-10.041 1.223-13.255-2.731l-190.492-235.264c-2.588-3.186-3.1-7.595-1.337-11.292s5.49-6.059 9.614-6.087l91.193-0.171-51.428-176.1c-1.422-4.864 0.796-10.069 5.291-12.43l4.949-1.223c3.157-0.028 6.229 1.365 8.306 3.925zM557.255 247.438l-40.846-139.065c-0.939-3.214-0.313-6.713 1.707-9.387s5.177-4.267 8.533-4.267h0.028l83.456 0.199-142.99-176.555 40.533 138.752c0.939 3.214 0.313 6.684-1.707 9.387-2.020 2.674-5.177 4.267-8.533 4.267l-83.086 0.171 142.905 176.498z" />
<glyph unicode="&#xe907;" glyph-name="storm" d="M541.952 309.732l4.978-1.223c4.551-2.361 6.77-7.623 5.319-12.544l-51.513-175.417 90.908 0.228c2.93-0.228 5.945-1.451 8.021-3.641l1.678-2.446c1.792-3.755 1.28-8.192-1.337-11.406l-189.497-234.041c-2.076-2.588-5.205-3.954-8.334-3.954l-4.978 1.223c-4.523 2.361-6.77 7.623-5.319 12.516l51.086 175.019-90.539 0.199c-4.153 0-7.879 2.389-9.671 6.116s-1.252 8.164 1.337 11.378l189.468 234.041c2.133 2.588 5.234 3.954 8.391 3.954zM741.803 331.947l0.512 6.884c0 56.377-45.71 102.087-102.087 102.087-6.201 0-12.26-0.626-18.148-1.678-22.073 60.956-80.384 104.533-148.907 104.533-82.375 0-150.016-62.834-157.753-143.161-63.602-8.505-113.607-59.932-119.666-124.302l-0.654-11.321 0.057-0.91-0.057-0.967c0-75.975 61.042-137.614 136.761-138.752l15.844 19.598 152.69 188.587c10.183 12.601 25.316 19.854 41.529 19.854 8.647 0 17.237-2.133 24.775-6.087 22.5-11.776 33.65-38.002 26.482-62.379l-35.413-120.604 35.385 0.085 1.621-0.114c13.852-1.024 26.652-7.054 36.096-17.124 3.755-4.011 6.798-8.505 8.96-13.113l3.186-8.818h81.266c57.771 0 104.619 46.848 104.619 104.619 0 51.854-37.66 94.748-87.097 103.083z" />
<glyph unicode="&#xe908;" glyph-name="snowmix" d="M436.992-210.916c-3.243 0-6.514 0.569-9.728 1.735-14.763 5.376-22.386 21.703-17.010 36.437l78.649 216.178c5.376 14.791 21.76 22.357 36.466 17.010 14.763-5.376 22.386-21.675 17.010-36.437l-78.649-216.178c-4.21-11.577-15.132-18.745-26.738-18.745zM658.347-57.401l29.611 81.351c5.348 14.763-2.247 31.090-17.010 36.437-14.706 5.348-31.090-2.219-36.466-17.010l-29.611-81.351c-5.348-14.763 2.247-31.090 17.010-36.437 3.214-1.166 6.485-1.735 9.728-1.735 11.605 0.028 22.528 7.196 26.738 18.745zM322.788-192.199l29.355 80.697c5.348 14.763-2.247 31.090-17.010 36.437-14.706 5.348-31.090-2.219-36.466-17.010l-29.355-80.697c-5.348-14.763 2.247-31.090 17.010-36.437 3.214-1.166 6.485-1.735 9.728-1.735 11.605 0.028 22.528 7.196 26.738 18.745zM640.484-160.711l-15.019 8.676 15.019 8.676c8.505 4.921 11.406 15.787 6.514 24.292-4.921 8.505-15.787 11.435-24.292 6.514l-15.047-8.676v17.38c0 9.813-7.964 17.778-17.778 17.778s-17.778-7.964-17.778-17.778v-17.351l-15.019 8.676c-8.533 4.921-19.371 1.991-24.292-6.514-4.892-8.505-1.991-19.371 6.514-24.292l15.047-8.676-15.047-8.704c-8.505-4.921-11.406-15.787-6.514-24.292 3.3-5.689 9.273-8.903 15.417-8.903 3.015 0 6.059 0.768 8.875 2.389l15.019 8.676v-17.351c0-9.813 7.964-17.778 17.778-17.778s17.778 7.964 17.778 17.778v17.38l15.047-8.676c2.816-1.621 5.86-2.389 8.875-2.389 6.144 0 12.117 3.186 15.417 8.903 4.921 8.476 1.991 19.342-6.514 24.263zM403.029 5.717l-15.047 8.676 15.047 8.676c8.505 4.921 11.406 15.787 6.514 24.292-4.921 8.505-15.787 11.406-24.292 6.514l-15.047-8.676v17.38c0 9.813-7.964 17.778-17.778 17.778s-17.778-7.964-17.778-17.778v-17.351l-15.019 8.676c-8.505 4.892-19.371 1.991-24.292-6.514-4.892-8.505-1.991-19.371 6.514-24.292l15.047-8.676-15.047-8.676c-8.505-4.921-11.406-15.787-6.514-24.292 3.3-5.717 9.273-8.903 15.417-8.903 3.015 0 6.059 0.768 8.875 2.389l15.019 8.676v-17.351c0-9.813 7.964-17.778 17.778-17.778s17.778 7.964 17.778 17.778v17.351l15.047-8.676c2.816-1.621 5.86-2.389 8.875-2.389 6.144 0 12.117 3.186 15.417 8.903 4.892 8.476 1.991 19.342-6.514 24.263zM741.803 331.947l0.512 6.884c0 56.377-45.71 102.087-102.087 102.087-6.201 0-12.26-0.654-18.148-1.678-22.073 60.956-80.384 104.533-148.907 104.533-82.375 0-150.016-62.834-157.753-143.161-63.602-8.505-113.607-59.932-119.666-124.302l-0.654-11.321 0.057-0.91-0.057-0.91c0-76.686 62.18-138.837 138.837-138.837h390.343c57.771 0 104.619 46.848 104.619 104.619 0 51.769-37.66 94.663-87.097 102.997z" />
<glyph unicode="&#xe909;" glyph-name="snowL" d="M613.063-94.436c-1.963-3.413-5.547-5.348-9.244-5.348l-5.319 1.422-75.833 43.776v-83.058c0-5.888-4.779-10.667-10.667-10.667s-10.667 4.779-10.667 10.667v83.058l-75.833-43.776c-5.12-2.958-11.634-1.195-14.564 3.897s-1.195 11.634 3.897 14.564l86.5 49.948v215.78l-186.852 107.89-86.5-49.948-5.319-1.422c-3.698 0-7.282 1.906-9.244 5.348-2.958 5.092-1.195 11.634 3.897 14.564l75.833 43.776-71.936 41.529c-5.092 2.958-6.855 9.472-3.897 14.564 2.93 5.092 9.444 6.855 14.564 3.897l71.936-41.529v87.552c0 5.888 4.779 10.667 10.667 10.667s10.667-4.779 10.667-10.667v-99.868l186.852-107.861 186.852 107.89v99.868c0 5.888 4.779 10.667 10.667 10.667s10.667-4.779 10.667-10.667v-87.552l71.936 41.529c5.12 2.958 11.634 1.195 14.564-3.897 2.958-5.092 1.195-11.634-3.897-14.564l-71.936-41.529 75.833-43.776c5.092-2.93 6.855-9.472 3.897-14.564-1.963-3.413-5.547-5.348-9.244-5.348l-5.319 1.422-86.5 49.948-186.852-107.89v-215.78l86.5-49.948c5.092-2.93 6.827-9.472 3.897-14.564zM414.834 463.844l86.5-49.948v-136.562c0-5.888 4.779-10.667 10.667-10.667s10.667 4.779 10.667 10.667v136.59l86.5 49.948c5.092 2.958 6.855 9.472 3.897 14.564-2.93 5.092-9.444 6.855-14.564 3.897l-75.833-43.776v83.058c0 5.888-4.779 10.667-10.667 10.667s-10.667-4.779-10.667-10.667v-83.058l-75.833 43.776c-5.12 2.958-11.634 1.195-14.564-3.897-2.93-5.12-1.195-11.634 3.897-14.592zM796.018 140.203l-86.471-49.948-118.3 68.295c-5.12 2.958-11.634 1.195-14.564-3.897s-1.195-11.634 3.897-14.564l118.3-68.295v-99.868c0-5.888 4.779-10.667 10.667-10.667s10.667 4.779 10.667 10.667v87.552l71.936-41.529 5.319-1.422c3.698 0 7.282 1.906 9.244 5.348 2.958 5.092 1.195 11.634-3.897 14.564l-71.936 41.529 75.833 43.776c5.092 2.958 6.855 9.472 3.897 14.564s-9.5 6.855-14.592 3.897zM447.317 154.652c-2.93 5.092-9.444 6.855-14.564 3.897l-118.3-68.295-86.471 49.948c-5.12 2.958-11.634 1.195-14.564-3.897-2.958-5.092-1.195-11.634 3.897-14.564l75.833-43.776-71.936-41.529c-5.092-2.958-6.855-9.472-3.897-14.564 1.963-3.413 5.547-5.348 9.244-5.348l5.319 1.422 71.936 41.529v-87.552c0-5.888 4.779-10.667 10.667-10.667s10.667 4.779 10.667 10.667v99.868l118.3 68.295c5.092 2.958 6.827 9.472 3.868 14.564z" />
<glyph unicode="&#xe90a;" glyph-name="snow" d="M825.97 145.18c-7.851 13.596-25.259 18.29-38.855 10.411l-77.596-44.8-140.629 81.209 140.629 81.18 77.596-44.8c4.494-2.588 9.358-3.812 14.194-3.812 9.842 0 19.399 5.092 24.661 14.222 7.851 13.596 3.186 31.004-10.411 38.855l-49.152 28.388 45.255 26.14c13.596 7.851 18.261 25.259 10.411 38.855s-25.23 18.261-38.855 10.411l-45.284-26.14v56.775c0 15.701-12.743 28.444-28.444 28.444s-28.444-12.743-28.444-28.444v-89.6l-140.601-81.209v162.389l77.596 44.8c13.596 7.851 18.261 25.259 10.411 38.855s-25.23 18.29-38.855 10.411l-49.152-28.388v52.281c0 15.701-12.743 28.444-28.444 28.444s-28.444-12.743-28.444-28.444v-52.281l-49.152 28.388c-13.596 7.879-31.004 3.186-38.855-10.411s-3.186-31.004 10.411-38.855l77.596-44.8v-162.389l-140.629 81.18v89.6c0 15.701-12.743 28.444-28.444 28.444s-28.444-12.743-28.444-28.444v-56.775l-45.284 26.169c-13.596 7.851-31.004 3.186-38.855-10.411s-3.186-31.004 10.411-38.855l45.255-26.14-49.152-28.388c-13.596-7.851-18.261-25.259-10.411-38.855 5.262-9.131 14.82-14.222 24.661-14.222 4.836 0 9.728 1.223 14.194 3.812l77.596 44.8 140.658-81.18-140.629-81.209-77.596 44.8c-13.596 7.879-31.004 3.186-38.855-10.411s-3.186-31.004 10.411-38.855l49.152-28.388-45.255-26.14c-13.596-7.851-18.261-25.259-10.411-38.855 5.262-9.131 14.82-14.222 24.661-14.222 4.836 0 9.728 1.223 14.194 3.812l45.284 26.14v-56.775c0-15.701 12.743-28.444 28.444-28.444s28.444 12.743 28.444 28.444v89.6l140.601 81.237v-162.389l-77.596-44.8c-13.596-7.851-18.261-25.259-10.411-38.855 7.851-13.625 25.259-18.29 38.855-10.411l49.152 28.359v-52.252c0-15.701 12.743-28.444 28.444-28.444s28.444 12.743 28.444 28.444v52.252l49.152-28.388c4.466-2.588 9.358-3.812 14.194-3.812 9.842 0 19.399 5.12 24.661 14.222 7.851 13.596 3.186 31.004-10.411 38.855l-77.596 44.828v162.389l140.629-81.18v-89.6c0-15.701 12.743-28.444 28.444-28.444s28.444 12.743 28.444 28.444v56.775l45.284-26.14c4.466-2.588 9.358-3.812 14.194-3.812 9.842 0 19.399 5.12 24.661 14.222 7.851 13.596 3.186 31.004-10.411 38.855l-45.255 26.14 49.152 28.388c13.596 7.794 18.261 25.202 10.382 38.798z" />
<glyph unicode="&#xe90b;" glyph-name="sleetL" d="M419.954 42.809l-2.93-2.93 2.93-2.93c3.612-3.612 3.612-9.472 0-13.084-1.792-1.82-4.181-2.731-6.542-2.731s-4.722 0.91-6.542 2.702l-2.958 2.958-2.958-2.958c-1.792-1.792-4.181-2.702-6.542-2.702s-4.75 0.91-6.542 2.731c-3.612 3.612-3.612 9.444 0 13.056l2.958 2.958-2.93 2.93c-3.612 3.612-3.612 9.444 0 13.056 3.612 3.641 9.472 3.641 13.084 0.028l2.958-2.958 2.958 2.958c3.612 3.612 9.472 3.584 13.084-0.028 3.584-3.612 3.584-9.444-0.028-13.056zM389.973-29.952h-4.181v4.153c0 5.12-4.153 9.244-9.244 9.244s-9.244-4.153-9.244-9.244v-4.153h-4.181c-5.092 0-9.244-4.153-9.244-9.244 0-5.12 4.153-9.244 9.244-9.244h4.181v-4.181c0-5.12 4.153-9.244 9.244-9.244s9.244 4.153 9.244 9.244v4.181h4.181c5.092 0 9.244 4.153 9.244 9.244 0 5.12-4.153 9.244-9.244 9.244zM630.244-29.952h-4.181v4.153c0 5.12-4.124 9.244-9.244 9.244s-9.244-4.153-9.244-9.244v-4.153h-4.153c-5.12 0-9.244-4.153-9.244-9.244 0-5.12 4.153-9.244 9.244-9.244h4.153v-4.181c0-5.12 4.153-9.244 9.244-9.244 5.12 0 9.244 4.153 9.244 9.244v4.181h4.181c5.12 0 9.244 4.153 9.244 9.244 0 5.12-4.153 9.244-9.244 9.244zM480.967-109.397h-4.181v4.153c0 5.12-4.153 9.244-9.244 9.244-5.12 0-9.244-4.153-9.244-9.244v-4.153h-4.181c-5.092 0-9.244-4.153-9.244-9.244 0-5.12 4.153-9.244 9.244-9.244h4.181v-4.153c0-5.12 4.153-9.244 9.244-9.244s9.244 4.153 9.244 9.244v4.153h4.181c5.092 0 9.244 4.153 9.244 9.244 0 5.12-4.124 9.244-9.244 9.244zM537.771 49.095h-4.153v4.153c0 5.12-4.124 9.244-9.244 9.244-5.092 0-9.244-4.124-9.244-9.244v-4.153h-4.181c-5.12 0-9.244-4.153-9.244-9.244 0-5.12 4.153-9.244 9.244-9.244h4.181v-4.153c0-5.12 4.153-9.244 9.244-9.244 5.12 0 9.244 4.153 9.244 9.244v4.153h4.153c5.12 0 9.244 4.153 9.244 9.244 0 5.12-4.153 9.244-9.244 9.244zM511.46-23.182c-3.612 3.612-9.472 3.612-13.056 0l-2.958-2.958-2.958 2.958c-3.612 3.612-9.472 3.612-13.056 0-3.612-3.612-3.612-9.472 0-13.084l2.958-2.958-2.958-2.958c-3.612-3.612-3.612-9.472 0-13.084 1.792-1.82 4.153-2.702 6.542-2.702 2.361 0 4.722 0.91 6.542 2.702l2.958 2.958 2.958-2.958c1.792-1.82 4.153-2.702 6.542-2.702 2.361 0 4.722 0.91 6.542 2.702 3.612 3.612 3.612 9.472 0 13.084l-2.958 2.958 2.958 2.958c3.556 3.612 3.556 9.472-0.057 13.084zM657.266 39.851l2.958 2.958c3.612 3.612 3.612 9.472 0 13.084s-9.472 3.612-13.084 0l-2.958-2.958-2.958 2.958c-3.584 3.612-9.472 3.612-13.056-0.028-3.612-3.612-3.612-9.444 0-13.056l2.93-2.93-2.958-2.958c-3.612-3.612-3.612-9.472 0-13.084 1.792-1.792 4.181-2.702 6.542-2.702s4.75 0.91 6.542 2.702l2.958 2.958 2.958-2.93c1.792-1.82 4.153-2.702 6.514-2.702s4.75 0.91 6.542 2.731c3.612 3.612 3.612 9.472 0 13.084l-2.93 2.873zM836.21 208.299c0 52.935-35.698 98.247-86.13 111.104-0.939 61.070-50.916 110.45-112.213 110.45l-11.207-0.597c-26.14 61.895-87.353 102.912-154.965 102.912-57.543 0-110.507-28.928-141.682-77.369-3.186-4.949-1.764-11.548 3.214-14.734 4.921-3.186 11.548-1.764 14.734 3.214 27.221 42.325 73.472 67.584 123.733 67.584 61.582 0 117.077-38.969 138.098-96.939 1.764-4.864 6.656-7.794 11.89-6.855 5.604 0.996 11.065 1.508 16.156 1.508 50.119 0 90.88-40.761 90.88-90.88l-0.228-3.271-0.228-2.788c-0.37-5.461 3.47-10.325 8.846-11.236 45.056-7.595 77.739-46.308 77.739-92.046 0-51.484-41.899-93.412-93.412-93.412h-388.267c-70.258 0-127.431 57.173-127.431 127.431s57.173 127.46 127.431 127.46c20.679 0 41.216-5.063 59.392-14.649 5.234-2.731 11.662-0.768 14.421 4.466 2.731 5.205 0.74 11.662-4.466 14.421-21.191 11.122-45.17 17.038-69.319 17.038-82.034 0-148.764-66.731-148.764-148.793 0-82.034 66.731-148.764 148.764-148.764h388.267c63.289 0 114.745 51.456 114.745 114.745z" />
<glyph unicode="&#xe90c;" glyph-name="sleet" d="M362.155-7.054c-1.65-4.58-6.997-8.334-11.861-8.334h-61.582c-4.864 0-7.509 3.755-5.888 8.334l22.471 62.606c1.65 4.58 6.997 8.334 11.861 8.334h61.582c4.864 0 7.538-3.755 5.888-8.334l-22.471-62.606zM549.547 55.58c1.65 4.58-0.996 8.334-5.86 8.334h-61.582c-4.864 0-10.212-3.755-11.861-8.334l-22.471-62.606c-1.65-4.58 0.996-8.334 5.888-8.334h61.582c4.864 0 10.212 3.755 11.861 8.334l22.443 62.606zM713.216 55.58c1.65 4.58-0.996 8.334-5.86 8.334h-61.582c-4.864 0-10.212-3.755-11.861-8.334l-22.471-62.606c-1.65-4.58 0.996-8.334 5.888-8.334h61.582c4.864 0 10.212 3.755 11.861 8.334l22.443 62.606zM506.311-66.219c1.65 4.58-0.996 8.334-5.888 8.334h-61.582c-4.864 0-10.212-3.755-11.861-8.334l-22.471-62.606c-1.65-4.58 0.996-8.334 5.888-8.334h61.582c4.864 0 10.212 3.755 11.861 8.334l22.471 62.606zM669.668-66.219c1.65 4.58-0.996 8.334-5.888 8.334h-61.582c-4.864 0-10.212-3.755-11.861-8.334l-22.471-62.606c-1.65-4.58 0.996-8.334 5.86-8.334h61.582c4.864 0 10.212 3.755 11.861 8.334l22.5 62.606zM473.173 543.744c-82.375 0-150.016-62.834-157.753-143.161-63.602-8.505-113.607-59.932-119.666-124.302l-0.654-11.321 0.057-0.91-0.057-0.939c0-76.686 62.18-138.837 138.837-138.837h390.343c57.771 0 104.619 46.848 104.619 104.619 0 51.797-37.66 94.692-87.097 103.054l0.512 6.884c0 56.377-45.71 102.087-102.087 102.087-6.201 0-12.26-0.626-18.148-1.678-22.073 60.956-80.356 104.505-148.907 104.505z" />
<glyph unicode="&#xe90d;" glyph-name="showers" d="M537.771-101.348c-3.243 0-6.514 0.569-9.728 1.735-14.763 5.376-22.386 21.703-17.010 36.466l42.325 116.338c5.376 14.763 21.703 22.357 36.466 17.010 14.763-5.376 22.386-21.703 17.010-36.466l-42.325-116.338c-4.21-11.577-15.132-18.745-26.738-18.745zM423.566-145.55l65.223 179.257c5.376 14.763-2.247 31.090-17.010 36.466-14.791 5.348-31.090-2.247-36.466-17.010l-65.223-179.257c-5.376-14.763 2.247-31.090 17.010-36.466 3.214-1.166 6.514-1.735 9.728-1.735 11.634 0 22.556 7.196 26.738 18.745zM741.803 331.947l0.512 6.884c0 56.377-45.71 102.087-102.087 102.087-6.201 0-12.26-0.654-18.148-1.678-22.073 60.956-80.384 104.533-148.907 104.533-82.375 0-150.016-62.834-157.753-143.161-63.602-8.505-113.607-59.932-119.666-124.302l-0.654-11.321 0.057-0.91-0.057-0.91c0-76.686 62.18-138.837 138.837-138.837h390.343c57.771 0 104.619 46.848 104.619 104.619 0 51.769-37.66 94.663-87.097 102.997z" />
<glyph unicode="&#xe90e;" glyph-name="rainL" d="M458.78-143.787l-3.641 0.626c-5.547 2.020-8.391 8.135-6.372 13.682l60.786 166.997c2.020 5.547 8.164 8.334 13.653 6.372 5.547-2.020 8.391-8.135 6.372-13.682l-60.786-166.997c-1.564-4.324-5.66-6.997-10.012-6.997zM591.872-86.101l42.325 116.338c2.020 5.547-0.853 11.662-6.372 13.682-5.575 1.991-11.662-0.853-13.682-6.372l-42.325-116.338c-2.020-5.547 0.853-11.662 6.372-13.682l3.641-0.626c4.352-0.028 8.448 2.674 10.041 6.997zM385.252-86.101l42.354 116.338c2.020 5.547-0.825 11.662-6.372 13.682-5.518 1.963-11.662-0.825-13.682-6.372l-42.354-116.338c-2.020-5.547 0.825-11.662 6.372-13.682l3.641-0.626c4.38-0.028 8.476 2.674 10.041 6.997zM836.238 208.299c0 52.935-35.669 98.247-86.13 111.104-0.939 61.070-50.916 110.45-112.242 110.45l-11.179-0.597c-26.14 61.895-87.353 102.912-154.965 102.912-57.543 0-110.507-28.928-141.682-77.369-3.186-4.949-1.764-11.548 3.214-14.734 4.921-3.186 11.548-1.764 14.734 3.214 27.221 42.325 73.5 67.584 123.733 67.584 61.582 0 117.077-38.969 138.098-96.939 1.764-4.864 6.713-7.794 11.89-6.855 5.717 1.024 11.008 1.508 16.156 1.508 50.119 0 90.908-40.761 90.908-90.88l-0.228-3.214-0.256-2.873c-0.37-5.461 3.47-10.325 8.875-11.236 45.028-7.595 77.739-46.308 77.739-92.046 0-51.484-41.899-93.412-93.412-93.412h-388.295c-70.258 0-127.431 57.173-127.431 127.431s57.173 127.46 127.431 127.46c20.679 0 41.216-5.063 59.392-14.649 5.205-2.759 11.662-0.768 14.421 4.466 2.759 5.205 0.768 11.662-4.437 14.421-21.248 11.15-45.227 17.067-69.376 17.067-82.034 0-148.764-66.731-148.764-148.793 0-82.034 66.731-148.764 148.764-148.764h388.295c63.26 0 114.745 51.456 114.745 114.745z" />
<glyph unicode="&#xe90f;" glyph-name="rain" d="M589.739-101.348c-3.243 0-6.514 0.569-9.728 1.735-14.763 5.376-22.386 21.703-17.010 36.466l42.325 116.338c5.376 14.763 21.703 22.357 36.466 17.010 14.763-5.376 22.386-21.703 17.010-36.466l-42.325-116.338c-4.21-11.577-15.132-18.745-26.738-18.745zM475.534-145.55l65.223 179.257c5.376 14.763-2.247 31.090-17.010 36.466-14.791 5.348-31.090-2.247-36.466-17.010l-65.223-179.257c-5.376-14.763 2.247-31.090 17.010-36.466 3.214-1.166 6.514-1.735 9.728-1.735 11.634 0 22.556 7.196 26.738 18.745zM380.388-82.631l42.325 116.338c5.376 14.763-2.247 31.090-17.010 36.466-14.791 5.348-31.090-2.247-36.466-17.010l-42.325-116.338c-5.376-14.763 2.247-31.090 17.010-36.466 3.214-1.166 6.514-1.735 9.728-1.735 11.634 0.028 22.556 7.196 26.738 18.745zM741.803 331.947l0.512 6.884c0 56.377-45.71 102.087-102.087 102.087-6.201 0-12.26-0.626-18.148-1.678-22.073 60.956-80.384 104.533-148.907 104.533-82.375 0-150.016-62.834-157.753-143.161-63.602-8.505-113.607-59.932-119.666-124.302l-0.654-11.321 0.057-0.91-0.057-0.967c0-76.686 62.18-138.837 138.837-138.837h390.343c57.771 0 104.619 46.848 104.619 104.619 0 51.826-37.66 94.72-87.097 103.054z" />
<glyph unicode="&#xe910;" glyph-name="partlycloudythunderstorms" d="M574.407 562.859v65.337c0 16.441 13.34 29.781 29.781 29.781s29.781-13.34 29.781-29.781v-65.337c0-16.441-13.34-29.781-29.781-29.781s-29.781 13.34-29.781 29.781zM834.617 306.261h65.337c16.469 0 29.781 13.34 29.781 29.781s-13.312 29.781-29.781 29.781h-65.337c-16.441 0-29.781-13.34-29.781-29.781 0-16.469 13.34-29.781 29.781-29.781zM443.022 464.839c7.623 0 15.246 2.901 21.077 8.732 11.634 11.634 11.634 30.492 0 42.098l-46.222 46.194c-11.634 11.634-30.464 11.634-42.098 0s-11.634-30.492 0-42.126l46.194-46.194c5.831-5.803 13.454-8.704 21.049-8.704zM815.132 97.849c7.623 0 15.246 2.901 21.049 8.732 11.634 11.634 11.634 30.492 0 42.126l-46.194 46.194c-11.634 11.634-30.464 11.634-42.126 0-11.634-11.634-11.634-30.492 0-42.098l46.194-46.194c5.86-5.86 13.483-8.761 21.077-8.761zM766.379 467.399c7.623 0 15.246 2.901 21.049 8.732l46.194 46.194c11.634 11.634 11.634 30.492 0 42.098-11.634 11.634-30.492 11.634-42.098 0l-46.194-46.194c-11.634-11.634-11.634-30.492 0-42.126 5.803-5.803 13.426-8.704 21.049-8.704zM605.98 497.095c-77.796 0-142.763-54.585-158.919-127.545 13.767-12.146 25.913-26.226 35.385-42.325 56.775-4.949 103.054-47.047 114.375-101.774 22.585-10.468 41.415-27.079 54.585-47.588 67.84 19.684 117.476 82.176 117.476 156.331 0 89.998-72.932 162.901-162.901 162.901zM403.484 177.863c-2.674 0-5.319-1.195-7.111-3.385l-161.052-198.912c-2.219-2.731-2.645-6.485-1.166-9.671 1.508-3.157 4.722-5.205 8.249-5.205l76.942-0.142-43.435-148.764c-1.223-4.181 0.683-8.619 4.523-10.638l4.238-1.052c2.674 0 5.319 1.195 7.111 3.385l161.081 198.912c2.219 2.731 2.674 6.514 1.138 9.671s-4.949 4.949-8.249 5.177l-77.255-0.199 43.776 149.106c1.223 4.181-0.654 8.619-4.523 10.667l-4.267 1.052zM556.373 193.707l0.427 5.746c0 47.275-38.343 85.589-85.589 85.589-5.205 0-10.268-0.54-15.218-1.422-18.517 51.115-67.385 87.637-124.843 87.637-69.063 0-125.781-52.679-132.238-120.036-53.333-7.14-95.232-50.261-100.324-104.192l-0.569-9.5 0.028-0.768-0.028-0.768c0-64.284 52.11-116.395 116.395-116.395h1.65l147.086 181.646c9.87 12.26 24.576 19.257 40.306 19.257 8.334 0 16.64-2.048 24.064-5.916 21.788-11.406 32.569-36.836 25.657-60.473l-27.676-94.265 21.732 0.057 1.621-0.114c18.887-1.394 35.556-12.601 43.577-29.241 1.707-3.527 2.844-7.196 3.669-10.951h45.54c48.441 0 87.723 39.282 87.723 87.723 0 43.435-31.573 79.388-72.988 86.386z" />
<glyph unicode="&#xe911;" glyph-name="partlycloudyshowers" d="M574.407 573.724v65.337c0 16.441 13.34 29.781 29.781 29.781s29.781-13.34 29.781-29.781v-65.337c0-16.441-13.34-29.781-29.781-29.781s-29.781 13.34-29.781 29.781zM834.617 317.099h65.337c16.469 0 29.781 13.34 29.781 29.781s-13.312 29.781-29.781 29.781h-65.337c-16.441 0-29.781-13.34-29.781-29.781s13.34-29.781 29.781-29.781zM443.022 475.705c7.623 0 15.246 2.901 21.077 8.732 11.634 11.634 11.634 30.492 0 42.126l-46.222 46.194c-11.634 11.634-30.464 11.634-42.098 0s-11.634-30.492 0-42.126l46.194-46.194c5.831-5.831 13.454-8.732 21.049-8.732zM815.132 108.715c7.623 0 15.246 2.901 21.049 8.732 11.634 11.634 11.634 30.492 0 42.098l-46.194 46.194c-11.634 11.634-30.464 11.634-42.126 0-11.634-11.634-11.634-30.492 0-42.126l46.194-46.194c5.86-5.803 13.483-8.704 21.077-8.704zM766.379 478.236c7.623 0 15.246 2.901 21.049 8.732l46.194 46.194c11.634 11.634 11.634 30.492 0 42.098-11.634 11.634-30.492 11.634-42.098 0l-46.194-46.194c-11.634-11.634-11.634-30.492 0-42.126 5.803-5.774 13.426-8.704 21.049-8.704zM331.15 382.151c-69.063 0-125.781-52.679-132.238-120.036-53.333-7.14-95.232-50.261-100.324-104.192l-0.569-9.5 0.028-0.768-0.028-0.768c0-64.284 52.11-116.395 116.395-116.395h327.225c48.441 0 87.723 39.282 87.723 87.723 0 43.435-31.573 79.388-73.017 86.386l0.427 5.746c0 47.275-38.343 85.589-85.589 85.589-5.205 0-10.268-0.54-15.218-1.422-18.489 51.115-67.356 87.637-124.814 87.637zM605.98 507.961c-77.796 0-142.763-54.613-158.919-127.545 13.767-12.146 25.913-26.226 35.385-42.325 56.775-4.949 103.054-47.047 114.375-101.746 22.585-10.468 41.415-27.108 54.585-47.588 67.84 19.684 117.476 82.176 117.476 156.331 0 89.97-72.932 162.873-162.901 162.873zM426.411-158.066l42.325 116.338c5.376 14.763-2.247 31.090-17.010 36.466-14.791 5.348-31.090-2.247-36.466-17.010l-42.325-116.338c-5.376-14.763 2.247-31.090 17.010-36.466 3.214-1.166 6.485-1.707 9.728-1.707 11.634 0 22.528 7.168 26.738 18.716zM285.497-220.985l65.223 179.257c5.376 14.763-2.247 31.090-17.010 36.466-14.791 5.348-31.090-2.247-36.466-17.010l-65.223-179.257c-5.376-14.763 2.247-31.090 17.010-36.466 3.214-1.166 6.514-1.707 9.728-1.707 11.634 0 22.556 7.168 26.738 18.716z" />
<glyph unicode="&#xe912;" glyph-name="partlycloudynightL" d="M706.361 34.389c-5.831 0-10.61 4.693-10.667 10.553-0.057 5.888 4.665 10.724 10.553 10.78 27.392 0.313 54.3 5.575 79.957 15.616 33.508 13.113 63.801 34.475 87.609 61.838 16.043 18.46 28.9 39.196 38.201 61.639-8.59-4.722-17.55-8.932-26.681-12.487-79.275-31.033-168.334-15.644-232.448 40.164-71.964 62.663-97.109 163.897-63.118 252.843-21.049-12.345-39.794-27.904-55.78-46.336-37.376-42.951-57.003-97.849-55.268-154.624 0.171-5.888-4.437-10.809-10.325-10.98-5.717-0.484-10.809 4.437-10.98 10.325-1.906 62.151 19.57 122.254 60.501 169.273 18.261 21.020 39.794 38.656 64.057 52.452 7.481 4.238 16.811 3.271 23.268-2.332 6.485-5.66 8.704-14.791 5.49-22.784-32.341-81.209-9.785-174.336 56.149-231.765 58.14-50.574 138.894-64.484 210.688-36.38 9.159 3.584 18.119 7.851 26.624 12.715 7.481 4.238 16.839 3.3 23.296-2.304 6.485-5.632 8.704-14.791 5.518-22.756-10.297-25.799-24.804-49.579-43.122-70.656-26.084-29.924-59.25-53.333-95.915-67.698-28.075-11.008-57.515-16.754-87.495-17.095h-0.114zM669.867-18.546c0 44.743-29.867 83.086-72.249 94.492-1.508 51.513-43.861 92.985-95.772 92.985l-8.306-0.398c-22.443 51.883-74.041 86.158-131.015 86.158-48.839 0-93.781-24.548-120.235-65.65-3.186-4.949-1.764-11.548 3.214-14.734 4.949-3.186 11.548-1.764 14.734 3.186 22.5 34.987 60.729 55.865 102.286 55.865 50.916 0 96.768-32.199 114.148-80.156 1.764-4.864 6.77-7.765 11.89-6.855 4.665 0.825 8.988 1.223 13.255 1.223 41.074 0 74.468-33.394 74.468-74.468l-0.171-2.532-0.199-2.446c-0.37-5.461 3.47-10.297 8.846-11.207 36.921-6.229 63.744-37.973 63.744-75.463 0-42.212-34.361-76.572-76.572-76.572h-325.49c-57.97 0-105.131 47.161-105.131 105.131s47.161 105.102 105.131 105.102c17.067 0 34.020-4.181 48.981-12.060 5.205-2.788 11.662-0.768 14.421 4.466 2.731 5.205 0.74 11.662-4.466 14.393-18.034 9.529-38.4 14.535-58.937 14.535-69.717 0-126.464-56.718-126.464-126.436 0-69.746 56.718-126.464 126.464-126.464h325.518c53.959 0 97.906 43.947 97.906 97.906z" />
<glyph unicode="&#xe913;" glyph-name="partlycloudynight" d="M331.15 233.444c57.458 0 106.325-36.523 124.843-87.637 4.921 0.882 10.012 1.422 15.218 1.422 47.275 0 85.589-38.315 85.589-85.561l-0.427-5.774c41.415-6.997 73.017-42.951 73.017-86.386 0-48.441-39.282-87.723-87.723-87.723h-327.225c-64.284 0-116.395 52.11-116.395 116.395l0.028 0.768-0.028 0.768 0.569 9.5c5.092 53.959 46.99 97.081 100.324 104.192 6.428 67.356 63.147 120.036 132.21 120.036zM923.819 209.38c-3.072 2.674-7.481 3.1-11.008 1.081-8.988-5.092-18.404-9.586-28.018-13.369-75.548-29.582-160.455-14.905-221.582 38.286-69.348 60.388-93.070 158.35-59.051 243.769 1.508 3.783 0.455 8.078-2.588 10.752-3.072 2.674-7.538 3.072-11.008 1.109-23.182-13.17-43.833-30.066-61.298-50.176-41.387-47.531-61.781-108.316-57.429-171.179 1.991-28.7 9.244-56.149 20.821-81.579 52.053-8.818 93.525-49.038 104.135-100.437 13.824-6.4 25.998-15.332 36.58-25.799 51.285-16.953 107.719-16.071 160.057 4.437 35.1 13.739 66.816 36.153 91.733 64.768 17.522 20.139 31.403 42.894 41.244 67.584 1.508 3.755 0.455 8.078-2.588 10.752z" />
<glyph unicode="&#xe914;" glyph-name="partlycloudyL" d="M710.059 66.105c-2.987 0-5.973 1.252-8.107 3.726-3.84 4.466-3.328 11.207 1.166 15.047 33.82 28.956 53.22 71.083 53.22 115.513 0 54.158-29.156 104.647-76.117 131.783-46.137 26.738-106.098 26.709-152.206 0-21.049-12.174-39.14-29.468-52.281-50.005-3.186-4.978-9.756-6.4-14.734-3.243-4.949 3.186-6.4 9.785-3.243 14.734 14.962 23.41 35.556 43.093 59.563 56.974 52.565 30.436 120.946 30.464 173.568 0 53.504-30.919 86.756-88.519 86.756-150.272 0-50.688-22.101-98.702-60.644-131.726-1.991-1.678-4.466-2.532-6.94-2.532zM613.461 426.553v70.514c0 5.888-4.779 10.667-10.667 10.667s-10.667-4.779-10.667-10.667v-70.514c0-5.888 4.779-10.667 10.667-10.667s10.667 4.779 10.667 10.667zM909.113 201.87c0 5.888-4.779 10.667-10.667 10.667h-70.94c-5.888 0-10.667-4.779-10.667-10.667s4.779-10.667 10.667-10.667h70.94c5.888 0 10.667 4.779 10.667 10.667zM451.47 353.223c4.181 4.153 4.181 10.923 0 15.076l-49.010 48.981c-4.153 4.181-10.923 4.181-15.076 0-4.153-4.153-4.153-10.923 0-15.076l49.010-48.981c2.076-2.076 4.807-3.129 7.538-3.129s5.461 1.052 7.538 3.129zM819.627-14.962c4.153 4.153 4.153 10.923 0 15.076l-50.404 50.404c-4.153 4.181-10.894 4.181-15.076 0-4.153-4.153-4.153-10.923 0-15.076l50.404-50.404c2.076-2.076 4.807-3.129 7.538-3.129s5.461 1.052 7.538 3.129zM769.252 353.223l49.721 49.692c4.153 4.153 4.153 10.923 0 15.076s-10.894 4.181-15.076 0l-49.721-49.692c-4.153-4.153-4.153-10.923 0-15.076 2.076-2.076 4.807-3.129 7.538-3.129s5.461 1.052 7.538 3.129zM669.867-22.926c0 44.743-29.867 83.058-72.249 94.464-1.479 51.541-43.89 92.985-95.772 92.985l-8.277-0.398c-22.471 51.883-74.069 86.158-131.015 86.158-48.811 0-93.781-24.548-120.235-65.65-3.186-4.949-1.764-11.548 3.186-14.734s11.548-1.764 14.734 3.186c22.528 34.987 60.757 55.865 102.286 55.865 50.916 0 96.796-32.199 114.148-80.156 1.764-4.892 6.77-7.708 11.89-6.855 4.608 0.825 9.045 1.223 13.227 1.223 41.074 0 74.496-33.394 74.496-74.439l-0.171-2.475-0.228-2.503c-0.37-5.461 3.47-10.297 8.875-11.207 36.921-6.258 63.744-37.973 63.744-75.463 0-42.212-34.361-76.572-76.572-76.572h-325.518c-57.97 0-105.102 47.161-105.102 105.102 0 57.97 47.161 105.131 105.102 105.131 17.038 0 33.991-4.181 48.981-12.089 5.205-2.788 11.662-0.768 14.421 4.466 2.731 5.205 0.74 11.662-4.466 14.393-18.034 9.529-38.428 14.564-58.937 14.564-69.717 0-126.436-56.718-126.436-126.464 0-69.717 56.718-126.436 126.436-126.436h325.518c53.988 0 97.934 43.918 97.934 97.906z" />
<glyph unicode="&#xe915;" glyph-name="partlycloudy" d="M572.53 420.636v65.337c0 16.441 13.34 29.781 29.781 29.781s29.781-13.34 29.781-29.781v-65.337c0-16.441-13.34-29.781-29.781-29.781s-29.781 13.34-29.781 29.781zM832.74 164.039h65.337c16.469 0 29.781 13.34 29.781 29.781s-13.312 29.781-29.781 29.781h-65.337c-16.441 0-29.781-13.34-29.781-29.781 0-16.469 13.34-29.781 29.781-29.781zM441.145 322.617c7.623 0 15.246 2.901 21.077 8.732 11.634 11.634 11.634 30.492 0 42.098l-46.194 46.194c-11.634 11.634-30.464 11.634-42.126 0-11.634-11.634-11.634-30.492 0-42.126l46.194-46.194c5.803-5.803 13.426-8.704 21.049-8.704zM813.255-44.373c7.623 0 15.246 2.901 21.049 8.732 11.634 11.634 11.634 30.492 0 42.126l-46.194 46.194c-11.634 11.634-30.464 11.634-42.098 0s-11.634-30.492 0-42.098l46.194-46.194c5.803-5.86 13.426-8.761 21.049-8.761zM764.501 325.177c7.623 0 15.246 2.901 21.049 8.732l46.194 46.194c11.634 11.634 11.634 30.492 0 42.126s-30.492 11.634-42.126 0l-46.194-46.194c-11.634-11.634-11.634-30.492 0-42.126 5.831-5.831 13.454-8.732 21.077-8.732zM329.273 229.063c-69.063 0-125.781-52.679-132.267-120.007-53.333-7.14-95.232-50.261-100.295-104.22l-0.569-9.5 0.028-0.768-0.028-0.768c0-64.284 52.11-116.395 116.395-116.395h327.225c48.441 0 87.723 39.282 87.723 87.723 0 43.435-31.573 79.388-73.017 86.386l0.427 5.746c0 47.275-38.343 85.589-85.589 85.589-5.205 0-10.268-0.54-15.218-1.422-18.489 51.115-67.356 87.637-124.814 87.637zM604.103 354.873c-77.824 0-142.791-54.585-158.948-127.545 13.767-12.146 25.913-26.226 35.385-42.325 56.775-4.949 103.054-47.047 114.375-101.746 22.585-10.468 41.415-27.079 54.585-47.588 67.84 19.684 117.476 82.176 117.476 156.331 0.028 89.97-72.903 162.873-162.873 162.873z" />
<glyph unicode="&#xe916;" glyph-name="mostlycloudythunderstorms" d="M562.517 546.844l-19.57 48.469c-4.921 12.203 0.967 26.084 13.17 31.004s26.084-0.967 31.004-13.17l19.57-48.469c4.921-12.203-0.967-26.084-13.17-31.004s-26.084 0.967-31.004 13.17zM832.427 434.432l48.469 19.57c12.203 4.921 18.091 18.802 13.17 31.004s-18.802 18.091-31.004 13.17l-48.469-19.57c-12.203-4.921-18.119-18.802-13.17-31.004 4.921-12.203 18.802-18.091 31.004-13.17zM880.384 274.005c5.66 2.276 10.439 6.713 12.999 12.772 5.148 12.117-0.512 26.084-12.601 31.232l-48.1 20.423c-12.117 5.148-26.084-0.484-31.232-12.601s0.512-26.112 12.601-31.232l48.1-20.423c6.059-2.588 12.601-2.446 18.233-0.171zM733.525 533.532c5.66 2.276 10.439 6.713 13.028 12.772l20.423 48.1c5.148 12.117-0.512 26.112-12.601 31.232-12.117 5.148-26.084-0.484-31.26-12.601l-20.423-48.1c-5.148-12.117 0.512-26.084 12.601-31.232 6.087-2.588 12.601-2.446 18.233-0.171zM586.439 431.616c67.413-3.897 122.596-54.158 134.087-119.268 9.956-4.267 19.285-9.586 27.876-15.787 34.361 35.897 46.677 89.884 26.852 138.951-26.937 66.731-102.884 98.987-169.614 72.050-19.712-7.964-36.324-20.281-49.38-35.271 11.634-12.174 21.817-25.771 30.18-40.676zM504.775 263.111c-3.157 0-6.258-1.394-8.363-3.982l-189.468-234.012c-2.588-3.214-3.129-7.652-1.337-11.378s5.518-6.116 9.671-6.116l90.539-0.171-51.115-175.019c-1.422-4.921 0.796-10.155 5.348-12.516l4.978-1.223c3.157 0 6.258 1.394 8.363 3.982l189.497 234.012c2.588 3.214 3.129 7.652 1.337 11.406-1.792 3.726-5.831 5.803-9.7 6.116l-90.908-0.228 51.513 175.417c1.451 4.921-0.768 10.155-5.319 12.544l-5.035 1.166zM679.566 280.235l0.512 6.884c0 56.377-45.71 102.087-102.087 102.087-6.201 0-12.26-0.626-18.119-1.678-22.101 60.956-80.384 104.533-148.907 104.533-82.347 0-150.016-62.834-157.753-143.161-63.602-8.505-113.607-59.932-119.666-124.302l-0.654-11.321 0.057-0.91-0.057-0.91c0-76.686 62.18-138.837 138.837-138.837h18.773l172.743 213.39c10.155 12.544 25.316 19.769 41.529 19.769 8.59 0 17.18-2.105 24.832-6.116 22.443-11.804 33.536-38.002 26.396-62.322l-35.413-120.604 35.413 0.085 1.621-0.114c19.541-1.451 36.779-13.028 45.028-30.208 2.133-4.466 3.584-9.159 4.409-13.938h54.983c57.771 0 104.619 46.848 104.619 104.619 0 51.797-37.66 94.692-87.097 103.054z" />
<glyph unicode="&#xe917;" glyph-name="mostlycloudyshowers" d="M537.116-153.515c-3.243 0-6.514 0.569-9.728 1.735-14.763 5.376-22.386 21.703-17.010 36.466l42.325 116.338c5.376 14.763 21.675 22.357 36.466 17.010 14.763-5.376 22.386-21.703 17.010-36.466l-42.325-116.338c-4.21-11.548-15.104-18.745-26.738-18.745zM422.94-197.717l65.195 179.257c5.376 14.763-2.247 31.090-17.010 36.466-14.791 5.348-31.090-2.247-36.466-17.010l-65.195-179.257c-5.376-14.763 2.247-31.090 17.010-36.466 3.214-1.166 6.514-1.735 9.728-1.735 11.634 0.028 22.556 7.196 26.738 18.745zM327.794-134.77l42.325 116.338c5.376 14.763-2.247 31.090-17.010 36.466-14.791 5.348-31.090-2.247-36.466-17.010l-42.325-116.338c-5.376-14.763 2.247-31.090 17.010-36.466 3.214-1.166 6.514-1.735 9.728-1.735 11.634 0 22.528 7.196 26.738 18.745zM592.299 533.675c12.203 4.921 18.091 18.802 13.17 31.004l-19.57 48.469c-4.921 12.203-18.802 18.091-31.004 13.17s-18.091-18.802-13.17-31.004l19.57-48.469c4.921-12.203 18.802-18.091 31.004-13.17zM831.204 434.432l48.469 19.57c12.203 4.921 18.091 18.802 13.17 31.004s-18.802 18.091-31.004 13.17l-48.469-19.57c-12.203-4.921-18.091-18.802-13.17-31.004s18.802-18.091 31.004-13.17zM879.161 274.005c5.66 2.276 10.439 6.713 12.999 12.772 5.148 12.117-0.512 26.084-12.601 31.232l-48.1 20.423c-12.117 5.148-26.112-0.484-31.232-12.601-5.148-12.117 0.512-26.112 12.601-31.232l48.1-20.423c6.059-2.588 12.572-2.446 18.233-0.171zM732.302 533.532c5.66 2.276 10.439 6.713 12.999 12.772l20.452 48.1c5.148 12.117-0.512 26.112-12.629 31.232-12.117 5.148-26.084-0.484-31.232-12.601l-20.452-48.1c-5.148-12.117 0.512-26.084 12.629-31.232 6.059-2.588 12.572-2.446 18.233-0.171zM409.714 492.032c-82.375 0-150.016-62.834-157.753-143.161-63.602-8.505-113.579-59.932-119.666-124.302l-0.683-11.321 0.057-0.91-0.057-0.91c0-76.686 62.18-138.837 138.837-138.837h390.343c57.771 0 104.619 46.848 104.619 104.619 0 51.797-37.66 94.692-87.097 103.054l0.512 6.884c0 56.377-45.71 102.087-102.116 102.087-6.172 0-12.231-0.626-18.119-1.678-22.044 60.9-80.356 104.476-148.878 104.476zM585.216 431.616c67.413-3.897 122.624-54.158 134.116-119.268 9.927-4.267 19.257-9.586 27.876-15.787 34.389 35.897 46.677 89.856 26.852 138.923-26.937 66.731-102.884 98.987-169.614 72.050-19.712-7.964-36.324-20.281-49.38-35.271 11.605-12.146 21.788-25.742 30.151-40.647z" />
<glyph unicode="&#xe918;" glyph-name="mostlycloudynightL" d="M794.311 148.821c-4.551 0-8.761 2.93-10.183 7.481-1.764 5.632 1.365 11.605 6.997 13.369l9.244 3.243c20.821 8.164 39.652 21.447 54.443 38.457 7.595 8.732 14.052 18.29 19.228 28.501l-7.538-3.214c-52.025-20.366-110.45-10.268-152.519 26.34-44.402 38.656-61.639 99.698-44.971 155.335-9.415-6.571-18.005-14.251-25.572-22.983-17.38-19.968-28.7-44.174-32.768-70.002-0.91-5.831-6.457-9.813-12.203-8.875-5.831 0.91-9.785 6.372-8.903 12.174 4.693 29.81 17.749 57.714 37.746 80.697 11.947 13.767 26.055 25.316 41.927 34.332 6.229 3.499 13.966 2.731 19.314-1.906 5.376-4.693 7.196-12.26 4.58-18.887-20.082-50.404-6.087-108.203 34.816-143.815 36.068-31.403 86.187-40.021 130.731-22.585 5.632 2.219 11.207 4.864 16.526 7.879 6.172 3.499 13.938 2.759 19.314-1.934 5.376-4.665 7.196-12.26 4.58-18.859-6.741-16.896-16.242-32.484-28.245-46.251-17.038-19.57-38.741-34.901-62.777-44.316l-10.61-3.726-3.157-0.455zM796.786 5.86c0 52.935-35.698 98.247-86.13 111.104-0.939 61.070-50.916 110.45-112.213 110.45l-11.179-0.597c-26.14 61.895-87.353 102.912-154.965 102.912-57.543 0-110.507-28.928-141.71-77.369-3.186-4.949-1.764-11.548 3.214-14.734 4.949-3.157 11.548-1.764 14.734 3.214 27.221 42.325 73.5 67.584 123.762 67.584 61.582 0 117.077-38.969 138.098-96.939 1.792-4.864 6.628-7.765 11.89-6.855 5.717 1.024 11.008 1.508 16.156 1.508 50.119 0 90.908-40.761 90.908-90.88l-0.228-3.271-0.228-2.816c-0.37-5.461 3.47-10.325 8.846-11.207 45.056-7.623 77.739-46.308 77.739-92.046 0-51.484-41.899-93.412-93.412-93.412h-388.267c-70.258 0-127.431 57.173-127.431 127.431s57.173 127.431 127.431 127.431c20.679 0 41.216-5.063 59.392-14.649 5.234-2.788 11.662-0.768 14.421 4.466 2.731 5.205 0.74 11.662-4.466 14.393-21.22 11.207-45.198 17.124-69.348 17.124-82.034 0-148.764-66.731-148.764-148.764s66.731-148.764 148.764-148.764h388.267c63.232-0.028 114.716 51.428 114.716 114.688z" />
<glyph unicode="&#xe919;" glyph-name="mostlycloudynight" d="M408.775 335.588c68.551 0 126.805-43.577 148.907-104.533 5.888 1.052 11.947 1.678 18.119 1.678 56.405 0 102.087-45.71 102.087-102.087l-0.512-6.884c49.436-8.363 87.097-51.257 87.097-103.054 0-57.771-46.848-104.619-104.619-104.619h-390.315c-76.686 0-138.837 62.151-138.837 138.837l0.057 0.91-0.057 0.91 0.654 11.321c6.059 64.341 56.036 115.797 119.666 124.302 7.708 80.384 75.378 143.218 157.753 143.218zM872.021 268.203c-1.963 1.707-4.779 1.991-7.026 0.711-5.717-3.271-11.748-6.144-17.892-8.533-48.27-18.916-102.542-9.529-141.625 24.462-44.345 38.599-59.506 101.205-37.746 155.79 0.967 2.418 0.284 5.177-1.678 6.884s-4.807 1.963-7.026 0.711c-14.82-8.42-28.018-19.2-39.168-32.057-26.453-30.379-39.481-69.234-36.693-109.426 0.768-11.008 2.788-21.703 5.803-32.028 61.184-5.547 111.531-49.18 126.834-107.065 24.235-2.873 49.209-0.199 72.903 9.074 22.443 8.789 42.724 23.097 58.652 41.387 11.207 12.885 20.082 27.42 26.368 43.207 0.91 2.418 0.256 5.177-1.707 6.884z" />
<glyph unicode="&#xe91a;" glyph-name="mostlycloudyL" d="M571.193 386.503c-3.897 0-7.623 2.105-9.5 5.803l-25.685 50.204c-2.674 5.262-0.597 11.662 4.636 14.364 5.291 2.702 11.691 0.597 14.364-4.636l25.685-50.204c2.674-5.262 0.597-11.662-4.636-14.364l-4.864-1.166zM817.948 309.561l50.546 25.884c5.234 2.674 7.31 9.102 4.636 14.364-2.674 5.234-9.102 7.339-14.364 4.636l-50.546-25.913c-5.234-2.674-7.31-9.102-4.636-14.364 1.877-3.698 5.632-5.803 9.5-5.803l4.864 1.195zM888.576 161.138c1.792 5.604-1.28 11.634-6.884 13.426l-54.272 17.493c-5.66 1.82-11.634-1.28-13.426-6.884-1.82-5.604 1.28-11.634 6.884-13.426l54.272-17.522 3.271-0.512c4.523 0.028 8.704 2.901 10.155 7.424zM718.478 404.964l17.266 53.504c1.82 5.604-1.252 11.605-6.884 13.426-5.547 1.792-11.634-1.28-13.426-6.884l-17.266-53.504c-1.82-5.604 1.252-11.634 6.884-13.426l3.271-0.512c4.494 0 8.704 2.873 10.155 7.396zM776.903 167.794c3.584 6.201 6.741 12.743 9.358 19.428 8.363 21.419 11.321 44.828 8.59 67.755-5.945 49.778-38.315 93.042-84.452 112.839-22.67 9.728-47.644 13.34-72.22 10.411-24.604-2.958-48.014-12.316-67.755-27.136l-6.059-4.807c-4.523-3.783-5.12-10.496-1.337-15.019s10.496-5.12 15.019-1.337l5.177 4.096c16.725 12.572 36.608 20.508 57.486 23.012 20.821 2.475 42.012-0.569 61.269-8.846 39.168-16.811 66.645-53.504 71.68-95.772 2.361-19.456-0.171-39.31-7.253-57.486-2.219-5.689-4.864-11.236-7.908-16.469-2.958-5.092-1.223-11.634 3.868-14.592l5.348-1.451c3.641 0.085 7.225 1.991 9.188 5.376zM796.786 5.86c0 52.935-35.698 98.219-86.13 111.076-0.939 61.070-50.916 110.45-112.213 110.45l-11.179-0.597c-26.14 61.895-87.353 102.912-154.965 102.912-57.543 0-110.507-28.928-141.682-77.369-3.186-4.949-1.764-11.548 3.214-14.734 4.949-3.157 11.548-1.764 14.734 3.214 27.221 42.325 73.5 67.584 123.733 67.584 61.582 0 117.077-38.969 138.098-96.939 1.792-4.864 6.628-7.765 11.89-6.855 5.717 1.024 11.008 1.508 16.156 1.508 50.119 0 90.908-40.761 90.908-90.88l-0.228-3.328-0.256-2.674c-0.398-5.49 3.442-10.382 8.846-11.292 45.056-7.623 77.739-46.308 77.739-92.046 0-51.484-41.899-93.412-93.412-93.412h-388.267c-70.258 0-127.431 57.173-127.431 127.431s57.173 127.431 127.431 127.431c20.679 0 41.216-5.063 59.392-14.649 5.234-2.788 11.662-0.768 14.421 4.466 2.759 5.205 0.768 11.662-4.437 14.393-21.22 11.207-45.198 17.124-69.348 17.124-82.034 0-148.764-66.731-148.764-148.764s66.731-148.764 148.764-148.764h388.267c63.232 0 114.716 51.456 114.716 114.716z" />
<glyph unicode="&#xe91b;" glyph-name="mostlycloudyflurriesnight" d="M408.69 512.085c68.551 0 126.805-43.577 148.907-104.533 5.888 1.052 11.947 1.678 18.119 1.678 56.405 0 102.087-45.71 102.087-102.087l-0.512-6.884c49.436-8.363 87.097-51.257 87.097-103.054 0-57.771-46.848-104.619-104.619-104.619h-390.315c-76.686 0-138.837 62.151-138.837 138.837l0.057 0.91-0.057 0.939 0.654 11.321c6.059 64.341 56.036 115.797 119.666 124.302 7.737 80.327 75.406 143.189 157.753 143.189zM871.936 444.672c-1.963 1.707-4.779 1.991-7.054 0.711-5.717-3.271-11.748-6.144-17.892-8.533-48.27-18.916-102.542-9.529-141.596 24.462-44.345 38.599-59.506 101.205-37.746 155.79 0.967 2.418 0.284 5.177-1.678 6.884s-4.807 1.963-7.026 0.711c-14.82-8.42-28.018-19.2-39.168-32.057-26.453-30.379-39.481-69.234-36.693-109.426 0.768-11.008 2.788-21.703 5.803-32.028 61.184-5.547 111.531-49.209 126.834-107.036 24.235-2.873 49.209-0.199 72.903 9.074 22.443 8.789 42.695 23.097 58.652 41.387 11.179 12.885 20.053 27.42 26.368 43.207 0.939 2.389 0.256 5.148-1.707 6.855zM650.524-20.964l-15.019 8.676 15.019 8.676c8.505 4.921 11.406 15.787 6.514 24.292s-15.787 11.406-24.292 6.514l-15.047-8.676v17.351c0 9.813-7.964 17.778-17.778 17.778s-17.778-7.964-17.778-17.778v-17.351l-15.019 8.676c-8.505 4.892-19.399 1.991-24.292-6.514s-1.991-19.371 6.514-24.292l15.019-8.676-15.019-8.676c-8.505-4.921-11.406-15.787-6.514-24.292 3.3-5.717 9.273-8.903 15.417-8.903 3.015 0 6.059 0.768 8.875 2.361l15.019 8.676v-17.351c0-9.813 7.964-17.778 17.778-17.778s17.778 7.964 17.778 17.778v17.351l15.047-8.676c2.788-1.621 5.86-2.361 8.875-2.361 6.144 0 12.117 3.186 15.417 8.903 4.892 8.505 1.991 19.371-6.514 24.292zM505.685-160.085l-15.019 8.676 15.019 8.676c8.505 4.921 11.406 15.787 6.514 24.292s-15.787 11.406-24.292 6.514l-15.019-8.676v17.351c0 9.813-7.964 17.778-17.778 17.778s-17.778-7.964-17.778-17.778v-17.351l-15.047 8.676c-8.505 4.892-19.371 1.991-24.292-6.514s-1.991-19.371 6.514-24.292l15.019-8.676-15.019-8.676c-8.505-4.921-11.406-15.787-6.514-24.292 3.3-5.717 9.273-8.903 15.417-8.903 3.015 0 6.059 0.768 8.875 2.361l15.047 8.676v-17.38c0-9.813 7.964-17.778 17.778-17.778s17.778 7.964 17.778 17.778v17.351l15.019-8.676c2.816-1.621 5.86-2.361 8.875-2.361 6.144 0 12.117 3.186 15.417 8.903 4.921 8.505 2.020 19.399-6.514 24.32zM360.875-20.992l-15.047 8.676 15.047 8.676c8.505 4.921 11.406 15.787 6.514 24.292s-15.787 11.435-24.292 6.514l-15.019-8.676v17.38c0 9.813-7.964 17.778-17.778 17.778s-17.778-7.964-17.778-17.778v-17.38l-15.047 8.676c-8.505 4.949-19.371 2.020-24.292-6.514-4.921-8.505-1.991-19.371 6.514-24.292l15.047-8.676-15.047-8.676c-8.505-4.892-11.406-15.787-6.514-24.292 3.3-5.717 9.273-8.903 15.417-8.903 3.015 0 6.087 0.768 8.875 2.361l15.047 8.676v-17.351c0-9.813 7.964-17.778 17.778-17.778s17.778 7.964 17.778 17.778v17.351l15.019-8.676c2.788-1.621 5.86-2.361 8.875-2.361 6.144 0 12.117 3.186 15.417 8.903 4.892 8.505 1.991 19.399-6.514 24.292z" />
<glyph unicode="&#xe91c;" glyph-name="mostlycloudyflurries" d="M657.038-45.255c-3.3-5.717-9.273-8.903-15.417-8.903-3.015 0-6.087 0.768-8.875 2.361l-15.047 8.676v-17.351c0-9.813-7.964-17.778-17.778-17.778s-17.778 7.964-17.778 17.778v17.351l-15.019-8.676c-2.816-1.621-5.86-2.361-8.875-2.361-6.144 0-12.117 3.186-15.417 8.903-4.892 8.505-1.991 19.371 6.514 24.292l15.019 8.676-15.019 8.676c-8.505 4.921-11.406 15.787-6.514 24.292s15.787 11.406 24.292 6.514l15.019-8.676v17.351c0 9.813 7.964 17.778 17.778 17.778s17.778-7.964 17.778-17.778v-17.351l15.047 8.676c8.505 4.892 19.371 1.991 24.292-6.514s1.991-19.371-6.514-24.292l-15.019-8.676 15.019-8.676c8.505-4.921 11.406-15.787 6.514-24.292zM505.685-160.085l-15.019 8.676 15.019 8.676c8.505 4.921 11.406 15.787 6.514 24.292s-15.787 11.406-24.292 6.514l-15.019-8.676v17.351c0 9.813-7.964 17.778-17.778 17.778s-17.778-7.964-17.778-17.778v-17.351l-15.047 8.676c-8.505 4.892-19.371 1.991-24.292-6.514s-1.991-19.371 6.514-24.292l15.019-8.676-15.019-8.676c-8.505-4.921-11.406-15.787-6.514-24.292 3.3-5.717 9.273-8.903 15.417-8.903 3.015 0 6.059 0.768 8.846 2.361l15.047 8.676v-17.38c0-9.813 7.964-17.778 17.778-17.778s17.778 7.964 17.778 17.778v17.351l15.019-8.676c2.816-1.621 5.86-2.361 8.875-2.361 6.144 0 12.117 3.186 15.417 8.903 4.949 8.505 2.048 19.399-6.485 24.32zM360.875-20.992l-15.047 8.676 15.047 8.676c8.505 4.921 11.406 15.787 6.514 24.292s-15.787 11.435-24.292 6.514l-15.019-8.676v17.38c0 9.813-7.964 17.778-17.778 17.778s-17.778-7.964-17.778-17.778v-17.38l-15.047 8.676c-8.505 4.949-19.371 2.020-24.263-6.514-4.921-8.505-1.991-19.371 6.485-24.292l15.047-8.676-15.047-8.676c-8.505-4.892-11.406-15.787-6.485-24.292 3.3-5.717 9.273-8.903 15.388-8.903 3.015 0 6.087 0.768 8.875 2.361l15.047 8.676v-17.351c0-9.813 7.964-17.778 17.778-17.778s17.778 7.964 17.778 17.778v17.351l15.019-8.676c2.788-1.621 5.86-2.361 8.875-2.361 6.144 0 12.117 3.186 15.417 8.903 4.892 8.505 1.991 19.399-6.514 24.292zM591.218 562.119c12.203 4.921 18.091 18.802 13.17 31.004l-19.57 48.469c-4.921 12.203-18.83 18.091-31.004 13.17-12.203-4.921-18.091-18.802-13.17-31.004l19.57-48.469c4.921-12.203 18.773-18.091 31.004-13.17zM830.094 462.876l48.469 19.57c12.203 4.921 18.091 18.802 13.17 31.004s-18.802 18.091-31.004 13.17l-48.469-19.57c-12.203-4.921-18.119-18.802-13.17-31.004 4.921-12.203 18.802-18.091 31.004-13.17zM878.080 302.45c5.66 2.276 10.439 6.713 12.999 12.772 5.148 12.117-0.512 26.084-12.601 31.232l-48.1 20.423c-12.117 5.148-26.084-0.484-31.232-12.601s0.512-26.112 12.601-31.232l48.1-20.423c6.030-2.588 12.572-2.446 18.233-0.171zM731.221 561.977c5.66 2.276 10.439 6.713 13.028 12.772l20.423 48.1c5.148 12.117-0.484 26.112-12.601 31.232-12.117 5.148-26.084-0.512-31.26-12.601l-20.423-48.1c-5.148-12.117 0.512-26.084 12.601-31.232 6.059-2.588 12.572-2.446 18.233-0.171zM408.604 520.476c-82.375 0-150.016-62.834-157.753-143.161-63.602-8.505-113.607-59.932-119.666-124.302l-0.654-11.321 0.057-0.91-0.057-0.91c0-76.686 62.18-138.837 138.837-138.837h390.343c57.771 0 104.619 46.848 104.619 104.619 0 51.797-37.66 94.692-87.097 103.054l0.512 6.884c0 56.377-45.71 102.087-102.087 102.087-6.201 0-12.26-0.626-18.119-1.678-22.101 60.9-80.384 104.476-148.935 104.476zM584.107 460.060c67.413-3.897 122.596-54.158 134.087-119.268 9.956-4.267 19.285-9.586 27.876-15.787 34.361 35.897 46.649 89.884 26.852 138.951-26.937 66.731-102.884 98.987-169.614 72.050-19.712-7.964-36.324-20.281-49.38-35.271 11.634-12.174 21.845-25.771 30.18-40.676z" />
<glyph unicode="&#xe91d;" glyph-name="mostlycloudy" d="M560.185 390.4l-19.57 48.469c-4.921 12.203 0.967 26.084 13.17 31.004s26.084-0.967 31.004-13.17l19.57-48.469c4.921-12.203-0.967-26.084-13.17-31.004s-26.055 0.967-31.004 13.17zM830.094 277.988l48.469 19.57c12.203 4.921 18.091 18.802 13.17 31.004s-18.802 18.091-31.004 13.17l-48.469-19.57c-12.203-4.921-18.119-18.802-13.17-31.004 4.921-12.203 18.802-18.091 31.004-13.17zM878.080 117.561c5.66 2.276 10.439 6.713 12.999 12.772 5.148 12.117-0.512 26.084-12.601 31.232l-48.1 20.423c-12.117 5.148-26.084-0.484-31.232-12.601s0.512-26.112 12.601-31.232l48.1-20.423c6.030-2.588 12.572-2.446 18.233-0.171zM731.193 377.088c5.66 2.276 10.439 6.713 13.028 12.772l20.423 48.1c5.148 12.117-0.512 26.112-12.601 31.232-12.117 5.148-26.084-0.484-31.26-12.601l-20.423-48.1c-5.148-12.117 0.512-26.112 12.601-31.232 6.087-2.588 12.601-2.446 18.233-0.171zM408.604 335.588c-82.375 0-150.016-62.834-157.753-143.161-63.602-8.505-113.607-59.932-119.666-124.302l-0.654-11.321 0.057-0.91-0.057-0.91c0-76.686 62.18-138.837 138.837-138.837h390.343c57.771 0 104.619 46.848 104.619 104.619 0 51.797-37.66 94.692-87.097 103.054l0.512 6.884c0 56.377-45.71 102.087-102.087 102.087-6.201 0-12.26-0.626-18.119-1.678-22.101 60.9-80.384 104.476-148.935 104.476zM584.107 275.172c67.413-3.897 122.596-54.158 134.087-119.268 9.927-4.267 19.285-9.586 27.876-15.787 34.361 35.897 46.677 89.884 26.852 138.951-26.937 66.731-102.884 98.987-169.614 72.050-19.712-7.964-36.324-20.281-49.38-35.271 11.634-12.174 21.845-25.771 30.18-40.676z" />
<glyph unicode="&#xe91e;" glyph-name="hot" d="M551.993 0.427c27.051-14.194 45.34-42.724 45.34-75.406 0-47.104-38.201-85.333-85.333-85.333s-85.333 38.229-85.333 85.333c0 32.114 17.721 60.103 43.947 74.667 4.124 2.276 13.028 8.021 13.028 18.603v429.71c0 15.701 12.743 28.444 28.444 28.444s28.444-12.743 28.444-28.444v-429.71c0.028-9.7 6.372-15.189 11.463-17.863zM698.226-75.52c0 51.769-21.447 100.494-59.278 135.765l-0.74 459.804c0 70.087-57.116 127.118-127.346 127.118-69.831 0-126.606-56.86-126.606-127.46v-460.174c-37.319-35.1-58.453-83.57-58.453-135.054 0-102.855 83.541-186.51 186.226-186.51 102.656-0.028 186.197 83.655 186.197 186.51zM581.319 520.021l0.768-472.832c0-8.619 3.925-16.725 10.638-22.13 30.919-24.86 48.64-61.525 48.64-100.608 0-71.481-58.027-129.621-129.337-129.621s-129.337 58.14-129.337 129.621c0 38.912 17.465 75.378 47.929 100.068 6.656 5.404 10.524 13.54 10.524 22.101v473.799c0 38.514 31.289 69.86 69.717 69.86 38.855 0 70.457-31.516 70.457-70.258z" />
<glyph unicode="&#xe91f;" glyph-name="freezingrainL" d="M828.9 228.921c0-57.799-46.848-104.619-104.619-104.619h-390.343c-76.686 0-138.837 62.151-138.837 138.837l0.057 0.91-0.057 0.91 0.654 11.321c6.059 64.341 56.064 115.797 119.666 124.302 7.737 80.327 75.406 143.161 157.753 143.161 68.523 0 126.805-43.577 148.907-104.533 5.888 1.052 11.947 1.678 18.119 1.678 56.377 0 102.116-45.71 102.116-102.087l-0.512-6.884c49.436-8.306 87.097-51.2 87.097-102.997zM535.552 46.962c1.195 3.328-0.711 6.059-4.267 6.059h-44.629c-3.527 0-7.396-2.731-8.59-6.059l-16.299-45.397c-1.195-3.328 0.711-6.059 4.238-6.059h44.658c3.527 0 7.396 2.731 8.59 6.059l16.299 45.397zM319.090-137.5c1.28 3.556-0.768 6.457-4.523 6.457h-47.644c-3.783 0-7.908-2.901-9.188-6.457l-17.38-48.441c-1.28-3.556 0.768-6.457 4.523-6.457h47.616c3.783 0 7.908 2.901 9.188 6.457l17.408 48.441zM626.517-149.134c1.195 3.328-0.711 6.030-4.238 6.030h-44.516c-3.527 0-7.367-2.702-8.562-6.030l-16.242-45.255c-1.195-3.328 0.711-6.030 4.238-6.030h44.516c3.527 0 7.396 2.702 8.59 6.030l16.213 45.255zM624.185-96.683c11.605 0 22.528 7.168 26.709 18.716l42.354 116.338c5.376 14.763-2.247 31.090-16.981 36.466-14.763 5.348-31.090-2.247-36.466-17.010l-42.325-116.309c-5.376-14.791 2.219-31.090 16.981-36.466 3.214-1.195 6.514-1.735 9.728-1.735zM406.585-282.425c11.605 0 22.528 7.168 26.709 18.716l65.223 179.257c5.348 14.763-2.247 31.090-17.010 36.466-14.791 5.348-31.090-2.247-36.466-16.981l-65.195-179.257c-5.376-14.763 2.219-31.090 16.981-36.466 3.243-1.195 6.542-1.735 9.756-1.735zM314.652-93.611c11.634 0 22.528 7.168 26.738 18.716l42.325 116.338c5.376 14.763-2.247 31.090-16.981 36.466-14.791 5.348-31.118-2.247-36.466-17.010l-42.325-116.338c-5.376-14.763 2.247-31.090 16.981-36.466 3.214-1.166 6.514-1.707 9.728-1.707z" />
<glyph unicode="&#xe920;" glyph-name="fog" d="M707.3-34.361h-514.389c-15.701 0-28.444 12.743-28.444 28.444s12.743 28.444 28.444 28.444h514.361c15.701 0 28.444-12.743 28.444-28.444 0.028-15.701-12.715-28.444-28.416-28.444zM816.782 303.844c-0.996 103.566-84.907 187.221-188.359 187.221-65.991 0-168.846-45.454-179.627-149.447h-194.162c-15.701 0-28.444-12.743-28.444-28.444s12.743-28.444 28.444-28.444h373.049c13.653 0 24.747-11.093 24.747-24.747s-11.065-24.747-24.747-24.747h-492.032c-15.701 0-28.444-12.743-28.444-28.444s12.743-28.444 28.444-28.444h616.704c13.653 0 24.747-11.093 24.747-24.747s-11.065-24.747-24.747-24.747h-453.348l0.654-1.024c-12.203-3.186-21.248-14.194-21.248-27.42 0-15.701 12.743-28.444 28.444-28.444h493.369c64.341 0 116.594 52.196 116.594 116.622-0.028 58.709-43.548 107.207-100.039 115.257z" />
<glyph unicode="&#xe921;" glyph-name="flurries" d="M473.173 543.744c68.523 0 126.805-43.577 148.907-104.533 5.888 1.052 11.947 1.678 18.148 1.678 56.377 0 102.087-45.71 102.087-102.087l-0.512-6.884c49.436-8.363 87.097-51.257 87.097-103.054 0-57.799-46.848-104.619-104.619-104.619h-390.343c-76.686 0-138.837 62.151-138.837 138.837l0.057 0.91-0.057 0.91 0.654 11.321c6.059 64.341 56.036 115.797 119.666 124.302 7.737 80.384 75.378 143.218 157.753 143.218zM707.413-6.741l-15.019 8.676 15.019 8.676c8.505 4.921 11.406 15.787 6.514 24.292s-15.787 11.406-24.292 6.514l-15.047-8.676v17.351c0 9.813-7.964 17.778-17.778 17.778s-17.778-7.964-17.778-17.778v-17.351l-15.019 8.676c-8.505 4.892-19.399 1.991-24.292-6.514s-1.991-19.371 6.514-24.292l15.019-8.676-15.019-8.676c-8.505-4.921-11.406-15.787-6.514-24.292 3.3-5.717 9.273-8.903 15.417-8.903 3.015 0 6.059 0.768 8.875 2.361l15.019 8.676v-17.351c0-9.813 7.964-17.778 17.778-17.778s17.778 7.964 17.778 17.778v17.351l15.047-8.676c2.788-1.621 5.86-2.361 8.875-2.361 6.144 0 12.117 3.186 15.417 8.903 4.892 8.505 1.991 19.371-6.514 24.292zM562.574-145.863l-15.019 8.676 15.019 8.676c8.505 4.921 11.406 15.787 6.514 24.292s-15.787 11.406-24.292 6.514l-15.019-8.676v17.351c0 9.813-7.964 17.778-17.778 17.778s-17.778-7.964-17.778-17.778v-17.351l-15.047 8.676c-8.505 4.892-19.371 1.991-24.292-6.514s-1.991-19.371 6.514-24.292l15.019-8.676-15.019-8.676c-8.505-4.921-11.406-15.787-6.514-24.292 3.3-5.717 9.273-8.903 15.417-8.903 3.015 0 6.059 0.768 8.875 2.361l15.047 8.676v-17.38c0-9.813 7.964-17.778 17.778-17.778s17.778 7.964 17.778 17.778v17.351l15.019-8.676c2.816-1.621 5.86-2.361 8.875-2.361 6.144 0 12.117 3.186 15.417 8.903 4.921 8.505 2.020 19.399-6.514 24.32zM417.764-6.77l-15.047 8.676 15.047 8.676c8.505 4.921 11.406 15.787 6.514 24.292s-15.787 11.435-24.292 6.514l-15.019-8.676v17.38c0 9.813-7.964 17.778-17.778 17.778s-17.778-7.964-17.778-17.778v-17.38l-15.047 8.676c-8.505 4.949-19.371 2.020-24.292-6.514-4.921-8.505-1.991-19.371 6.514-24.292l15.047-8.676-15.047-8.676c-8.505-4.892-11.406-15.787-6.514-24.292 3.3-5.717 9.273-8.903 15.417-8.903 3.015 0 6.087 0.768 8.875 2.361l15.047 8.676v-17.351c0-9.813 7.964-17.778 17.778-17.778s17.778 7.964 17.778 17.778v17.351l15.019-8.676c2.788-1.621 5.86-2.361 8.875-2.361 6.144 0 12.117 3.186 15.417 8.903 4.892 8.505 1.991 19.399-6.514 24.292z" />
<glyph unicode="&#xe922;" glyph-name="cold" d="M551.993 0.427c27.051-14.194 45.34-42.724 45.34-75.406 0-47.104-38.201-85.333-85.333-85.333s-85.333 38.229-85.333 85.333c0 32.114 17.721 60.103 43.947 74.667 4.124 2.276 13.028 8.021 13.028 18.603v112.811c0 15.701 12.743 28.444 28.444 28.444s28.444-12.743 28.444-28.444v-112.811c0.028-9.7 6.372-15.189 11.463-17.863zM698.226-75.52c0 51.769-21.447 100.494-59.278 135.765l-0.74 459.804c0 70.087-57.116 127.118-127.346 127.118-69.831 0-126.606-56.86-126.606-127.46v-460.174c-37.319-35.1-58.453-83.57-58.453-135.054 0-102.855 83.541-186.51 186.226-186.51 102.656-0.028 186.197 83.655 186.197 186.51zM581.319 520.021l0.768-472.832c0-8.619 3.925-16.725 10.638-22.13 30.919-24.86 48.64-61.525 48.64-100.608 0-71.481-58.027-129.621-129.337-129.621s-129.337 58.14-129.337 129.621c0 38.912 17.465 75.378 47.929 100.068 6.656 5.404 10.524 13.54 10.524 22.101v473.799c0 38.514 31.289 69.86 69.717 69.86 38.855 0 70.457-31.516 70.457-70.258z" />
<glyph unicode="&#xe923;" glyph-name="cloudyL" d="M902.144 102.514c0-63.289-51.456-114.745-114.745-114.745h-199.481c-20.452-29.383-53.532-46.905-89.856-46.905h-291.612c-53.675 0-97.337 43.691-97.337 97.365 0 45.028 31.545 84.196 74.695 94.549 5.291 78.507 70.997 140.971 150.357 140.971 56.121 0 140.999-40.846 144.953-128.569 0.284-5.888-4.295-10.866-10.183-11.122-6.144-0.37-10.866 4.295-11.122 10.183-3.328 73.785-75.748 108.174-123.648 108.174-70.656 0-128.683-57.685-129.365-128.626-0.057-5.262-3.954-9.728-9.159-10.468-37.177-5.319-65.223-37.604-65.223-75.122 0-41.927 34.105-76.032 76.004-76.032h291.641c30.862 0 58.937 15.531 75.122 41.529l0.028 0.028c1.849 3.129 5.12 5.348 9.045 5.348h205.17c51.513 0 93.412 41.899 93.412 93.412 0 45.71-32.683 84.423-77.739 92.018-5.404 0.91-9.244 5.774-8.846 11.236l0.228 2.788 0.228 3.271c0 50.119-40.789 90.88-90.88 90.88-5.12 0-10.553-0.512-16.128-1.508-5.177-0.91-10.155 1.991-11.918 6.855-21.020 57.998-76.516 96.967-138.098 96.967-50.233 0-96.512-25.259-123.733-67.584-3.186-4.978-9.813-6.372-14.734-3.214-4.949 3.186-6.4 9.785-3.214 14.734 31.175 48.441 84.139 77.369 141.682 77.369 67.641 0 128.853-41.017 154.994-102.912l11.179 0.597c61.298 0 111.275-49.38 112.213-110.45 50.375-12.772 86.073-58.055 86.073-111.019z" />
<glyph unicode="&#xe924;" glyph-name="cloudy" d="M345.913 263.083c50.603 0 130.588-35.783 134.286-118.386l3.726 1.252c8.249 2.219 16.924 3.527 25.884 3.527 54.67 0 98.958-44.316 98.958-98.987s-44.316-98.987-98.958-98.987h-291.612c-47.815 0-86.67 38.798-86.67 86.699 0 43.634 32.37 79.673 74.354 85.675 0.74 76.999 63.118 139.207 140.032 139.207zM810.041 218.084l0.512 6.884c0 56.377-45.71 102.087-102.116 102.087-6.172 0-12.231-0.626-18.119-1.678-22.073 60.956-80.384 104.533-148.907 104.533-77.454 0-141.881-55.58-155.733-129.024 24.832-5.803 49.351-16.612 69.888-31.374 28.018-20.139 48.014-46.791 58.652-77.397 76.060-2.332 137.244-64.939 137.244-141.568 0-13.938-2.105-27.364-5.86-40.107h146.916c57.771 0 104.619 46.848 104.619 104.619 0 51.769-37.689 94.663-87.097 103.026z" />
<glyph unicode="&#xe925;" glyph-name="clearnightL" d="M478.123-67.612c-42.012 0-84.053 10.354-121.543 29.924-26.368 13.767-50.005 31.744-70.286 53.39-3.072 3.3-3.755 8.192-1.65 12.231 2.076 4.039 6.514 6.315 10.98 5.604 11.378-1.65 22.983-2.475 34.503-2.475 90.425 0 172.572 49.749 214.414 129.792 47.417 90.852 32.256 202.183-37.803 277.020-3.072 3.3-3.755 8.192-1.65 12.231 2.105 4.011 6.514 6.315 10.98 5.604 29.412-4.267 57.685-13.397 83.996-27.164 62.236-32.512 108.146-87.324 129.166-154.368 21.049-67.015 14.734-138.212-17.806-200.476-45.483-87.182-134.884-141.312-233.301-141.312zM323.556 9.813c13.198-10.98 27.563-20.565 42.923-28.587 34.446-18.005 73.045-27.506 111.644-27.506 90.453 0 172.601 49.749 214.414 129.849 29.895 57.202 35.726 122.652 16.384 184.235-19.342 61.611-61.497 111.957-118.699 141.824-15.332 8.021-31.403 14.336-47.986 18.887 58.823-80.043 68.039-187.932 21.248-277.561-45.511-87.125-134.912-141.227-233.33-141.227l-6.599 0.085z" />
<glyph unicode="&#xe926;" glyph-name="clearnight" d="M775.509 288.91c-25.458 81.095-80.981 147.428-156.302 186.766-31.829 16.668-66.048 27.733-101.632 32.882-5.348 0.768-10.752-1.934-13.284-6.798s-1.735-10.78 2.020-14.791c84.736-90.539 103.111-225.252 45.71-335.189-50.603-96.882-150.016-157.042-259.442-157.042-13.938 0-27.989 1.024-41.756 3.015-5.404 0.768-10.752-1.934-13.284-6.798s-1.735-10.78 2.020-14.791c24.519-26.197 53.134-47.929 85.049-64.597 45.369-23.694 96.228-36.21 147.058-36.21 119.097 0 227.271 65.536 282.311 171.008 39.339 75.292 46.99 161.451 21.532 242.546z" />
<glyph unicode="&#xe927;" glyph-name="cleardayL" d="M512-13.141c-113.124 0-205.141 92.046-205.141 205.141s92.018 205.141 205.141 205.141c113.095 0 205.141-92.018 205.141-205.141 0-113.095-92.046-205.141-205.141-205.141zM512 375.808c-101.348 0-183.808-82.46-183.808-183.808s82.46-183.808 183.808-183.808c101.348 0 183.808 82.46 183.808 183.808s-82.46 183.808-183.808 183.808zM514.048 441.287c5.916 0 10.667 4.779 10.667 10.667v74.297c0 5.888-4.75 10.667-10.667 10.667-5.888 0-10.667-4.779-10.667-10.667v-74.297c0-5.888 4.779-10.667 10.667-10.667zM360.875 392.875c2.162 0 4.38 0.654 6.258 2.048 4.75 3.47 5.831 10.126 2.361 14.905l-43.662 60.075c-3.47 4.75-10.126 5.803-14.905 2.361-4.779-3.47-5.803-10.126-2.361-14.905l43.691-60.103c2.048-2.873 5.319-4.38 8.619-4.38zM265.387 263.623c4.494 0 8.676 2.873 10.126 7.367 1.792 5.604-1.252 11.634-6.855 13.454l-70.628 22.983c-5.604 1.82-11.634-1.252-13.454-6.855s1.223-11.605 6.855-13.454l70.628-22.955 3.328-0.54zM193.479 80.014l3.3 0.54 70.656 22.955c5.575 1.792 8.647 7.822 6.855 13.426-1.849 5.604-7.822 8.704-13.454 6.855l-70.628-22.983c-5.604-1.82-8.676-7.822-6.827-13.426 1.394-4.523 5.575-7.367 10.098-7.367zM313.856-87.865c3.3 0 6.514 1.536 8.619 4.38l43.662 60.103c3.47 4.75 2.418 11.435-2.361 14.905s-11.435 2.389-14.905-2.361l-43.662-60.103c-3.47-4.779-2.418-11.435 2.361-14.905 1.906-1.365 4.096-2.020 6.286-2.020zM509.952-152.917c5.888 0 10.667 4.779 10.667 10.667v74.268c0 5.888-4.779 10.667-10.667 10.667s-10.667-4.779-10.667-10.667v-74.268c0-5.888 4.779-10.667 10.667-10.667zM706.788-90.311c2.19 0 4.38 0.654 6.258 2.048 4.779 3.47 5.831 10.098 2.361 14.876l-43.634 60.103c-3.47 4.75-10.126 5.831-14.905 2.361-4.75-3.47-5.831-10.126-2.361-14.905l43.662-60.103c2.076-2.873 5.319-4.38 8.619-4.38zM829.241 76.060c4.494 0 8.676 2.873 10.126 7.367 1.849 5.604-1.223 11.634-6.827 13.454l-70.628 22.983c-5.604 1.792-11.634-1.252-13.454-6.855s1.223-11.605 6.827-13.454l70.656-22.955 3.3-0.54zM759.893 259.698l3.3 0.54 70.628 22.955c5.604 1.82 8.676 7.822 6.855 13.454-1.82 5.604-7.851 8.676-13.454 6.855l-70.628-22.983c-5.604-1.82-8.647-7.822-6.855-13.426 1.479-4.523 5.66-7.396 10.155-7.396zM666.482 390.428c3.3 0 6.542 1.536 8.647 4.38l43.662 60.103c3.47 4.75 2.418 11.435-2.361 14.905s-11.435 2.389-14.905-2.361l-43.662-60.103c-3.47-4.779-2.418-11.435 2.361-14.905 1.877-1.365 4.068-2.020 6.258-2.020z" />
<glyph unicode="&#xe928;" glyph-name="clearday" d="M514.219 429.426c-19.627 0-35.556 15.929-35.556 35.556v77.995c0 19.627 15.929 35.556 35.556 35.556s35.556-15.929 35.556-35.556v-77.995c0.028-19.655-15.9-35.556-35.556-35.556zM545.451-158.976v77.995c0 19.627-15.9 35.556-35.556 35.556-19.627 0-35.556-15.929-35.556-35.556v-77.995c0-19.655 15.929-35.556 35.556-35.556 19.655 0 35.556 15.929 35.556 35.556zM898.588 189.838c0 19.627-15.929 35.556-35.556 35.556h-77.995c-19.627 0-35.556-15.929-35.556-35.556s15.929-35.556 35.556-35.556h77.995c19.655 0 35.556 15.929 35.556 35.556zM274.66 194.162c0 19.627-15.929 35.556-35.556 35.556h-77.995c-19.627 0-35.556-15.929-35.556-35.556s15.929-35.556 35.556-35.556h77.995c19.655 0 35.556 15.929 35.556 35.556zM731.762 358.343l55.154 55.154c13.881 13.881 13.881 36.409 0 50.29s-36.38 13.881-50.29 0l-55.154-55.154c-13.881-13.881-13.881-36.409 0-50.29 6.94-6.94 16.043-10.411 25.145-10.411s18.204 3.47 25.145 10.411zM287.516-79.787l55.154 55.154c13.881 13.881 13.881 36.38 0 50.29-13.881 13.881-36.409 13.881-50.29 0l-55.154-55.154c-13.881-13.881-13.881-36.38 0-50.261 6.94-6.94 16.043-10.411 25.145-10.411 9.102-0.028 18.204 3.442 25.145 10.382zM783.844-82.83c13.881 13.881 13.881 36.38 0 50.29l-55.125 55.154c-13.881 13.881-36.38 13.881-50.29 0-13.881-13.881-13.881-36.38 0-50.29l55.125-55.154c6.94-6.94 16.043-10.411 25.145-10.411s18.204 3.47 25.145 10.411zM345.714 361.415c13.881 13.881 13.881 36.409 0 50.29l-55.154 55.154c-13.881 13.881-36.409 13.881-50.29 0s-13.881-36.409 0-50.29l55.154-55.154c6.94-6.94 16.043-10.411 25.145-10.411 9.102-0.028 18.204 3.47 25.145 10.411zM512.085 386.475c-107.378 0-194.475-87.068-194.475-194.475s87.097-194.475 194.475-194.475c107.406 0 194.475 87.068 194.475 194.475-0.028 107.406-87.097 194.475-194.475 194.475z" />
</font>
</defs>
</svg>
