<svg width="10.2" height="10.2" xmlns="http://www.w3.org/2000/svg">

 <g>
  <title>background</title>
  <rect fill="none" id="canvas_background" height="12.2" width="12.2" y="-1" x="-1"/>
 </g>
 <g>
  <title>Layer 1</title>
  <path id="svg_1" d="m5.1,1.8l0.8,1.7l0.3,0.5l0.5,0.1l1.900001,0.3l-1.400001,1.4l-0.4,0.4l0.1,0.5l0.3,2l-1.6,-1l-0.5,-0.2l-0.5,0.2l-1.6,0.900001l0.3,-2l0.1,-0.5l-0.3,-0.3l-1.4,-1.4l1.9,-0.3l0.5,-0.1l0.2,-0.5l0.8,-1.7m0,-1.7c-0.2,0 -0.3,0.1 -0.4,0.3l-1.3,2.7l-2.9,0.4c-0.2,0 -0.3,0.2 -0.4,0.3c0,0.2 0,0.4 0.1,0.5l2.1,2.1l-0.5,3c0,0.200001 0,0.400001 0.2,0.5c0.1,0.1 0.2,0.1 0.3,0.1c0.1,0 0.1,0 0.2,-0.1l2.6,-1.4l2.6,1.5c0.1,0 0.1,0.1 0.2,0.1s0.2,0 0.3,-0.1c0.1,-0.1 0.2,-0.3 0.2,-0.5l-0.5,-3l2.1,-2.2c0.1,-0.1 0.2,-0.3 0.1,-0.5s-0.200001,-0.3 -0.400001,-0.3l-2.9,-0.4l-1.3,-2.8c0,-0.1 -0.2,-0.2 -0.4,-0.2z" fill="#ea7400"/>
  <path id="svg_2" d="m0,0l0,10.2l62.5,0l0,-10.2l-62.5,0zm10,4.3l-2.1,2.2l0.5,3c0,0.2 0,0.4 -0.2,0.5c-0.099999,0 -0.2,0.1 -0.3,0.1c-0.1,0 -0.1,0 -0.2,-0.1l-2.6,-1.4l-2.6,1.4c-0.2,0.1 -0.3,0.1 -0.5,0c-0.1,-0.1 -0.2,-0.3 -0.2,-0.5l0.5,-3l-2.1,-2.2c-0.1,-0.1 -0.1,-0.3 -0.1,-0.4c0.1,-0.2 0.2,-0.3 0.4,-0.3l2.9,-0.4l1.3,-2.8c0.1,-0.2 0.2,-0.3 0.4,-0.3s0.3,0.1 0.4,0.3l1.3,2.8l2.9,0.4c0.2,0 0.3,0.2 0.400001,0.3c0.099999,0.1 0,0.3 -0.1,0.4z" fill="#FFF"/>
 </g>
</svg>